%TF.GenerationSoftware,KiCad,Pcbnew,7.0.10*%
%TF.CreationDate,2024-05-30T01:56:09-07:00*%
%TF.ProjectId,APRL,4150524c-2e6b-4696-9361-645f70636258,rev?*%
%TF.SameCoordinates,Original*%
%TF.FileFunction,Soldermask,Top*%
%TF.FilePolarity,Negative*%
%FSLAX46Y46*%
G04 Gerber Fmt 4.6, Leading zero omitted, Abs format (unit mm)*
G04 Created by KiCad (PCBNEW 7.0.10) date 2024-05-30 01:56:09*
%MOMM*%
%LPD*%
G01*
G04 APERTURE LIST*
G04 Aperture macros list*
%AMRoundRect*
0 Rectangle with rounded corners*
0 $1 Rounding radius*
0 $2 $3 $4 $5 $6 $7 $8 $9 X,Y pos of 4 corners*
0 Add a 4 corners polygon primitive as box body*
4,1,4,$2,$3,$4,$5,$6,$7,$8,$9,$2,$3,0*
0 Add four circle primitives for the rounded corners*
1,1,$1+$1,$2,$3*
1,1,$1+$1,$4,$5*
1,1,$1+$1,$6,$7*
1,1,$1+$1,$8,$9*
0 Add four rect primitives between the rounded corners*
20,1,$1+$1,$2,$3,$4,$5,0*
20,1,$1+$1,$4,$5,$6,$7,0*
20,1,$1+$1,$6,$7,$8,$9,0*
20,1,$1+$1,$8,$9,$2,$3,0*%
G04 Aperture macros list end*
%ADD10RoundRect,0.225000X-0.250000X0.225000X-0.250000X-0.225000X0.250000X-0.225000X0.250000X0.225000X0*%
%ADD11RoundRect,0.250000X-0.475000X0.250000X-0.475000X-0.250000X0.475000X-0.250000X0.475000X0.250000X0*%
%ADD12C,1.400000*%
%ADD13R,3.500000X3.500000*%
%ADD14C,3.500000*%
%ADD15R,2.000000X1.500000*%
%ADD16R,2.000000X3.800000*%
%ADD17C,0.800000*%
%ADD18C,6.400000*%
%ADD19R,1.700000X1.700000*%
%ADD20O,1.700000X1.700000*%
%ADD21RoundRect,0.225000X0.250000X-0.225000X0.250000X0.225000X-0.250000X0.225000X-0.250000X-0.225000X0*%
%ADD22RoundRect,0.200000X-0.200000X-0.275000X0.200000X-0.275000X0.200000X0.275000X-0.200000X0.275000X0*%
%ADD23RoundRect,0.218750X-0.218750X-0.256250X0.218750X-0.256250X0.218750X0.256250X-0.218750X0.256250X0*%
%ADD24C,0.228600*%
%ADD25R,0.279400X0.254000*%
%ADD26R,0.254000X0.254000*%
%ADD27RoundRect,0.102000X1.000000X0.400000X-1.000000X0.400000X-1.000000X-0.400000X1.000000X-0.400000X0*%
%ADD28RoundRect,0.225000X-0.225000X-0.250000X0.225000X-0.250000X0.225000X0.250000X-0.225000X0.250000X0*%
%ADD29RoundRect,0.225000X0.225000X0.250000X-0.225000X0.250000X-0.225000X-0.250000X0.225000X-0.250000X0*%
%ADD30R,1.143000X0.711200*%
%ADD31R,0.711200X1.143000*%
%ADD32RoundRect,0.102000X0.295000X0.175000X-0.295000X0.175000X-0.295000X-0.175000X0.295000X-0.175000X0*%
%ADD33RoundRect,0.102000X0.175000X-0.295000X0.175000X0.295000X-0.175000X0.295000X-0.175000X-0.295000X0*%
%ADD34RoundRect,0.102000X-0.295000X-0.175000X0.295000X-0.175000X0.295000X0.175000X-0.295000X0.175000X0*%
%ADD35RoundRect,0.102000X-0.175000X0.295000X-0.175000X-0.295000X0.175000X-0.295000X0.175000X0.295000X0*%
%ADD36RoundRect,0.200000X0.200000X0.275000X-0.200000X0.275000X-0.200000X-0.275000X0.200000X-0.275000X0*%
%ADD37R,2.170000X2.170000*%
%ADD38C,2.500000*%
%ADD39C,1.512000*%
%ADD40C,1.462000*%
%ADD41C,1.412000*%
G04 APERTURE END LIST*
D10*
%TO.C,C14*%
X141450000Y-100975000D03*
X141450000Y-102525000D03*
%TD*%
D11*
%TO.C,C4*%
X119850000Y-124750000D03*
X119850000Y-126650000D03*
%TD*%
D12*
%TO.C,BT1*%
X144500000Y-141175000D03*
X133500000Y-141175000D03*
D13*
X136500000Y-131175000D03*
D14*
X141500000Y-131175000D03*
%TD*%
D10*
%TO.C,C13*%
X146500000Y-100475000D03*
X146500000Y-102025000D03*
%TD*%
D11*
%TO.C,C3*%
X123450000Y-124800000D03*
X123450000Y-126700000D03*
%TD*%
D15*
%TO.C,5V*%
X137250000Y-118350000D03*
X137250000Y-120650000D03*
D16*
X143550000Y-120650000D03*
D15*
X137250000Y-122950000D03*
%TD*%
D17*
%TO.C,REF\u002A\u002A*%
X124450000Y-54500000D03*
X125152944Y-52802944D03*
X125152944Y-56197056D03*
X126850000Y-52100000D03*
D18*
X126850000Y-54500000D03*
D17*
X126850000Y-56900000D03*
X128547056Y-52802944D03*
X128547056Y-56197056D03*
X129250000Y-54500000D03*
%TD*%
D19*
%TO.C,J1*%
X138100000Y-58450000D03*
D20*
X138100000Y-55910000D03*
X138100000Y-53370000D03*
%TD*%
D21*
%TO.C,C6*%
X174900000Y-108875000D03*
X174900000Y-107325000D03*
%TD*%
D22*
%TO.C,R3*%
X169975000Y-134050000D03*
X171625000Y-134050000D03*
%TD*%
%TO.C,R2*%
X117700000Y-131450000D03*
X119350000Y-131450000D03*
%TD*%
D21*
%TO.C,C2*%
X168450000Y-99975000D03*
X168450000Y-98425000D03*
%TD*%
D19*
%TO.C,SPI*%
X171150000Y-79300000D03*
D20*
X171150000Y-81840000D03*
X171150000Y-84380000D03*
%TD*%
D23*
%TO.C,Status*%
X173300000Y-134050000D03*
X174875000Y-134050000D03*
%TD*%
D17*
%TO.C,REF\u002A\u002A*%
X124450000Y-140000000D03*
X125152944Y-138302944D03*
X125152944Y-141697056D03*
X126850000Y-137600000D03*
D18*
X126850000Y-140000000D03*
D17*
X126850000Y-142400000D03*
X128547056Y-138302944D03*
X128547056Y-141697056D03*
X129250000Y-140000000D03*
%TD*%
D24*
%TO.C,Mag*%
X144150000Y-101700000D03*
X143749950Y-101700000D03*
X143349900Y-101700000D03*
X144150000Y-101299950D03*
X143749950Y-101299950D03*
X143349900Y-101299950D03*
X144150000Y-100899900D03*
X143749950Y-100899900D03*
X143349900Y-100899900D03*
%TD*%
D25*
%TO.C,Baro*%
X172710301Y-108500000D03*
X172710301Y-108000000D03*
D26*
X172449999Y-107476999D03*
X171950000Y-107476999D03*
X171450001Y-107476999D03*
D25*
X171189699Y-108000000D03*
X171189699Y-108500000D03*
D26*
X171450001Y-109023001D03*
X171950000Y-109023001D03*
X172449999Y-109023001D03*
%TD*%
D17*
%TO.C,REF\u002A\u002A*%
X164450000Y-54500000D03*
X165152944Y-52802944D03*
X165152944Y-56197056D03*
X166850000Y-52100000D03*
D18*
X166850000Y-54500000D03*
D17*
X166850000Y-56900000D03*
X168547056Y-52802944D03*
X168547056Y-56197056D03*
X169250000Y-54500000D03*
%TD*%
D15*
%TO.C,3.3V*%
X137150000Y-109200000D03*
X137150000Y-111500000D03*
D16*
X143450000Y-111500000D03*
D15*
X137150000Y-113800000D03*
%TD*%
D27*
%TO.C,Lora*%
X117300000Y-104650000D03*
X117300000Y-105920000D03*
X117300000Y-107190000D03*
X117300000Y-112760000D03*
X117300000Y-114030000D03*
X117300000Y-115300000D03*
X117300000Y-116570000D03*
X117300000Y-117840000D03*
X117300000Y-119110000D03*
X117300000Y-120380000D03*
X117300000Y-121650000D03*
X131300000Y-121650000D03*
X131300000Y-120380000D03*
X131300000Y-119110000D03*
X131300000Y-117840000D03*
X131300000Y-116570000D03*
X131300000Y-115300000D03*
X131300000Y-114030000D03*
X131300000Y-112760000D03*
X131300000Y-107190000D03*
X131300000Y-105920000D03*
X131300000Y-104650000D03*
%TD*%
D11*
%TO.C,C1*%
X126950000Y-124750000D03*
X126950000Y-126650000D03*
%TD*%
D28*
%TO.C,C16*%
X153200000Y-54900000D03*
X154750000Y-54900000D03*
%TD*%
D17*
%TO.C,REF\u002A\u002A*%
X164450000Y-140000000D03*
X165152944Y-138302944D03*
X165152944Y-141697056D03*
X166850000Y-137600000D03*
D18*
X166850000Y-140000000D03*
D17*
X166850000Y-142400000D03*
X168547056Y-138302944D03*
X168547056Y-141697056D03*
X169250000Y-140000000D03*
%TD*%
D29*
%TO.C,C12*%
X143950000Y-99050000D03*
X142400000Y-99050000D03*
%TD*%
D30*
%TO.C,GPS1*%
X151025000Y-61900001D03*
X151025000Y-60900000D03*
X151025000Y-59900000D03*
X151025000Y-58899999D03*
X151025000Y-57900001D03*
X151025000Y-56900001D03*
X151025000Y-55900000D03*
X151025000Y-54899999D03*
X151025000Y-53899999D03*
X151025000Y-52900001D03*
X151025000Y-51900000D03*
X151025000Y-50900000D03*
X151025000Y-49899999D03*
X142375000Y-49899999D03*
X142375000Y-50900000D03*
X142375000Y-51900000D03*
X142375000Y-52900001D03*
X142375000Y-53899999D03*
X142375000Y-54899999D03*
X142375000Y-55900000D03*
X142375000Y-56900001D03*
X142375000Y-57900001D03*
X142375000Y-58899999D03*
X142375000Y-59900000D03*
X142375000Y-60900000D03*
X142375000Y-61900001D03*
D31*
X144699999Y-62500002D03*
X145699999Y-62500002D03*
X146700000Y-62500002D03*
X147700001Y-62500002D03*
X148700001Y-62500002D03*
%TD*%
D10*
%TO.C,C5*%
X175200000Y-97775000D03*
X175200000Y-99325000D03*
%TD*%
D19*
%TO.C,I/O*%
X144500000Y-71200000D03*
D20*
X144500000Y-73740000D03*
X144500000Y-76280000D03*
X144500000Y-78820000D03*
X144500000Y-81360000D03*
%TD*%
D11*
%TO.C,C11*%
X146400000Y-112350000D03*
X146400000Y-114250000D03*
%TD*%
D28*
%TO.C,C15*%
X154275000Y-61900000D03*
X155825000Y-61900000D03*
%TD*%
D23*
%TO.C,3.3V*%
X121187500Y-131500000D03*
X122762500Y-131500000D03*
%TD*%
D32*
%TO.C,IMU*%
X172902500Y-98350000D03*
X172902500Y-98850000D03*
X172902500Y-99350000D03*
X172902500Y-99850000D03*
X172902500Y-100350000D03*
X172902500Y-100850000D03*
X172902500Y-101350000D03*
D33*
X171737500Y-101765000D03*
D34*
X170572500Y-101350000D03*
X170572500Y-100850000D03*
X170572500Y-100350000D03*
X170572500Y-99850000D03*
X170572500Y-99350000D03*
X170572500Y-98850000D03*
X170572500Y-98350000D03*
D35*
X171737500Y-97935000D03*
%TD*%
D28*
%TO.C,C8*%
X136775000Y-125550000D03*
X138325000Y-125550000D03*
%TD*%
D23*
%TO.C,5V*%
X121312500Y-135000000D03*
X122887500Y-135000000D03*
%TD*%
D29*
%TO.C,C9*%
X146525000Y-125550000D03*
X144975000Y-125550000D03*
%TD*%
D28*
%TO.C,C10*%
X136600000Y-116000000D03*
X138150000Y-116000000D03*
%TD*%
D36*
%TO.C,R1*%
X119450000Y-135000000D03*
X117800000Y-135000000D03*
%TD*%
D37*
%TO.C,BAT1*%
X128350000Y-94225700D03*
D38*
X128350000Y-74225700D03*
%TD*%
D29*
%TO.C,C7*%
X172800000Y-110750000D03*
X171250000Y-110750000D03*
%TD*%
D19*
%TO.C,SPI1*%
X171050000Y-89525000D03*
D20*
X171050000Y-92065000D03*
X171050000Y-94605000D03*
%TD*%
D39*
%TO.C,MCU1*%
X164700000Y-131530000D03*
X164700000Y-128990000D03*
X164700000Y-126450000D03*
X164700000Y-123910000D03*
X164700000Y-98510000D03*
X149460000Y-128990000D03*
X159620000Y-88350000D03*
X164700000Y-121370000D03*
X164700000Y-118830000D03*
D40*
X161650000Y-127720000D03*
D39*
X164700000Y-116290000D03*
X164700000Y-113750000D03*
X164700000Y-111210000D03*
X164700000Y-108670000D03*
X164700000Y-106130000D03*
X164700000Y-103590000D03*
X164700000Y-101050000D03*
X149460000Y-101050000D03*
X149460000Y-103590000D03*
X149460000Y-106130000D03*
X149460000Y-108670000D03*
X149460000Y-111210000D03*
X149460000Y-113750000D03*
X149460000Y-116290000D03*
X149460000Y-118830000D03*
X149460000Y-121370000D03*
X149460000Y-123910000D03*
X149460000Y-126450000D03*
X164700000Y-95970000D03*
X164700000Y-93430000D03*
X164700000Y-90890000D03*
X164700000Y-88350000D03*
X164700000Y-85810000D03*
X164700000Y-83270000D03*
X164700000Y-80730000D03*
X164700000Y-78190000D03*
X164700000Y-75650000D03*
X149460000Y-75650000D03*
X149460000Y-78190000D03*
X149460000Y-80730000D03*
X149460000Y-83270000D03*
X149460000Y-85810000D03*
X149460000Y-88350000D03*
X149460000Y-90890000D03*
X149460000Y-93430000D03*
X149460000Y-95970000D03*
D40*
X161650000Y-122640000D03*
X161650000Y-125180000D03*
D39*
X164700000Y-134070000D03*
X149460000Y-98510000D03*
X149460000Y-131530000D03*
X157080000Y-88350000D03*
D41*
X153910000Y-119100000D03*
X153910000Y-121100000D03*
D39*
X152000000Y-88350000D03*
X154540000Y-88350000D03*
D41*
X151910000Y-121100000D03*
X151910000Y-119100000D03*
X155910000Y-119100000D03*
X155910000Y-121100000D03*
D40*
X161650000Y-120100000D03*
X161650000Y-117560000D03*
D39*
X162160000Y-88350000D03*
X149460000Y-134070000D03*
X152000000Y-131530000D03*
%TD*%
D19*
%TO.C,I2C*%
X172250000Y-116350000D03*
D20*
X172250000Y-113810000D03*
%TD*%
M02*
