%TF.GenerationSoftware,KiCad,Pcbnew,8.0.3*%
%TF.CreationDate,2024-06-26T01:00:06-05:00*%
%TF.ProjectId,APRL,4150524c-2e6b-4696-9361-645f70636258,rev?*%
%TF.SameCoordinates,Original*%
%TF.FileFunction,Paste,Top*%
%TF.FilePolarity,Positive*%
%FSLAX46Y46*%
G04 Gerber Fmt 4.6, Leading zero omitted, Abs format (unit mm)*
G04 Created by KiCad (PCBNEW 8.0.3) date 2024-06-26 01:00:06*
%MOMM*%
%LPD*%
G01*
G04 APERTURE LIST*
G04 Aperture macros list*
%AMRoundRect*
0 Rectangle with rounded corners*
0 $1 Rounding radius*
0 $2 $3 $4 $5 $6 $7 $8 $9 X,Y pos of 4 corners*
0 Add a 4 corners polygon primitive as box body*
4,1,4,$2,$3,$4,$5,$6,$7,$8,$9,$2,$3,0*
0 Add four circle primitives for the rounded corners*
1,1,$1+$1,$2,$3*
1,1,$1+$1,$4,$5*
1,1,$1+$1,$6,$7*
1,1,$1+$1,$8,$9*
0 Add four rect primitives between the rounded corners*
20,1,$1+$1,$2,$3,$4,$5,0*
20,1,$1+$1,$4,$5,$6,$7,0*
20,1,$1+$1,$6,$7,$8,$9,0*
20,1,$1+$1,$8,$9,$2,$3,0*%
G04 Aperture macros list end*
%ADD10R,1.446500X0.711200*%
%ADD11R,0.711200X1.371498*%
%ADD12R,0.279400X0.254000*%
%ADD13R,0.254000X0.254000*%
%ADD14R,0.590000X0.350000*%
%ADD15R,0.350000X0.590000*%
%ADD16R,2.400000X0.800000*%
%ADD17R,2.400000X0.780000*%
%ADD18R,2.400000X0.790000*%
%ADD19R,2.000000X1.500000*%
%ADD20R,2.000000X3.800000*%
%ADD21RoundRect,0.225000X-0.250000X0.225000X-0.250000X-0.225000X0.250000X-0.225000X0.250000X0.225000X0*%
%ADD22RoundRect,0.250000X-0.475000X0.250000X-0.475000X-0.250000X0.475000X-0.250000X0.475000X0.250000X0*%
%ADD23RoundRect,0.225000X0.250000X-0.225000X0.250000X0.225000X-0.250000X0.225000X-0.250000X-0.225000X0*%
%ADD24RoundRect,0.200000X-0.200000X-0.275000X0.200000X-0.275000X0.200000X0.275000X-0.200000X0.275000X0*%
%ADD25RoundRect,0.218750X-0.218750X-0.256250X0.218750X-0.256250X0.218750X0.256250X-0.218750X0.256250X0*%
%ADD26C,0.228600*%
%ADD27RoundRect,0.225000X-0.225000X-0.250000X0.225000X-0.250000X0.225000X0.250000X-0.225000X0.250000X0*%
%ADD28RoundRect,0.225000X0.225000X0.250000X-0.225000X0.250000X-0.225000X-0.250000X0.225000X-0.250000X0*%
%ADD29RoundRect,0.200000X0.200000X0.275000X-0.200000X0.275000X-0.200000X-0.275000X0.200000X-0.275000X0*%
G04 APERTURE END LIST*
D10*
%TO.C,GPS1*%
X151176750Y-61900001D03*
X151176750Y-60900000D03*
X151176750Y-59900000D03*
X151176750Y-58899999D03*
X151176750Y-57900001D03*
X151176750Y-56900001D03*
X151176750Y-55900000D03*
X151176750Y-54899999D03*
X151176750Y-53899999D03*
X151176750Y-52900001D03*
X151176750Y-51900000D03*
X151176750Y-50900000D03*
X151176750Y-49899999D03*
X142223250Y-49899999D03*
X142223250Y-50900000D03*
X142223250Y-51900000D03*
X142223250Y-52900001D03*
X142223250Y-53899999D03*
X142223250Y-54899999D03*
X142223250Y-55900000D03*
X142223250Y-56900001D03*
X142223250Y-57900001D03*
X142223250Y-58899999D03*
X142223250Y-59900000D03*
X142223250Y-60900000D03*
X142223250Y-61900001D03*
D11*
X144699999Y-62614251D03*
X145699999Y-62614251D03*
X146700000Y-62614251D03*
X147700001Y-62614251D03*
X148700001Y-62614251D03*
%TD*%
D12*
%TO.C,Baro1*%
X172710301Y-108500000D03*
X172710301Y-108000000D03*
D13*
X172449999Y-107476999D03*
X171950000Y-107476999D03*
X171450001Y-107476999D03*
D12*
X171189699Y-108000000D03*
X171189699Y-108500000D03*
D13*
X171450001Y-109023001D03*
X171950000Y-109023001D03*
X172449999Y-109023001D03*
%TD*%
D14*
%TO.C,IMU1*%
X172902500Y-98350000D03*
X172902500Y-98850000D03*
X172902500Y-99350000D03*
X172902500Y-99850000D03*
X172902500Y-100350000D03*
X172902500Y-100850000D03*
X172902500Y-101350000D03*
D15*
X171737500Y-101765000D03*
D14*
X170572500Y-101350000D03*
X170572500Y-100850000D03*
X170572500Y-100350000D03*
X170572500Y-99850000D03*
X170572500Y-99350000D03*
X170572500Y-98850000D03*
X170572500Y-98350000D03*
D15*
X171737500Y-97935000D03*
%TD*%
D16*
%TO.C,Lora1*%
X117100000Y-104650000D03*
X117100000Y-105920000D03*
X117100000Y-107190000D03*
X117100000Y-112760000D03*
D17*
X117100000Y-114040000D03*
D16*
X117100000Y-115300000D03*
X117100000Y-116570000D03*
D18*
X117100000Y-117845000D03*
D16*
X117100000Y-119110000D03*
X117100000Y-120380000D03*
X117100000Y-121650000D03*
X131500000Y-121650000D03*
X131500000Y-120380000D03*
X131500000Y-119110000D03*
D18*
X131500000Y-117845000D03*
D16*
X131500000Y-116570000D03*
X131500000Y-115300000D03*
D17*
X131500000Y-114040000D03*
D16*
X131500000Y-112760000D03*
X131500000Y-107190000D03*
X131500000Y-105920000D03*
X131500000Y-104650000D03*
%TD*%
D19*
%TO.C,3.3V1*%
X137150000Y-109200000D03*
X137150000Y-111500000D03*
D20*
X143450000Y-111500000D03*
D19*
X137150000Y-113800000D03*
%TD*%
D21*
%TO.C,C14*%
X117000000Y-75075050D03*
X117000000Y-76625050D03*
%TD*%
D22*
%TO.C,C4*%
X119850000Y-124750000D03*
X119850000Y-126650000D03*
%TD*%
D21*
%TO.C,C13*%
X122050000Y-74575050D03*
X122050000Y-76125050D03*
%TD*%
D22*
%TO.C,C3*%
X123450000Y-124800000D03*
X123450000Y-126700000D03*
%TD*%
D19*
%TO.C,5V1*%
X137250000Y-118350000D03*
X137250000Y-120650000D03*
D20*
X143550000Y-120650000D03*
D19*
X137250000Y-122950000D03*
%TD*%
D23*
%TO.C,C6*%
X174900000Y-108875000D03*
X174900000Y-107325000D03*
%TD*%
D24*
%TO.C,R3*%
X169975000Y-134050000D03*
X171625000Y-134050000D03*
%TD*%
%TO.C,R2*%
X117700000Y-131450000D03*
X119350000Y-131450000D03*
%TD*%
D23*
%TO.C,C2*%
X168450000Y-99975000D03*
X168450000Y-98425000D03*
%TD*%
D25*
%TO.C,D3*%
X173300000Y-134050000D03*
X174875000Y-134050000D03*
%TD*%
D26*
%TO.C,Mag1*%
X119700000Y-75800050D03*
X119299950Y-75800050D03*
X118899900Y-75800050D03*
X119700000Y-75400000D03*
X119299950Y-75400000D03*
X118899900Y-75400000D03*
X119700000Y-74999950D03*
X119299950Y-74999950D03*
X118899900Y-74999950D03*
%TD*%
D22*
%TO.C,C1*%
X126950000Y-124750000D03*
X126950000Y-126650000D03*
%TD*%
D27*
%TO.C,C16*%
X153200000Y-54900000D03*
X154750000Y-54900000D03*
%TD*%
D28*
%TO.C,C12*%
X119500000Y-73150050D03*
X117950000Y-73150050D03*
%TD*%
D21*
%TO.C,C5*%
X175200000Y-97775000D03*
X175200000Y-99325000D03*
%TD*%
D22*
%TO.C,C11*%
X146400000Y-112350000D03*
X146400000Y-114250000D03*
%TD*%
D27*
%TO.C,C15*%
X154275000Y-61900000D03*
X155825000Y-61900000D03*
%TD*%
D25*
%TO.C,D2*%
X121187500Y-131500000D03*
X122762500Y-131500000D03*
%TD*%
D27*
%TO.C,C8*%
X136775000Y-125550000D03*
X138325000Y-125550000D03*
%TD*%
D25*
%TO.C,D1*%
X121312500Y-135000000D03*
X122887500Y-135000000D03*
%TD*%
D28*
%TO.C,C9*%
X146525000Y-125550000D03*
X144975000Y-125550000D03*
%TD*%
D27*
%TO.C,C10*%
X136600000Y-116000000D03*
X138150000Y-116000000D03*
%TD*%
D29*
%TO.C,R1*%
X119450000Y-135000000D03*
X117800000Y-135000000D03*
%TD*%
D28*
%TO.C,C7*%
X172800000Y-110750000D03*
X171250000Y-110750000D03*
%TD*%
M02*
