%TF.GenerationSoftware,KiCad,Pcbnew,7.0.10*%
%TF.CreationDate,2024-05-30T01:56:08-07:00*%
%TF.ProjectId,APRL,4150524c-2e6b-4696-9361-645f70636258,rev?*%
%TF.SameCoordinates,Original*%
%TF.FileFunction,Paste,Top*%
%TF.FilePolarity,Positive*%
%FSLAX46Y46*%
G04 Gerber Fmt 4.6, Leading zero omitted, Abs format (unit mm)*
G04 Created by KiCad (PCBNEW 7.0.10) date 2024-05-30 01:56:08*
%MOMM*%
%LPD*%
G01*
G04 APERTURE LIST*
G04 Aperture macros list*
%AMRoundRect*
0 Rectangle with rounded corners*
0 $1 Rounding radius*
0 $2 $3 $4 $5 $6 $7 $8 $9 X,Y pos of 4 corners*
0 Add a 4 corners polygon primitive as box body*
4,1,4,$2,$3,$4,$5,$6,$7,$8,$9,$2,$3,0*
0 Add four circle primitives for the rounded corners*
1,1,$1+$1,$2,$3*
1,1,$1+$1,$4,$5*
1,1,$1+$1,$6,$7*
1,1,$1+$1,$8,$9*
0 Add four rect primitives between the rounded corners*
20,1,$1+$1,$2,$3,$4,$5,0*
20,1,$1+$1,$4,$5,$6,$7,0*
20,1,$1+$1,$6,$7,$8,$9,0*
20,1,$1+$1,$8,$9,$2,$3,0*%
G04 Aperture macros list end*
%ADD10RoundRect,0.225000X-0.250000X0.225000X-0.250000X-0.225000X0.250000X-0.225000X0.250000X0.225000X0*%
%ADD11RoundRect,0.250000X-0.475000X0.250000X-0.475000X-0.250000X0.475000X-0.250000X0.475000X0.250000X0*%
%ADD12R,2.000000X1.500000*%
%ADD13R,2.000000X3.800000*%
%ADD14RoundRect,0.225000X0.250000X-0.225000X0.250000X0.225000X-0.250000X0.225000X-0.250000X-0.225000X0*%
%ADD15RoundRect,0.200000X-0.200000X-0.275000X0.200000X-0.275000X0.200000X0.275000X-0.200000X0.275000X0*%
%ADD16RoundRect,0.218750X-0.218750X-0.256250X0.218750X-0.256250X0.218750X0.256250X-0.218750X0.256250X0*%
%ADD17C,0.228600*%
%ADD18R,0.279400X0.254000*%
%ADD19R,0.254000X0.254000*%
%ADD20R,2.000000X0.800000*%
%ADD21RoundRect,0.225000X-0.225000X-0.250000X0.225000X-0.250000X0.225000X0.250000X-0.225000X0.250000X0*%
%ADD22RoundRect,0.225000X0.225000X0.250000X-0.225000X0.250000X-0.225000X-0.250000X0.225000X-0.250000X0*%
%ADD23R,1.143000X0.711200*%
%ADD24R,0.711200X1.143000*%
%ADD25R,0.590000X0.350000*%
%ADD26R,0.350000X0.590000*%
%ADD27RoundRect,0.200000X0.200000X0.275000X-0.200000X0.275000X-0.200000X-0.275000X0.200000X-0.275000X0*%
G04 APERTURE END LIST*
D10*
%TO.C,C14*%
X141450000Y-100975000D03*
X141450000Y-102525000D03*
%TD*%
D11*
%TO.C,C4*%
X119850000Y-124750000D03*
X119850000Y-126650000D03*
%TD*%
D10*
%TO.C,C13*%
X146500000Y-100475000D03*
X146500000Y-102025000D03*
%TD*%
D11*
%TO.C,C3*%
X123450000Y-124800000D03*
X123450000Y-126700000D03*
%TD*%
D12*
%TO.C,5V*%
X137250000Y-118350000D03*
X137250000Y-120650000D03*
D13*
X143550000Y-120650000D03*
D12*
X137250000Y-122950000D03*
%TD*%
D14*
%TO.C,C6*%
X174900000Y-108875000D03*
X174900000Y-107325000D03*
%TD*%
D15*
%TO.C,R3*%
X169975000Y-134050000D03*
X171625000Y-134050000D03*
%TD*%
%TO.C,R2*%
X117700000Y-131450000D03*
X119350000Y-131450000D03*
%TD*%
D14*
%TO.C,C2*%
X168450000Y-99975000D03*
X168450000Y-98425000D03*
%TD*%
D16*
%TO.C,Status*%
X173300000Y-134050000D03*
X174875000Y-134050000D03*
%TD*%
D17*
%TO.C,Mag*%
X144150000Y-101700000D03*
X143749950Y-101700000D03*
X143349900Y-101700000D03*
X144150000Y-101299950D03*
X143749950Y-101299950D03*
X143349900Y-101299950D03*
X144150000Y-100899900D03*
X143749950Y-100899900D03*
X143349900Y-100899900D03*
%TD*%
D18*
%TO.C,Baro*%
X172710301Y-108500000D03*
X172710301Y-108000000D03*
D19*
X172449999Y-107476999D03*
X171950000Y-107476999D03*
X171450001Y-107476999D03*
D18*
X171189699Y-108000000D03*
X171189699Y-108500000D03*
D19*
X171450001Y-109023001D03*
X171950000Y-109023001D03*
X172449999Y-109023001D03*
%TD*%
D12*
%TO.C,3.3V*%
X137150000Y-109200000D03*
X137150000Y-111500000D03*
D13*
X143450000Y-111500000D03*
D12*
X137150000Y-113800000D03*
%TD*%
D20*
%TO.C,Lora*%
X117300000Y-104650000D03*
X117300000Y-105920000D03*
X117300000Y-107190000D03*
X117300000Y-112760000D03*
X117300000Y-114030000D03*
X117300000Y-115300000D03*
X117300000Y-116570000D03*
X117300000Y-117840000D03*
X117300000Y-119110000D03*
X117300000Y-120380000D03*
X117300000Y-121650000D03*
X131300000Y-121650000D03*
X131300000Y-120380000D03*
X131300000Y-119110000D03*
X131300000Y-117840000D03*
X131300000Y-116570000D03*
X131300000Y-115300000D03*
X131300000Y-114030000D03*
X131300000Y-112760000D03*
X131300000Y-107190000D03*
X131300000Y-105920000D03*
X131300000Y-104650000D03*
%TD*%
D11*
%TO.C,C1*%
X126950000Y-124750000D03*
X126950000Y-126650000D03*
%TD*%
D21*
%TO.C,C16*%
X153200000Y-54900000D03*
X154750000Y-54900000D03*
%TD*%
D22*
%TO.C,C12*%
X143950000Y-99050000D03*
X142400000Y-99050000D03*
%TD*%
D23*
%TO.C,GPS1*%
X151025000Y-61900001D03*
X151025000Y-60900000D03*
X151025000Y-59900000D03*
X151025000Y-58899999D03*
X151025000Y-57900001D03*
X151025000Y-56900001D03*
X151025000Y-55900000D03*
X151025000Y-54899999D03*
X151025000Y-53899999D03*
X151025000Y-52900001D03*
X151025000Y-51900000D03*
X151025000Y-50900000D03*
X151025000Y-49899999D03*
X142375000Y-49899999D03*
X142375000Y-50900000D03*
X142375000Y-51900000D03*
X142375000Y-52900001D03*
X142375000Y-53899999D03*
X142375000Y-54899999D03*
X142375000Y-55900000D03*
X142375000Y-56900001D03*
X142375000Y-57900001D03*
X142375000Y-58899999D03*
X142375000Y-59900000D03*
X142375000Y-60900000D03*
X142375000Y-61900001D03*
D24*
X144699999Y-62500002D03*
X145699999Y-62500002D03*
X146700000Y-62500002D03*
X147700001Y-62500002D03*
X148700001Y-62500002D03*
%TD*%
D10*
%TO.C,C5*%
X175200000Y-97775000D03*
X175200000Y-99325000D03*
%TD*%
D11*
%TO.C,C11*%
X146400000Y-112350000D03*
X146400000Y-114250000D03*
%TD*%
D21*
%TO.C,C15*%
X154275000Y-61900000D03*
X155825000Y-61900000D03*
%TD*%
D16*
%TO.C,3.3V*%
X121187500Y-131500000D03*
X122762500Y-131500000D03*
%TD*%
D25*
%TO.C,IMU*%
X172902500Y-98350000D03*
X172902500Y-98850000D03*
X172902500Y-99350000D03*
X172902500Y-99850000D03*
X172902500Y-100350000D03*
X172902500Y-100850000D03*
X172902500Y-101350000D03*
D26*
X171737500Y-101765000D03*
D25*
X170572500Y-101350000D03*
X170572500Y-100850000D03*
X170572500Y-100350000D03*
X170572500Y-99850000D03*
X170572500Y-99350000D03*
X170572500Y-98850000D03*
X170572500Y-98350000D03*
D26*
X171737500Y-97935000D03*
%TD*%
D21*
%TO.C,C8*%
X136775000Y-125550000D03*
X138325000Y-125550000D03*
%TD*%
D16*
%TO.C,5V*%
X121312500Y-135000000D03*
X122887500Y-135000000D03*
%TD*%
D22*
%TO.C,C9*%
X146525000Y-125550000D03*
X144975000Y-125550000D03*
%TD*%
D21*
%TO.C,C10*%
X136600000Y-116000000D03*
X138150000Y-116000000D03*
%TD*%
D27*
%TO.C,R1*%
X119450000Y-135000000D03*
X117800000Y-135000000D03*
%TD*%
D22*
%TO.C,C7*%
X172800000Y-110750000D03*
X171250000Y-110750000D03*
%TD*%
M02*
