M48
; DRILL file {KiCad 8.0.3} date 2024-06-26T01:00:08-0500
; FORMAT={-:-/ absolute / inch / decimal}
; #@! TF.CreationDate,2024-06-26T01:00:08-05:00
; #@! TF.GenerationSoftware,Kicad,Pcbnew,8.0.3
; #@! TF.FileFunction,Plated,1,2,PTH
FMAT,2
INCH
; #@! TA.AperFunction,Plated,PTH,ViaDrill
T1C0.0079
; #@! TA.AperFunction,Plated,PTH,ViaDrill
T2C0.0098
; #@! TA.AperFunction,Plated,PTH,ViaDrill
T3C0.0157
; #@! TA.AperFunction,Plated,PTH,ComponentDrill
T4C0.0197
; #@! TA.AperFunction,Plated,PTH,ComponentDrill
T5C0.0276
; #@! TA.AperFunction,Plated,PTH,ComponentDrill
T6C0.0295
; #@! TA.AperFunction,Plated,PTH,ComponentDrill
T7C0.0315
; #@! TA.AperFunction,Plated,PTH,ComponentDrill
T8C0.0394
; #@! TA.AperFunction,Plated,PTH,ComponentDrill
T9C0.0461
; #@! TA.AperFunction,Plated,PTH,ComponentDrill
T10C0.0470
; #@! TA.AperFunction,Plated,PTH,ComponentDrill
T11C0.0591
; #@! TA.AperFunction,Plated,PTH,ComponentDrill
T12C0.1260
%
G90
G05
T1
X4.563Y-3.0079
X4.563Y-3.0354
X4.5984Y-2.8583
X4.5984Y-2.8858
X4.5984Y-2.9134
X4.8465Y-2.9843
X4.8465Y-3.0118
X5.0394Y-4.5354
X5.0866Y-4.498
X5.2264Y-4.435
X5.2323Y-4.4803
X5.2323Y-5.2756
X5.2362Y-5.4331
X5.2559Y-4.6969
X5.2559Y-4.7539
X5.2598Y-4.6496
X5.2992Y-4.2992
X5.3031Y-5.4331
X5.3583Y-5.2756
X5.3622Y-5.4331
X5.4232Y-5.4331
X5.4252Y-5.2756
X5.4882Y-5.2756
X5.4882Y-5.4331
X5.5276Y-3.7323
X5.5512Y-3.9331
X5.5512Y-4.0197
X5.5512Y-5.2756
X5.5512Y-5.4331
X5.5551Y-3.8543
X5.6102Y-5.2756
X5.6102Y-5.4331
X5.6299Y-3.8583
X5.6299Y-3.9331
X5.6299Y-4.0197
X5.6693Y-5.2756
X5.6693Y-5.315
X5.6791Y-5.4331
X5.6791Y-5.4724
X5.6791Y-5.5118
X5.6791Y-5.5512
X5.7087Y-5.2756
X5.7087Y-5.315
X5.7126Y-3.8583
X5.7126Y-3.937
X5.7126Y-4.0197
X5.748Y-5.2756
X5.748Y-5.315
X5.7874Y-5.2756
X5.7874Y-5.315
X5.7913Y-3.8622
X5.7913Y-3.9409
X5.7913Y-4.0197
X6.378Y-2.4016
X6.378Y-2.4409
X6.378Y-2.4803
X6.378Y-2.5197
X6.378Y-2.5591
X6.378Y-2.5984
X6.378Y-2.6378
X6.378Y-2.6772
X6.378Y-2.7165
X6.378Y-2.7559
X6.378Y-2.7953
X6.4173Y-2.4016
X6.4173Y-2.7953
X6.4567Y-2.4016
X6.4567Y-2.7953
X6.4961Y-2.4016
X6.4961Y-2.7953
X6.5354Y-2.4016
X6.5354Y-2.7953
X6.5591Y-3.935
X6.5748Y-2.4016
X6.5748Y-2.7953
X6.6043Y-3.8051
X6.6142Y-2.4016
X6.6142Y-2.7953
X6.6535Y-2.4016
X6.6535Y-2.7953
X6.6772Y-3.9252
X6.685Y-3.8071
X6.6929Y-2.4016
X6.7323Y-2.4016
X6.7559Y-3.8189
X6.7717Y-2.4016
X6.811Y-2.4016
X6.8465Y-3.8898
X6.8504Y-2.4016
X6.8504Y-4.0
X6.8504Y-4.0276
X6.8819Y-4.3957
X6.8819Y-4.7244
X6.8878Y-4.1831
X6.8937Y-4.0453
X6.8976Y-3.8031
T2
X4.5935Y-5.1772
X4.5935Y-5.315
X4.626Y-5.5118
X4.685Y-4.2224
X4.685Y-5.1181
X4.687Y-4.122
X4.689Y-4.1732
X4.6909Y-4.4429
X4.6929Y-4.4902
X4.7146Y-4.2224
X4.7165Y-4.1713
X4.7185Y-4.122
X4.7224Y-4.4902
X4.7244Y-3.3465
X4.7244Y-3.5433
X4.7244Y-3.7402
X4.7244Y-4.4449
X4.7244Y-5.5118
X4.7638Y-5.1181
X4.8228Y-4.1339
X4.8228Y-4.2323
X4.8228Y-4.3307
X4.8228Y-4.4291
X4.8228Y-4.5276
X4.8228Y-5.5118
X4.8425Y-5.1181
X4.9213Y-3.1496
X4.9213Y-3.3465
X4.9213Y-3.5433
X4.9213Y-4.1339
X4.9213Y-4.2323
X4.9213Y-4.3307
X4.9213Y-4.4291
X4.9213Y-4.5276
X4.9213Y-4.626
X4.9213Y-5.1181
X5.0Y-5.1181
X5.0197Y-4.626
X5.1181Y-3.1496
X5.1181Y-3.3465
X5.1181Y-3.5433
X5.1693Y-4.8386
X5.2165Y-1.9685
X5.2165Y-2.0669
X5.2165Y-2.1654
X5.2165Y-2.4606
X5.2165Y-2.6575
X5.2441Y-4.122
X5.2441Y-4.2224
X5.2756Y-4.122
X5.2756Y-4.2244
X5.315Y-1.9685
X5.315Y-2.0669
X5.315Y-2.1654
X5.315Y-2.4606
X5.315Y-2.6575
X5.315Y-3.1496
X5.315Y-3.3465
X5.315Y-3.5433
X5.315Y-3.937
X5.4134Y-1.9685
X5.4134Y-2.0669
X5.4134Y-2.1654
X5.4134Y-3.937
X5.4803Y-4.3031
X5.4921Y-1.9685
X5.4921Y-2.0669
X5.4941Y-4.5669
X5.5413Y-1.9685
X5.5413Y-2.0079
X5.5413Y-2.0472
X5.5413Y-2.0866
X5.5433Y-2.124
X5.5433Y-2.1614
X5.6969Y-2.5138
X5.7992Y-4.5728
X5.8563Y-2.5118
X6.0039Y-2.5591
X6.0039Y-2.6575
X6.0039Y-2.7559
X6.0039Y-3.0512
X6.0039Y-3.1496
X6.0039Y-3.248
X6.0039Y-5.5118
X6.0059Y-1.9626
X6.0059Y-2.002
X6.0059Y-2.0413
X6.0059Y-2.0846
X6.1024Y-1.9685
X6.1024Y-3.7402
X6.1024Y-3.937
X6.1024Y-4.1339
X6.1024Y-4.2323
X6.1024Y-4.9213
X6.1024Y-5.0197
X6.1024Y-5.1181
X6.1024Y-5.5118
X6.1457Y-2.1614
X6.189Y-2.439
X6.2008Y-1.9685
X6.2008Y-2.0669
X6.2008Y-2.1654
X6.2008Y-2.2638
X6.2008Y-3.0512
X6.2008Y-3.1496
X6.2008Y-3.248
X6.2008Y-4.9213
X6.2008Y-5.0197
X6.2008Y-5.1181
X6.2008Y-5.5118
X6.2992Y-1.9685
X6.2992Y-2.0669
X6.2992Y-2.1654
X6.2992Y-2.2638
X6.2992Y-3.0512
X6.2992Y-3.1496
X6.2992Y-3.248
X6.2992Y-3.7402
X6.2992Y-4.0354
X6.2992Y-4.1339
X6.2992Y-4.2323
X6.2992Y-5.5118
X6.3976Y-5.5118
X6.5748Y-4.1732
X6.5748Y-4.2126
X6.5748Y-4.3307
X6.5748Y-4.3701
X6.5748Y-4.6457
X6.5748Y-4.685
X6.5945Y-4.8228
X6.5945Y-4.9213
X6.5945Y-5.0197
X6.6142Y-4.1732
X6.6142Y-4.2126
X6.6142Y-4.3307
X6.6142Y-4.3701
X6.6142Y-4.6457
X6.6142Y-4.685
X6.6339Y-3.8386
X6.6535Y-4.6457
X6.6535Y-4.685
X6.6929Y-2.7953
X6.6929Y-4.0945
X6.6929Y-4.8228
X6.6929Y-4.9213
X6.6929Y-5.0197
X6.7323Y-2.7953
X6.7717Y-2.7953
X6.7913Y-4.8228
X6.7913Y-4.9213
X6.7913Y-5.0197
X6.7913Y-5.1181
X6.8051Y-5.3228
X6.811Y-2.7953
X6.8406Y-3.8287
X6.8504Y-2.4409
X6.8504Y-2.4803
X6.8504Y-2.5197
X6.8504Y-2.5591
X6.8504Y-2.5984
X6.8504Y-2.6378
X6.8504Y-2.6772
X6.8504Y-2.7165
X6.8504Y-2.7559
X6.8504Y-2.7953
X6.8504Y-3.9665
X6.8898Y-4.8228
X6.8898Y-4.9213
X6.8898Y-5.0197
X6.8898Y-5.1181
T3
X4.6516Y-4.9823
X4.687Y-4.752
X4.687Y-4.7972
X4.7441Y-4.6142
X4.7441Y-4.7008
X4.748Y-4.5394
X4.7933Y-4.9862
X4.9055Y-2.937
X4.9173Y-3.7402
X4.9173Y-3.8622
X4.9331Y-4.9862
X5.065Y-4.9862
X5.1181Y-3.7441
X5.315Y-5.0591
X5.4528Y-5.0591
X5.502Y-4.9449
X5.5217Y-5.0591
X5.5906Y-5.0591
X5.6496Y-5.0591
X5.6496Y-5.1181
X5.6555Y-4.9469
X5.7087Y-5.0591
X5.7087Y-5.1181
X5.8701Y-2.122
X5.8701Y-2.2047
X6.1024Y-5.6102
X6.2008Y-5.6102
X6.2992Y-5.6102
X6.3976Y-5.6102
X6.6791Y-4.3622
T4
X4.8996Y-2.1457
X4.8996Y-5.5118
X4.9273Y-2.0789
X4.9273Y-2.2125
X4.9273Y-5.445
X4.9273Y-5.5786
X4.9941Y-2.0512
X4.9941Y-2.2402
X4.9941Y-5.4173
X4.9941Y-5.6063
X5.0609Y-2.0789
X5.0609Y-2.2125
X5.0609Y-5.445
X5.0609Y-5.5786
X5.0886Y-2.1457
X5.0886Y-5.5118
X6.4744Y-2.1457
X6.4744Y-5.5118
X6.5021Y-2.0789
X6.5021Y-2.2125
X6.5021Y-5.445
X6.5021Y-5.5786
X6.5689Y-2.0512
X6.5689Y-2.2402
X6.5689Y-5.4173
X6.5689Y-5.6063
X6.6357Y-2.0789
X6.6357Y-2.2125
X6.6357Y-5.445
X6.6357Y-5.5786
X6.6634Y-2.1457
X6.6634Y-5.5118
T5
X5.9807Y-4.689
X5.9807Y-4.7677
X6.0594Y-4.689
X6.0594Y-4.7677
X6.1382Y-4.689
X6.1382Y-4.7677
T6
X5.8031Y-5.4311
X5.8819Y-5.4311
X6.3642Y-4.6283
X6.3642Y-4.7283
X6.3642Y-4.8283
X6.3642Y-4.9283
X6.3642Y-5.0283
T7
X5.8843Y-2.9783
X5.8843Y-3.0783
X5.8843Y-3.1783
X5.8843Y-3.2783
X5.8843Y-3.3783
X5.8843Y-3.4783
X5.8843Y-3.5783
X5.8843Y-3.6783
X5.8843Y-3.7783
X5.8843Y-3.8783
X5.8843Y-3.9783
X5.8843Y-4.0783
X5.8843Y-4.1783
X5.8843Y-4.2783
X5.8843Y-4.3783
X5.8843Y-4.4783
X5.8843Y-4.5783
X5.8843Y-4.6783
X5.8843Y-4.7783
X5.8843Y-4.8783
X5.8843Y-4.9783
X5.8843Y-5.0783
X5.8843Y-5.1783
X5.8843Y-5.2783
X5.9843Y-3.4783
X5.9843Y-5.1783
X6.0843Y-3.4783
X6.1843Y-3.4783
X6.2843Y-3.4783
X6.3843Y-3.4783
X6.4843Y-2.9783
X6.4843Y-3.0783
X6.4843Y-3.1783
X6.4843Y-3.2783
X6.4843Y-3.3783
X6.4843Y-3.4783
X6.4843Y-3.5783
X6.4843Y-3.6783
X6.4843Y-3.7783
X6.4843Y-3.8783
X6.4843Y-3.9783
X6.4843Y-4.0783
X6.4843Y-4.1783
X6.4843Y-4.2783
X6.4843Y-4.3783
X6.4843Y-4.4783
X6.4843Y-4.5783
X6.4843Y-4.6783
X6.4843Y-4.7783
X6.4843Y-4.8783
X6.4843Y-4.9783
X6.4843Y-5.0783
X6.4843Y-5.1783
X6.4843Y-5.2783
T8
X5.4606Y-2.2608
X5.4606Y-2.3608
X5.6102Y-3.0803
X5.6102Y-3.1803
X5.6102Y-3.2803
X5.6102Y-3.3803
X5.6102Y-3.4803
X6.7343Y-3.5246
X6.7343Y-3.6246
X6.7343Y-3.7246
X6.7382Y-3.122
X6.7382Y-3.222
X6.7382Y-3.322
X6.7815Y-4.4807
X6.7815Y-4.5807
T9
X5.0197Y-3.8425
T10
X5.2953Y-5.1811
X5.5039Y-5.1811
T11
X5.0197Y-3.0551
T12
X4.9941Y-2.1457
X4.9941Y-5.5118
X6.5689Y-2.1457
X6.5689Y-5.5118
M30
