%TF.GenerationSoftware,KiCad,Pcbnew,8.0.3*%
%TF.CreationDate,2024-06-26T01:00:06-05:00*%
%TF.ProjectId,APRL,4150524c-2e6b-4696-9361-645f70636258,rev?*%
%TF.SameCoordinates,Original*%
%TF.FileFunction,Soldermask,Top*%
%TF.FilePolarity,Negative*%
%FSLAX46Y46*%
G04 Gerber Fmt 4.6, Leading zero omitted, Abs format (unit mm)*
G04 Created by KiCad (PCBNEW 8.0.3) date 2024-06-26 01:00:06*
%MOMM*%
%LPD*%
G01*
G04 APERTURE LIST*
G04 Aperture macros list*
%AMRoundRect*
0 Rectangle with rounded corners*
0 $1 Rounding radius*
0 $2 $3 $4 $5 $6 $7 $8 $9 X,Y pos of 4 corners*
0 Add a 4 corners polygon primitive as box body*
4,1,4,$2,$3,$4,$5,$6,$7,$8,$9,$2,$3,0*
0 Add four circle primitives for the rounded corners*
1,1,$1+$1,$2,$3*
1,1,$1+$1,$4,$5*
1,1,$1+$1,$6,$7*
1,1,$1+$1,$8,$9*
0 Add four rect primitives between the rounded corners*
20,1,$1+$1,$2,$3,$4,$5,0*
20,1,$1+$1,$4,$5,$6,$7,0*
20,1,$1+$1,$6,$7,$8,$9,0*
20,1,$1+$1,$8,$9,$2,$3,0*%
G04 Aperture macros list end*
%ADD10R,1.446500X0.711200*%
%ADD11R,0.711200X1.371498*%
%ADD12R,0.279400X0.254000*%
%ADD13R,0.254000X0.254000*%
%ADD14RoundRect,0.102000X0.295000X0.175000X-0.295000X0.175000X-0.295000X-0.175000X0.295000X-0.175000X0*%
%ADD15RoundRect,0.102000X0.175000X-0.295000X0.175000X0.295000X-0.175000X0.295000X-0.175000X-0.295000X0*%
%ADD16RoundRect,0.102000X-0.295000X-0.175000X0.295000X-0.175000X0.295000X0.175000X-0.295000X0.175000X0*%
%ADD17RoundRect,0.102000X-0.175000X0.295000X-0.175000X-0.295000X0.175000X-0.295000X0.175000X0.295000X0*%
%ADD18RoundRect,0.102000X1.200000X0.400000X-1.200000X0.400000X-1.200000X-0.400000X1.200000X-0.400000X0*%
%ADD19RoundRect,0.102000X1.200000X0.390000X-1.200000X0.390000X-1.200000X-0.390000X1.200000X-0.390000X0*%
%ADD20RoundRect,0.102000X1.200000X0.395000X-1.200000X0.395000X-1.200000X-0.395000X1.200000X-0.395000X0*%
%ADD21R,2.000000X1.500000*%
%ADD22R,2.000000X3.800000*%
%ADD23RoundRect,0.225000X-0.250000X0.225000X-0.250000X-0.225000X0.250000X-0.225000X0.250000X0.225000X0*%
%ADD24RoundRect,0.250000X-0.475000X0.250000X-0.475000X-0.250000X0.475000X-0.250000X0.475000X0.250000X0*%
%ADD25RoundRect,0.250000X-0.350000X-0.625000X0.350000X-0.625000X0.350000X0.625000X-0.350000X0.625000X0*%
%ADD26O,1.200000X1.750000*%
%ADD27C,0.800000*%
%ADD28C,6.400000*%
%ADD29RoundRect,0.225000X0.250000X-0.225000X0.250000X0.225000X-0.250000X0.225000X-0.250000X-0.225000X0*%
%ADD30RoundRect,0.200000X-0.200000X-0.275000X0.200000X-0.275000X0.200000X0.275000X-0.200000X0.275000X0*%
%ADD31R,1.700000X1.700000*%
%ADD32O,1.700000X1.700000*%
%ADD33RoundRect,0.218750X-0.218750X-0.256250X0.218750X-0.256250X0.218750X0.256250X-0.218750X0.256250X0*%
%ADD34C,0.228600*%
%ADD35RoundRect,0.225000X-0.225000X-0.250000X0.225000X-0.250000X0.225000X0.250000X-0.225000X0.250000X0*%
%ADD36RoundRect,0.225000X0.225000X0.250000X-0.225000X0.250000X-0.225000X-0.250000X0.225000X-0.250000X0*%
%ADD37C,1.701800*%
%ADD38RoundRect,0.200000X0.200000X0.275000X-0.200000X0.275000X-0.200000X-0.275000X0.200000X-0.275000X0*%
%ADD39R,2.170000X2.170000*%
%ADD40C,2.500000*%
%ADD41C,1.512000*%
%ADD42C,1.462000*%
%ADD43C,1.412000*%
G04 APERTURE END LIST*
D10*
%TO.C,GPS1*%
X151176750Y-61900001D03*
X151176750Y-60900000D03*
X151176750Y-59900000D03*
X151176750Y-58899999D03*
X151176750Y-57900001D03*
X151176750Y-56900001D03*
X151176750Y-55900000D03*
X151176750Y-54899999D03*
X151176750Y-53899999D03*
X151176750Y-52900001D03*
X151176750Y-51900000D03*
X151176750Y-50900000D03*
X151176750Y-49899999D03*
X142223250Y-49899999D03*
X142223250Y-50900000D03*
X142223250Y-51900000D03*
X142223250Y-52900001D03*
X142223250Y-53899999D03*
X142223250Y-54899999D03*
X142223250Y-55900000D03*
X142223250Y-56900001D03*
X142223250Y-57900001D03*
X142223250Y-58899999D03*
X142223250Y-59900000D03*
X142223250Y-60900000D03*
X142223250Y-61900001D03*
D11*
X144699999Y-62614251D03*
X145699999Y-62614251D03*
X146700000Y-62614251D03*
X147700001Y-62614251D03*
X148700001Y-62614251D03*
%TD*%
D12*
%TO.C,Baro1*%
X172710301Y-108500000D03*
X172710301Y-108000000D03*
D13*
X172449999Y-107476999D03*
X171950000Y-107476999D03*
X171450001Y-107476999D03*
D12*
X171189699Y-108000000D03*
X171189699Y-108500000D03*
D13*
X171450001Y-109023001D03*
X171950000Y-109023001D03*
X172449999Y-109023001D03*
%TD*%
D14*
%TO.C,IMU1*%
X172902500Y-98350000D03*
X172902500Y-98850000D03*
X172902500Y-99350000D03*
X172902500Y-99850000D03*
X172902500Y-100350000D03*
X172902500Y-100850000D03*
X172902500Y-101350000D03*
D15*
X171737500Y-101765000D03*
D16*
X170572500Y-101350000D03*
X170572500Y-100850000D03*
X170572500Y-100350000D03*
X170572500Y-99850000D03*
X170572500Y-99350000D03*
X170572500Y-98850000D03*
X170572500Y-98350000D03*
D17*
X171737500Y-97935000D03*
%TD*%
D18*
%TO.C,Lora1*%
X117100000Y-104650000D03*
X117100000Y-105920000D03*
X117100000Y-107190000D03*
X117100000Y-112760000D03*
D19*
X117100000Y-114040000D03*
D18*
X117100000Y-115300000D03*
X117100000Y-116570000D03*
D20*
X117100000Y-117845000D03*
D18*
X117100000Y-119110000D03*
X117100000Y-120380000D03*
X117100000Y-121650000D03*
X131500000Y-121650000D03*
X131500000Y-120380000D03*
X131500000Y-119110000D03*
D20*
X131500000Y-117845000D03*
D18*
X131500000Y-116570000D03*
X131500000Y-115300000D03*
D19*
X131500000Y-114040000D03*
D18*
X131500000Y-112760000D03*
X131500000Y-107190000D03*
X131500000Y-105920000D03*
X131500000Y-104650000D03*
%TD*%
D21*
%TO.C,3.3V1*%
X137150000Y-109200000D03*
X137150000Y-111500000D03*
D22*
X143450000Y-111500000D03*
D21*
X137150000Y-113800000D03*
%TD*%
D23*
%TO.C,C14*%
X117000000Y-75075050D03*
X117000000Y-76625050D03*
%TD*%
D24*
%TO.C,C4*%
X119850000Y-124750000D03*
X119850000Y-126650000D03*
%TD*%
D25*
%TO.C,BT1*%
X147400000Y-137950000D03*
D26*
X149400000Y-137950000D03*
%TD*%
D23*
%TO.C,C13*%
X122050000Y-74575050D03*
X122050000Y-76125050D03*
%TD*%
D24*
%TO.C,C3*%
X123450000Y-124800000D03*
X123450000Y-126700000D03*
%TD*%
D21*
%TO.C,5V1*%
X137250000Y-118350000D03*
X137250000Y-120650000D03*
D22*
X143550000Y-120650000D03*
D21*
X137250000Y-122950000D03*
%TD*%
D27*
%TO.C,REF\u002A\u002A*%
X124450000Y-54500000D03*
X125152944Y-52802944D03*
X125152944Y-56197056D03*
X126850000Y-52100000D03*
D28*
X126850000Y-54500000D03*
D27*
X126850000Y-56900000D03*
X128547056Y-52802944D03*
X128547056Y-56197056D03*
X129250000Y-54500000D03*
%TD*%
D29*
%TO.C,C6*%
X174900000Y-108875000D03*
X174900000Y-107325000D03*
%TD*%
D30*
%TO.C,R3*%
X169975000Y-134050000D03*
X171625000Y-134050000D03*
%TD*%
%TO.C,R2*%
X117700000Y-131450000D03*
X119350000Y-131450000D03*
%TD*%
D29*
%TO.C,C2*%
X168450000Y-99975000D03*
X168450000Y-98425000D03*
%TD*%
D31*
%TO.C,J1*%
X138700000Y-57425000D03*
D32*
X138700000Y-59965000D03*
%TD*%
D31*
%TO.C,SPI_1*%
X171150000Y-79300000D03*
D32*
X171150000Y-81840000D03*
X171150000Y-84380000D03*
%TD*%
D33*
%TO.C,D3*%
X173300000Y-134050000D03*
X174875000Y-134050000D03*
%TD*%
D27*
%TO.C,REF\u002A\u002A*%
X124450000Y-140000000D03*
X125152944Y-138302944D03*
X125152944Y-141697056D03*
X126850000Y-137600000D03*
D28*
X126850000Y-140000000D03*
D27*
X126850000Y-142400000D03*
X128547056Y-138302944D03*
X128547056Y-141697056D03*
X129250000Y-140000000D03*
%TD*%
D34*
%TO.C,Mag1*%
X119700000Y-75800050D03*
X119299950Y-75800050D03*
X118899900Y-75800050D03*
X119700000Y-75400000D03*
X119299950Y-75400000D03*
X118899900Y-75400000D03*
X119700000Y-74999950D03*
X119299950Y-74999950D03*
X118899900Y-74999950D03*
%TD*%
D27*
%TO.C,REF\u002A\u002A*%
X164450000Y-54500000D03*
X165152944Y-52802944D03*
X165152944Y-56197056D03*
X166850000Y-52100000D03*
D28*
X166850000Y-54500000D03*
D27*
X166850000Y-56900000D03*
X168547056Y-52802944D03*
X168547056Y-56197056D03*
X169250000Y-54500000D03*
%TD*%
D24*
%TO.C,C1*%
X126950000Y-124750000D03*
X126950000Y-126650000D03*
%TD*%
D35*
%TO.C,C16*%
X153200000Y-54900000D03*
X154750000Y-54900000D03*
%TD*%
D27*
%TO.C,REF\u002A\u002A*%
X164450000Y-140000000D03*
X165152944Y-138302944D03*
X165152944Y-141697056D03*
X166850000Y-137600000D03*
D28*
X166850000Y-140000000D03*
D27*
X166850000Y-142400000D03*
X168547056Y-138302944D03*
X168547056Y-141697056D03*
X169250000Y-140000000D03*
%TD*%
D36*
%TO.C,C12*%
X119500000Y-73150050D03*
X117950000Y-73150050D03*
%TD*%
D23*
%TO.C,C5*%
X175200000Y-97775000D03*
X175200000Y-99325000D03*
%TD*%
D31*
%TO.C,J2*%
X142500000Y-78240000D03*
D32*
X142500000Y-80780000D03*
X142500000Y-83320000D03*
X142500000Y-85860000D03*
X142500000Y-88400000D03*
%TD*%
D24*
%TO.C,C11*%
X146400000Y-112350000D03*
X146400000Y-114250000D03*
%TD*%
D35*
%TO.C,C15*%
X154275000Y-61900000D03*
X155825000Y-61900000D03*
%TD*%
D37*
%TO.C,U1*%
X134500000Y-131600000D03*
X139800000Y-131600000D03*
%TD*%
D33*
%TO.C,D2*%
X121187500Y-131500000D03*
X122762500Y-131500000D03*
%TD*%
D35*
%TO.C,C8*%
X136775000Y-125550000D03*
X138325000Y-125550000D03*
%TD*%
D33*
%TO.C,D1*%
X121312500Y-135000000D03*
X122887500Y-135000000D03*
%TD*%
D36*
%TO.C,C9*%
X146525000Y-125550000D03*
X144975000Y-125550000D03*
%TD*%
D35*
%TO.C,C10*%
X136600000Y-116000000D03*
X138150000Y-116000000D03*
%TD*%
D38*
%TO.C,R1*%
X119450000Y-135000000D03*
X117800000Y-135000000D03*
%TD*%
D39*
%TO.C,BAT1*%
X127500000Y-97600000D03*
D40*
X127500000Y-77600000D03*
%TD*%
D36*
%TO.C,C7*%
X172800000Y-110750000D03*
X171250000Y-110750000D03*
%TD*%
D31*
%TO.C,SPI1*%
X171050000Y-89525000D03*
D32*
X171050000Y-92065000D03*
X171050000Y-94605000D03*
%TD*%
D41*
%TO.C,MCU1*%
X164700000Y-131530000D03*
X164700000Y-128990000D03*
X164700000Y-126450000D03*
X164700000Y-123910000D03*
X164700000Y-98510000D03*
X149460000Y-128990000D03*
X159620000Y-88350000D03*
X164700000Y-121370000D03*
X164700000Y-118830000D03*
D42*
X161650000Y-127720000D03*
D41*
X164700000Y-116290000D03*
X164700000Y-113750000D03*
X164700000Y-111210000D03*
X164700000Y-108670000D03*
X164700000Y-106130000D03*
X164700000Y-103590000D03*
X164700000Y-101050000D03*
X149460000Y-101050000D03*
X149460000Y-103590000D03*
X149460000Y-106130000D03*
X149460000Y-108670000D03*
X149460000Y-111210000D03*
X149460000Y-113750000D03*
X149460000Y-116290000D03*
X149460000Y-118830000D03*
X149460000Y-121370000D03*
X149460000Y-123910000D03*
X149460000Y-126450000D03*
X164700000Y-95970000D03*
X164700000Y-93430000D03*
X164700000Y-90890000D03*
X164700000Y-88350000D03*
X164700000Y-85810000D03*
X164700000Y-83270000D03*
X164700000Y-80730000D03*
X164700000Y-78190000D03*
X164700000Y-75650000D03*
X149460000Y-75650000D03*
X149460000Y-78190000D03*
X149460000Y-80730000D03*
X149460000Y-83270000D03*
X149460000Y-85810000D03*
X149460000Y-88350000D03*
X149460000Y-90890000D03*
X149460000Y-93430000D03*
X149460000Y-95970000D03*
D42*
X161650000Y-122640000D03*
X161650000Y-125180000D03*
D41*
X164700000Y-134070000D03*
X149460000Y-98510000D03*
X149460000Y-131530000D03*
X157080000Y-88350000D03*
D43*
X153910000Y-119100000D03*
X153910000Y-121100000D03*
D41*
X152000000Y-88350000D03*
X154540000Y-88350000D03*
D43*
X151910000Y-121100000D03*
X151910000Y-119100000D03*
X155910000Y-119100000D03*
X155910000Y-121100000D03*
D42*
X161650000Y-120100000D03*
X161650000Y-117560000D03*
D41*
X162160000Y-88350000D03*
X149460000Y-134070000D03*
X152000000Y-131530000D03*
%TD*%
D31*
%TO.C,I2C1*%
X172250000Y-116350000D03*
D32*
X172250000Y-113810000D03*
%TD*%
M02*
