%TF.GenerationSoftware,KiCad,Pcbnew,8.0.3*%
%TF.CreationDate,2024-06-26T01:00:06-05:00*%
%TF.ProjectId,APRL,4150524c-2e6b-4696-9361-645f70636258,rev?*%
%TF.SameCoordinates,Original*%
%TF.FileFunction,Legend,Top*%
%TF.FilePolarity,Positive*%
%FSLAX46Y46*%
G04 Gerber Fmt 4.6, Leading zero omitted, Abs format (unit mm)*
G04 Created by KiCad (PCBNEW 8.0.3) date 2024-06-26 01:00:06*
%MOMM*%
%LPD*%
G01*
G04 APERTURE LIST*
%ADD10C,0.175000*%
%ADD11C,0.400000*%
%ADD12C,0.100000*%
%ADD13C,0.250000*%
%ADD14C,0.150000*%
%ADD15C,0.125000*%
%ADD16C,0.152400*%
%ADD17C,0.000000*%
%ADD18C,0.127000*%
%ADD19C,0.200000*%
%ADD20C,0.120000*%
G04 APERTURE END LIST*
D10*
X120487500Y-76700000D02*
G75*
G02*
X120312500Y-76700000I-87500J0D01*
G01*
X120312500Y-76700000D02*
G75*
G02*
X120487500Y-76700000I87500J0D01*
G01*
D11*
X118694109Y-64293121D02*
X119646490Y-64293121D01*
X118503633Y-64864550D02*
X119170299Y-62864550D01*
X119170299Y-62864550D02*
X119836966Y-64864550D01*
X120503633Y-64864550D02*
X120503633Y-62864550D01*
X120503633Y-62864550D02*
X121265538Y-62864550D01*
X121265538Y-62864550D02*
X121456014Y-62959788D01*
X121456014Y-62959788D02*
X121551252Y-63055026D01*
X121551252Y-63055026D02*
X121646490Y-63245502D01*
X121646490Y-63245502D02*
X121646490Y-63531216D01*
X121646490Y-63531216D02*
X121551252Y-63721692D01*
X121551252Y-63721692D02*
X121456014Y-63816931D01*
X121456014Y-63816931D02*
X121265538Y-63912169D01*
X121265538Y-63912169D02*
X120503633Y-63912169D01*
X123646490Y-64864550D02*
X122979823Y-63912169D01*
X122503633Y-64864550D02*
X122503633Y-62864550D01*
X122503633Y-62864550D02*
X123265538Y-62864550D01*
X123265538Y-62864550D02*
X123456014Y-62959788D01*
X123456014Y-62959788D02*
X123551252Y-63055026D01*
X123551252Y-63055026D02*
X123646490Y-63245502D01*
X123646490Y-63245502D02*
X123646490Y-63531216D01*
X123646490Y-63531216D02*
X123551252Y-63721692D01*
X123551252Y-63721692D02*
X123456014Y-63816931D01*
X123456014Y-63816931D02*
X123265538Y-63912169D01*
X123265538Y-63912169D02*
X122503633Y-63912169D01*
X125456014Y-64864550D02*
X124503633Y-64864550D01*
X124503633Y-64864550D02*
X124503633Y-62864550D01*
X127551253Y-64293121D02*
X128503634Y-64293121D01*
X127360777Y-64864550D02*
X128027443Y-62864550D01*
X128027443Y-62864550D02*
X128694110Y-64864550D01*
X129170301Y-63531216D02*
X129646491Y-64864550D01*
X129646491Y-64864550D02*
X130122682Y-63531216D01*
X130884587Y-64864550D02*
X130884587Y-63531216D01*
X130884587Y-62864550D02*
X130789349Y-62959788D01*
X130789349Y-62959788D02*
X130884587Y-63055026D01*
X130884587Y-63055026D02*
X130979825Y-62959788D01*
X130979825Y-62959788D02*
X130884587Y-62864550D01*
X130884587Y-62864550D02*
X130884587Y-63055026D01*
X132122682Y-64864550D02*
X131932206Y-64769312D01*
X131932206Y-64769312D02*
X131836968Y-64674073D01*
X131836968Y-64674073D02*
X131741730Y-64483597D01*
X131741730Y-64483597D02*
X131741730Y-63912169D01*
X131741730Y-63912169D02*
X131836968Y-63721692D01*
X131836968Y-63721692D02*
X131932206Y-63626454D01*
X131932206Y-63626454D02*
X132122682Y-63531216D01*
X132122682Y-63531216D02*
X132408397Y-63531216D01*
X132408397Y-63531216D02*
X132598873Y-63626454D01*
X132598873Y-63626454D02*
X132694111Y-63721692D01*
X132694111Y-63721692D02*
X132789349Y-63912169D01*
X132789349Y-63912169D02*
X132789349Y-64483597D01*
X132789349Y-64483597D02*
X132694111Y-64674073D01*
X132694111Y-64674073D02*
X132598873Y-64769312D01*
X132598873Y-64769312D02*
X132408397Y-64864550D01*
X132408397Y-64864550D02*
X132122682Y-64864550D01*
X133646492Y-63531216D02*
X133646492Y-64864550D01*
X133646492Y-63721692D02*
X133741730Y-63626454D01*
X133741730Y-63626454D02*
X133932206Y-63531216D01*
X133932206Y-63531216D02*
X134217921Y-63531216D01*
X134217921Y-63531216D02*
X134408397Y-63626454D01*
X134408397Y-63626454D02*
X134503635Y-63816931D01*
X134503635Y-63816931D02*
X134503635Y-64864550D01*
X135456016Y-64864550D02*
X135456016Y-63531216D01*
X135456016Y-62864550D02*
X135360778Y-62959788D01*
X135360778Y-62959788D02*
X135456016Y-63055026D01*
X135456016Y-63055026D02*
X135551254Y-62959788D01*
X135551254Y-62959788D02*
X135456016Y-62864550D01*
X135456016Y-62864550D02*
X135456016Y-63055026D01*
X137265540Y-64769312D02*
X137075064Y-64864550D01*
X137075064Y-64864550D02*
X136694111Y-64864550D01*
X136694111Y-64864550D02*
X136503635Y-64769312D01*
X136503635Y-64769312D02*
X136408397Y-64674073D01*
X136408397Y-64674073D02*
X136313159Y-64483597D01*
X136313159Y-64483597D02*
X136313159Y-63912169D01*
X136313159Y-63912169D02*
X136408397Y-63721692D01*
X136408397Y-63721692D02*
X136503635Y-63626454D01*
X136503635Y-63626454D02*
X136694111Y-63531216D01*
X136694111Y-63531216D02*
X137075064Y-63531216D01*
X137075064Y-63531216D02*
X137265540Y-63626454D01*
X138027445Y-64769312D02*
X138217921Y-64864550D01*
X138217921Y-64864550D02*
X138598873Y-64864550D01*
X138598873Y-64864550D02*
X138789350Y-64769312D01*
X138789350Y-64769312D02*
X138884588Y-64578835D01*
X138884588Y-64578835D02*
X138884588Y-64483597D01*
X138884588Y-64483597D02*
X138789350Y-64293121D01*
X138789350Y-64293121D02*
X138598873Y-64197883D01*
X138598873Y-64197883D02*
X138313159Y-64197883D01*
X138313159Y-64197883D02*
X138122683Y-64102645D01*
X138122683Y-64102645D02*
X138027445Y-63912169D01*
X138027445Y-63912169D02*
X138027445Y-63816931D01*
X138027445Y-63816931D02*
X138122683Y-63626454D01*
X138122683Y-63626454D02*
X138313159Y-63531216D01*
X138313159Y-63531216D02*
X138598873Y-63531216D01*
X138598873Y-63531216D02*
X138789350Y-63626454D01*
X118503633Y-66084438D02*
X119170299Y-68084438D01*
X119170299Y-68084438D02*
X119836966Y-66084438D01*
X121265538Y-67989200D02*
X121075062Y-68084438D01*
X121075062Y-68084438D02*
X120694109Y-68084438D01*
X120694109Y-68084438D02*
X120503633Y-67989200D01*
X120503633Y-67989200D02*
X120408395Y-67798723D01*
X120408395Y-67798723D02*
X120408395Y-67036819D01*
X120408395Y-67036819D02*
X120503633Y-66846342D01*
X120503633Y-66846342D02*
X120694109Y-66751104D01*
X120694109Y-66751104D02*
X121075062Y-66751104D01*
X121075062Y-66751104D02*
X121265538Y-66846342D01*
X121265538Y-66846342D02*
X121360776Y-67036819D01*
X121360776Y-67036819D02*
X121360776Y-67227295D01*
X121360776Y-67227295D02*
X120408395Y-67417771D01*
X122217919Y-68084438D02*
X122217919Y-66751104D01*
X122217919Y-67132057D02*
X122313157Y-66941580D01*
X122313157Y-66941580D02*
X122408395Y-66846342D01*
X122408395Y-66846342D02*
X122598871Y-66751104D01*
X122598871Y-66751104D02*
X122789348Y-66751104D01*
X126027443Y-68084438D02*
X124884586Y-68084438D01*
X125456014Y-68084438D02*
X125456014Y-66084438D01*
X125456014Y-66084438D02*
X125265538Y-66370152D01*
X125265538Y-66370152D02*
X125075062Y-66560628D01*
X125075062Y-66560628D02*
X124884586Y-66655866D01*
X126884586Y-67893961D02*
X126979824Y-67989200D01*
X126979824Y-67989200D02*
X126884586Y-68084438D01*
X126884586Y-68084438D02*
X126789348Y-67989200D01*
X126789348Y-67989200D02*
X126884586Y-67893961D01*
X126884586Y-67893961D02*
X126884586Y-68084438D01*
X128884586Y-68084438D02*
X127741729Y-68084438D01*
X128313157Y-68084438D02*
X128313157Y-66084438D01*
X128313157Y-66084438D02*
X128122681Y-66370152D01*
X128122681Y-66370152D02*
X127932205Y-66560628D01*
X127932205Y-66560628D02*
X127741729Y-66655866D01*
D12*
X116222931Y-71145847D02*
X116489598Y-71545847D01*
X116489598Y-71145847D02*
X116222931Y-71545847D01*
D13*
X144793044Y-77387550D02*
X145783520Y-77387550D01*
X145783520Y-77387550D02*
X145250187Y-77997074D01*
X145250187Y-77997074D02*
X145478758Y-77997074D01*
X145478758Y-77997074D02*
X145631139Y-78073264D01*
X145631139Y-78073264D02*
X145707330Y-78149455D01*
X145707330Y-78149455D02*
X145783520Y-78301836D01*
X145783520Y-78301836D02*
X145783520Y-78682788D01*
X145783520Y-78682788D02*
X145707330Y-78835169D01*
X145707330Y-78835169D02*
X145631139Y-78911360D01*
X145631139Y-78911360D02*
X145478758Y-78987550D01*
X145478758Y-78987550D02*
X145021615Y-78987550D01*
X145021615Y-78987550D02*
X144869234Y-78911360D01*
X144869234Y-78911360D02*
X144793044Y-78835169D01*
X147154949Y-77920883D02*
X147154949Y-78987550D01*
X146773997Y-77311360D02*
X146393044Y-78454217D01*
X146393044Y-78454217D02*
X147383521Y-78454217D01*
X144793044Y-79963460D02*
X145783520Y-79963460D01*
X145783520Y-79963460D02*
X145250187Y-80572984D01*
X145250187Y-80572984D02*
X145478758Y-80572984D01*
X145478758Y-80572984D02*
X145631139Y-80649174D01*
X145631139Y-80649174D02*
X145707330Y-80725365D01*
X145707330Y-80725365D02*
X145783520Y-80877746D01*
X145783520Y-80877746D02*
X145783520Y-81258698D01*
X145783520Y-81258698D02*
X145707330Y-81411079D01*
X145707330Y-81411079D02*
X145631139Y-81487270D01*
X145631139Y-81487270D02*
X145478758Y-81563460D01*
X145478758Y-81563460D02*
X145021615Y-81563460D01*
X145021615Y-81563460D02*
X144869234Y-81487270D01*
X144869234Y-81487270D02*
X144793044Y-81411079D01*
X147231140Y-79963460D02*
X146469235Y-79963460D01*
X146469235Y-79963460D02*
X146393044Y-80725365D01*
X146393044Y-80725365D02*
X146469235Y-80649174D01*
X146469235Y-80649174D02*
X146621616Y-80572984D01*
X146621616Y-80572984D02*
X147002568Y-80572984D01*
X147002568Y-80572984D02*
X147154949Y-80649174D01*
X147154949Y-80649174D02*
X147231140Y-80725365D01*
X147231140Y-80725365D02*
X147307330Y-80877746D01*
X147307330Y-80877746D02*
X147307330Y-81258698D01*
X147307330Y-81258698D02*
X147231140Y-81411079D01*
X147231140Y-81411079D02*
X147154949Y-81487270D01*
X147154949Y-81487270D02*
X147002568Y-81563460D01*
X147002568Y-81563460D02*
X146621616Y-81563460D01*
X146621616Y-81563460D02*
X146469235Y-81487270D01*
X146469235Y-81487270D02*
X146393044Y-81411079D01*
X144793044Y-82539370D02*
X145783520Y-82539370D01*
X145783520Y-82539370D02*
X145250187Y-83148894D01*
X145250187Y-83148894D02*
X145478758Y-83148894D01*
X145478758Y-83148894D02*
X145631139Y-83225084D01*
X145631139Y-83225084D02*
X145707330Y-83301275D01*
X145707330Y-83301275D02*
X145783520Y-83453656D01*
X145783520Y-83453656D02*
X145783520Y-83834608D01*
X145783520Y-83834608D02*
X145707330Y-83986989D01*
X145707330Y-83986989D02*
X145631139Y-84063180D01*
X145631139Y-84063180D02*
X145478758Y-84139370D01*
X145478758Y-84139370D02*
X145021615Y-84139370D01*
X145021615Y-84139370D02*
X144869234Y-84063180D01*
X144869234Y-84063180D02*
X144793044Y-83986989D01*
X147154949Y-82539370D02*
X146850187Y-82539370D01*
X146850187Y-82539370D02*
X146697806Y-82615560D01*
X146697806Y-82615560D02*
X146621616Y-82691751D01*
X146621616Y-82691751D02*
X146469235Y-82920322D01*
X146469235Y-82920322D02*
X146393044Y-83225084D01*
X146393044Y-83225084D02*
X146393044Y-83834608D01*
X146393044Y-83834608D02*
X146469235Y-83986989D01*
X146469235Y-83986989D02*
X146545425Y-84063180D01*
X146545425Y-84063180D02*
X146697806Y-84139370D01*
X146697806Y-84139370D02*
X147002568Y-84139370D01*
X147002568Y-84139370D02*
X147154949Y-84063180D01*
X147154949Y-84063180D02*
X147231140Y-83986989D01*
X147231140Y-83986989D02*
X147307330Y-83834608D01*
X147307330Y-83834608D02*
X147307330Y-83453656D01*
X147307330Y-83453656D02*
X147231140Y-83301275D01*
X147231140Y-83301275D02*
X147154949Y-83225084D01*
X147154949Y-83225084D02*
X147002568Y-83148894D01*
X147002568Y-83148894D02*
X146697806Y-83148894D01*
X146697806Y-83148894D02*
X146545425Y-83225084D01*
X146545425Y-83225084D02*
X146469235Y-83301275D01*
X146469235Y-83301275D02*
X146393044Y-83453656D01*
X144793044Y-85115280D02*
X145783520Y-85115280D01*
X145783520Y-85115280D02*
X145250187Y-85724804D01*
X145250187Y-85724804D02*
X145478758Y-85724804D01*
X145478758Y-85724804D02*
X145631139Y-85800994D01*
X145631139Y-85800994D02*
X145707330Y-85877185D01*
X145707330Y-85877185D02*
X145783520Y-86029566D01*
X145783520Y-86029566D02*
X145783520Y-86410518D01*
X145783520Y-86410518D02*
X145707330Y-86562899D01*
X145707330Y-86562899D02*
X145631139Y-86639090D01*
X145631139Y-86639090D02*
X145478758Y-86715280D01*
X145478758Y-86715280D02*
X145021615Y-86715280D01*
X145021615Y-86715280D02*
X144869234Y-86639090D01*
X144869234Y-86639090D02*
X144793044Y-86562899D01*
X146316854Y-85115280D02*
X147383521Y-85115280D01*
X147383521Y-85115280D02*
X146697806Y-86715280D01*
X144793044Y-87691190D02*
X145783520Y-87691190D01*
X145783520Y-87691190D02*
X145250187Y-88300714D01*
X145250187Y-88300714D02*
X145478758Y-88300714D01*
X145478758Y-88300714D02*
X145631139Y-88376904D01*
X145631139Y-88376904D02*
X145707330Y-88453095D01*
X145707330Y-88453095D02*
X145783520Y-88605476D01*
X145783520Y-88605476D02*
X145783520Y-88986428D01*
X145783520Y-88986428D02*
X145707330Y-89138809D01*
X145707330Y-89138809D02*
X145631139Y-89215000D01*
X145631139Y-89215000D02*
X145478758Y-89291190D01*
X145478758Y-89291190D02*
X145021615Y-89291190D01*
X145021615Y-89291190D02*
X144869234Y-89215000D01*
X144869234Y-89215000D02*
X144793044Y-89138809D01*
X146697806Y-88376904D02*
X146545425Y-88300714D01*
X146545425Y-88300714D02*
X146469235Y-88224523D01*
X146469235Y-88224523D02*
X146393044Y-88072142D01*
X146393044Y-88072142D02*
X146393044Y-87995952D01*
X146393044Y-87995952D02*
X146469235Y-87843571D01*
X146469235Y-87843571D02*
X146545425Y-87767380D01*
X146545425Y-87767380D02*
X146697806Y-87691190D01*
X146697806Y-87691190D02*
X147002568Y-87691190D01*
X147002568Y-87691190D02*
X147154949Y-87767380D01*
X147154949Y-87767380D02*
X147231140Y-87843571D01*
X147231140Y-87843571D02*
X147307330Y-87995952D01*
X147307330Y-87995952D02*
X147307330Y-88072142D01*
X147307330Y-88072142D02*
X147231140Y-88224523D01*
X147231140Y-88224523D02*
X147154949Y-88300714D01*
X147154949Y-88300714D02*
X147002568Y-88376904D01*
X147002568Y-88376904D02*
X146697806Y-88376904D01*
X146697806Y-88376904D02*
X146545425Y-88453095D01*
X146545425Y-88453095D02*
X146469235Y-88529285D01*
X146469235Y-88529285D02*
X146393044Y-88681666D01*
X146393044Y-88681666D02*
X146393044Y-88986428D01*
X146393044Y-88986428D02*
X146469235Y-89138809D01*
X146469235Y-89138809D02*
X146545425Y-89215000D01*
X146545425Y-89215000D02*
X146697806Y-89291190D01*
X146697806Y-89291190D02*
X147002568Y-89291190D01*
X147002568Y-89291190D02*
X147154949Y-89215000D01*
X147154949Y-89215000D02*
X147231140Y-89138809D01*
X147231140Y-89138809D02*
X147307330Y-88986428D01*
X147307330Y-88986428D02*
X147307330Y-88681666D01*
X147307330Y-88681666D02*
X147231140Y-88529285D01*
X147231140Y-88529285D02*
X147154949Y-88453095D01*
X147154949Y-88453095D02*
X147002568Y-88376904D01*
D12*
X115637217Y-70555371D02*
X115637217Y-70745847D01*
X115503884Y-70345847D02*
X115637217Y-70555371D01*
X115637217Y-70555371D02*
X115770550Y-70345847D01*
D14*
X152136779Y-142488866D02*
X152898684Y-142488866D01*
X152517731Y-142869819D02*
X152517731Y-142107914D01*
X170736779Y-103669819D02*
X170736779Y-102669819D01*
X171212969Y-103669819D02*
X171212969Y-102669819D01*
X171212969Y-102669819D02*
X171546302Y-103384104D01*
X171546302Y-103384104D02*
X171879635Y-102669819D01*
X171879635Y-102669819D02*
X171879635Y-103669819D01*
X172355826Y-102669819D02*
X172355826Y-103479342D01*
X172355826Y-103479342D02*
X172403445Y-103574580D01*
X172403445Y-103574580D02*
X172451064Y-103622200D01*
X172451064Y-103622200D02*
X172546302Y-103669819D01*
X172546302Y-103669819D02*
X172736778Y-103669819D01*
X172736778Y-103669819D02*
X172832016Y-103622200D01*
X172832016Y-103622200D02*
X172879635Y-103574580D01*
X172879635Y-103574580D02*
X172927254Y-103479342D01*
X172927254Y-103479342D02*
X172927254Y-102669819D01*
X173089160Y-91102312D02*
X173232017Y-91149931D01*
X173232017Y-91149931D02*
X173470112Y-91149931D01*
X173470112Y-91149931D02*
X173565350Y-91102312D01*
X173565350Y-91102312D02*
X173612969Y-91054692D01*
X173612969Y-91054692D02*
X173660588Y-90959454D01*
X173660588Y-90959454D02*
X173660588Y-90864216D01*
X173660588Y-90864216D02*
X173612969Y-90768978D01*
X173612969Y-90768978D02*
X173565350Y-90721359D01*
X173565350Y-90721359D02*
X173470112Y-90673740D01*
X173470112Y-90673740D02*
X173279636Y-90626121D01*
X173279636Y-90626121D02*
X173184398Y-90578502D01*
X173184398Y-90578502D02*
X173136779Y-90530883D01*
X173136779Y-90530883D02*
X173089160Y-90435645D01*
X173089160Y-90435645D02*
X173089160Y-90340407D01*
X173089160Y-90340407D02*
X173136779Y-90245169D01*
X173136779Y-90245169D02*
X173184398Y-90197550D01*
X173184398Y-90197550D02*
X173279636Y-90149931D01*
X173279636Y-90149931D02*
X173517731Y-90149931D01*
X173517731Y-90149931D02*
X173660588Y-90197550D01*
X174660588Y-91054692D02*
X174612969Y-91102312D01*
X174612969Y-91102312D02*
X174470112Y-91149931D01*
X174470112Y-91149931D02*
X174374874Y-91149931D01*
X174374874Y-91149931D02*
X174232017Y-91102312D01*
X174232017Y-91102312D02*
X174136779Y-91007073D01*
X174136779Y-91007073D02*
X174089160Y-90911835D01*
X174089160Y-90911835D02*
X174041541Y-90721359D01*
X174041541Y-90721359D02*
X174041541Y-90578502D01*
X174041541Y-90578502D02*
X174089160Y-90388026D01*
X174089160Y-90388026D02*
X174136779Y-90292788D01*
X174136779Y-90292788D02*
X174232017Y-90197550D01*
X174232017Y-90197550D02*
X174374874Y-90149931D01*
X174374874Y-90149931D02*
X174470112Y-90149931D01*
X174470112Y-90149931D02*
X174612969Y-90197550D01*
X174612969Y-90197550D02*
X174660588Y-90245169D01*
X175089160Y-91149931D02*
X175089160Y-90149931D01*
X175660588Y-91149931D02*
X175232017Y-90578502D01*
X175660588Y-90149931D02*
X175089160Y-90721359D01*
X173136779Y-92759875D02*
X173136779Y-91759875D01*
X173136779Y-91759875D02*
X173470112Y-92474160D01*
X173470112Y-92474160D02*
X173803445Y-91759875D01*
X173803445Y-91759875D02*
X173803445Y-92759875D01*
X174279636Y-92759875D02*
X174279636Y-91759875D01*
X174708207Y-92712256D02*
X174851064Y-92759875D01*
X174851064Y-92759875D02*
X175089159Y-92759875D01*
X175089159Y-92759875D02*
X175184397Y-92712256D01*
X175184397Y-92712256D02*
X175232016Y-92664636D01*
X175232016Y-92664636D02*
X175279635Y-92569398D01*
X175279635Y-92569398D02*
X175279635Y-92474160D01*
X175279635Y-92474160D02*
X175232016Y-92378922D01*
X175232016Y-92378922D02*
X175184397Y-92331303D01*
X175184397Y-92331303D02*
X175089159Y-92283684D01*
X175089159Y-92283684D02*
X174898683Y-92236065D01*
X174898683Y-92236065D02*
X174803445Y-92188446D01*
X174803445Y-92188446D02*
X174755826Y-92140827D01*
X174755826Y-92140827D02*
X174708207Y-92045589D01*
X174708207Y-92045589D02*
X174708207Y-91950351D01*
X174708207Y-91950351D02*
X174755826Y-91855113D01*
X174755826Y-91855113D02*
X174803445Y-91807494D01*
X174803445Y-91807494D02*
X174898683Y-91759875D01*
X174898683Y-91759875D02*
X175136778Y-91759875D01*
X175136778Y-91759875D02*
X175279635Y-91807494D01*
X175898683Y-91759875D02*
X176089159Y-91759875D01*
X176089159Y-91759875D02*
X176184397Y-91807494D01*
X176184397Y-91807494D02*
X176279635Y-91902732D01*
X176279635Y-91902732D02*
X176327254Y-92093208D01*
X176327254Y-92093208D02*
X176327254Y-92426541D01*
X176327254Y-92426541D02*
X176279635Y-92617017D01*
X176279635Y-92617017D02*
X176184397Y-92712256D01*
X176184397Y-92712256D02*
X176089159Y-92759875D01*
X176089159Y-92759875D02*
X175898683Y-92759875D01*
X175898683Y-92759875D02*
X175803445Y-92712256D01*
X175803445Y-92712256D02*
X175708207Y-92617017D01*
X175708207Y-92617017D02*
X175660588Y-92426541D01*
X175660588Y-92426541D02*
X175660588Y-92093208D01*
X175660588Y-92093208D02*
X175708207Y-91902732D01*
X175708207Y-91902732D02*
X175803445Y-91807494D01*
X175803445Y-91807494D02*
X175898683Y-91759875D01*
X173136779Y-94369819D02*
X173136779Y-93369819D01*
X173136779Y-93369819D02*
X173470112Y-94084104D01*
X173470112Y-94084104D02*
X173803445Y-93369819D01*
X173803445Y-93369819D02*
X173803445Y-94369819D01*
X174470112Y-93369819D02*
X174660588Y-93369819D01*
X174660588Y-93369819D02*
X174755826Y-93417438D01*
X174755826Y-93417438D02*
X174851064Y-93512676D01*
X174851064Y-93512676D02*
X174898683Y-93703152D01*
X174898683Y-93703152D02*
X174898683Y-94036485D01*
X174898683Y-94036485D02*
X174851064Y-94226961D01*
X174851064Y-94226961D02*
X174755826Y-94322200D01*
X174755826Y-94322200D02*
X174660588Y-94369819D01*
X174660588Y-94369819D02*
X174470112Y-94369819D01*
X174470112Y-94369819D02*
X174374874Y-94322200D01*
X174374874Y-94322200D02*
X174279636Y-94226961D01*
X174279636Y-94226961D02*
X174232017Y-94036485D01*
X174232017Y-94036485D02*
X174232017Y-93703152D01*
X174232017Y-93703152D02*
X174279636Y-93512676D01*
X174279636Y-93512676D02*
X174374874Y-93417438D01*
X174374874Y-93417438D02*
X174470112Y-93369819D01*
X175279636Y-94322200D02*
X175422493Y-94369819D01*
X175422493Y-94369819D02*
X175660588Y-94369819D01*
X175660588Y-94369819D02*
X175755826Y-94322200D01*
X175755826Y-94322200D02*
X175803445Y-94274580D01*
X175803445Y-94274580D02*
X175851064Y-94179342D01*
X175851064Y-94179342D02*
X175851064Y-94084104D01*
X175851064Y-94084104D02*
X175803445Y-93988866D01*
X175803445Y-93988866D02*
X175755826Y-93941247D01*
X175755826Y-93941247D02*
X175660588Y-93893628D01*
X175660588Y-93893628D02*
X175470112Y-93846009D01*
X175470112Y-93846009D02*
X175374874Y-93798390D01*
X175374874Y-93798390D02*
X175327255Y-93750771D01*
X175327255Y-93750771D02*
X175279636Y-93655533D01*
X175279636Y-93655533D02*
X175279636Y-93560295D01*
X175279636Y-93560295D02*
X175327255Y-93465057D01*
X175327255Y-93465057D02*
X175374874Y-93417438D01*
X175374874Y-93417438D02*
X175470112Y-93369819D01*
X175470112Y-93369819D02*
X175708207Y-93369819D01*
X175708207Y-93369819D02*
X175851064Y-93417438D01*
X176279636Y-94369819D02*
X176279636Y-93369819D01*
D12*
X130056265Y-60724800D02*
X130199122Y-60772419D01*
X130199122Y-60772419D02*
X130437217Y-60772419D01*
X130437217Y-60772419D02*
X130532455Y-60724800D01*
X130532455Y-60724800D02*
X130580074Y-60677180D01*
X130580074Y-60677180D02*
X130627693Y-60581942D01*
X130627693Y-60581942D02*
X130627693Y-60486704D01*
X130627693Y-60486704D02*
X130580074Y-60391466D01*
X130580074Y-60391466D02*
X130532455Y-60343847D01*
X130532455Y-60343847D02*
X130437217Y-60296228D01*
X130437217Y-60296228D02*
X130246741Y-60248609D01*
X130246741Y-60248609D02*
X130151503Y-60200990D01*
X130151503Y-60200990D02*
X130103884Y-60153371D01*
X130103884Y-60153371D02*
X130056265Y-60058133D01*
X130056265Y-60058133D02*
X130056265Y-59962895D01*
X130056265Y-59962895D02*
X130103884Y-59867657D01*
X130103884Y-59867657D02*
X130151503Y-59820038D01*
X130151503Y-59820038D02*
X130246741Y-59772419D01*
X130246741Y-59772419D02*
X130484836Y-59772419D01*
X130484836Y-59772419D02*
X130627693Y-59820038D01*
X131484836Y-60772419D02*
X131484836Y-60248609D01*
X131484836Y-60248609D02*
X131437217Y-60153371D01*
X131437217Y-60153371D02*
X131341979Y-60105752D01*
X131341979Y-60105752D02*
X131151503Y-60105752D01*
X131151503Y-60105752D02*
X131056265Y-60153371D01*
X131484836Y-60724800D02*
X131389598Y-60772419D01*
X131389598Y-60772419D02*
X131151503Y-60772419D01*
X131151503Y-60772419D02*
X131056265Y-60724800D01*
X131056265Y-60724800D02*
X131008646Y-60629561D01*
X131008646Y-60629561D02*
X131008646Y-60534323D01*
X131008646Y-60534323D02*
X131056265Y-60439085D01*
X131056265Y-60439085D02*
X131151503Y-60391466D01*
X131151503Y-60391466D02*
X131389598Y-60391466D01*
X131389598Y-60391466D02*
X131484836Y-60343847D01*
X131818170Y-60105752D02*
X132199122Y-60105752D01*
X131961027Y-60772419D02*
X131961027Y-59915276D01*
X131961027Y-59915276D02*
X132008646Y-59820038D01*
X132008646Y-59820038D02*
X132103884Y-59772419D01*
X132103884Y-59772419D02*
X132199122Y-59772419D01*
X132913408Y-60724800D02*
X132818170Y-60772419D01*
X132818170Y-60772419D02*
X132627694Y-60772419D01*
X132627694Y-60772419D02*
X132532456Y-60724800D01*
X132532456Y-60724800D02*
X132484837Y-60629561D01*
X132484837Y-60629561D02*
X132484837Y-60248609D01*
X132484837Y-60248609D02*
X132532456Y-60153371D01*
X132532456Y-60153371D02*
X132627694Y-60105752D01*
X132627694Y-60105752D02*
X132818170Y-60105752D01*
X132818170Y-60105752D02*
X132913408Y-60153371D01*
X132913408Y-60153371D02*
X132961027Y-60248609D01*
X132961027Y-60248609D02*
X132961027Y-60343847D01*
X132961027Y-60343847D02*
X132484837Y-60439085D01*
X133389599Y-60772419D02*
X133389599Y-59772419D01*
X133389599Y-60153371D02*
X133484837Y-60105752D01*
X133484837Y-60105752D02*
X133675313Y-60105752D01*
X133675313Y-60105752D02*
X133770551Y-60153371D01*
X133770551Y-60153371D02*
X133818170Y-60200990D01*
X133818170Y-60200990D02*
X133865789Y-60296228D01*
X133865789Y-60296228D02*
X133865789Y-60581942D01*
X133865789Y-60581942D02*
X133818170Y-60677180D01*
X133818170Y-60677180D02*
X133770551Y-60724800D01*
X133770551Y-60724800D02*
X133675313Y-60772419D01*
X133675313Y-60772419D02*
X133484837Y-60772419D01*
X133484837Y-60772419D02*
X133389599Y-60724800D01*
X134437218Y-60772419D02*
X134341980Y-60724800D01*
X134341980Y-60724800D02*
X134294361Y-60677180D01*
X134294361Y-60677180D02*
X134246742Y-60581942D01*
X134246742Y-60581942D02*
X134246742Y-60296228D01*
X134246742Y-60296228D02*
X134294361Y-60200990D01*
X134294361Y-60200990D02*
X134341980Y-60153371D01*
X134341980Y-60153371D02*
X134437218Y-60105752D01*
X134437218Y-60105752D02*
X134580075Y-60105752D01*
X134580075Y-60105752D02*
X134675313Y-60153371D01*
X134675313Y-60153371D02*
X134722932Y-60200990D01*
X134722932Y-60200990D02*
X134770551Y-60296228D01*
X134770551Y-60296228D02*
X134770551Y-60581942D01*
X134770551Y-60581942D02*
X134722932Y-60677180D01*
X134722932Y-60677180D02*
X134675313Y-60724800D01*
X134675313Y-60724800D02*
X134580075Y-60772419D01*
X134580075Y-60772419D02*
X134437218Y-60772419D01*
X135341980Y-60772419D02*
X135246742Y-60724800D01*
X135246742Y-60724800D02*
X135199123Y-60677180D01*
X135199123Y-60677180D02*
X135151504Y-60581942D01*
X135151504Y-60581942D02*
X135151504Y-60296228D01*
X135151504Y-60296228D02*
X135199123Y-60200990D01*
X135199123Y-60200990D02*
X135246742Y-60153371D01*
X135246742Y-60153371D02*
X135341980Y-60105752D01*
X135341980Y-60105752D02*
X135484837Y-60105752D01*
X135484837Y-60105752D02*
X135580075Y-60153371D01*
X135580075Y-60153371D02*
X135627694Y-60200990D01*
X135627694Y-60200990D02*
X135675313Y-60296228D01*
X135675313Y-60296228D02*
X135675313Y-60581942D01*
X135675313Y-60581942D02*
X135627694Y-60677180D01*
X135627694Y-60677180D02*
X135580075Y-60724800D01*
X135580075Y-60724800D02*
X135484837Y-60772419D01*
X135484837Y-60772419D02*
X135341980Y-60772419D01*
X135961028Y-60105752D02*
X136341980Y-60105752D01*
X136103885Y-59772419D02*
X136103885Y-60629561D01*
X136103885Y-60629561D02*
X136151504Y-60724800D01*
X136151504Y-60724800D02*
X136246742Y-60772419D01*
X136246742Y-60772419D02*
X136341980Y-60772419D01*
D14*
X143936779Y-142488866D02*
X144698684Y-142488866D01*
D12*
X163351503Y-63777255D02*
X163422931Y-63805827D01*
X163422931Y-63805827D02*
X163446741Y-63834398D01*
X163446741Y-63834398D02*
X163470550Y-63891541D01*
X163470550Y-63891541D02*
X163470550Y-63977255D01*
X163470550Y-63977255D02*
X163446741Y-64034398D01*
X163446741Y-64034398D02*
X163422931Y-64062970D01*
X163422931Y-64062970D02*
X163375312Y-64091541D01*
X163375312Y-64091541D02*
X163184836Y-64091541D01*
X163184836Y-64091541D02*
X163184836Y-63491541D01*
X163184836Y-63491541D02*
X163351503Y-63491541D01*
X163351503Y-63491541D02*
X163399122Y-63520112D01*
X163399122Y-63520112D02*
X163422931Y-63548684D01*
X163422931Y-63548684D02*
X163446741Y-63605827D01*
X163446741Y-63605827D02*
X163446741Y-63662970D01*
X163446741Y-63662970D02*
X163422931Y-63720112D01*
X163422931Y-63720112D02*
X163399122Y-63748684D01*
X163399122Y-63748684D02*
X163351503Y-63777255D01*
X163351503Y-63777255D02*
X163184836Y-63777255D01*
X163899122Y-64091541D02*
X163899122Y-63777255D01*
X163899122Y-63777255D02*
X163875312Y-63720112D01*
X163875312Y-63720112D02*
X163827693Y-63691541D01*
X163827693Y-63691541D02*
X163732455Y-63691541D01*
X163732455Y-63691541D02*
X163684836Y-63720112D01*
X163899122Y-64062970D02*
X163851503Y-64091541D01*
X163851503Y-64091541D02*
X163732455Y-64091541D01*
X163732455Y-64091541D02*
X163684836Y-64062970D01*
X163684836Y-64062970D02*
X163661027Y-64005827D01*
X163661027Y-64005827D02*
X163661027Y-63948684D01*
X163661027Y-63948684D02*
X163684836Y-63891541D01*
X163684836Y-63891541D02*
X163732455Y-63862970D01*
X163732455Y-63862970D02*
X163851503Y-63862970D01*
X163851503Y-63862970D02*
X163899122Y-63834398D01*
X164137217Y-64091541D02*
X164137217Y-63691541D01*
X164137217Y-63805827D02*
X164161027Y-63748684D01*
X164161027Y-63748684D02*
X164184836Y-63720112D01*
X164184836Y-63720112D02*
X164232455Y-63691541D01*
X164232455Y-63691541D02*
X164280074Y-63691541D01*
X164518170Y-64091541D02*
X164470551Y-64062970D01*
X164470551Y-64062970D02*
X164446741Y-64034398D01*
X164446741Y-64034398D02*
X164422932Y-63977255D01*
X164422932Y-63977255D02*
X164422932Y-63805827D01*
X164422932Y-63805827D02*
X164446741Y-63748684D01*
X164446741Y-63748684D02*
X164470551Y-63720112D01*
X164470551Y-63720112D02*
X164518170Y-63691541D01*
X164518170Y-63691541D02*
X164589598Y-63691541D01*
X164589598Y-63691541D02*
X164637217Y-63720112D01*
X164637217Y-63720112D02*
X164661027Y-63748684D01*
X164661027Y-63748684D02*
X164684836Y-63805827D01*
X164684836Y-63805827D02*
X164684836Y-63977255D01*
X164684836Y-63977255D02*
X164661027Y-64034398D01*
X164661027Y-64034398D02*
X164637217Y-64062970D01*
X164637217Y-64062970D02*
X164589598Y-64091541D01*
X164589598Y-64091541D02*
X164518170Y-64091541D01*
X164899122Y-64091541D02*
X164899122Y-63691541D01*
X164899122Y-63748684D02*
X164922932Y-63720112D01*
X164922932Y-63720112D02*
X164970551Y-63691541D01*
X164970551Y-63691541D02*
X165041979Y-63691541D01*
X165041979Y-63691541D02*
X165089598Y-63720112D01*
X165089598Y-63720112D02*
X165113408Y-63777255D01*
X165113408Y-63777255D02*
X165113408Y-64091541D01*
X165113408Y-63777255D02*
X165137217Y-63720112D01*
X165137217Y-63720112D02*
X165184836Y-63691541D01*
X165184836Y-63691541D02*
X165256265Y-63691541D01*
X165256265Y-63691541D02*
X165303884Y-63720112D01*
X165303884Y-63720112D02*
X165327694Y-63777255D01*
X165327694Y-63777255D02*
X165327694Y-64091541D01*
X165756265Y-64062970D02*
X165708646Y-64091541D01*
X165708646Y-64091541D02*
X165613408Y-64091541D01*
X165613408Y-64091541D02*
X165565789Y-64062970D01*
X165565789Y-64062970D02*
X165541980Y-64005827D01*
X165541980Y-64005827D02*
X165541980Y-63777255D01*
X165541980Y-63777255D02*
X165565789Y-63720112D01*
X165565789Y-63720112D02*
X165613408Y-63691541D01*
X165613408Y-63691541D02*
X165708646Y-63691541D01*
X165708646Y-63691541D02*
X165756265Y-63720112D01*
X165756265Y-63720112D02*
X165780075Y-63777255D01*
X165780075Y-63777255D02*
X165780075Y-63834398D01*
X165780075Y-63834398D02*
X165541980Y-63891541D01*
X165922932Y-63691541D02*
X166113408Y-63691541D01*
X165994360Y-63491541D02*
X165994360Y-64005827D01*
X165994360Y-64005827D02*
X166018170Y-64062970D01*
X166018170Y-64062970D02*
X166065789Y-64091541D01*
X166065789Y-64091541D02*
X166113408Y-64091541D01*
X166470550Y-64062970D02*
X166422931Y-64091541D01*
X166422931Y-64091541D02*
X166327693Y-64091541D01*
X166327693Y-64091541D02*
X166280074Y-64062970D01*
X166280074Y-64062970D02*
X166256265Y-64005827D01*
X166256265Y-64005827D02*
X166256265Y-63777255D01*
X166256265Y-63777255D02*
X166280074Y-63720112D01*
X166280074Y-63720112D02*
X166327693Y-63691541D01*
X166327693Y-63691541D02*
X166422931Y-63691541D01*
X166422931Y-63691541D02*
X166470550Y-63720112D01*
X166470550Y-63720112D02*
X166494360Y-63777255D01*
X166494360Y-63777255D02*
X166494360Y-63834398D01*
X166494360Y-63834398D02*
X166256265Y-63891541D01*
X166708645Y-64091541D02*
X166708645Y-63691541D01*
X166708645Y-63805827D02*
X166732455Y-63748684D01*
X166732455Y-63748684D02*
X166756264Y-63720112D01*
X166756264Y-63720112D02*
X166803883Y-63691541D01*
X166803883Y-63691541D02*
X166851502Y-63691541D01*
X167018169Y-64034398D02*
X167041979Y-64062970D01*
X167041979Y-64062970D02*
X167018169Y-64091541D01*
X167018169Y-64091541D02*
X166994360Y-64062970D01*
X166994360Y-64062970D02*
X167018169Y-64034398D01*
X167018169Y-64034398D02*
X167018169Y-64091541D01*
X167018169Y-63720112D02*
X167041979Y-63748684D01*
X167041979Y-63748684D02*
X167018169Y-63777255D01*
X167018169Y-63777255D02*
X166994360Y-63748684D01*
X166994360Y-63748684D02*
X167018169Y-63720112D01*
X167018169Y-63720112D02*
X167018169Y-63777255D01*
X167803883Y-63777255D02*
X167875311Y-63805827D01*
X167875311Y-63805827D02*
X167899121Y-63834398D01*
X167899121Y-63834398D02*
X167922930Y-63891541D01*
X167922930Y-63891541D02*
X167922930Y-63977255D01*
X167922930Y-63977255D02*
X167899121Y-64034398D01*
X167899121Y-64034398D02*
X167875311Y-64062970D01*
X167875311Y-64062970D02*
X167827692Y-64091541D01*
X167827692Y-64091541D02*
X167637216Y-64091541D01*
X167637216Y-64091541D02*
X167637216Y-63491541D01*
X167637216Y-63491541D02*
X167803883Y-63491541D01*
X167803883Y-63491541D02*
X167851502Y-63520112D01*
X167851502Y-63520112D02*
X167875311Y-63548684D01*
X167875311Y-63548684D02*
X167899121Y-63605827D01*
X167899121Y-63605827D02*
X167899121Y-63662970D01*
X167899121Y-63662970D02*
X167875311Y-63720112D01*
X167875311Y-63720112D02*
X167851502Y-63748684D01*
X167851502Y-63748684D02*
X167803883Y-63777255D01*
X167803883Y-63777255D02*
X167637216Y-63777255D01*
X168137216Y-64091541D02*
X168137216Y-63491541D01*
X168137216Y-63491541D02*
X168303883Y-63920112D01*
X168303883Y-63920112D02*
X168470549Y-63491541D01*
X168470549Y-63491541D02*
X168470549Y-64091541D01*
X168708645Y-64091541D02*
X168708645Y-63491541D01*
X168708645Y-63491541D02*
X168899121Y-63491541D01*
X168899121Y-63491541D02*
X168946740Y-63520112D01*
X168946740Y-63520112D02*
X168970550Y-63548684D01*
X168970550Y-63548684D02*
X168994359Y-63605827D01*
X168994359Y-63605827D02*
X168994359Y-63691541D01*
X168994359Y-63691541D02*
X168970550Y-63748684D01*
X168970550Y-63748684D02*
X168946740Y-63777255D01*
X168946740Y-63777255D02*
X168899121Y-63805827D01*
X168899121Y-63805827D02*
X168708645Y-63805827D01*
X169446740Y-63491541D02*
X169208645Y-63491541D01*
X169208645Y-63491541D02*
X169184836Y-63777255D01*
X169184836Y-63777255D02*
X169208645Y-63748684D01*
X169208645Y-63748684D02*
X169256264Y-63720112D01*
X169256264Y-63720112D02*
X169375312Y-63720112D01*
X169375312Y-63720112D02*
X169422931Y-63748684D01*
X169422931Y-63748684D02*
X169446740Y-63777255D01*
X169446740Y-63777255D02*
X169470550Y-63834398D01*
X169470550Y-63834398D02*
X169470550Y-63977255D01*
X169470550Y-63977255D02*
X169446740Y-64034398D01*
X169446740Y-64034398D02*
X169422931Y-64062970D01*
X169422931Y-64062970D02*
X169375312Y-64091541D01*
X169375312Y-64091541D02*
X169256264Y-64091541D01*
X169256264Y-64091541D02*
X169208645Y-64062970D01*
X169208645Y-64062970D02*
X169184836Y-64034398D01*
X169756264Y-63748684D02*
X169708645Y-63720112D01*
X169708645Y-63720112D02*
X169684835Y-63691541D01*
X169684835Y-63691541D02*
X169661026Y-63634398D01*
X169661026Y-63634398D02*
X169661026Y-63605827D01*
X169661026Y-63605827D02*
X169684835Y-63548684D01*
X169684835Y-63548684D02*
X169708645Y-63520112D01*
X169708645Y-63520112D02*
X169756264Y-63491541D01*
X169756264Y-63491541D02*
X169851502Y-63491541D01*
X169851502Y-63491541D02*
X169899121Y-63520112D01*
X169899121Y-63520112D02*
X169922930Y-63548684D01*
X169922930Y-63548684D02*
X169946740Y-63605827D01*
X169946740Y-63605827D02*
X169946740Y-63634398D01*
X169946740Y-63634398D02*
X169922930Y-63691541D01*
X169922930Y-63691541D02*
X169899121Y-63720112D01*
X169899121Y-63720112D02*
X169851502Y-63748684D01*
X169851502Y-63748684D02*
X169756264Y-63748684D01*
X169756264Y-63748684D02*
X169708645Y-63777255D01*
X169708645Y-63777255D02*
X169684835Y-63805827D01*
X169684835Y-63805827D02*
X169661026Y-63862970D01*
X169661026Y-63862970D02*
X169661026Y-63977255D01*
X169661026Y-63977255D02*
X169684835Y-64034398D01*
X169684835Y-64034398D02*
X169708645Y-64062970D01*
X169708645Y-64062970D02*
X169756264Y-64091541D01*
X169756264Y-64091541D02*
X169851502Y-64091541D01*
X169851502Y-64091541D02*
X169899121Y-64062970D01*
X169899121Y-64062970D02*
X169922930Y-64034398D01*
X169922930Y-64034398D02*
X169946740Y-63977255D01*
X169946740Y-63977255D02*
X169946740Y-63862970D01*
X169946740Y-63862970D02*
X169922930Y-63805827D01*
X169922930Y-63805827D02*
X169899121Y-63777255D01*
X169899121Y-63777255D02*
X169851502Y-63748684D01*
X170422930Y-64091541D02*
X170137216Y-64091541D01*
X170280073Y-64091541D02*
X170280073Y-63491541D01*
X170280073Y-63491541D02*
X170232454Y-63577255D01*
X170232454Y-63577255D02*
X170184835Y-63634398D01*
X170184835Y-63634398D02*
X170137216Y-63662970D01*
X163422931Y-65057507D02*
X163184836Y-65057507D01*
X163184836Y-65057507D02*
X163184836Y-64457507D01*
X163661027Y-65057507D02*
X163613408Y-65028936D01*
X163613408Y-65028936D02*
X163589598Y-65000364D01*
X163589598Y-65000364D02*
X163565789Y-64943221D01*
X163565789Y-64943221D02*
X163565789Y-64771793D01*
X163565789Y-64771793D02*
X163589598Y-64714650D01*
X163589598Y-64714650D02*
X163613408Y-64686078D01*
X163613408Y-64686078D02*
X163661027Y-64657507D01*
X163661027Y-64657507D02*
X163732455Y-64657507D01*
X163732455Y-64657507D02*
X163780074Y-64686078D01*
X163780074Y-64686078D02*
X163803884Y-64714650D01*
X163803884Y-64714650D02*
X163827693Y-64771793D01*
X163827693Y-64771793D02*
X163827693Y-64943221D01*
X163827693Y-64943221D02*
X163803884Y-65000364D01*
X163803884Y-65000364D02*
X163780074Y-65028936D01*
X163780074Y-65028936D02*
X163732455Y-65057507D01*
X163732455Y-65057507D02*
X163661027Y-65057507D01*
X164041979Y-65057507D02*
X164041979Y-64657507D01*
X164041979Y-64771793D02*
X164065789Y-64714650D01*
X164065789Y-64714650D02*
X164089598Y-64686078D01*
X164089598Y-64686078D02*
X164137217Y-64657507D01*
X164137217Y-64657507D02*
X164184836Y-64657507D01*
X164565789Y-65057507D02*
X164565789Y-64743221D01*
X164565789Y-64743221D02*
X164541979Y-64686078D01*
X164541979Y-64686078D02*
X164494360Y-64657507D01*
X164494360Y-64657507D02*
X164399122Y-64657507D01*
X164399122Y-64657507D02*
X164351503Y-64686078D01*
X164565789Y-65028936D02*
X164518170Y-65057507D01*
X164518170Y-65057507D02*
X164399122Y-65057507D01*
X164399122Y-65057507D02*
X164351503Y-65028936D01*
X164351503Y-65028936D02*
X164327694Y-64971793D01*
X164327694Y-64971793D02*
X164327694Y-64914650D01*
X164327694Y-64914650D02*
X164351503Y-64857507D01*
X164351503Y-64857507D02*
X164399122Y-64828936D01*
X164399122Y-64828936D02*
X164518170Y-64828936D01*
X164518170Y-64828936D02*
X164565789Y-64800364D01*
X166708644Y-65000364D02*
X166732454Y-65028936D01*
X166732454Y-65028936D02*
X166708644Y-65057507D01*
X166708644Y-65057507D02*
X166684835Y-65028936D01*
X166684835Y-65028936D02*
X166708644Y-65000364D01*
X166708644Y-65000364D02*
X166708644Y-65057507D01*
X166708644Y-64686078D02*
X166732454Y-64714650D01*
X166732454Y-64714650D02*
X166708644Y-64743221D01*
X166708644Y-64743221D02*
X166684835Y-64714650D01*
X166684835Y-64714650D02*
X166708644Y-64686078D01*
X166708644Y-64686078D02*
X166708644Y-64743221D01*
X167327691Y-64743221D02*
X167494358Y-64743221D01*
X167565786Y-65057507D02*
X167327691Y-65057507D01*
X167327691Y-65057507D02*
X167327691Y-64457507D01*
X167327691Y-64457507D02*
X167565786Y-64457507D01*
X167756263Y-64514650D02*
X167780072Y-64486078D01*
X167780072Y-64486078D02*
X167827691Y-64457507D01*
X167827691Y-64457507D02*
X167946739Y-64457507D01*
X167946739Y-64457507D02*
X167994358Y-64486078D01*
X167994358Y-64486078D02*
X168018167Y-64514650D01*
X168018167Y-64514650D02*
X168041977Y-64571793D01*
X168041977Y-64571793D02*
X168041977Y-64628936D01*
X168041977Y-64628936D02*
X168018167Y-64714650D01*
X168018167Y-64714650D02*
X167732453Y-65057507D01*
X167732453Y-65057507D02*
X168041977Y-65057507D01*
X168232453Y-64514650D02*
X168256262Y-64486078D01*
X168256262Y-64486078D02*
X168303881Y-64457507D01*
X168303881Y-64457507D02*
X168422929Y-64457507D01*
X168422929Y-64457507D02*
X168470548Y-64486078D01*
X168470548Y-64486078D02*
X168494357Y-64514650D01*
X168494357Y-64514650D02*
X168518167Y-64571793D01*
X168518167Y-64571793D02*
X168518167Y-64628936D01*
X168518167Y-64628936D02*
X168494357Y-64714650D01*
X168494357Y-64714650D02*
X168208643Y-65057507D01*
X168208643Y-65057507D02*
X168518167Y-65057507D01*
X168732452Y-64828936D02*
X169113405Y-64828936D01*
X169375310Y-65057507D02*
X169470548Y-65057507D01*
X169470548Y-65057507D02*
X169518167Y-65028936D01*
X169518167Y-65028936D02*
X169541976Y-65000364D01*
X169541976Y-65000364D02*
X169589595Y-64914650D01*
X169589595Y-64914650D02*
X169613405Y-64800364D01*
X169613405Y-64800364D02*
X169613405Y-64571793D01*
X169613405Y-64571793D02*
X169589595Y-64514650D01*
X169589595Y-64514650D02*
X169565786Y-64486078D01*
X169565786Y-64486078D02*
X169518167Y-64457507D01*
X169518167Y-64457507D02*
X169422929Y-64457507D01*
X169422929Y-64457507D02*
X169375310Y-64486078D01*
X169375310Y-64486078D02*
X169351500Y-64514650D01*
X169351500Y-64514650D02*
X169327691Y-64571793D01*
X169327691Y-64571793D02*
X169327691Y-64714650D01*
X169327691Y-64714650D02*
X169351500Y-64771793D01*
X169351500Y-64771793D02*
X169375310Y-64800364D01*
X169375310Y-64800364D02*
X169422929Y-64828936D01*
X169422929Y-64828936D02*
X169518167Y-64828936D01*
X169518167Y-64828936D02*
X169565786Y-64800364D01*
X169565786Y-64800364D02*
X169589595Y-64771793D01*
X169589595Y-64771793D02*
X169613405Y-64714650D01*
X169922928Y-64457507D02*
X169970547Y-64457507D01*
X169970547Y-64457507D02*
X170018166Y-64486078D01*
X170018166Y-64486078D02*
X170041976Y-64514650D01*
X170041976Y-64514650D02*
X170065785Y-64571793D01*
X170065785Y-64571793D02*
X170089595Y-64686078D01*
X170089595Y-64686078D02*
X170089595Y-64828936D01*
X170089595Y-64828936D02*
X170065785Y-64943221D01*
X170065785Y-64943221D02*
X170041976Y-65000364D01*
X170041976Y-65000364D02*
X170018166Y-65028936D01*
X170018166Y-65028936D02*
X169970547Y-65057507D01*
X169970547Y-65057507D02*
X169922928Y-65057507D01*
X169922928Y-65057507D02*
X169875309Y-65028936D01*
X169875309Y-65028936D02*
X169851500Y-65000364D01*
X169851500Y-65000364D02*
X169827690Y-64943221D01*
X169827690Y-64943221D02*
X169803881Y-64828936D01*
X169803881Y-64828936D02*
X169803881Y-64686078D01*
X169803881Y-64686078D02*
X169827690Y-64571793D01*
X169827690Y-64571793D02*
X169851500Y-64514650D01*
X169851500Y-64514650D02*
X169875309Y-64486078D01*
X169875309Y-64486078D02*
X169922928Y-64457507D01*
X170399118Y-64457507D02*
X170446737Y-64457507D01*
X170446737Y-64457507D02*
X170494356Y-64486078D01*
X170494356Y-64486078D02*
X170518166Y-64514650D01*
X170518166Y-64514650D02*
X170541975Y-64571793D01*
X170541975Y-64571793D02*
X170565785Y-64686078D01*
X170565785Y-64686078D02*
X170565785Y-64828936D01*
X170565785Y-64828936D02*
X170541975Y-64943221D01*
X170541975Y-64943221D02*
X170518166Y-65000364D01*
X170518166Y-65000364D02*
X170494356Y-65028936D01*
X170494356Y-65028936D02*
X170446737Y-65057507D01*
X170446737Y-65057507D02*
X170399118Y-65057507D01*
X170399118Y-65057507D02*
X170351499Y-65028936D01*
X170351499Y-65028936D02*
X170327690Y-65000364D01*
X170327690Y-65000364D02*
X170303880Y-64943221D01*
X170303880Y-64943221D02*
X170280071Y-64828936D01*
X170280071Y-64828936D02*
X170280071Y-64686078D01*
X170280071Y-64686078D02*
X170303880Y-64571793D01*
X170303880Y-64571793D02*
X170327690Y-64514650D01*
X170327690Y-64514650D02*
X170351499Y-64486078D01*
X170351499Y-64486078D02*
X170399118Y-64457507D01*
X170780070Y-65057507D02*
X170780070Y-64457507D01*
X170780070Y-64457507D02*
X170946737Y-64886078D01*
X170946737Y-64886078D02*
X171113403Y-64457507D01*
X171113403Y-64457507D02*
X171113403Y-65057507D01*
X171327690Y-64514650D02*
X171351499Y-64486078D01*
X171351499Y-64486078D02*
X171399118Y-64457507D01*
X171399118Y-64457507D02*
X171518166Y-64457507D01*
X171518166Y-64457507D02*
X171565785Y-64486078D01*
X171565785Y-64486078D02*
X171589594Y-64514650D01*
X171589594Y-64514650D02*
X171613404Y-64571793D01*
X171613404Y-64571793D02*
X171613404Y-64628936D01*
X171613404Y-64628936D02*
X171589594Y-64714650D01*
X171589594Y-64714650D02*
X171303880Y-65057507D01*
X171303880Y-65057507D02*
X171613404Y-65057507D01*
X171803880Y-64514650D02*
X171827689Y-64486078D01*
X171827689Y-64486078D02*
X171875308Y-64457507D01*
X171875308Y-64457507D02*
X171994356Y-64457507D01*
X171994356Y-64457507D02*
X172041975Y-64486078D01*
X172041975Y-64486078D02*
X172065784Y-64514650D01*
X172065784Y-64514650D02*
X172089594Y-64571793D01*
X172089594Y-64571793D02*
X172089594Y-64628936D01*
X172089594Y-64628936D02*
X172065784Y-64714650D01*
X172065784Y-64714650D02*
X171780070Y-65057507D01*
X171780070Y-65057507D02*
X172089594Y-65057507D01*
X172280070Y-65028936D02*
X172351498Y-65057507D01*
X172351498Y-65057507D02*
X172470546Y-65057507D01*
X172470546Y-65057507D02*
X172518165Y-65028936D01*
X172518165Y-65028936D02*
X172541974Y-65000364D01*
X172541974Y-65000364D02*
X172565784Y-64943221D01*
X172565784Y-64943221D02*
X172565784Y-64886078D01*
X172565784Y-64886078D02*
X172541974Y-64828936D01*
X172541974Y-64828936D02*
X172518165Y-64800364D01*
X172518165Y-64800364D02*
X172470546Y-64771793D01*
X172470546Y-64771793D02*
X172375308Y-64743221D01*
X172375308Y-64743221D02*
X172327689Y-64714650D01*
X172327689Y-64714650D02*
X172303879Y-64686078D01*
X172303879Y-64686078D02*
X172280070Y-64628936D01*
X172280070Y-64628936D02*
X172280070Y-64571793D01*
X172280070Y-64571793D02*
X172303879Y-64514650D01*
X172303879Y-64514650D02*
X172327689Y-64486078D01*
X172327689Y-64486078D02*
X172375308Y-64457507D01*
X172375308Y-64457507D02*
X172494355Y-64457507D01*
X172494355Y-64457507D02*
X172565784Y-64486078D01*
X163184836Y-66023473D02*
X163184836Y-65423473D01*
X163184836Y-65423473D02*
X163351503Y-65852044D01*
X163351503Y-65852044D02*
X163518169Y-65423473D01*
X163518169Y-65423473D02*
X163518169Y-66023473D01*
X163970551Y-66023473D02*
X163970551Y-65709187D01*
X163970551Y-65709187D02*
X163946741Y-65652044D01*
X163946741Y-65652044D02*
X163899122Y-65623473D01*
X163899122Y-65623473D02*
X163803884Y-65623473D01*
X163803884Y-65623473D02*
X163756265Y-65652044D01*
X163970551Y-65994902D02*
X163922932Y-66023473D01*
X163922932Y-66023473D02*
X163803884Y-66023473D01*
X163803884Y-66023473D02*
X163756265Y-65994902D01*
X163756265Y-65994902D02*
X163732456Y-65937759D01*
X163732456Y-65937759D02*
X163732456Y-65880616D01*
X163732456Y-65880616D02*
X163756265Y-65823473D01*
X163756265Y-65823473D02*
X163803884Y-65794902D01*
X163803884Y-65794902D02*
X163922932Y-65794902D01*
X163922932Y-65794902D02*
X163970551Y-65766330D01*
X164422932Y-65623473D02*
X164422932Y-66109187D01*
X164422932Y-66109187D02*
X164399122Y-66166330D01*
X164399122Y-66166330D02*
X164375313Y-66194902D01*
X164375313Y-66194902D02*
X164327694Y-66223473D01*
X164327694Y-66223473D02*
X164256265Y-66223473D01*
X164256265Y-66223473D02*
X164208646Y-66194902D01*
X164422932Y-65994902D02*
X164375313Y-66023473D01*
X164375313Y-66023473D02*
X164280075Y-66023473D01*
X164280075Y-66023473D02*
X164232456Y-65994902D01*
X164232456Y-65994902D02*
X164208646Y-65966330D01*
X164208646Y-65966330D02*
X164184837Y-65909187D01*
X164184837Y-65909187D02*
X164184837Y-65737759D01*
X164184837Y-65737759D02*
X164208646Y-65680616D01*
X164208646Y-65680616D02*
X164232456Y-65652044D01*
X164232456Y-65652044D02*
X164280075Y-65623473D01*
X164280075Y-65623473D02*
X164375313Y-65623473D01*
X164375313Y-65623473D02*
X164422932Y-65652044D01*
X164661027Y-65623473D02*
X164661027Y-66023473D01*
X164661027Y-65680616D02*
X164684837Y-65652044D01*
X164684837Y-65652044D02*
X164732456Y-65623473D01*
X164732456Y-65623473D02*
X164803884Y-65623473D01*
X164803884Y-65623473D02*
X164851503Y-65652044D01*
X164851503Y-65652044D02*
X164875313Y-65709187D01*
X164875313Y-65709187D02*
X164875313Y-66023473D01*
X165303884Y-65994902D02*
X165256265Y-66023473D01*
X165256265Y-66023473D02*
X165161027Y-66023473D01*
X165161027Y-66023473D02*
X165113408Y-65994902D01*
X165113408Y-65994902D02*
X165089599Y-65937759D01*
X165089599Y-65937759D02*
X165089599Y-65709187D01*
X165089599Y-65709187D02*
X165113408Y-65652044D01*
X165113408Y-65652044D02*
X165161027Y-65623473D01*
X165161027Y-65623473D02*
X165256265Y-65623473D01*
X165256265Y-65623473D02*
X165303884Y-65652044D01*
X165303884Y-65652044D02*
X165327694Y-65709187D01*
X165327694Y-65709187D02*
X165327694Y-65766330D01*
X165327694Y-65766330D02*
X165089599Y-65823473D01*
X165470551Y-65623473D02*
X165661027Y-65623473D01*
X165541979Y-65423473D02*
X165541979Y-65937759D01*
X165541979Y-65937759D02*
X165565789Y-65994902D01*
X165565789Y-65994902D02*
X165613408Y-66023473D01*
X165613408Y-66023473D02*
X165661027Y-66023473D01*
X165827693Y-65966330D02*
X165851503Y-65994902D01*
X165851503Y-65994902D02*
X165827693Y-66023473D01*
X165827693Y-66023473D02*
X165803884Y-65994902D01*
X165803884Y-65994902D02*
X165827693Y-65966330D01*
X165827693Y-65966330D02*
X165827693Y-66023473D01*
X166827692Y-65966330D02*
X166851502Y-65994902D01*
X166851502Y-65994902D02*
X166827692Y-66023473D01*
X166827692Y-66023473D02*
X166803883Y-65994902D01*
X166803883Y-65994902D02*
X166827692Y-65966330D01*
X166827692Y-65966330D02*
X166827692Y-66023473D01*
X166827692Y-65652044D02*
X166851502Y-65680616D01*
X166851502Y-65680616D02*
X166827692Y-65709187D01*
X166827692Y-65709187D02*
X166803883Y-65680616D01*
X166803883Y-65680616D02*
X166827692Y-65652044D01*
X166827692Y-65652044D02*
X166827692Y-65709187D01*
X167613406Y-65709187D02*
X167684834Y-65737759D01*
X167684834Y-65737759D02*
X167708644Y-65766330D01*
X167708644Y-65766330D02*
X167732453Y-65823473D01*
X167732453Y-65823473D02*
X167732453Y-65909187D01*
X167732453Y-65909187D02*
X167708644Y-65966330D01*
X167708644Y-65966330D02*
X167684834Y-65994902D01*
X167684834Y-65994902D02*
X167637215Y-66023473D01*
X167637215Y-66023473D02*
X167446739Y-66023473D01*
X167446739Y-66023473D02*
X167446739Y-65423473D01*
X167446739Y-65423473D02*
X167613406Y-65423473D01*
X167613406Y-65423473D02*
X167661025Y-65452044D01*
X167661025Y-65452044D02*
X167684834Y-65480616D01*
X167684834Y-65480616D02*
X167708644Y-65537759D01*
X167708644Y-65537759D02*
X167708644Y-65594902D01*
X167708644Y-65594902D02*
X167684834Y-65652044D01*
X167684834Y-65652044D02*
X167661025Y-65680616D01*
X167661025Y-65680616D02*
X167613406Y-65709187D01*
X167613406Y-65709187D02*
X167446739Y-65709187D01*
X167946739Y-66023473D02*
X167946739Y-65423473D01*
X167946739Y-65423473D02*
X168113406Y-65852044D01*
X168113406Y-65852044D02*
X168280072Y-65423473D01*
X168280072Y-65423473D02*
X168280072Y-66023473D01*
X168518168Y-66023473D02*
X168518168Y-65423473D01*
X168518168Y-65423473D02*
X168684835Y-65852044D01*
X168684835Y-65852044D02*
X168851501Y-65423473D01*
X168851501Y-65423473D02*
X168851501Y-66023473D01*
X169041978Y-65423473D02*
X169351502Y-65423473D01*
X169351502Y-65423473D02*
X169184835Y-65652044D01*
X169184835Y-65652044D02*
X169256264Y-65652044D01*
X169256264Y-65652044D02*
X169303883Y-65680616D01*
X169303883Y-65680616D02*
X169327692Y-65709187D01*
X169327692Y-65709187D02*
X169351502Y-65766330D01*
X169351502Y-65766330D02*
X169351502Y-65909187D01*
X169351502Y-65909187D02*
X169327692Y-65966330D01*
X169327692Y-65966330D02*
X169303883Y-65994902D01*
X169303883Y-65994902D02*
X169256264Y-66023473D01*
X169256264Y-66023473D02*
X169113407Y-66023473D01*
X169113407Y-66023473D02*
X169065788Y-65994902D01*
X169065788Y-65994902D02*
X169041978Y-65966330D01*
X169803882Y-65423473D02*
X169565787Y-65423473D01*
X169565787Y-65423473D02*
X169541978Y-65709187D01*
X169541978Y-65709187D02*
X169565787Y-65680616D01*
X169565787Y-65680616D02*
X169613406Y-65652044D01*
X169613406Y-65652044D02*
X169732454Y-65652044D01*
X169732454Y-65652044D02*
X169780073Y-65680616D01*
X169780073Y-65680616D02*
X169803882Y-65709187D01*
X169803882Y-65709187D02*
X169827692Y-65766330D01*
X169827692Y-65766330D02*
X169827692Y-65909187D01*
X169827692Y-65909187D02*
X169803882Y-65966330D01*
X169803882Y-65966330D02*
X169780073Y-65994902D01*
X169780073Y-65994902D02*
X169732454Y-66023473D01*
X169732454Y-66023473D02*
X169613406Y-66023473D01*
X169613406Y-66023473D02*
X169565787Y-65994902D01*
X169565787Y-65994902D02*
X169541978Y-65966330D01*
X170137215Y-65423473D02*
X170184834Y-65423473D01*
X170184834Y-65423473D02*
X170232453Y-65452044D01*
X170232453Y-65452044D02*
X170256263Y-65480616D01*
X170256263Y-65480616D02*
X170280072Y-65537759D01*
X170280072Y-65537759D02*
X170303882Y-65652044D01*
X170303882Y-65652044D02*
X170303882Y-65794902D01*
X170303882Y-65794902D02*
X170280072Y-65909187D01*
X170280072Y-65909187D02*
X170256263Y-65966330D01*
X170256263Y-65966330D02*
X170232453Y-65994902D01*
X170232453Y-65994902D02*
X170184834Y-66023473D01*
X170184834Y-66023473D02*
X170137215Y-66023473D01*
X170137215Y-66023473D02*
X170089596Y-65994902D01*
X170089596Y-65994902D02*
X170065787Y-65966330D01*
X170065787Y-65966330D02*
X170041977Y-65909187D01*
X170041977Y-65909187D02*
X170018168Y-65794902D01*
X170018168Y-65794902D02*
X170018168Y-65652044D01*
X170018168Y-65652044D02*
X170041977Y-65537759D01*
X170041977Y-65537759D02*
X170065787Y-65480616D01*
X170065787Y-65480616D02*
X170089596Y-65452044D01*
X170089596Y-65452044D02*
X170137215Y-65423473D01*
X163446741Y-66418010D02*
X163399122Y-66389439D01*
X163399122Y-66389439D02*
X163327693Y-66389439D01*
X163327693Y-66389439D02*
X163256265Y-66418010D01*
X163256265Y-66418010D02*
X163208646Y-66475153D01*
X163208646Y-66475153D02*
X163184836Y-66532296D01*
X163184836Y-66532296D02*
X163161027Y-66646582D01*
X163161027Y-66646582D02*
X163161027Y-66732296D01*
X163161027Y-66732296D02*
X163184836Y-66846582D01*
X163184836Y-66846582D02*
X163208646Y-66903725D01*
X163208646Y-66903725D02*
X163256265Y-66960868D01*
X163256265Y-66960868D02*
X163327693Y-66989439D01*
X163327693Y-66989439D02*
X163375312Y-66989439D01*
X163375312Y-66989439D02*
X163446741Y-66960868D01*
X163446741Y-66960868D02*
X163470550Y-66932296D01*
X163470550Y-66932296D02*
X163470550Y-66732296D01*
X163470550Y-66732296D02*
X163375312Y-66732296D01*
X163684836Y-66989439D02*
X163684836Y-66389439D01*
X163684836Y-66389439D02*
X163875312Y-66389439D01*
X163875312Y-66389439D02*
X163922931Y-66418010D01*
X163922931Y-66418010D02*
X163946741Y-66446582D01*
X163946741Y-66446582D02*
X163970550Y-66503725D01*
X163970550Y-66503725D02*
X163970550Y-66589439D01*
X163970550Y-66589439D02*
X163946741Y-66646582D01*
X163946741Y-66646582D02*
X163922931Y-66675153D01*
X163922931Y-66675153D02*
X163875312Y-66703725D01*
X163875312Y-66703725D02*
X163684836Y-66703725D01*
X164161027Y-66960868D02*
X164232455Y-66989439D01*
X164232455Y-66989439D02*
X164351503Y-66989439D01*
X164351503Y-66989439D02*
X164399122Y-66960868D01*
X164399122Y-66960868D02*
X164422931Y-66932296D01*
X164422931Y-66932296D02*
X164446741Y-66875153D01*
X164446741Y-66875153D02*
X164446741Y-66818010D01*
X164446741Y-66818010D02*
X164422931Y-66760868D01*
X164422931Y-66760868D02*
X164399122Y-66732296D01*
X164399122Y-66732296D02*
X164351503Y-66703725D01*
X164351503Y-66703725D02*
X164256265Y-66675153D01*
X164256265Y-66675153D02*
X164208646Y-66646582D01*
X164208646Y-66646582D02*
X164184836Y-66618010D01*
X164184836Y-66618010D02*
X164161027Y-66560868D01*
X164161027Y-66560868D02*
X164161027Y-66503725D01*
X164161027Y-66503725D02*
X164184836Y-66446582D01*
X164184836Y-66446582D02*
X164208646Y-66418010D01*
X164208646Y-66418010D02*
X164256265Y-66389439D01*
X164256265Y-66389439D02*
X164375312Y-66389439D01*
X164375312Y-66389439D02*
X164446741Y-66418010D01*
X166946738Y-66932296D02*
X166970548Y-66960868D01*
X166970548Y-66960868D02*
X166946738Y-66989439D01*
X166946738Y-66989439D02*
X166922929Y-66960868D01*
X166922929Y-66960868D02*
X166946738Y-66932296D01*
X166946738Y-66932296D02*
X166946738Y-66989439D01*
X166946738Y-66618010D02*
X166970548Y-66646582D01*
X166970548Y-66646582D02*
X166946738Y-66675153D01*
X166946738Y-66675153D02*
X166922929Y-66646582D01*
X166922929Y-66646582D02*
X166946738Y-66618010D01*
X166946738Y-66618010D02*
X166946738Y-66675153D01*
X167851499Y-66932296D02*
X167827690Y-66960868D01*
X167827690Y-66960868D02*
X167756261Y-66989439D01*
X167756261Y-66989439D02*
X167708642Y-66989439D01*
X167708642Y-66989439D02*
X167637214Y-66960868D01*
X167637214Y-66960868D02*
X167589595Y-66903725D01*
X167589595Y-66903725D02*
X167565785Y-66846582D01*
X167565785Y-66846582D02*
X167541976Y-66732296D01*
X167541976Y-66732296D02*
X167541976Y-66646582D01*
X167541976Y-66646582D02*
X167565785Y-66532296D01*
X167565785Y-66532296D02*
X167589595Y-66475153D01*
X167589595Y-66475153D02*
X167637214Y-66418010D01*
X167637214Y-66418010D02*
X167708642Y-66389439D01*
X167708642Y-66389439D02*
X167756261Y-66389439D01*
X167756261Y-66389439D02*
X167827690Y-66418010D01*
X167827690Y-66418010D02*
X167851499Y-66446582D01*
X168041976Y-66818010D02*
X168280071Y-66818010D01*
X167994357Y-66989439D02*
X168161023Y-66389439D01*
X168161023Y-66389439D02*
X168327690Y-66989439D01*
X168494356Y-66989439D02*
X168494356Y-66389439D01*
X168494356Y-66389439D02*
X168661023Y-66818010D01*
X168661023Y-66818010D02*
X168827689Y-66389439D01*
X168827689Y-66389439D02*
X168827689Y-66989439D01*
X169065785Y-66760868D02*
X169446738Y-66760868D01*
X169684833Y-66989439D02*
X169684833Y-66389439D01*
X169684833Y-66389439D02*
X169851500Y-66818010D01*
X169851500Y-66818010D02*
X170018166Y-66389439D01*
X170018166Y-66389439D02*
X170018166Y-66989439D01*
X170327691Y-66646582D02*
X170280072Y-66618010D01*
X170280072Y-66618010D02*
X170256262Y-66589439D01*
X170256262Y-66589439D02*
X170232453Y-66532296D01*
X170232453Y-66532296D02*
X170232453Y-66503725D01*
X170232453Y-66503725D02*
X170256262Y-66446582D01*
X170256262Y-66446582D02*
X170280072Y-66418010D01*
X170280072Y-66418010D02*
X170327691Y-66389439D01*
X170327691Y-66389439D02*
X170422929Y-66389439D01*
X170422929Y-66389439D02*
X170470548Y-66418010D01*
X170470548Y-66418010D02*
X170494357Y-66446582D01*
X170494357Y-66446582D02*
X170518167Y-66503725D01*
X170518167Y-66503725D02*
X170518167Y-66532296D01*
X170518167Y-66532296D02*
X170494357Y-66589439D01*
X170494357Y-66589439D02*
X170470548Y-66618010D01*
X170470548Y-66618010D02*
X170422929Y-66646582D01*
X170422929Y-66646582D02*
X170327691Y-66646582D01*
X170327691Y-66646582D02*
X170280072Y-66675153D01*
X170280072Y-66675153D02*
X170256262Y-66703725D01*
X170256262Y-66703725D02*
X170232453Y-66760868D01*
X170232453Y-66760868D02*
X170232453Y-66875153D01*
X170232453Y-66875153D02*
X170256262Y-66932296D01*
X170256262Y-66932296D02*
X170280072Y-66960868D01*
X170280072Y-66960868D02*
X170327691Y-66989439D01*
X170327691Y-66989439D02*
X170422929Y-66989439D01*
X170422929Y-66989439D02*
X170470548Y-66960868D01*
X170470548Y-66960868D02*
X170494357Y-66932296D01*
X170494357Y-66932296D02*
X170518167Y-66875153D01*
X170518167Y-66875153D02*
X170518167Y-66760868D01*
X170518167Y-66760868D02*
X170494357Y-66703725D01*
X170494357Y-66703725D02*
X170470548Y-66675153D01*
X170470548Y-66675153D02*
X170422929Y-66646582D01*
X171018166Y-66932296D02*
X170994357Y-66960868D01*
X170994357Y-66960868D02*
X170922928Y-66989439D01*
X170922928Y-66989439D02*
X170875309Y-66989439D01*
X170875309Y-66989439D02*
X170803881Y-66960868D01*
X170803881Y-66960868D02*
X170756262Y-66903725D01*
X170756262Y-66903725D02*
X170732452Y-66846582D01*
X170732452Y-66846582D02*
X170708643Y-66732296D01*
X170708643Y-66732296D02*
X170708643Y-66646582D01*
X170708643Y-66646582D02*
X170732452Y-66532296D01*
X170732452Y-66532296D02*
X170756262Y-66475153D01*
X170756262Y-66475153D02*
X170803881Y-66418010D01*
X170803881Y-66418010D02*
X170875309Y-66389439D01*
X170875309Y-66389439D02*
X170922928Y-66389439D01*
X170922928Y-66389439D02*
X170994357Y-66418010D01*
X170994357Y-66418010D02*
X171018166Y-66446582D01*
X171232452Y-66760868D02*
X171613405Y-66760868D01*
X171946738Y-66389439D02*
X171994357Y-66389439D01*
X171994357Y-66389439D02*
X172041976Y-66418010D01*
X172041976Y-66418010D02*
X172065786Y-66446582D01*
X172065786Y-66446582D02*
X172089595Y-66503725D01*
X172089595Y-66503725D02*
X172113405Y-66618010D01*
X172113405Y-66618010D02*
X172113405Y-66760868D01*
X172113405Y-66760868D02*
X172089595Y-66875153D01*
X172089595Y-66875153D02*
X172065786Y-66932296D01*
X172065786Y-66932296D02*
X172041976Y-66960868D01*
X172041976Y-66960868D02*
X171994357Y-66989439D01*
X171994357Y-66989439D02*
X171946738Y-66989439D01*
X171946738Y-66989439D02*
X171899119Y-66960868D01*
X171899119Y-66960868D02*
X171875310Y-66932296D01*
X171875310Y-66932296D02*
X171851500Y-66875153D01*
X171851500Y-66875153D02*
X171827691Y-66760868D01*
X171827691Y-66760868D02*
X171827691Y-66618010D01*
X171827691Y-66618010D02*
X171851500Y-66503725D01*
X171851500Y-66503725D02*
X171875310Y-66446582D01*
X171875310Y-66446582D02*
X171899119Y-66418010D01*
X171899119Y-66418010D02*
X171946738Y-66389439D01*
X163184836Y-67955405D02*
X163184836Y-67355405D01*
X163422931Y-67955405D02*
X163422931Y-67355405D01*
X163422931Y-67355405D02*
X163589598Y-67783976D01*
X163589598Y-67783976D02*
X163756264Y-67355405D01*
X163756264Y-67355405D02*
X163756264Y-67955405D01*
X163994360Y-67355405D02*
X163994360Y-67841119D01*
X163994360Y-67841119D02*
X164018170Y-67898262D01*
X164018170Y-67898262D02*
X164041979Y-67926834D01*
X164041979Y-67926834D02*
X164089598Y-67955405D01*
X164089598Y-67955405D02*
X164184836Y-67955405D01*
X164184836Y-67955405D02*
X164232455Y-67926834D01*
X164232455Y-67926834D02*
X164256265Y-67898262D01*
X164256265Y-67898262D02*
X164280074Y-67841119D01*
X164280074Y-67841119D02*
X164280074Y-67355405D01*
X166803882Y-67898262D02*
X166827692Y-67926834D01*
X166827692Y-67926834D02*
X166803882Y-67955405D01*
X166803882Y-67955405D02*
X166780073Y-67926834D01*
X166780073Y-67926834D02*
X166803882Y-67898262D01*
X166803882Y-67898262D02*
X166803882Y-67955405D01*
X166803882Y-67583976D02*
X166827692Y-67612548D01*
X166827692Y-67612548D02*
X166803882Y-67641119D01*
X166803882Y-67641119D02*
X166780073Y-67612548D01*
X166780073Y-67612548D02*
X166803882Y-67583976D01*
X166803882Y-67583976D02*
X166803882Y-67641119D01*
X167589596Y-67641119D02*
X167661024Y-67669691D01*
X167661024Y-67669691D02*
X167684834Y-67698262D01*
X167684834Y-67698262D02*
X167708643Y-67755405D01*
X167708643Y-67755405D02*
X167708643Y-67841119D01*
X167708643Y-67841119D02*
X167684834Y-67898262D01*
X167684834Y-67898262D02*
X167661024Y-67926834D01*
X167661024Y-67926834D02*
X167613405Y-67955405D01*
X167613405Y-67955405D02*
X167422929Y-67955405D01*
X167422929Y-67955405D02*
X167422929Y-67355405D01*
X167422929Y-67355405D02*
X167589596Y-67355405D01*
X167589596Y-67355405D02*
X167637215Y-67383976D01*
X167637215Y-67383976D02*
X167661024Y-67412548D01*
X167661024Y-67412548D02*
X167684834Y-67469691D01*
X167684834Y-67469691D02*
X167684834Y-67526834D01*
X167684834Y-67526834D02*
X167661024Y-67583976D01*
X167661024Y-67583976D02*
X167637215Y-67612548D01*
X167637215Y-67612548D02*
X167589596Y-67641119D01*
X167589596Y-67641119D02*
X167422929Y-67641119D01*
X167922929Y-67955405D02*
X167922929Y-67355405D01*
X167922929Y-67355405D02*
X168089596Y-67783976D01*
X168089596Y-67783976D02*
X168256262Y-67355405D01*
X168256262Y-67355405D02*
X168256262Y-67955405D01*
X168494358Y-67955405D02*
X168494358Y-67355405D01*
X168827691Y-67355405D02*
X168875310Y-67355405D01*
X168875310Y-67355405D02*
X168922929Y-67383976D01*
X168922929Y-67383976D02*
X168946739Y-67412548D01*
X168946739Y-67412548D02*
X168970548Y-67469691D01*
X168970548Y-67469691D02*
X168994358Y-67583976D01*
X168994358Y-67583976D02*
X168994358Y-67726834D01*
X168994358Y-67726834D02*
X168970548Y-67841119D01*
X168970548Y-67841119D02*
X168946739Y-67898262D01*
X168946739Y-67898262D02*
X168922929Y-67926834D01*
X168922929Y-67926834D02*
X168875310Y-67955405D01*
X168875310Y-67955405D02*
X168827691Y-67955405D01*
X168827691Y-67955405D02*
X168780072Y-67926834D01*
X168780072Y-67926834D02*
X168756263Y-67898262D01*
X168756263Y-67898262D02*
X168732453Y-67841119D01*
X168732453Y-67841119D02*
X168708644Y-67726834D01*
X168708644Y-67726834D02*
X168708644Y-67583976D01*
X168708644Y-67583976D02*
X168732453Y-67469691D01*
X168732453Y-67469691D02*
X168756263Y-67412548D01*
X168756263Y-67412548D02*
X168780072Y-67383976D01*
X168780072Y-67383976D02*
X168827691Y-67355405D01*
X169280072Y-67612548D02*
X169232453Y-67583976D01*
X169232453Y-67583976D02*
X169208643Y-67555405D01*
X169208643Y-67555405D02*
X169184834Y-67498262D01*
X169184834Y-67498262D02*
X169184834Y-67469691D01*
X169184834Y-67469691D02*
X169208643Y-67412548D01*
X169208643Y-67412548D02*
X169232453Y-67383976D01*
X169232453Y-67383976D02*
X169280072Y-67355405D01*
X169280072Y-67355405D02*
X169375310Y-67355405D01*
X169375310Y-67355405D02*
X169422929Y-67383976D01*
X169422929Y-67383976D02*
X169446738Y-67412548D01*
X169446738Y-67412548D02*
X169470548Y-67469691D01*
X169470548Y-67469691D02*
X169470548Y-67498262D01*
X169470548Y-67498262D02*
X169446738Y-67555405D01*
X169446738Y-67555405D02*
X169422929Y-67583976D01*
X169422929Y-67583976D02*
X169375310Y-67612548D01*
X169375310Y-67612548D02*
X169280072Y-67612548D01*
X169280072Y-67612548D02*
X169232453Y-67641119D01*
X169232453Y-67641119D02*
X169208643Y-67669691D01*
X169208643Y-67669691D02*
X169184834Y-67726834D01*
X169184834Y-67726834D02*
X169184834Y-67841119D01*
X169184834Y-67841119D02*
X169208643Y-67898262D01*
X169208643Y-67898262D02*
X169232453Y-67926834D01*
X169232453Y-67926834D02*
X169280072Y-67955405D01*
X169280072Y-67955405D02*
X169375310Y-67955405D01*
X169375310Y-67955405D02*
X169422929Y-67926834D01*
X169422929Y-67926834D02*
X169446738Y-67898262D01*
X169446738Y-67898262D02*
X169470548Y-67841119D01*
X169470548Y-67841119D02*
X169470548Y-67726834D01*
X169470548Y-67726834D02*
X169446738Y-67669691D01*
X169446738Y-67669691D02*
X169422929Y-67641119D01*
X169422929Y-67641119D02*
X169375310Y-67612548D01*
X169756262Y-67612548D02*
X169708643Y-67583976D01*
X169708643Y-67583976D02*
X169684833Y-67555405D01*
X169684833Y-67555405D02*
X169661024Y-67498262D01*
X169661024Y-67498262D02*
X169661024Y-67469691D01*
X169661024Y-67469691D02*
X169684833Y-67412548D01*
X169684833Y-67412548D02*
X169708643Y-67383976D01*
X169708643Y-67383976D02*
X169756262Y-67355405D01*
X169756262Y-67355405D02*
X169851500Y-67355405D01*
X169851500Y-67355405D02*
X169899119Y-67383976D01*
X169899119Y-67383976D02*
X169922928Y-67412548D01*
X169922928Y-67412548D02*
X169946738Y-67469691D01*
X169946738Y-67469691D02*
X169946738Y-67498262D01*
X169946738Y-67498262D02*
X169922928Y-67555405D01*
X169922928Y-67555405D02*
X169899119Y-67583976D01*
X169899119Y-67583976D02*
X169851500Y-67612548D01*
X169851500Y-67612548D02*
X169756262Y-67612548D01*
X169756262Y-67612548D02*
X169708643Y-67641119D01*
X169708643Y-67641119D02*
X169684833Y-67669691D01*
X169684833Y-67669691D02*
X169661024Y-67726834D01*
X169661024Y-67726834D02*
X169661024Y-67841119D01*
X169661024Y-67841119D02*
X169684833Y-67898262D01*
X169684833Y-67898262D02*
X169708643Y-67926834D01*
X169708643Y-67926834D02*
X169756262Y-67955405D01*
X169756262Y-67955405D02*
X169851500Y-67955405D01*
X169851500Y-67955405D02*
X169899119Y-67926834D01*
X169899119Y-67926834D02*
X169922928Y-67898262D01*
X169922928Y-67898262D02*
X169946738Y-67841119D01*
X169946738Y-67841119D02*
X169946738Y-67726834D01*
X169946738Y-67726834D02*
X169922928Y-67669691D01*
X169922928Y-67669691D02*
X169899119Y-67641119D01*
X169899119Y-67641119D02*
X169851500Y-67612548D01*
X163184836Y-68921371D02*
X163184836Y-68321371D01*
X163184836Y-68321371D02*
X163351503Y-68749942D01*
X163351503Y-68749942D02*
X163518169Y-68321371D01*
X163518169Y-68321371D02*
X163518169Y-68921371D01*
X164041979Y-68864228D02*
X164018170Y-68892800D01*
X164018170Y-68892800D02*
X163946741Y-68921371D01*
X163946741Y-68921371D02*
X163899122Y-68921371D01*
X163899122Y-68921371D02*
X163827694Y-68892800D01*
X163827694Y-68892800D02*
X163780075Y-68835657D01*
X163780075Y-68835657D02*
X163756265Y-68778514D01*
X163756265Y-68778514D02*
X163732456Y-68664228D01*
X163732456Y-68664228D02*
X163732456Y-68578514D01*
X163732456Y-68578514D02*
X163756265Y-68464228D01*
X163756265Y-68464228D02*
X163780075Y-68407085D01*
X163780075Y-68407085D02*
X163827694Y-68349942D01*
X163827694Y-68349942D02*
X163899122Y-68321371D01*
X163899122Y-68321371D02*
X163946741Y-68321371D01*
X163946741Y-68321371D02*
X164018170Y-68349942D01*
X164018170Y-68349942D02*
X164041979Y-68378514D01*
X164256265Y-68321371D02*
X164256265Y-68807085D01*
X164256265Y-68807085D02*
X164280075Y-68864228D01*
X164280075Y-68864228D02*
X164303884Y-68892800D01*
X164303884Y-68892800D02*
X164351503Y-68921371D01*
X164351503Y-68921371D02*
X164446741Y-68921371D01*
X164446741Y-68921371D02*
X164494360Y-68892800D01*
X164494360Y-68892800D02*
X164518170Y-68864228D01*
X164518170Y-68864228D02*
X164541979Y-68807085D01*
X164541979Y-68807085D02*
X164541979Y-68321371D01*
X167065787Y-68864228D02*
X167089597Y-68892800D01*
X167089597Y-68892800D02*
X167065787Y-68921371D01*
X167065787Y-68921371D02*
X167041978Y-68892800D01*
X167041978Y-68892800D02*
X167065787Y-68864228D01*
X167065787Y-68864228D02*
X167065787Y-68921371D01*
X167065787Y-68549942D02*
X167089597Y-68578514D01*
X167089597Y-68578514D02*
X167065787Y-68607085D01*
X167065787Y-68607085D02*
X167041978Y-68578514D01*
X167041978Y-68578514D02*
X167065787Y-68549942D01*
X167065787Y-68549942D02*
X167065787Y-68607085D01*
X167613406Y-68321371D02*
X167899120Y-68321371D01*
X167756263Y-68921371D02*
X167756263Y-68321371D01*
X168256262Y-68892800D02*
X168208643Y-68921371D01*
X168208643Y-68921371D02*
X168113405Y-68921371D01*
X168113405Y-68921371D02*
X168065786Y-68892800D01*
X168065786Y-68892800D02*
X168041977Y-68835657D01*
X168041977Y-68835657D02*
X168041977Y-68607085D01*
X168041977Y-68607085D02*
X168065786Y-68549942D01*
X168065786Y-68549942D02*
X168113405Y-68521371D01*
X168113405Y-68521371D02*
X168208643Y-68521371D01*
X168208643Y-68521371D02*
X168256262Y-68549942D01*
X168256262Y-68549942D02*
X168280072Y-68607085D01*
X168280072Y-68607085D02*
X168280072Y-68664228D01*
X168280072Y-68664228D02*
X168041977Y-68721371D01*
X168684833Y-68892800D02*
X168637214Y-68921371D01*
X168637214Y-68921371D02*
X168541976Y-68921371D01*
X168541976Y-68921371D02*
X168494357Y-68892800D01*
X168494357Y-68892800D02*
X168470548Y-68835657D01*
X168470548Y-68835657D02*
X168470548Y-68607085D01*
X168470548Y-68607085D02*
X168494357Y-68549942D01*
X168494357Y-68549942D02*
X168541976Y-68521371D01*
X168541976Y-68521371D02*
X168637214Y-68521371D01*
X168637214Y-68521371D02*
X168684833Y-68549942D01*
X168684833Y-68549942D02*
X168708643Y-68607085D01*
X168708643Y-68607085D02*
X168708643Y-68664228D01*
X168708643Y-68664228D02*
X168470548Y-68721371D01*
X168922928Y-68521371D02*
X168922928Y-68921371D01*
X168922928Y-68578514D02*
X168946738Y-68549942D01*
X168946738Y-68549942D02*
X168994357Y-68521371D01*
X168994357Y-68521371D02*
X169065785Y-68521371D01*
X169065785Y-68521371D02*
X169113404Y-68549942D01*
X169113404Y-68549942D02*
X169137214Y-68607085D01*
X169137214Y-68607085D02*
X169137214Y-68921371D01*
X169351500Y-68892800D02*
X169399119Y-68921371D01*
X169399119Y-68921371D02*
X169494357Y-68921371D01*
X169494357Y-68921371D02*
X169541976Y-68892800D01*
X169541976Y-68892800D02*
X169565785Y-68835657D01*
X169565785Y-68835657D02*
X169565785Y-68807085D01*
X169565785Y-68807085D02*
X169541976Y-68749942D01*
X169541976Y-68749942D02*
X169494357Y-68721371D01*
X169494357Y-68721371D02*
X169422928Y-68721371D01*
X169422928Y-68721371D02*
X169375309Y-68692800D01*
X169375309Y-68692800D02*
X169351500Y-68635657D01*
X169351500Y-68635657D02*
X169351500Y-68607085D01*
X169351500Y-68607085D02*
X169375309Y-68549942D01*
X169375309Y-68549942D02*
X169422928Y-68521371D01*
X169422928Y-68521371D02*
X169494357Y-68521371D01*
X169494357Y-68521371D02*
X169541976Y-68549942D01*
X169732452Y-68521371D02*
X169851500Y-68921371D01*
X169970547Y-68521371D02*
X169851500Y-68921371D01*
X169851500Y-68921371D02*
X169803881Y-69064228D01*
X169803881Y-69064228D02*
X169780071Y-69092800D01*
X169780071Y-69092800D02*
X169732452Y-69121371D01*
X170756261Y-68521371D02*
X170756261Y-68921371D01*
X170637213Y-68292800D02*
X170518166Y-68721371D01*
X170518166Y-68721371D02*
X170827689Y-68721371D01*
X171018165Y-68864228D02*
X171041975Y-68892800D01*
X171041975Y-68892800D02*
X171018165Y-68921371D01*
X171018165Y-68921371D02*
X170994356Y-68892800D01*
X170994356Y-68892800D02*
X171018165Y-68864228D01*
X171018165Y-68864228D02*
X171018165Y-68921371D01*
X171518165Y-68921371D02*
X171232451Y-68921371D01*
X171375308Y-68921371D02*
X171375308Y-68321371D01*
X171375308Y-68321371D02*
X171327689Y-68407085D01*
X171327689Y-68407085D02*
X171280070Y-68464228D01*
X171280070Y-68464228D02*
X171232451Y-68492800D01*
D14*
X173139160Y-81052312D02*
X173282017Y-81099931D01*
X173282017Y-81099931D02*
X173520112Y-81099931D01*
X173520112Y-81099931D02*
X173615350Y-81052312D01*
X173615350Y-81052312D02*
X173662969Y-81004692D01*
X173662969Y-81004692D02*
X173710588Y-80909454D01*
X173710588Y-80909454D02*
X173710588Y-80814216D01*
X173710588Y-80814216D02*
X173662969Y-80718978D01*
X173662969Y-80718978D02*
X173615350Y-80671359D01*
X173615350Y-80671359D02*
X173520112Y-80623740D01*
X173520112Y-80623740D02*
X173329636Y-80576121D01*
X173329636Y-80576121D02*
X173234398Y-80528502D01*
X173234398Y-80528502D02*
X173186779Y-80480883D01*
X173186779Y-80480883D02*
X173139160Y-80385645D01*
X173139160Y-80385645D02*
X173139160Y-80290407D01*
X173139160Y-80290407D02*
X173186779Y-80195169D01*
X173186779Y-80195169D02*
X173234398Y-80147550D01*
X173234398Y-80147550D02*
X173329636Y-80099931D01*
X173329636Y-80099931D02*
X173567731Y-80099931D01*
X173567731Y-80099931D02*
X173710588Y-80147550D01*
X174710588Y-81004692D02*
X174662969Y-81052312D01*
X174662969Y-81052312D02*
X174520112Y-81099931D01*
X174520112Y-81099931D02*
X174424874Y-81099931D01*
X174424874Y-81099931D02*
X174282017Y-81052312D01*
X174282017Y-81052312D02*
X174186779Y-80957073D01*
X174186779Y-80957073D02*
X174139160Y-80861835D01*
X174139160Y-80861835D02*
X174091541Y-80671359D01*
X174091541Y-80671359D02*
X174091541Y-80528502D01*
X174091541Y-80528502D02*
X174139160Y-80338026D01*
X174139160Y-80338026D02*
X174186779Y-80242788D01*
X174186779Y-80242788D02*
X174282017Y-80147550D01*
X174282017Y-80147550D02*
X174424874Y-80099931D01*
X174424874Y-80099931D02*
X174520112Y-80099931D01*
X174520112Y-80099931D02*
X174662969Y-80147550D01*
X174662969Y-80147550D02*
X174710588Y-80195169D01*
X175139160Y-81099931D02*
X175139160Y-80099931D01*
X175710588Y-81099931D02*
X175282017Y-80528502D01*
X175710588Y-80099931D02*
X175139160Y-80671359D01*
X173186779Y-82709875D02*
X173186779Y-81709875D01*
X173186779Y-81709875D02*
X173520112Y-82424160D01*
X173520112Y-82424160D02*
X173853445Y-81709875D01*
X173853445Y-81709875D02*
X173853445Y-82709875D01*
X174329636Y-82709875D02*
X174329636Y-81709875D01*
X174758207Y-82662256D02*
X174901064Y-82709875D01*
X174901064Y-82709875D02*
X175139159Y-82709875D01*
X175139159Y-82709875D02*
X175234397Y-82662256D01*
X175234397Y-82662256D02*
X175282016Y-82614636D01*
X175282016Y-82614636D02*
X175329635Y-82519398D01*
X175329635Y-82519398D02*
X175329635Y-82424160D01*
X175329635Y-82424160D02*
X175282016Y-82328922D01*
X175282016Y-82328922D02*
X175234397Y-82281303D01*
X175234397Y-82281303D02*
X175139159Y-82233684D01*
X175139159Y-82233684D02*
X174948683Y-82186065D01*
X174948683Y-82186065D02*
X174853445Y-82138446D01*
X174853445Y-82138446D02*
X174805826Y-82090827D01*
X174805826Y-82090827D02*
X174758207Y-81995589D01*
X174758207Y-81995589D02*
X174758207Y-81900351D01*
X174758207Y-81900351D02*
X174805826Y-81805113D01*
X174805826Y-81805113D02*
X174853445Y-81757494D01*
X174853445Y-81757494D02*
X174948683Y-81709875D01*
X174948683Y-81709875D02*
X175186778Y-81709875D01*
X175186778Y-81709875D02*
X175329635Y-81757494D01*
X175948683Y-81709875D02*
X176139159Y-81709875D01*
X176139159Y-81709875D02*
X176234397Y-81757494D01*
X176234397Y-81757494D02*
X176329635Y-81852732D01*
X176329635Y-81852732D02*
X176377254Y-82043208D01*
X176377254Y-82043208D02*
X176377254Y-82376541D01*
X176377254Y-82376541D02*
X176329635Y-82567017D01*
X176329635Y-82567017D02*
X176234397Y-82662256D01*
X176234397Y-82662256D02*
X176139159Y-82709875D01*
X176139159Y-82709875D02*
X175948683Y-82709875D01*
X175948683Y-82709875D02*
X175853445Y-82662256D01*
X175853445Y-82662256D02*
X175758207Y-82567017D01*
X175758207Y-82567017D02*
X175710588Y-82376541D01*
X175710588Y-82376541D02*
X175710588Y-82043208D01*
X175710588Y-82043208D02*
X175758207Y-81852732D01*
X175758207Y-81852732D02*
X175853445Y-81757494D01*
X175853445Y-81757494D02*
X175948683Y-81709875D01*
X173186779Y-84319819D02*
X173186779Y-83319819D01*
X173186779Y-83319819D02*
X173520112Y-84034104D01*
X173520112Y-84034104D02*
X173853445Y-83319819D01*
X173853445Y-83319819D02*
X173853445Y-84319819D01*
X174520112Y-83319819D02*
X174710588Y-83319819D01*
X174710588Y-83319819D02*
X174805826Y-83367438D01*
X174805826Y-83367438D02*
X174901064Y-83462676D01*
X174901064Y-83462676D02*
X174948683Y-83653152D01*
X174948683Y-83653152D02*
X174948683Y-83986485D01*
X174948683Y-83986485D02*
X174901064Y-84176961D01*
X174901064Y-84176961D02*
X174805826Y-84272200D01*
X174805826Y-84272200D02*
X174710588Y-84319819D01*
X174710588Y-84319819D02*
X174520112Y-84319819D01*
X174520112Y-84319819D02*
X174424874Y-84272200D01*
X174424874Y-84272200D02*
X174329636Y-84176961D01*
X174329636Y-84176961D02*
X174282017Y-83986485D01*
X174282017Y-83986485D02*
X174282017Y-83653152D01*
X174282017Y-83653152D02*
X174329636Y-83462676D01*
X174329636Y-83462676D02*
X174424874Y-83367438D01*
X174424874Y-83367438D02*
X174520112Y-83319819D01*
X175329636Y-84272200D02*
X175472493Y-84319819D01*
X175472493Y-84319819D02*
X175710588Y-84319819D01*
X175710588Y-84319819D02*
X175805826Y-84272200D01*
X175805826Y-84272200D02*
X175853445Y-84224580D01*
X175853445Y-84224580D02*
X175901064Y-84129342D01*
X175901064Y-84129342D02*
X175901064Y-84034104D01*
X175901064Y-84034104D02*
X175853445Y-83938866D01*
X175853445Y-83938866D02*
X175805826Y-83891247D01*
X175805826Y-83891247D02*
X175710588Y-83843628D01*
X175710588Y-83843628D02*
X175520112Y-83796009D01*
X175520112Y-83796009D02*
X175424874Y-83748390D01*
X175424874Y-83748390D02*
X175377255Y-83700771D01*
X175377255Y-83700771D02*
X175329636Y-83605533D01*
X175329636Y-83605533D02*
X175329636Y-83510295D01*
X175329636Y-83510295D02*
X175377255Y-83415057D01*
X175377255Y-83415057D02*
X175424874Y-83367438D01*
X175424874Y-83367438D02*
X175520112Y-83319819D01*
X175520112Y-83319819D02*
X175758207Y-83319819D01*
X175758207Y-83319819D02*
X175901064Y-83367438D01*
X176329636Y-84319819D02*
X176329636Y-83319819D01*
D12*
X115522931Y-71145847D02*
X115789598Y-71145847D01*
X115789598Y-71145847D02*
X115522931Y-71545847D01*
X115522931Y-71545847D02*
X115789598Y-71545847D01*
D15*
X172296521Y-96994214D02*
X172296521Y-97232309D01*
X172129855Y-96732309D02*
X172296521Y-96994214D01*
X172296521Y-96994214D02*
X172463188Y-96732309D01*
D14*
X167239160Y-114812256D02*
X167382017Y-114859875D01*
X167382017Y-114859875D02*
X167620112Y-114859875D01*
X167620112Y-114859875D02*
X167715350Y-114812256D01*
X167715350Y-114812256D02*
X167762969Y-114764636D01*
X167762969Y-114764636D02*
X167810588Y-114669398D01*
X167810588Y-114669398D02*
X167810588Y-114574160D01*
X167810588Y-114574160D02*
X167762969Y-114478922D01*
X167762969Y-114478922D02*
X167715350Y-114431303D01*
X167715350Y-114431303D02*
X167620112Y-114383684D01*
X167620112Y-114383684D02*
X167429636Y-114336065D01*
X167429636Y-114336065D02*
X167334398Y-114288446D01*
X167334398Y-114288446D02*
X167286779Y-114240827D01*
X167286779Y-114240827D02*
X167239160Y-114145589D01*
X167239160Y-114145589D02*
X167239160Y-114050351D01*
X167239160Y-114050351D02*
X167286779Y-113955113D01*
X167286779Y-113955113D02*
X167334398Y-113907494D01*
X167334398Y-113907494D02*
X167429636Y-113859875D01*
X167429636Y-113859875D02*
X167667731Y-113859875D01*
X167667731Y-113859875D02*
X167810588Y-113907494D01*
X168239160Y-114859875D02*
X168239160Y-113859875D01*
X168239160Y-113859875D02*
X168477255Y-113859875D01*
X168477255Y-113859875D02*
X168620112Y-113907494D01*
X168620112Y-113907494D02*
X168715350Y-114002732D01*
X168715350Y-114002732D02*
X168762969Y-114097970D01*
X168762969Y-114097970D02*
X168810588Y-114288446D01*
X168810588Y-114288446D02*
X168810588Y-114431303D01*
X168810588Y-114431303D02*
X168762969Y-114621779D01*
X168762969Y-114621779D02*
X168715350Y-114717017D01*
X168715350Y-114717017D02*
X168620112Y-114812256D01*
X168620112Y-114812256D02*
X168477255Y-114859875D01*
X168477255Y-114859875D02*
X168239160Y-114859875D01*
X169191541Y-114574160D02*
X169667731Y-114574160D01*
X169096303Y-114859875D02*
X169429636Y-113859875D01*
X169429636Y-113859875D02*
X169762969Y-114859875D01*
X167239160Y-116422200D02*
X167382017Y-116469819D01*
X167382017Y-116469819D02*
X167620112Y-116469819D01*
X167620112Y-116469819D02*
X167715350Y-116422200D01*
X167715350Y-116422200D02*
X167762969Y-116374580D01*
X167762969Y-116374580D02*
X167810588Y-116279342D01*
X167810588Y-116279342D02*
X167810588Y-116184104D01*
X167810588Y-116184104D02*
X167762969Y-116088866D01*
X167762969Y-116088866D02*
X167715350Y-116041247D01*
X167715350Y-116041247D02*
X167620112Y-115993628D01*
X167620112Y-115993628D02*
X167429636Y-115946009D01*
X167429636Y-115946009D02*
X167334398Y-115898390D01*
X167334398Y-115898390D02*
X167286779Y-115850771D01*
X167286779Y-115850771D02*
X167239160Y-115755533D01*
X167239160Y-115755533D02*
X167239160Y-115660295D01*
X167239160Y-115660295D02*
X167286779Y-115565057D01*
X167286779Y-115565057D02*
X167334398Y-115517438D01*
X167334398Y-115517438D02*
X167429636Y-115469819D01*
X167429636Y-115469819D02*
X167667731Y-115469819D01*
X167667731Y-115469819D02*
X167810588Y-115517438D01*
X168810588Y-116374580D02*
X168762969Y-116422200D01*
X168762969Y-116422200D02*
X168620112Y-116469819D01*
X168620112Y-116469819D02*
X168524874Y-116469819D01*
X168524874Y-116469819D02*
X168382017Y-116422200D01*
X168382017Y-116422200D02*
X168286779Y-116326961D01*
X168286779Y-116326961D02*
X168239160Y-116231723D01*
X168239160Y-116231723D02*
X168191541Y-116041247D01*
X168191541Y-116041247D02*
X168191541Y-115898390D01*
X168191541Y-115898390D02*
X168239160Y-115707914D01*
X168239160Y-115707914D02*
X168286779Y-115612676D01*
X168286779Y-115612676D02*
X168382017Y-115517438D01*
X168382017Y-115517438D02*
X168524874Y-115469819D01*
X168524874Y-115469819D02*
X168620112Y-115469819D01*
X168620112Y-115469819D02*
X168762969Y-115517438D01*
X168762969Y-115517438D02*
X168810588Y-115565057D01*
X169715350Y-116469819D02*
X169239160Y-116469819D01*
X169239160Y-116469819D02*
X169239160Y-115469819D01*
D15*
X173853664Y-99332309D02*
X174186997Y-99832309D01*
X174186997Y-99332309D02*
X173853664Y-99832309D01*
D12*
X133125312Y-57972419D02*
X132791979Y-57496228D01*
X132553884Y-57972419D02*
X132553884Y-56972419D01*
X132553884Y-56972419D02*
X132934836Y-56972419D01*
X132934836Y-56972419D02*
X133030074Y-57020038D01*
X133030074Y-57020038D02*
X133077693Y-57067657D01*
X133077693Y-57067657D02*
X133125312Y-57162895D01*
X133125312Y-57162895D02*
X133125312Y-57305752D01*
X133125312Y-57305752D02*
X133077693Y-57400990D01*
X133077693Y-57400990D02*
X133030074Y-57448609D01*
X133030074Y-57448609D02*
X132934836Y-57496228D01*
X132934836Y-57496228D02*
X132553884Y-57496228D01*
X133934836Y-57924800D02*
X133839598Y-57972419D01*
X133839598Y-57972419D02*
X133649122Y-57972419D01*
X133649122Y-57972419D02*
X133553884Y-57924800D01*
X133553884Y-57924800D02*
X133506265Y-57829561D01*
X133506265Y-57829561D02*
X133506265Y-57448609D01*
X133506265Y-57448609D02*
X133553884Y-57353371D01*
X133553884Y-57353371D02*
X133649122Y-57305752D01*
X133649122Y-57305752D02*
X133839598Y-57305752D01*
X133839598Y-57305752D02*
X133934836Y-57353371D01*
X133934836Y-57353371D02*
X133982455Y-57448609D01*
X133982455Y-57448609D02*
X133982455Y-57543847D01*
X133982455Y-57543847D02*
X133506265Y-57639085D01*
X134363408Y-57924800D02*
X134458646Y-57972419D01*
X134458646Y-57972419D02*
X134649122Y-57972419D01*
X134649122Y-57972419D02*
X134744360Y-57924800D01*
X134744360Y-57924800D02*
X134791979Y-57829561D01*
X134791979Y-57829561D02*
X134791979Y-57781942D01*
X134791979Y-57781942D02*
X134744360Y-57686704D01*
X134744360Y-57686704D02*
X134649122Y-57639085D01*
X134649122Y-57639085D02*
X134506265Y-57639085D01*
X134506265Y-57639085D02*
X134411027Y-57591466D01*
X134411027Y-57591466D02*
X134363408Y-57496228D01*
X134363408Y-57496228D02*
X134363408Y-57448609D01*
X134363408Y-57448609D02*
X134411027Y-57353371D01*
X134411027Y-57353371D02*
X134506265Y-57305752D01*
X134506265Y-57305752D02*
X134649122Y-57305752D01*
X134649122Y-57305752D02*
X134744360Y-57353371D01*
X135601503Y-57924800D02*
X135506265Y-57972419D01*
X135506265Y-57972419D02*
X135315789Y-57972419D01*
X135315789Y-57972419D02*
X135220551Y-57924800D01*
X135220551Y-57924800D02*
X135172932Y-57829561D01*
X135172932Y-57829561D02*
X135172932Y-57448609D01*
X135172932Y-57448609D02*
X135220551Y-57353371D01*
X135220551Y-57353371D02*
X135315789Y-57305752D01*
X135315789Y-57305752D02*
X135506265Y-57305752D01*
X135506265Y-57305752D02*
X135601503Y-57353371D01*
X135601503Y-57353371D02*
X135649122Y-57448609D01*
X135649122Y-57448609D02*
X135649122Y-57543847D01*
X135649122Y-57543847D02*
X135172932Y-57639085D01*
X135934837Y-57305752D02*
X136315789Y-57305752D01*
X136077694Y-56972419D02*
X136077694Y-57829561D01*
X136077694Y-57829561D02*
X136125313Y-57924800D01*
X136125313Y-57924800D02*
X136220551Y-57972419D01*
X136220551Y-57972419D02*
X136315789Y-57972419D01*
D14*
X143409523Y-64852438D02*
X143314285Y-64804819D01*
X143314285Y-64804819D02*
X143171428Y-64804819D01*
X143171428Y-64804819D02*
X143028571Y-64852438D01*
X143028571Y-64852438D02*
X142933333Y-64947676D01*
X142933333Y-64947676D02*
X142885714Y-65042914D01*
X142885714Y-65042914D02*
X142838095Y-65233390D01*
X142838095Y-65233390D02*
X142838095Y-65376247D01*
X142838095Y-65376247D02*
X142885714Y-65566723D01*
X142885714Y-65566723D02*
X142933333Y-65661961D01*
X142933333Y-65661961D02*
X143028571Y-65757200D01*
X143028571Y-65757200D02*
X143171428Y-65804819D01*
X143171428Y-65804819D02*
X143266666Y-65804819D01*
X143266666Y-65804819D02*
X143409523Y-65757200D01*
X143409523Y-65757200D02*
X143457142Y-65709580D01*
X143457142Y-65709580D02*
X143457142Y-65376247D01*
X143457142Y-65376247D02*
X143266666Y-65376247D01*
X143885714Y-65804819D02*
X143885714Y-64804819D01*
X143885714Y-64804819D02*
X144266666Y-64804819D01*
X144266666Y-64804819D02*
X144361904Y-64852438D01*
X144361904Y-64852438D02*
X144409523Y-64900057D01*
X144409523Y-64900057D02*
X144457142Y-64995295D01*
X144457142Y-64995295D02*
X144457142Y-65138152D01*
X144457142Y-65138152D02*
X144409523Y-65233390D01*
X144409523Y-65233390D02*
X144361904Y-65281009D01*
X144361904Y-65281009D02*
X144266666Y-65328628D01*
X144266666Y-65328628D02*
X143885714Y-65328628D01*
X144838095Y-65757200D02*
X144980952Y-65804819D01*
X144980952Y-65804819D02*
X145219047Y-65804819D01*
X145219047Y-65804819D02*
X145314285Y-65757200D01*
X145314285Y-65757200D02*
X145361904Y-65709580D01*
X145361904Y-65709580D02*
X145409523Y-65614342D01*
X145409523Y-65614342D02*
X145409523Y-65519104D01*
X145409523Y-65519104D02*
X145361904Y-65423866D01*
X145361904Y-65423866D02*
X145314285Y-65376247D01*
X145314285Y-65376247D02*
X145219047Y-65328628D01*
X145219047Y-65328628D02*
X145028571Y-65281009D01*
X145028571Y-65281009D02*
X144933333Y-65233390D01*
X144933333Y-65233390D02*
X144885714Y-65185771D01*
X144885714Y-65185771D02*
X144838095Y-65090533D01*
X144838095Y-65090533D02*
X144838095Y-64995295D01*
X144838095Y-64995295D02*
X144885714Y-64900057D01*
X144885714Y-64900057D02*
X144933333Y-64852438D01*
X144933333Y-64852438D02*
X145028571Y-64804819D01*
X145028571Y-64804819D02*
X145266666Y-64804819D01*
X145266666Y-64804819D02*
X145409523Y-64852438D01*
X146361904Y-65804819D02*
X145790476Y-65804819D01*
X146076190Y-65804819D02*
X146076190Y-64804819D01*
X146076190Y-64804819D02*
X145980952Y-64947676D01*
X145980952Y-64947676D02*
X145885714Y-65042914D01*
X145885714Y-65042914D02*
X145790476Y-65090533D01*
X170202752Y-105854010D02*
X170345609Y-105901629D01*
X170345609Y-105901629D02*
X170393228Y-105949248D01*
X170393228Y-105949248D02*
X170440847Y-106044486D01*
X170440847Y-106044486D02*
X170440847Y-106187343D01*
X170440847Y-106187343D02*
X170393228Y-106282581D01*
X170393228Y-106282581D02*
X170345609Y-106330201D01*
X170345609Y-106330201D02*
X170250371Y-106377820D01*
X170250371Y-106377820D02*
X169869419Y-106377820D01*
X169869419Y-106377820D02*
X169869419Y-105377820D01*
X169869419Y-105377820D02*
X170202752Y-105377820D01*
X170202752Y-105377820D02*
X170297990Y-105425439D01*
X170297990Y-105425439D02*
X170345609Y-105473058D01*
X170345609Y-105473058D02*
X170393228Y-105568296D01*
X170393228Y-105568296D02*
X170393228Y-105663534D01*
X170393228Y-105663534D02*
X170345609Y-105758772D01*
X170345609Y-105758772D02*
X170297990Y-105806391D01*
X170297990Y-105806391D02*
X170202752Y-105854010D01*
X170202752Y-105854010D02*
X169869419Y-105854010D01*
X171297990Y-106377820D02*
X171297990Y-105854010D01*
X171297990Y-105854010D02*
X171250371Y-105758772D01*
X171250371Y-105758772D02*
X171155133Y-105711153D01*
X171155133Y-105711153D02*
X170964657Y-105711153D01*
X170964657Y-105711153D02*
X170869419Y-105758772D01*
X171297990Y-106330201D02*
X171202752Y-106377820D01*
X171202752Y-106377820D02*
X170964657Y-106377820D01*
X170964657Y-106377820D02*
X170869419Y-106330201D01*
X170869419Y-106330201D02*
X170821800Y-106234962D01*
X170821800Y-106234962D02*
X170821800Y-106139724D01*
X170821800Y-106139724D02*
X170869419Y-106044486D01*
X170869419Y-106044486D02*
X170964657Y-105996867D01*
X170964657Y-105996867D02*
X171202752Y-105996867D01*
X171202752Y-105996867D02*
X171297990Y-105949248D01*
X171774181Y-106377820D02*
X171774181Y-105711153D01*
X171774181Y-105901629D02*
X171821800Y-105806391D01*
X171821800Y-105806391D02*
X171869419Y-105758772D01*
X171869419Y-105758772D02*
X171964657Y-105711153D01*
X171964657Y-105711153D02*
X172059895Y-105711153D01*
X172536086Y-106377820D02*
X172440848Y-106330201D01*
X172440848Y-106330201D02*
X172393229Y-106282581D01*
X172393229Y-106282581D02*
X172345610Y-106187343D01*
X172345610Y-106187343D02*
X172345610Y-105901629D01*
X172345610Y-105901629D02*
X172393229Y-105806391D01*
X172393229Y-105806391D02*
X172440848Y-105758772D01*
X172440848Y-105758772D02*
X172536086Y-105711153D01*
X172536086Y-105711153D02*
X172678943Y-105711153D01*
X172678943Y-105711153D02*
X172774181Y-105758772D01*
X172774181Y-105758772D02*
X172821800Y-105806391D01*
X172821800Y-105806391D02*
X172869419Y-105901629D01*
X172869419Y-105901629D02*
X172869419Y-106187343D01*
X172869419Y-106187343D02*
X172821800Y-106282581D01*
X172821800Y-106282581D02*
X172774181Y-106330201D01*
X172774181Y-106330201D02*
X172678943Y-106377820D01*
X172678943Y-106377820D02*
X172536086Y-106377820D01*
X173821800Y-106377820D02*
X173250372Y-106377820D01*
X173536086Y-106377820D02*
X173536086Y-105377820D01*
X173536086Y-105377820D02*
X173440848Y-105520677D01*
X173440848Y-105520677D02*
X173345610Y-105615915D01*
X173345610Y-105615915D02*
X173250372Y-105663534D01*
X173699999Y-109845180D02*
X173699999Y-109607085D01*
X173938094Y-109702323D02*
X173699999Y-109607085D01*
X173699999Y-109607085D02*
X173461904Y-109702323D01*
X173842856Y-109416609D02*
X173699999Y-109607085D01*
X173699999Y-109607085D02*
X173557142Y-109416609D01*
X117819047Y-103254819D02*
X117342857Y-103254819D01*
X117342857Y-103254819D02*
X117342857Y-102254819D01*
X118295238Y-103254819D02*
X118200000Y-103207200D01*
X118200000Y-103207200D02*
X118152381Y-103159580D01*
X118152381Y-103159580D02*
X118104762Y-103064342D01*
X118104762Y-103064342D02*
X118104762Y-102778628D01*
X118104762Y-102778628D02*
X118152381Y-102683390D01*
X118152381Y-102683390D02*
X118200000Y-102635771D01*
X118200000Y-102635771D02*
X118295238Y-102588152D01*
X118295238Y-102588152D02*
X118438095Y-102588152D01*
X118438095Y-102588152D02*
X118533333Y-102635771D01*
X118533333Y-102635771D02*
X118580952Y-102683390D01*
X118580952Y-102683390D02*
X118628571Y-102778628D01*
X118628571Y-102778628D02*
X118628571Y-103064342D01*
X118628571Y-103064342D02*
X118580952Y-103159580D01*
X118580952Y-103159580D02*
X118533333Y-103207200D01*
X118533333Y-103207200D02*
X118438095Y-103254819D01*
X118438095Y-103254819D02*
X118295238Y-103254819D01*
X119057143Y-103254819D02*
X119057143Y-102588152D01*
X119057143Y-102778628D02*
X119104762Y-102683390D01*
X119104762Y-102683390D02*
X119152381Y-102635771D01*
X119152381Y-102635771D02*
X119247619Y-102588152D01*
X119247619Y-102588152D02*
X119342857Y-102588152D01*
X120104762Y-103254819D02*
X120104762Y-102731009D01*
X120104762Y-102731009D02*
X120057143Y-102635771D01*
X120057143Y-102635771D02*
X119961905Y-102588152D01*
X119961905Y-102588152D02*
X119771429Y-102588152D01*
X119771429Y-102588152D02*
X119676191Y-102635771D01*
X120104762Y-103207200D02*
X120009524Y-103254819D01*
X120009524Y-103254819D02*
X119771429Y-103254819D01*
X119771429Y-103254819D02*
X119676191Y-103207200D01*
X119676191Y-103207200D02*
X119628572Y-103111961D01*
X119628572Y-103111961D02*
X119628572Y-103016723D01*
X119628572Y-103016723D02*
X119676191Y-102921485D01*
X119676191Y-102921485D02*
X119771429Y-102873866D01*
X119771429Y-102873866D02*
X120009524Y-102873866D01*
X120009524Y-102873866D02*
X120104762Y-102826247D01*
X121104762Y-103254819D02*
X120533334Y-103254819D01*
X120819048Y-103254819D02*
X120819048Y-102254819D01*
X120819048Y-102254819D02*
X120723810Y-102397676D01*
X120723810Y-102397676D02*
X120628572Y-102492914D01*
X120628572Y-102492914D02*
X120533334Y-102540533D01*
X138347619Y-106454819D02*
X138966666Y-106454819D01*
X138966666Y-106454819D02*
X138633333Y-106835771D01*
X138633333Y-106835771D02*
X138776190Y-106835771D01*
X138776190Y-106835771D02*
X138871428Y-106883390D01*
X138871428Y-106883390D02*
X138919047Y-106931009D01*
X138919047Y-106931009D02*
X138966666Y-107026247D01*
X138966666Y-107026247D02*
X138966666Y-107264342D01*
X138966666Y-107264342D02*
X138919047Y-107359580D01*
X138919047Y-107359580D02*
X138871428Y-107407200D01*
X138871428Y-107407200D02*
X138776190Y-107454819D01*
X138776190Y-107454819D02*
X138490476Y-107454819D01*
X138490476Y-107454819D02*
X138395238Y-107407200D01*
X138395238Y-107407200D02*
X138347619Y-107359580D01*
X139395238Y-107359580D02*
X139442857Y-107407200D01*
X139442857Y-107407200D02*
X139395238Y-107454819D01*
X139395238Y-107454819D02*
X139347619Y-107407200D01*
X139347619Y-107407200D02*
X139395238Y-107359580D01*
X139395238Y-107359580D02*
X139395238Y-107454819D01*
X139776190Y-106454819D02*
X140395237Y-106454819D01*
X140395237Y-106454819D02*
X140061904Y-106835771D01*
X140061904Y-106835771D02*
X140204761Y-106835771D01*
X140204761Y-106835771D02*
X140299999Y-106883390D01*
X140299999Y-106883390D02*
X140347618Y-106931009D01*
X140347618Y-106931009D02*
X140395237Y-107026247D01*
X140395237Y-107026247D02*
X140395237Y-107264342D01*
X140395237Y-107264342D02*
X140347618Y-107359580D01*
X140347618Y-107359580D02*
X140299999Y-107407200D01*
X140299999Y-107407200D02*
X140204761Y-107454819D01*
X140204761Y-107454819D02*
X139919047Y-107454819D01*
X139919047Y-107454819D02*
X139823809Y-107407200D01*
X139823809Y-107407200D02*
X139776190Y-107359580D01*
X140680952Y-106454819D02*
X141014285Y-107454819D01*
X141014285Y-107454819D02*
X141347618Y-106454819D01*
X142204761Y-107454819D02*
X141633333Y-107454819D01*
X141919047Y-107454819D02*
X141919047Y-106454819D01*
X141919047Y-106454819D02*
X141823809Y-106597676D01*
X141823809Y-106597676D02*
X141728571Y-106692914D01*
X141728571Y-106692914D02*
X141633333Y-106740533D01*
X116007142Y-78559580D02*
X115959523Y-78607200D01*
X115959523Y-78607200D02*
X115816666Y-78654819D01*
X115816666Y-78654819D02*
X115721428Y-78654819D01*
X115721428Y-78654819D02*
X115578571Y-78607200D01*
X115578571Y-78607200D02*
X115483333Y-78511961D01*
X115483333Y-78511961D02*
X115435714Y-78416723D01*
X115435714Y-78416723D02*
X115388095Y-78226247D01*
X115388095Y-78226247D02*
X115388095Y-78083390D01*
X115388095Y-78083390D02*
X115435714Y-77892914D01*
X115435714Y-77892914D02*
X115483333Y-77797676D01*
X115483333Y-77797676D02*
X115578571Y-77702438D01*
X115578571Y-77702438D02*
X115721428Y-77654819D01*
X115721428Y-77654819D02*
X115816666Y-77654819D01*
X115816666Y-77654819D02*
X115959523Y-77702438D01*
X115959523Y-77702438D02*
X116007142Y-77750057D01*
X116959523Y-78654819D02*
X116388095Y-78654819D01*
X116673809Y-78654819D02*
X116673809Y-77654819D01*
X116673809Y-77654819D02*
X116578571Y-77797676D01*
X116578571Y-77797676D02*
X116483333Y-77892914D01*
X116483333Y-77892914D02*
X116388095Y-77940533D01*
X117816666Y-77988152D02*
X117816666Y-78654819D01*
X117578571Y-77607200D02*
X117340476Y-78321485D01*
X117340476Y-78321485D02*
X117959523Y-78321485D01*
X119583333Y-128709580D02*
X119535714Y-128757200D01*
X119535714Y-128757200D02*
X119392857Y-128804819D01*
X119392857Y-128804819D02*
X119297619Y-128804819D01*
X119297619Y-128804819D02*
X119154762Y-128757200D01*
X119154762Y-128757200D02*
X119059524Y-128661961D01*
X119059524Y-128661961D02*
X119011905Y-128566723D01*
X119011905Y-128566723D02*
X118964286Y-128376247D01*
X118964286Y-128376247D02*
X118964286Y-128233390D01*
X118964286Y-128233390D02*
X119011905Y-128042914D01*
X119011905Y-128042914D02*
X119059524Y-127947676D01*
X119059524Y-127947676D02*
X119154762Y-127852438D01*
X119154762Y-127852438D02*
X119297619Y-127804819D01*
X119297619Y-127804819D02*
X119392857Y-127804819D01*
X119392857Y-127804819D02*
X119535714Y-127852438D01*
X119535714Y-127852438D02*
X119583333Y-127900057D01*
X120440476Y-128138152D02*
X120440476Y-128804819D01*
X120202381Y-127757200D02*
X119964286Y-128471485D01*
X119964286Y-128471485D02*
X120583333Y-128471485D01*
X121307142Y-73259630D02*
X121259523Y-73307250D01*
X121259523Y-73307250D02*
X121116666Y-73354869D01*
X121116666Y-73354869D02*
X121021428Y-73354869D01*
X121021428Y-73354869D02*
X120878571Y-73307250D01*
X120878571Y-73307250D02*
X120783333Y-73212011D01*
X120783333Y-73212011D02*
X120735714Y-73116773D01*
X120735714Y-73116773D02*
X120688095Y-72926297D01*
X120688095Y-72926297D02*
X120688095Y-72783440D01*
X120688095Y-72783440D02*
X120735714Y-72592964D01*
X120735714Y-72592964D02*
X120783333Y-72497726D01*
X120783333Y-72497726D02*
X120878571Y-72402488D01*
X120878571Y-72402488D02*
X121021428Y-72354869D01*
X121021428Y-72354869D02*
X121116666Y-72354869D01*
X121116666Y-72354869D02*
X121259523Y-72402488D01*
X121259523Y-72402488D02*
X121307142Y-72450107D01*
X122259523Y-73354869D02*
X121688095Y-73354869D01*
X121973809Y-73354869D02*
X121973809Y-72354869D01*
X121973809Y-72354869D02*
X121878571Y-72497726D01*
X121878571Y-72497726D02*
X121783333Y-72592964D01*
X121783333Y-72592964D02*
X121688095Y-72640583D01*
X122592857Y-72354869D02*
X123211904Y-72354869D01*
X123211904Y-72354869D02*
X122878571Y-72735821D01*
X122878571Y-72735821D02*
X123021428Y-72735821D01*
X123021428Y-72735821D02*
X123116666Y-72783440D01*
X123116666Y-72783440D02*
X123164285Y-72831059D01*
X123164285Y-72831059D02*
X123211904Y-72926297D01*
X123211904Y-72926297D02*
X123211904Y-73164392D01*
X123211904Y-73164392D02*
X123164285Y-73259630D01*
X123164285Y-73259630D02*
X123116666Y-73307250D01*
X123116666Y-73307250D02*
X123021428Y-73354869D01*
X123021428Y-73354869D02*
X122735714Y-73354869D01*
X122735714Y-73354869D02*
X122640476Y-73307250D01*
X122640476Y-73307250D02*
X122592857Y-73259630D01*
X123283333Y-128759580D02*
X123235714Y-128807200D01*
X123235714Y-128807200D02*
X123092857Y-128854819D01*
X123092857Y-128854819D02*
X122997619Y-128854819D01*
X122997619Y-128854819D02*
X122854762Y-128807200D01*
X122854762Y-128807200D02*
X122759524Y-128711961D01*
X122759524Y-128711961D02*
X122711905Y-128616723D01*
X122711905Y-128616723D02*
X122664286Y-128426247D01*
X122664286Y-128426247D02*
X122664286Y-128283390D01*
X122664286Y-128283390D02*
X122711905Y-128092914D01*
X122711905Y-128092914D02*
X122759524Y-127997676D01*
X122759524Y-127997676D02*
X122854762Y-127902438D01*
X122854762Y-127902438D02*
X122997619Y-127854819D01*
X122997619Y-127854819D02*
X123092857Y-127854819D01*
X123092857Y-127854819D02*
X123235714Y-127902438D01*
X123235714Y-127902438D02*
X123283333Y-127950057D01*
X123616667Y-127854819D02*
X124235714Y-127854819D01*
X124235714Y-127854819D02*
X123902381Y-128235771D01*
X123902381Y-128235771D02*
X124045238Y-128235771D01*
X124045238Y-128235771D02*
X124140476Y-128283390D01*
X124140476Y-128283390D02*
X124188095Y-128331009D01*
X124188095Y-128331009D02*
X124235714Y-128426247D01*
X124235714Y-128426247D02*
X124235714Y-128664342D01*
X124235714Y-128664342D02*
X124188095Y-128759580D01*
X124188095Y-128759580D02*
X124140476Y-128807200D01*
X124140476Y-128807200D02*
X124045238Y-128854819D01*
X124045238Y-128854819D02*
X123759524Y-128854819D01*
X123759524Y-128854819D02*
X123664286Y-128807200D01*
X123664286Y-128807200D02*
X123616667Y-128759580D01*
X141233333Y-124704819D02*
X140757143Y-124704819D01*
X140757143Y-124704819D02*
X140709524Y-125181009D01*
X140709524Y-125181009D02*
X140757143Y-125133390D01*
X140757143Y-125133390D02*
X140852381Y-125085771D01*
X140852381Y-125085771D02*
X141090476Y-125085771D01*
X141090476Y-125085771D02*
X141185714Y-125133390D01*
X141185714Y-125133390D02*
X141233333Y-125181009D01*
X141233333Y-125181009D02*
X141280952Y-125276247D01*
X141280952Y-125276247D02*
X141280952Y-125514342D01*
X141280952Y-125514342D02*
X141233333Y-125609580D01*
X141233333Y-125609580D02*
X141185714Y-125657200D01*
X141185714Y-125657200D02*
X141090476Y-125704819D01*
X141090476Y-125704819D02*
X140852381Y-125704819D01*
X140852381Y-125704819D02*
X140757143Y-125657200D01*
X140757143Y-125657200D02*
X140709524Y-125609580D01*
X141566667Y-124704819D02*
X141900000Y-125704819D01*
X141900000Y-125704819D02*
X142233333Y-124704819D01*
X143090476Y-125704819D02*
X142519048Y-125704819D01*
X142804762Y-125704819D02*
X142804762Y-124704819D01*
X142804762Y-124704819D02*
X142709524Y-124847676D01*
X142709524Y-124847676D02*
X142614286Y-124942914D01*
X142614286Y-124942914D02*
X142519048Y-124990533D01*
X174783333Y-110909580D02*
X174735714Y-110957200D01*
X174735714Y-110957200D02*
X174592857Y-111004819D01*
X174592857Y-111004819D02*
X174497619Y-111004819D01*
X174497619Y-111004819D02*
X174354762Y-110957200D01*
X174354762Y-110957200D02*
X174259524Y-110861961D01*
X174259524Y-110861961D02*
X174211905Y-110766723D01*
X174211905Y-110766723D02*
X174164286Y-110576247D01*
X174164286Y-110576247D02*
X174164286Y-110433390D01*
X174164286Y-110433390D02*
X174211905Y-110242914D01*
X174211905Y-110242914D02*
X174259524Y-110147676D01*
X174259524Y-110147676D02*
X174354762Y-110052438D01*
X174354762Y-110052438D02*
X174497619Y-110004819D01*
X174497619Y-110004819D02*
X174592857Y-110004819D01*
X174592857Y-110004819D02*
X174735714Y-110052438D01*
X174735714Y-110052438D02*
X174783333Y-110100057D01*
X175640476Y-110004819D02*
X175450000Y-110004819D01*
X175450000Y-110004819D02*
X175354762Y-110052438D01*
X175354762Y-110052438D02*
X175307143Y-110100057D01*
X175307143Y-110100057D02*
X175211905Y-110242914D01*
X175211905Y-110242914D02*
X175164286Y-110433390D01*
X175164286Y-110433390D02*
X175164286Y-110814342D01*
X175164286Y-110814342D02*
X175211905Y-110909580D01*
X175211905Y-110909580D02*
X175259524Y-110957200D01*
X175259524Y-110957200D02*
X175354762Y-111004819D01*
X175354762Y-111004819D02*
X175545238Y-111004819D01*
X175545238Y-111004819D02*
X175640476Y-110957200D01*
X175640476Y-110957200D02*
X175688095Y-110909580D01*
X175688095Y-110909580D02*
X175735714Y-110814342D01*
X175735714Y-110814342D02*
X175735714Y-110576247D01*
X175735714Y-110576247D02*
X175688095Y-110481009D01*
X175688095Y-110481009D02*
X175640476Y-110433390D01*
X175640476Y-110433390D02*
X175545238Y-110385771D01*
X175545238Y-110385771D02*
X175354762Y-110385771D01*
X175354762Y-110385771D02*
X175259524Y-110433390D01*
X175259524Y-110433390D02*
X175211905Y-110481009D01*
X175211905Y-110481009D02*
X175164286Y-110576247D01*
X169983333Y-133074819D02*
X169650000Y-132598628D01*
X169411905Y-133074819D02*
X169411905Y-132074819D01*
X169411905Y-132074819D02*
X169792857Y-132074819D01*
X169792857Y-132074819D02*
X169888095Y-132122438D01*
X169888095Y-132122438D02*
X169935714Y-132170057D01*
X169935714Y-132170057D02*
X169983333Y-132265295D01*
X169983333Y-132265295D02*
X169983333Y-132408152D01*
X169983333Y-132408152D02*
X169935714Y-132503390D01*
X169935714Y-132503390D02*
X169888095Y-132551009D01*
X169888095Y-132551009D02*
X169792857Y-132598628D01*
X169792857Y-132598628D02*
X169411905Y-132598628D01*
X170316667Y-132074819D02*
X170935714Y-132074819D01*
X170935714Y-132074819D02*
X170602381Y-132455771D01*
X170602381Y-132455771D02*
X170745238Y-132455771D01*
X170745238Y-132455771D02*
X170840476Y-132503390D01*
X170840476Y-132503390D02*
X170888095Y-132551009D01*
X170888095Y-132551009D02*
X170935714Y-132646247D01*
X170935714Y-132646247D02*
X170935714Y-132884342D01*
X170935714Y-132884342D02*
X170888095Y-132979580D01*
X170888095Y-132979580D02*
X170840476Y-133027200D01*
X170840476Y-133027200D02*
X170745238Y-133074819D01*
X170745238Y-133074819D02*
X170459524Y-133074819D01*
X170459524Y-133074819D02*
X170364286Y-133027200D01*
X170364286Y-133027200D02*
X170316667Y-132979580D01*
X118358333Y-133404819D02*
X118025000Y-132928628D01*
X117786905Y-133404819D02*
X117786905Y-132404819D01*
X117786905Y-132404819D02*
X118167857Y-132404819D01*
X118167857Y-132404819D02*
X118263095Y-132452438D01*
X118263095Y-132452438D02*
X118310714Y-132500057D01*
X118310714Y-132500057D02*
X118358333Y-132595295D01*
X118358333Y-132595295D02*
X118358333Y-132738152D01*
X118358333Y-132738152D02*
X118310714Y-132833390D01*
X118310714Y-132833390D02*
X118263095Y-132881009D01*
X118263095Y-132881009D02*
X118167857Y-132928628D01*
X118167857Y-132928628D02*
X117786905Y-132928628D01*
X118739286Y-132500057D02*
X118786905Y-132452438D01*
X118786905Y-132452438D02*
X118882143Y-132404819D01*
X118882143Y-132404819D02*
X119120238Y-132404819D01*
X119120238Y-132404819D02*
X119215476Y-132452438D01*
X119215476Y-132452438D02*
X119263095Y-132500057D01*
X119263095Y-132500057D02*
X119310714Y-132595295D01*
X119310714Y-132595295D02*
X119310714Y-132690533D01*
X119310714Y-132690533D02*
X119263095Y-132833390D01*
X119263095Y-132833390D02*
X118691667Y-133404819D01*
X118691667Y-133404819D02*
X119310714Y-133404819D01*
X168283333Y-102109580D02*
X168235714Y-102157200D01*
X168235714Y-102157200D02*
X168092857Y-102204819D01*
X168092857Y-102204819D02*
X167997619Y-102204819D01*
X167997619Y-102204819D02*
X167854762Y-102157200D01*
X167854762Y-102157200D02*
X167759524Y-102061961D01*
X167759524Y-102061961D02*
X167711905Y-101966723D01*
X167711905Y-101966723D02*
X167664286Y-101776247D01*
X167664286Y-101776247D02*
X167664286Y-101633390D01*
X167664286Y-101633390D02*
X167711905Y-101442914D01*
X167711905Y-101442914D02*
X167759524Y-101347676D01*
X167759524Y-101347676D02*
X167854762Y-101252438D01*
X167854762Y-101252438D02*
X167997619Y-101204819D01*
X167997619Y-101204819D02*
X168092857Y-101204819D01*
X168092857Y-101204819D02*
X168235714Y-101252438D01*
X168235714Y-101252438D02*
X168283333Y-101300057D01*
X168664286Y-101300057D02*
X168711905Y-101252438D01*
X168711905Y-101252438D02*
X168807143Y-101204819D01*
X168807143Y-101204819D02*
X169045238Y-101204819D01*
X169045238Y-101204819D02*
X169140476Y-101252438D01*
X169140476Y-101252438D02*
X169188095Y-101300057D01*
X169188095Y-101300057D02*
X169235714Y-101395295D01*
X169235714Y-101395295D02*
X169235714Y-101490533D01*
X169235714Y-101490533D02*
X169188095Y-101633390D01*
X169188095Y-101633390D02*
X168616667Y-102204819D01*
X168616667Y-102204819D02*
X169235714Y-102204819D01*
X169269048Y-77377200D02*
X169411905Y-77424819D01*
X169411905Y-77424819D02*
X169650000Y-77424819D01*
X169650000Y-77424819D02*
X169745238Y-77377200D01*
X169745238Y-77377200D02*
X169792857Y-77329580D01*
X169792857Y-77329580D02*
X169840476Y-77234342D01*
X169840476Y-77234342D02*
X169840476Y-77139104D01*
X169840476Y-77139104D02*
X169792857Y-77043866D01*
X169792857Y-77043866D02*
X169745238Y-76996247D01*
X169745238Y-76996247D02*
X169650000Y-76948628D01*
X169650000Y-76948628D02*
X169459524Y-76901009D01*
X169459524Y-76901009D02*
X169364286Y-76853390D01*
X169364286Y-76853390D02*
X169316667Y-76805771D01*
X169316667Y-76805771D02*
X169269048Y-76710533D01*
X169269048Y-76710533D02*
X169269048Y-76615295D01*
X169269048Y-76615295D02*
X169316667Y-76520057D01*
X169316667Y-76520057D02*
X169364286Y-76472438D01*
X169364286Y-76472438D02*
X169459524Y-76424819D01*
X169459524Y-76424819D02*
X169697619Y-76424819D01*
X169697619Y-76424819D02*
X169840476Y-76472438D01*
X170269048Y-77424819D02*
X170269048Y-76424819D01*
X170269048Y-76424819D02*
X170650000Y-76424819D01*
X170650000Y-76424819D02*
X170745238Y-76472438D01*
X170745238Y-76472438D02*
X170792857Y-76520057D01*
X170792857Y-76520057D02*
X170840476Y-76615295D01*
X170840476Y-76615295D02*
X170840476Y-76758152D01*
X170840476Y-76758152D02*
X170792857Y-76853390D01*
X170792857Y-76853390D02*
X170745238Y-76901009D01*
X170745238Y-76901009D02*
X170650000Y-76948628D01*
X170650000Y-76948628D02*
X170269048Y-76948628D01*
X171269048Y-77424819D02*
X171269048Y-76424819D01*
X171507143Y-77520057D02*
X172269047Y-77520057D01*
X173030952Y-77424819D02*
X172459524Y-77424819D01*
X172745238Y-77424819D02*
X172745238Y-76424819D01*
X172745238Y-76424819D02*
X172650000Y-76567676D01*
X172650000Y-76567676D02*
X172554762Y-76662914D01*
X172554762Y-76662914D02*
X172459524Y-76710533D01*
X173570833Y-132936033D02*
X173570833Y-132236033D01*
X173570833Y-132236033D02*
X173737500Y-132236033D01*
X173737500Y-132236033D02*
X173837500Y-132269366D01*
X173837500Y-132269366D02*
X173904167Y-132336033D01*
X173904167Y-132336033D02*
X173937500Y-132402700D01*
X173937500Y-132402700D02*
X173970833Y-132536033D01*
X173970833Y-132536033D02*
X173970833Y-132636033D01*
X173970833Y-132636033D02*
X173937500Y-132769366D01*
X173937500Y-132769366D02*
X173904167Y-132836033D01*
X173904167Y-132836033D02*
X173837500Y-132902700D01*
X173837500Y-132902700D02*
X173737500Y-132936033D01*
X173737500Y-132936033D02*
X173570833Y-132936033D01*
X174204167Y-132236033D02*
X174637500Y-132236033D01*
X174637500Y-132236033D02*
X174404167Y-132502700D01*
X174404167Y-132502700D02*
X174504167Y-132502700D01*
X174504167Y-132502700D02*
X174570833Y-132536033D01*
X174570833Y-132536033D02*
X174604167Y-132569366D01*
X174604167Y-132569366D02*
X174637500Y-132636033D01*
X174637500Y-132636033D02*
X174637500Y-132802700D01*
X174637500Y-132802700D02*
X174604167Y-132869366D01*
X174604167Y-132869366D02*
X174570833Y-132902700D01*
X174570833Y-132902700D02*
X174504167Y-132936033D01*
X174504167Y-132936033D02*
X174304167Y-132936033D01*
X174304167Y-132936033D02*
X174237500Y-132902700D01*
X174237500Y-132902700D02*
X174204167Y-132869366D01*
X118685714Y-78454819D02*
X118685714Y-77454819D01*
X118685714Y-77454819D02*
X119019047Y-78169104D01*
X119019047Y-78169104D02*
X119352380Y-77454819D01*
X119352380Y-77454819D02*
X119352380Y-78454819D01*
X120257142Y-78454819D02*
X120257142Y-77931009D01*
X120257142Y-77931009D02*
X120209523Y-77835771D01*
X120209523Y-77835771D02*
X120114285Y-77788152D01*
X120114285Y-77788152D02*
X119923809Y-77788152D01*
X119923809Y-77788152D02*
X119828571Y-77835771D01*
X120257142Y-78407200D02*
X120161904Y-78454819D01*
X120161904Y-78454819D02*
X119923809Y-78454819D01*
X119923809Y-78454819D02*
X119828571Y-78407200D01*
X119828571Y-78407200D02*
X119780952Y-78311961D01*
X119780952Y-78311961D02*
X119780952Y-78216723D01*
X119780952Y-78216723D02*
X119828571Y-78121485D01*
X119828571Y-78121485D02*
X119923809Y-78073866D01*
X119923809Y-78073866D02*
X120161904Y-78073866D01*
X120161904Y-78073866D02*
X120257142Y-78026247D01*
X121161904Y-77788152D02*
X121161904Y-78597676D01*
X121161904Y-78597676D02*
X121114285Y-78692914D01*
X121114285Y-78692914D02*
X121066666Y-78740533D01*
X121066666Y-78740533D02*
X120971428Y-78788152D01*
X120971428Y-78788152D02*
X120828571Y-78788152D01*
X120828571Y-78788152D02*
X120733333Y-78740533D01*
X121161904Y-78407200D02*
X121066666Y-78454819D01*
X121066666Y-78454819D02*
X120876190Y-78454819D01*
X120876190Y-78454819D02*
X120780952Y-78407200D01*
X120780952Y-78407200D02*
X120733333Y-78359580D01*
X120733333Y-78359580D02*
X120685714Y-78264342D01*
X120685714Y-78264342D02*
X120685714Y-77978628D01*
X120685714Y-77978628D02*
X120733333Y-77883390D01*
X120733333Y-77883390D02*
X120780952Y-77835771D01*
X120780952Y-77835771D02*
X120876190Y-77788152D01*
X120876190Y-77788152D02*
X121066666Y-77788152D01*
X121066666Y-77788152D02*
X121161904Y-77835771D01*
X122161904Y-78454819D02*
X121590476Y-78454819D01*
X121876190Y-78454819D02*
X121876190Y-77454819D01*
X121876190Y-77454819D02*
X121780952Y-77597676D01*
X121780952Y-77597676D02*
X121685714Y-77692914D01*
X121685714Y-77692914D02*
X121590476Y-77740533D01*
X126783333Y-128759580D02*
X126735714Y-128807200D01*
X126735714Y-128807200D02*
X126592857Y-128854819D01*
X126592857Y-128854819D02*
X126497619Y-128854819D01*
X126497619Y-128854819D02*
X126354762Y-128807200D01*
X126354762Y-128807200D02*
X126259524Y-128711961D01*
X126259524Y-128711961D02*
X126211905Y-128616723D01*
X126211905Y-128616723D02*
X126164286Y-128426247D01*
X126164286Y-128426247D02*
X126164286Y-128283390D01*
X126164286Y-128283390D02*
X126211905Y-128092914D01*
X126211905Y-128092914D02*
X126259524Y-127997676D01*
X126259524Y-127997676D02*
X126354762Y-127902438D01*
X126354762Y-127902438D02*
X126497619Y-127854819D01*
X126497619Y-127854819D02*
X126592857Y-127854819D01*
X126592857Y-127854819D02*
X126735714Y-127902438D01*
X126735714Y-127902438D02*
X126783333Y-127950057D01*
X127735714Y-128854819D02*
X127164286Y-128854819D01*
X127450000Y-128854819D02*
X127450000Y-127854819D01*
X127450000Y-127854819D02*
X127354762Y-127997676D01*
X127354762Y-127997676D02*
X127259524Y-128092914D01*
X127259524Y-128092914D02*
X127164286Y-128140533D01*
X154457142Y-53559580D02*
X154409523Y-53607200D01*
X154409523Y-53607200D02*
X154266666Y-53654819D01*
X154266666Y-53654819D02*
X154171428Y-53654819D01*
X154171428Y-53654819D02*
X154028571Y-53607200D01*
X154028571Y-53607200D02*
X153933333Y-53511961D01*
X153933333Y-53511961D02*
X153885714Y-53416723D01*
X153885714Y-53416723D02*
X153838095Y-53226247D01*
X153838095Y-53226247D02*
X153838095Y-53083390D01*
X153838095Y-53083390D02*
X153885714Y-52892914D01*
X153885714Y-52892914D02*
X153933333Y-52797676D01*
X153933333Y-52797676D02*
X154028571Y-52702438D01*
X154028571Y-52702438D02*
X154171428Y-52654819D01*
X154171428Y-52654819D02*
X154266666Y-52654819D01*
X154266666Y-52654819D02*
X154409523Y-52702438D01*
X154409523Y-52702438D02*
X154457142Y-52750057D01*
X155409523Y-53654819D02*
X154838095Y-53654819D01*
X155123809Y-53654819D02*
X155123809Y-52654819D01*
X155123809Y-52654819D02*
X155028571Y-52797676D01*
X155028571Y-52797676D02*
X154933333Y-52892914D01*
X154933333Y-52892914D02*
X154838095Y-52940533D01*
X156266666Y-52654819D02*
X156076190Y-52654819D01*
X156076190Y-52654819D02*
X155980952Y-52702438D01*
X155980952Y-52702438D02*
X155933333Y-52750057D01*
X155933333Y-52750057D02*
X155838095Y-52892914D01*
X155838095Y-52892914D02*
X155790476Y-53083390D01*
X155790476Y-53083390D02*
X155790476Y-53464342D01*
X155790476Y-53464342D02*
X155838095Y-53559580D01*
X155838095Y-53559580D02*
X155885714Y-53607200D01*
X155885714Y-53607200D02*
X155980952Y-53654819D01*
X155980952Y-53654819D02*
X156171428Y-53654819D01*
X156171428Y-53654819D02*
X156266666Y-53607200D01*
X156266666Y-53607200D02*
X156314285Y-53559580D01*
X156314285Y-53559580D02*
X156361904Y-53464342D01*
X156361904Y-53464342D02*
X156361904Y-53226247D01*
X156361904Y-53226247D02*
X156314285Y-53131009D01*
X156314285Y-53131009D02*
X156266666Y-53083390D01*
X156266666Y-53083390D02*
X156171428Y-53035771D01*
X156171428Y-53035771D02*
X155980952Y-53035771D01*
X155980952Y-53035771D02*
X155885714Y-53083390D01*
X155885714Y-53083390D02*
X155838095Y-53131009D01*
X155838095Y-53131009D02*
X155790476Y-53226247D01*
X117682142Y-72009630D02*
X117634523Y-72057250D01*
X117634523Y-72057250D02*
X117491666Y-72104869D01*
X117491666Y-72104869D02*
X117396428Y-72104869D01*
X117396428Y-72104869D02*
X117253571Y-72057250D01*
X117253571Y-72057250D02*
X117158333Y-71962011D01*
X117158333Y-71962011D02*
X117110714Y-71866773D01*
X117110714Y-71866773D02*
X117063095Y-71676297D01*
X117063095Y-71676297D02*
X117063095Y-71533440D01*
X117063095Y-71533440D02*
X117110714Y-71342964D01*
X117110714Y-71342964D02*
X117158333Y-71247726D01*
X117158333Y-71247726D02*
X117253571Y-71152488D01*
X117253571Y-71152488D02*
X117396428Y-71104869D01*
X117396428Y-71104869D02*
X117491666Y-71104869D01*
X117491666Y-71104869D02*
X117634523Y-71152488D01*
X117634523Y-71152488D02*
X117682142Y-71200107D01*
X118634523Y-72104869D02*
X118063095Y-72104869D01*
X118348809Y-72104869D02*
X118348809Y-71104869D01*
X118348809Y-71104869D02*
X118253571Y-71247726D01*
X118253571Y-71247726D02*
X118158333Y-71342964D01*
X118158333Y-71342964D02*
X118063095Y-71390583D01*
X119015476Y-71200107D02*
X119063095Y-71152488D01*
X119063095Y-71152488D02*
X119158333Y-71104869D01*
X119158333Y-71104869D02*
X119396428Y-71104869D01*
X119396428Y-71104869D02*
X119491666Y-71152488D01*
X119491666Y-71152488D02*
X119539285Y-71200107D01*
X119539285Y-71200107D02*
X119586904Y-71295345D01*
X119586904Y-71295345D02*
X119586904Y-71390583D01*
X119586904Y-71390583D02*
X119539285Y-71533440D01*
X119539285Y-71533440D02*
X118967857Y-72104869D01*
X118967857Y-72104869D02*
X119586904Y-72104869D01*
X175083333Y-101359580D02*
X175035714Y-101407200D01*
X175035714Y-101407200D02*
X174892857Y-101454819D01*
X174892857Y-101454819D02*
X174797619Y-101454819D01*
X174797619Y-101454819D02*
X174654762Y-101407200D01*
X174654762Y-101407200D02*
X174559524Y-101311961D01*
X174559524Y-101311961D02*
X174511905Y-101216723D01*
X174511905Y-101216723D02*
X174464286Y-101026247D01*
X174464286Y-101026247D02*
X174464286Y-100883390D01*
X174464286Y-100883390D02*
X174511905Y-100692914D01*
X174511905Y-100692914D02*
X174559524Y-100597676D01*
X174559524Y-100597676D02*
X174654762Y-100502438D01*
X174654762Y-100502438D02*
X174797619Y-100454819D01*
X174797619Y-100454819D02*
X174892857Y-100454819D01*
X174892857Y-100454819D02*
X175035714Y-100502438D01*
X175035714Y-100502438D02*
X175083333Y-100550057D01*
X175988095Y-100454819D02*
X175511905Y-100454819D01*
X175511905Y-100454819D02*
X175464286Y-100931009D01*
X175464286Y-100931009D02*
X175511905Y-100883390D01*
X175511905Y-100883390D02*
X175607143Y-100835771D01*
X175607143Y-100835771D02*
X175845238Y-100835771D01*
X175845238Y-100835771D02*
X175940476Y-100883390D01*
X175940476Y-100883390D02*
X175988095Y-100931009D01*
X175988095Y-100931009D02*
X176035714Y-101026247D01*
X176035714Y-101026247D02*
X176035714Y-101264342D01*
X176035714Y-101264342D02*
X175988095Y-101359580D01*
X175988095Y-101359580D02*
X175940476Y-101407200D01*
X175940476Y-101407200D02*
X175845238Y-101454819D01*
X175845238Y-101454819D02*
X175607143Y-101454819D01*
X175607143Y-101454819D02*
X175511905Y-101407200D01*
X175511905Y-101407200D02*
X175464286Y-101359580D01*
X142166666Y-75364819D02*
X142166666Y-76079104D01*
X142166666Y-76079104D02*
X142119047Y-76221961D01*
X142119047Y-76221961D02*
X142023809Y-76317200D01*
X142023809Y-76317200D02*
X141880952Y-76364819D01*
X141880952Y-76364819D02*
X141785714Y-76364819D01*
X142595238Y-75460057D02*
X142642857Y-75412438D01*
X142642857Y-75412438D02*
X142738095Y-75364819D01*
X142738095Y-75364819D02*
X142976190Y-75364819D01*
X142976190Y-75364819D02*
X143071428Y-75412438D01*
X143071428Y-75412438D02*
X143119047Y-75460057D01*
X143119047Y-75460057D02*
X143166666Y-75555295D01*
X143166666Y-75555295D02*
X143166666Y-75650533D01*
X143166666Y-75650533D02*
X143119047Y-75793390D01*
X143119047Y-75793390D02*
X142547619Y-76364819D01*
X142547619Y-76364819D02*
X143166666Y-76364819D01*
X145557142Y-110959580D02*
X145509523Y-111007200D01*
X145509523Y-111007200D02*
X145366666Y-111054819D01*
X145366666Y-111054819D02*
X145271428Y-111054819D01*
X145271428Y-111054819D02*
X145128571Y-111007200D01*
X145128571Y-111007200D02*
X145033333Y-110911961D01*
X145033333Y-110911961D02*
X144985714Y-110816723D01*
X144985714Y-110816723D02*
X144938095Y-110626247D01*
X144938095Y-110626247D02*
X144938095Y-110483390D01*
X144938095Y-110483390D02*
X144985714Y-110292914D01*
X144985714Y-110292914D02*
X145033333Y-110197676D01*
X145033333Y-110197676D02*
X145128571Y-110102438D01*
X145128571Y-110102438D02*
X145271428Y-110054819D01*
X145271428Y-110054819D02*
X145366666Y-110054819D01*
X145366666Y-110054819D02*
X145509523Y-110102438D01*
X145509523Y-110102438D02*
X145557142Y-110150057D01*
X146509523Y-111054819D02*
X145938095Y-111054819D01*
X146223809Y-111054819D02*
X146223809Y-110054819D01*
X146223809Y-110054819D02*
X146128571Y-110197676D01*
X146128571Y-110197676D02*
X146033333Y-110292914D01*
X146033333Y-110292914D02*
X145938095Y-110340533D01*
X147461904Y-111054819D02*
X146890476Y-111054819D01*
X147176190Y-111054819D02*
X147176190Y-110054819D01*
X147176190Y-110054819D02*
X147080952Y-110197676D01*
X147080952Y-110197676D02*
X146985714Y-110292914D01*
X146985714Y-110292914D02*
X146890476Y-110340533D01*
X154407142Y-60829580D02*
X154359523Y-60877200D01*
X154359523Y-60877200D02*
X154216666Y-60924819D01*
X154216666Y-60924819D02*
X154121428Y-60924819D01*
X154121428Y-60924819D02*
X153978571Y-60877200D01*
X153978571Y-60877200D02*
X153883333Y-60781961D01*
X153883333Y-60781961D02*
X153835714Y-60686723D01*
X153835714Y-60686723D02*
X153788095Y-60496247D01*
X153788095Y-60496247D02*
X153788095Y-60353390D01*
X153788095Y-60353390D02*
X153835714Y-60162914D01*
X153835714Y-60162914D02*
X153883333Y-60067676D01*
X153883333Y-60067676D02*
X153978571Y-59972438D01*
X153978571Y-59972438D02*
X154121428Y-59924819D01*
X154121428Y-59924819D02*
X154216666Y-59924819D01*
X154216666Y-59924819D02*
X154359523Y-59972438D01*
X154359523Y-59972438D02*
X154407142Y-60020057D01*
X155359523Y-60924819D02*
X154788095Y-60924819D01*
X155073809Y-60924819D02*
X155073809Y-59924819D01*
X155073809Y-59924819D02*
X154978571Y-60067676D01*
X154978571Y-60067676D02*
X154883333Y-60162914D01*
X154883333Y-60162914D02*
X154788095Y-60210533D01*
X156264285Y-59924819D02*
X155788095Y-59924819D01*
X155788095Y-59924819D02*
X155740476Y-60401009D01*
X155740476Y-60401009D02*
X155788095Y-60353390D01*
X155788095Y-60353390D02*
X155883333Y-60305771D01*
X155883333Y-60305771D02*
X156121428Y-60305771D01*
X156121428Y-60305771D02*
X156216666Y-60353390D01*
X156216666Y-60353390D02*
X156264285Y-60401009D01*
X156264285Y-60401009D02*
X156311904Y-60496247D01*
X156311904Y-60496247D02*
X156311904Y-60734342D01*
X156311904Y-60734342D02*
X156264285Y-60829580D01*
X156264285Y-60829580D02*
X156216666Y-60877200D01*
X156216666Y-60877200D02*
X156121428Y-60924819D01*
X156121428Y-60924819D02*
X155883333Y-60924819D01*
X155883333Y-60924819D02*
X155788095Y-60877200D01*
X155788095Y-60877200D02*
X155740476Y-60829580D01*
X121249405Y-133554819D02*
X121249405Y-132554819D01*
X121249405Y-132554819D02*
X121487500Y-132554819D01*
X121487500Y-132554819D02*
X121630357Y-132602438D01*
X121630357Y-132602438D02*
X121725595Y-132697676D01*
X121725595Y-132697676D02*
X121773214Y-132792914D01*
X121773214Y-132792914D02*
X121820833Y-132983390D01*
X121820833Y-132983390D02*
X121820833Y-133126247D01*
X121820833Y-133126247D02*
X121773214Y-133316723D01*
X121773214Y-133316723D02*
X121725595Y-133411961D01*
X121725595Y-133411961D02*
X121630357Y-133507200D01*
X121630357Y-133507200D02*
X121487500Y-133554819D01*
X121487500Y-133554819D02*
X121249405Y-133554819D01*
X122201786Y-132650057D02*
X122249405Y-132602438D01*
X122249405Y-132602438D02*
X122344643Y-132554819D01*
X122344643Y-132554819D02*
X122582738Y-132554819D01*
X122582738Y-132554819D02*
X122677976Y-132602438D01*
X122677976Y-132602438D02*
X122725595Y-132650057D01*
X122725595Y-132650057D02*
X122773214Y-132745295D01*
X122773214Y-132745295D02*
X122773214Y-132840533D01*
X122773214Y-132840533D02*
X122725595Y-132983390D01*
X122725595Y-132983390D02*
X122154167Y-133554819D01*
X122154167Y-133554819D02*
X122773214Y-133554819D01*
X137833333Y-127359580D02*
X137785714Y-127407200D01*
X137785714Y-127407200D02*
X137642857Y-127454819D01*
X137642857Y-127454819D02*
X137547619Y-127454819D01*
X137547619Y-127454819D02*
X137404762Y-127407200D01*
X137404762Y-127407200D02*
X137309524Y-127311961D01*
X137309524Y-127311961D02*
X137261905Y-127216723D01*
X137261905Y-127216723D02*
X137214286Y-127026247D01*
X137214286Y-127026247D02*
X137214286Y-126883390D01*
X137214286Y-126883390D02*
X137261905Y-126692914D01*
X137261905Y-126692914D02*
X137309524Y-126597676D01*
X137309524Y-126597676D02*
X137404762Y-126502438D01*
X137404762Y-126502438D02*
X137547619Y-126454819D01*
X137547619Y-126454819D02*
X137642857Y-126454819D01*
X137642857Y-126454819D02*
X137785714Y-126502438D01*
X137785714Y-126502438D02*
X137833333Y-126550057D01*
X138404762Y-126883390D02*
X138309524Y-126835771D01*
X138309524Y-126835771D02*
X138261905Y-126788152D01*
X138261905Y-126788152D02*
X138214286Y-126692914D01*
X138214286Y-126692914D02*
X138214286Y-126645295D01*
X138214286Y-126645295D02*
X138261905Y-126550057D01*
X138261905Y-126550057D02*
X138309524Y-126502438D01*
X138309524Y-126502438D02*
X138404762Y-126454819D01*
X138404762Y-126454819D02*
X138595238Y-126454819D01*
X138595238Y-126454819D02*
X138690476Y-126502438D01*
X138690476Y-126502438D02*
X138738095Y-126550057D01*
X138738095Y-126550057D02*
X138785714Y-126645295D01*
X138785714Y-126645295D02*
X138785714Y-126692914D01*
X138785714Y-126692914D02*
X138738095Y-126788152D01*
X138738095Y-126788152D02*
X138690476Y-126835771D01*
X138690476Y-126835771D02*
X138595238Y-126883390D01*
X138595238Y-126883390D02*
X138404762Y-126883390D01*
X138404762Y-126883390D02*
X138309524Y-126931009D01*
X138309524Y-126931009D02*
X138261905Y-126978628D01*
X138261905Y-126978628D02*
X138214286Y-127073866D01*
X138214286Y-127073866D02*
X138214286Y-127264342D01*
X138214286Y-127264342D02*
X138261905Y-127359580D01*
X138261905Y-127359580D02*
X138309524Y-127407200D01*
X138309524Y-127407200D02*
X138404762Y-127454819D01*
X138404762Y-127454819D02*
X138595238Y-127454819D01*
X138595238Y-127454819D02*
X138690476Y-127407200D01*
X138690476Y-127407200D02*
X138738095Y-127359580D01*
X138738095Y-127359580D02*
X138785714Y-127264342D01*
X138785714Y-127264342D02*
X138785714Y-127073866D01*
X138785714Y-127073866D02*
X138738095Y-126978628D01*
X138738095Y-126978628D02*
X138690476Y-126931009D01*
X138690476Y-126931009D02*
X138595238Y-126883390D01*
X121361905Y-137104819D02*
X121361905Y-136104819D01*
X121361905Y-136104819D02*
X121600000Y-136104819D01*
X121600000Y-136104819D02*
X121742857Y-136152438D01*
X121742857Y-136152438D02*
X121838095Y-136247676D01*
X121838095Y-136247676D02*
X121885714Y-136342914D01*
X121885714Y-136342914D02*
X121933333Y-136533390D01*
X121933333Y-136533390D02*
X121933333Y-136676247D01*
X121933333Y-136676247D02*
X121885714Y-136866723D01*
X121885714Y-136866723D02*
X121838095Y-136961961D01*
X121838095Y-136961961D02*
X121742857Y-137057200D01*
X121742857Y-137057200D02*
X121600000Y-137104819D01*
X121600000Y-137104819D02*
X121361905Y-137104819D01*
X122885714Y-137104819D02*
X122314286Y-137104819D01*
X122600000Y-137104819D02*
X122600000Y-136104819D01*
X122600000Y-136104819D02*
X122504762Y-136247676D01*
X122504762Y-136247676D02*
X122409524Y-136342914D01*
X122409524Y-136342914D02*
X122314286Y-136390533D01*
X145583333Y-127339580D02*
X145535714Y-127387200D01*
X145535714Y-127387200D02*
X145392857Y-127434819D01*
X145392857Y-127434819D02*
X145297619Y-127434819D01*
X145297619Y-127434819D02*
X145154762Y-127387200D01*
X145154762Y-127387200D02*
X145059524Y-127291961D01*
X145059524Y-127291961D02*
X145011905Y-127196723D01*
X145011905Y-127196723D02*
X144964286Y-127006247D01*
X144964286Y-127006247D02*
X144964286Y-126863390D01*
X144964286Y-126863390D02*
X145011905Y-126672914D01*
X145011905Y-126672914D02*
X145059524Y-126577676D01*
X145059524Y-126577676D02*
X145154762Y-126482438D01*
X145154762Y-126482438D02*
X145297619Y-126434819D01*
X145297619Y-126434819D02*
X145392857Y-126434819D01*
X145392857Y-126434819D02*
X145535714Y-126482438D01*
X145535714Y-126482438D02*
X145583333Y-126530057D01*
X146059524Y-127434819D02*
X146250000Y-127434819D01*
X146250000Y-127434819D02*
X146345238Y-127387200D01*
X146345238Y-127387200D02*
X146392857Y-127339580D01*
X146392857Y-127339580D02*
X146488095Y-127196723D01*
X146488095Y-127196723D02*
X146535714Y-127006247D01*
X146535714Y-127006247D02*
X146535714Y-126625295D01*
X146535714Y-126625295D02*
X146488095Y-126530057D01*
X146488095Y-126530057D02*
X146440476Y-126482438D01*
X146440476Y-126482438D02*
X146345238Y-126434819D01*
X146345238Y-126434819D02*
X146154762Y-126434819D01*
X146154762Y-126434819D02*
X146059524Y-126482438D01*
X146059524Y-126482438D02*
X146011905Y-126530057D01*
X146011905Y-126530057D02*
X145964286Y-126625295D01*
X145964286Y-126625295D02*
X145964286Y-126863390D01*
X145964286Y-126863390D02*
X146011905Y-126958628D01*
X146011905Y-126958628D02*
X146059524Y-127006247D01*
X146059524Y-127006247D02*
X146154762Y-127053866D01*
X146154762Y-127053866D02*
X146345238Y-127053866D01*
X146345238Y-127053866D02*
X146440476Y-127006247D01*
X146440476Y-127006247D02*
X146488095Y-126958628D01*
X146488095Y-126958628D02*
X146535714Y-126863390D01*
X133907142Y-116409580D02*
X133859523Y-116457200D01*
X133859523Y-116457200D02*
X133716666Y-116504819D01*
X133716666Y-116504819D02*
X133621428Y-116504819D01*
X133621428Y-116504819D02*
X133478571Y-116457200D01*
X133478571Y-116457200D02*
X133383333Y-116361961D01*
X133383333Y-116361961D02*
X133335714Y-116266723D01*
X133335714Y-116266723D02*
X133288095Y-116076247D01*
X133288095Y-116076247D02*
X133288095Y-115933390D01*
X133288095Y-115933390D02*
X133335714Y-115742914D01*
X133335714Y-115742914D02*
X133383333Y-115647676D01*
X133383333Y-115647676D02*
X133478571Y-115552438D01*
X133478571Y-115552438D02*
X133621428Y-115504819D01*
X133621428Y-115504819D02*
X133716666Y-115504819D01*
X133716666Y-115504819D02*
X133859523Y-115552438D01*
X133859523Y-115552438D02*
X133907142Y-115600057D01*
X134859523Y-116504819D02*
X134288095Y-116504819D01*
X134573809Y-116504819D02*
X134573809Y-115504819D01*
X134573809Y-115504819D02*
X134478571Y-115647676D01*
X134478571Y-115647676D02*
X134383333Y-115742914D01*
X134383333Y-115742914D02*
X134288095Y-115790533D01*
X135478571Y-115504819D02*
X135573809Y-115504819D01*
X135573809Y-115504819D02*
X135669047Y-115552438D01*
X135669047Y-115552438D02*
X135716666Y-115600057D01*
X135716666Y-115600057D02*
X135764285Y-115695295D01*
X135764285Y-115695295D02*
X135811904Y-115885771D01*
X135811904Y-115885771D02*
X135811904Y-116123866D01*
X135811904Y-116123866D02*
X135764285Y-116314342D01*
X135764285Y-116314342D02*
X135716666Y-116409580D01*
X135716666Y-116409580D02*
X135669047Y-116457200D01*
X135669047Y-116457200D02*
X135573809Y-116504819D01*
X135573809Y-116504819D02*
X135478571Y-116504819D01*
X135478571Y-116504819D02*
X135383333Y-116457200D01*
X135383333Y-116457200D02*
X135335714Y-116409580D01*
X135335714Y-116409580D02*
X135288095Y-116314342D01*
X135288095Y-116314342D02*
X135240476Y-116123866D01*
X135240476Y-116123866D02*
X135240476Y-115885771D01*
X135240476Y-115885771D02*
X135288095Y-115695295D01*
X135288095Y-115695295D02*
X135335714Y-115600057D01*
X135335714Y-115600057D02*
X135383333Y-115552438D01*
X135383333Y-115552438D02*
X135478571Y-115504819D01*
X118458333Y-137104819D02*
X118125000Y-136628628D01*
X117886905Y-137104819D02*
X117886905Y-136104819D01*
X117886905Y-136104819D02*
X118267857Y-136104819D01*
X118267857Y-136104819D02*
X118363095Y-136152438D01*
X118363095Y-136152438D02*
X118410714Y-136200057D01*
X118410714Y-136200057D02*
X118458333Y-136295295D01*
X118458333Y-136295295D02*
X118458333Y-136438152D01*
X118458333Y-136438152D02*
X118410714Y-136533390D01*
X118410714Y-136533390D02*
X118363095Y-136581009D01*
X118363095Y-136581009D02*
X118267857Y-136628628D01*
X118267857Y-136628628D02*
X117886905Y-136628628D01*
X119410714Y-137104819D02*
X118839286Y-137104819D01*
X119125000Y-137104819D02*
X119125000Y-136104819D01*
X119125000Y-136104819D02*
X119029762Y-136247676D01*
X119029762Y-136247676D02*
X118934524Y-136342914D01*
X118934524Y-136342914D02*
X118839286Y-136390533D01*
X169083333Y-112409580D02*
X169035714Y-112457200D01*
X169035714Y-112457200D02*
X168892857Y-112504819D01*
X168892857Y-112504819D02*
X168797619Y-112504819D01*
X168797619Y-112504819D02*
X168654762Y-112457200D01*
X168654762Y-112457200D02*
X168559524Y-112361961D01*
X168559524Y-112361961D02*
X168511905Y-112266723D01*
X168511905Y-112266723D02*
X168464286Y-112076247D01*
X168464286Y-112076247D02*
X168464286Y-111933390D01*
X168464286Y-111933390D02*
X168511905Y-111742914D01*
X168511905Y-111742914D02*
X168559524Y-111647676D01*
X168559524Y-111647676D02*
X168654762Y-111552438D01*
X168654762Y-111552438D02*
X168797619Y-111504819D01*
X168797619Y-111504819D02*
X168892857Y-111504819D01*
X168892857Y-111504819D02*
X169035714Y-111552438D01*
X169035714Y-111552438D02*
X169083333Y-111600057D01*
X169416667Y-111504819D02*
X170083333Y-111504819D01*
X170083333Y-111504819D02*
X169654762Y-112504819D01*
X169550000Y-87602200D02*
X169692857Y-87649819D01*
X169692857Y-87649819D02*
X169930952Y-87649819D01*
X169930952Y-87649819D02*
X170026190Y-87602200D01*
X170026190Y-87602200D02*
X170073809Y-87554580D01*
X170073809Y-87554580D02*
X170121428Y-87459342D01*
X170121428Y-87459342D02*
X170121428Y-87364104D01*
X170121428Y-87364104D02*
X170073809Y-87268866D01*
X170073809Y-87268866D02*
X170026190Y-87221247D01*
X170026190Y-87221247D02*
X169930952Y-87173628D01*
X169930952Y-87173628D02*
X169740476Y-87126009D01*
X169740476Y-87126009D02*
X169645238Y-87078390D01*
X169645238Y-87078390D02*
X169597619Y-87030771D01*
X169597619Y-87030771D02*
X169550000Y-86935533D01*
X169550000Y-86935533D02*
X169550000Y-86840295D01*
X169550000Y-86840295D02*
X169597619Y-86745057D01*
X169597619Y-86745057D02*
X169645238Y-86697438D01*
X169645238Y-86697438D02*
X169740476Y-86649819D01*
X169740476Y-86649819D02*
X169978571Y-86649819D01*
X169978571Y-86649819D02*
X170121428Y-86697438D01*
X170550000Y-87649819D02*
X170550000Y-86649819D01*
X170550000Y-86649819D02*
X170930952Y-86649819D01*
X170930952Y-86649819D02*
X171026190Y-86697438D01*
X171026190Y-86697438D02*
X171073809Y-86745057D01*
X171073809Y-86745057D02*
X171121428Y-86840295D01*
X171121428Y-86840295D02*
X171121428Y-86983152D01*
X171121428Y-86983152D02*
X171073809Y-87078390D01*
X171073809Y-87078390D02*
X171026190Y-87126009D01*
X171026190Y-87126009D02*
X170930952Y-87173628D01*
X170930952Y-87173628D02*
X170550000Y-87173628D01*
X171550000Y-87649819D02*
X171550000Y-86649819D01*
X172549999Y-87649819D02*
X171978571Y-87649819D01*
X172264285Y-87649819D02*
X172264285Y-86649819D01*
X172264285Y-86649819D02*
X172169047Y-86792676D01*
X172169047Y-86792676D02*
X172073809Y-86887914D01*
X172073809Y-86887914D02*
X171978571Y-86935533D01*
X147239819Y-133998332D02*
X146239819Y-133998332D01*
X146239819Y-133998332D02*
X146954104Y-133664999D01*
X146954104Y-133664999D02*
X146239819Y-133331666D01*
X146239819Y-133331666D02*
X147239819Y-133331666D01*
X147144580Y-132284047D02*
X147192200Y-132331666D01*
X147192200Y-132331666D02*
X147239819Y-132474523D01*
X147239819Y-132474523D02*
X147239819Y-132569761D01*
X147239819Y-132569761D02*
X147192200Y-132712618D01*
X147192200Y-132712618D02*
X147096961Y-132807856D01*
X147096961Y-132807856D02*
X147001723Y-132855475D01*
X147001723Y-132855475D02*
X146811247Y-132903094D01*
X146811247Y-132903094D02*
X146668390Y-132903094D01*
X146668390Y-132903094D02*
X146477914Y-132855475D01*
X146477914Y-132855475D02*
X146382676Y-132807856D01*
X146382676Y-132807856D02*
X146287438Y-132712618D01*
X146287438Y-132712618D02*
X146239819Y-132569761D01*
X146239819Y-132569761D02*
X146239819Y-132474523D01*
X146239819Y-132474523D02*
X146287438Y-132331666D01*
X146287438Y-132331666D02*
X146335057Y-132284047D01*
X146239819Y-131855475D02*
X147049342Y-131855475D01*
X147049342Y-131855475D02*
X147144580Y-131807856D01*
X147144580Y-131807856D02*
X147192200Y-131760237D01*
X147192200Y-131760237D02*
X147239819Y-131664999D01*
X147239819Y-131664999D02*
X147239819Y-131474523D01*
X147239819Y-131474523D02*
X147192200Y-131379285D01*
X147192200Y-131379285D02*
X147144580Y-131331666D01*
X147144580Y-131331666D02*
X147049342Y-131284047D01*
X147049342Y-131284047D02*
X146239819Y-131284047D01*
X147239819Y-130284047D02*
X147239819Y-130855475D01*
X147239819Y-130569761D02*
X146239819Y-130569761D01*
X146239819Y-130569761D02*
X146382676Y-130664999D01*
X146382676Y-130664999D02*
X146477914Y-130760237D01*
X146477914Y-130760237D02*
X146525533Y-130855475D01*
X170797619Y-119554819D02*
X170797619Y-118554819D01*
X171226190Y-118650057D02*
X171273809Y-118602438D01*
X171273809Y-118602438D02*
X171369047Y-118554819D01*
X171369047Y-118554819D02*
X171607142Y-118554819D01*
X171607142Y-118554819D02*
X171702380Y-118602438D01*
X171702380Y-118602438D02*
X171749999Y-118650057D01*
X171749999Y-118650057D02*
X171797618Y-118745295D01*
X171797618Y-118745295D02*
X171797618Y-118840533D01*
X171797618Y-118840533D02*
X171749999Y-118983390D01*
X171749999Y-118983390D02*
X171178571Y-119554819D01*
X171178571Y-119554819D02*
X171797618Y-119554819D01*
X172797618Y-119459580D02*
X172749999Y-119507200D01*
X172749999Y-119507200D02*
X172607142Y-119554819D01*
X172607142Y-119554819D02*
X172511904Y-119554819D01*
X172511904Y-119554819D02*
X172369047Y-119507200D01*
X172369047Y-119507200D02*
X172273809Y-119411961D01*
X172273809Y-119411961D02*
X172226190Y-119316723D01*
X172226190Y-119316723D02*
X172178571Y-119126247D01*
X172178571Y-119126247D02*
X172178571Y-118983390D01*
X172178571Y-118983390D02*
X172226190Y-118792914D01*
X172226190Y-118792914D02*
X172273809Y-118697676D01*
X172273809Y-118697676D02*
X172369047Y-118602438D01*
X172369047Y-118602438D02*
X172511904Y-118554819D01*
X172511904Y-118554819D02*
X172607142Y-118554819D01*
X172607142Y-118554819D02*
X172749999Y-118602438D01*
X172749999Y-118602438D02*
X172797618Y-118650057D01*
X173749999Y-119554819D02*
X173178571Y-119554819D01*
X173464285Y-119554819D02*
X173464285Y-118554819D01*
X173464285Y-118554819D02*
X173369047Y-118697676D01*
X173369047Y-118697676D02*
X173273809Y-118792914D01*
X173273809Y-118792914D02*
X173178571Y-118840533D01*
D16*
%TO.C,GPS1*%
X141670800Y-48597500D02*
X141670800Y-49239265D01*
X141670800Y-62560735D02*
X141670800Y-63202500D01*
X141670800Y-63202500D02*
X144038531Y-63202500D01*
X144038531Y-48597500D02*
X141670800Y-48597500D01*
X149361469Y-63202500D02*
X151729200Y-63202500D01*
X151729200Y-48597500D02*
X149361469Y-48597500D01*
X151729200Y-49239265D02*
X151729200Y-48597500D01*
X151729200Y-63202500D02*
X151729200Y-62560735D01*
%TO.C,Baro1*%
X170768900Y-107068900D02*
X170768900Y-107694958D01*
X170768900Y-108805042D02*
X170768900Y-109431100D01*
X170768900Y-109431100D02*
X171144959Y-109431100D01*
X171144959Y-107068900D02*
X170768900Y-107068900D01*
X172755041Y-109431100D02*
X173131100Y-109431100D01*
X173131100Y-107068900D02*
X172755041Y-107068900D01*
X173131100Y-107694958D02*
X173131100Y-107068900D01*
X173131100Y-109431100D02*
X173131100Y-108805042D01*
D17*
G36*
X172640499Y-109658001D02*
G01*
X172259499Y-109658001D01*
X172259499Y-109404001D01*
X172640499Y-109404001D01*
X172640499Y-109658001D01*
G37*
D18*
%TO.C,IMU1*%
X170237500Y-97600000D02*
X171237500Y-97600000D01*
X170237500Y-97850000D02*
X170237500Y-97600000D01*
X170237500Y-102100000D02*
X170237500Y-101850000D01*
X171237500Y-102100000D02*
X170237500Y-102100000D01*
X172237500Y-97600000D02*
X173237500Y-97600000D01*
X172237500Y-102100000D02*
X173237500Y-102100000D01*
X173237500Y-97600000D02*
X173237500Y-97850000D01*
X173237500Y-102100000D02*
X173237500Y-101850000D01*
D19*
X173937500Y-98221000D02*
G75*
G02*
X173737500Y-98221000I-100000J0D01*
G01*
X173737500Y-98221000D02*
G75*
G02*
X173937500Y-98221000I100000J0D01*
G01*
D18*
%TO.C,Lora1*%
X117300000Y-103650000D02*
X131300000Y-103650000D01*
X117300000Y-123650000D02*
X117300000Y-103650000D01*
X119220000Y-104760000D02*
X126840000Y-104760000D01*
X119220000Y-122540000D02*
X119220000Y-104760000D01*
X126840000Y-104760000D02*
X126840000Y-108570000D01*
X126840000Y-108570000D02*
X129380000Y-108570000D01*
X129380000Y-108570000D02*
X129380000Y-122540000D01*
X129380000Y-122540000D02*
X119220000Y-122540000D01*
X131300000Y-103650000D02*
X131300000Y-123650000D01*
X131300000Y-123650000D02*
X117300000Y-123650000D01*
X129380000Y-105776000D02*
G75*
G02*
X127348000Y-105776000I-1016000J0D01*
G01*
X127348000Y-105776000D02*
G75*
G02*
X129380000Y-105776000I1016000J0D01*
G01*
X130142000Y-104760000D02*
G75*
G02*
X129380000Y-104760000I-381000J0D01*
G01*
X129380000Y-104760000D02*
G75*
G02*
X130142000Y-104760000I381000J0D01*
G01*
X130015000Y-104760000D02*
G75*
G02*
X129507000Y-104760000I-254000J0D01*
G01*
X129507000Y-104760000D02*
G75*
G02*
X130015000Y-104760000I254000J0D01*
G01*
D20*
%TO.C,3.3V1*%
X136200000Y-108090000D02*
X142210000Y-108090000D01*
X138450000Y-114910000D02*
X142210000Y-114910000D01*
X142210000Y-108090000D02*
X142210000Y-109350000D01*
X142210000Y-114910000D02*
X142210000Y-113650000D01*
%TO.C,C14*%
X116490000Y-75709470D02*
X116490000Y-75990630D01*
X117510000Y-75709470D02*
X117510000Y-75990630D01*
%TO.C,C4*%
X119115000Y-125438748D02*
X119115000Y-125961252D01*
X120585000Y-125438748D02*
X120585000Y-125961252D01*
%TO.C,BT1*%
X145340000Y-136490000D02*
X145340000Y-144310000D01*
X145340000Y-138090000D02*
X146260000Y-138090000D01*
X145340000Y-144310000D02*
X151460000Y-144310000D01*
X146100000Y-140450000D02*
X146100000Y-142050000D01*
X146100000Y-142050000D02*
X147100000Y-142050000D01*
X146260000Y-136490000D02*
X145340000Y-136490000D01*
X146260000Y-138090000D02*
X146260000Y-136490000D01*
X146540000Y-138090000D02*
X146260000Y-138090000D01*
X146540000Y-138090000D02*
X146540000Y-136875000D01*
X146600000Y-142050000D02*
X146600000Y-144310000D01*
X147100000Y-140450000D02*
X146100000Y-140450000D01*
X147100000Y-142050000D02*
X147100000Y-140450000D01*
X147100000Y-142050000D02*
X147100000Y-144310000D01*
X147900000Y-139950000D02*
X148900000Y-139950000D01*
X147900000Y-144310000D02*
X147900000Y-139950000D01*
X148900000Y-139950000D02*
X148900000Y-144310000D01*
X149700000Y-140450000D02*
X150700000Y-140450000D01*
X149700000Y-142050000D02*
X149700000Y-140450000D01*
X150540000Y-136490000D02*
X150540000Y-138090000D01*
X150540000Y-138090000D02*
X150260000Y-138090000D01*
X150700000Y-140450000D02*
X150700000Y-142050000D01*
X150700000Y-142050000D02*
X149700000Y-142050000D01*
X151460000Y-136490000D02*
X150540000Y-136490000D01*
X151460000Y-138090000D02*
X150540000Y-138090000D01*
X151460000Y-144310000D02*
X151460000Y-136490000D01*
%TO.C,C13*%
X121540000Y-75209470D02*
X121540000Y-75490630D01*
X122560000Y-75209470D02*
X122560000Y-75490630D01*
%TO.C,C3*%
X122715000Y-125488748D02*
X122715000Y-126011252D01*
X124185000Y-125488748D02*
X124185000Y-126011252D01*
%TO.C,5V1*%
X136300000Y-117240000D02*
X142310000Y-117240000D01*
X138550000Y-124060000D02*
X142310000Y-124060000D01*
X142310000Y-117240000D02*
X142310000Y-118500000D01*
X142310000Y-124060000D02*
X142310000Y-122800000D01*
%TO.C,C6*%
X174390000Y-108240580D02*
X174390000Y-107959420D01*
X175410000Y-108240580D02*
X175410000Y-107959420D01*
%TO.C,R3*%
X170562742Y-133527500D02*
X171037258Y-133527500D01*
X170562742Y-134572500D02*
X171037258Y-134572500D01*
%TO.C,R2*%
X118287742Y-130927500D02*
X118762258Y-130927500D01*
X118287742Y-131972500D02*
X118762258Y-131972500D01*
%TO.C,C2*%
X167940000Y-99340580D02*
X167940000Y-99059420D01*
X168960000Y-99340580D02*
X168960000Y-99059420D01*
%TO.C,J1*%
X137370000Y-56095000D02*
X138700000Y-56095000D01*
X137370000Y-57425000D02*
X137370000Y-56095000D01*
X137370000Y-58695000D02*
X137370000Y-61295000D01*
X137370000Y-58695000D02*
X140030000Y-58695000D01*
X137370000Y-61295000D02*
X140030000Y-61295000D01*
X140030000Y-58695000D02*
X140030000Y-61295000D01*
%TO.C,SPI_1*%
X169820000Y-77970000D02*
X171150000Y-77970000D01*
X169820000Y-79300000D02*
X169820000Y-77970000D01*
X169820000Y-80570000D02*
X169820000Y-85710000D01*
X169820000Y-80570000D02*
X172480000Y-80570000D01*
X169820000Y-85710000D02*
X172480000Y-85710000D01*
X172480000Y-80570000D02*
X172480000Y-85710000D01*
%TO.C,D3*%
X172602500Y-133315000D02*
X172602500Y-134785000D01*
X172602500Y-134785000D02*
X174887500Y-134785000D01*
X174887500Y-133315000D02*
X172602500Y-133315000D01*
%TO.C,C1*%
X126215000Y-125438748D02*
X126215000Y-125961252D01*
X127685000Y-125438748D02*
X127685000Y-125961252D01*
%TO.C,C16*%
X153834420Y-54390000D02*
X154115580Y-54390000D01*
X153834420Y-55410000D02*
X154115580Y-55410000D01*
%TO.C,C12*%
X118865580Y-72640050D02*
X118584420Y-72640050D01*
X118865580Y-73660050D02*
X118584420Y-73660050D01*
%TO.C,C5*%
X174690000Y-98409420D02*
X174690000Y-98690580D01*
X175710000Y-98409420D02*
X175710000Y-98690580D01*
%TO.C,J2*%
X141170000Y-76910000D02*
X142500000Y-76910000D01*
X141170000Y-78240000D02*
X141170000Y-76910000D01*
X141170000Y-79510000D02*
X141170000Y-89730000D01*
X141170000Y-79510000D02*
X143830000Y-79510000D01*
X141170000Y-89730000D02*
X143830000Y-89730000D01*
X143830000Y-79510000D02*
X143830000Y-89730000D01*
%TO.C,C11*%
X145665000Y-113038748D02*
X145665000Y-113561252D01*
X147135000Y-113038748D02*
X147135000Y-113561252D01*
%TO.C,C15*%
X154909420Y-61390000D02*
X155190580Y-61390000D01*
X154909420Y-62410000D02*
X155190580Y-62410000D01*
D16*
%TO.C,U1*%
X131028600Y-132184600D02*
X131028600Y-144427400D01*
X131028600Y-144427400D02*
X135621457Y-144427400D01*
X133378543Y-132184600D02*
X131028600Y-132184600D01*
X135621457Y-144427400D02*
X140921457Y-144427400D01*
X138678542Y-132184600D02*
X135621457Y-132184600D01*
X140921457Y-144427400D02*
X143271400Y-144427400D01*
X143271400Y-132184600D02*
X140921457Y-132184600D01*
X143271400Y-144427400D02*
X143271400Y-132184600D01*
D20*
%TO.C,D2*%
X120490000Y-130765000D02*
X120490000Y-132235000D01*
X120490000Y-132235000D02*
X122775000Y-132235000D01*
X122775000Y-130765000D02*
X120490000Y-130765000D01*
%TO.C,C8*%
X137409420Y-125040000D02*
X137690580Y-125040000D01*
X137409420Y-126060000D02*
X137690580Y-126060000D01*
%TO.C,D1*%
X120615000Y-134265000D02*
X120615000Y-135735000D01*
X120615000Y-135735000D02*
X122900000Y-135735000D01*
X122900000Y-134265000D02*
X120615000Y-134265000D01*
%TO.C,C9*%
X145890580Y-125040000D02*
X145609420Y-125040000D01*
X145890580Y-126060000D02*
X145609420Y-126060000D01*
%TO.C,C10*%
X137234420Y-115490000D02*
X137515580Y-115490000D01*
X137234420Y-116510000D02*
X137515580Y-116510000D01*
%TO.C,R1*%
X118862258Y-134477500D02*
X118387742Y-134477500D01*
X118862258Y-135522500D02*
X118387742Y-135522500D01*
D12*
%TO.C,BAT1*%
X123588400Y-76822800D02*
X126433200Y-76822800D01*
X123588400Y-79566000D02*
X123588400Y-76822800D01*
X131411600Y-76822800D02*
X128566800Y-76822800D01*
X131411600Y-79566000D02*
X131411600Y-76822800D01*
X138726800Y-90132400D02*
G75*
G02*
X116273200Y-90132400I-11226800J0D01*
G01*
X116273200Y-90132400D02*
G75*
G02*
X138726800Y-90132400I11226800J0D01*
G01*
D20*
%TO.C,C7*%
X172165580Y-110240000D02*
X171884420Y-110240000D01*
X172165580Y-111260000D02*
X171884420Y-111260000D01*
%TO.C,SPI1*%
X169720000Y-88195000D02*
X171050000Y-88195000D01*
X169720000Y-89525000D02*
X169720000Y-88195000D01*
X169720000Y-90795000D02*
X169720000Y-95935000D01*
X169720000Y-90795000D02*
X172380000Y-90795000D01*
X169720000Y-95935000D02*
X172380000Y-95935000D01*
X172380000Y-90795000D02*
X172380000Y-95935000D01*
D18*
%TO.C,MCU1*%
X148190000Y-74380000D02*
X165970000Y-74380000D01*
X148190000Y-135340000D02*
X148190000Y-74380000D01*
X148190000Y-135340000D02*
X153050000Y-135340000D01*
X153050000Y-135340000D02*
X153050000Y-136040000D01*
X161110000Y-135340000D02*
X161110000Y-136040000D01*
X161110000Y-136040000D02*
X153050000Y-136040000D01*
X165970000Y-74380000D02*
X165970000Y-135340000D01*
X165970000Y-135340000D02*
X161110000Y-135340000D01*
D19*
X166680000Y-128990000D02*
G75*
G02*
X166480000Y-128990000I-100000J0D01*
G01*
X166480000Y-128990000D02*
G75*
G02*
X166680000Y-128990000I100000J0D01*
G01*
D20*
%TO.C,I2C1*%
X170920000Y-115080000D02*
X170920000Y-112480000D01*
X173580000Y-112480000D02*
X170920000Y-112480000D01*
X173580000Y-115080000D02*
X170920000Y-115080000D01*
X173580000Y-115080000D02*
X173580000Y-112480000D01*
X173580000Y-116350000D02*
X173580000Y-117680000D01*
X173580000Y-117680000D02*
X172250000Y-117680000D01*
%TD*%
M02*
