%TF.GenerationSoftware,KiCad,Pcbnew,7.0.10*%
%TF.CreationDate,2024-05-30T01:56:09-07:00*%
%TF.ProjectId,APRL,4150524c-2e6b-4696-9361-645f70636258,rev?*%
%TF.SameCoordinates,Original*%
%TF.FileFunction,Legend,Top*%
%TF.FilePolarity,Positive*%
%FSLAX46Y46*%
G04 Gerber Fmt 4.6, Leading zero omitted, Abs format (unit mm)*
G04 Created by KiCad (PCBNEW 7.0.10) date 2024-05-30 01:56:09*
%MOMM*%
%LPD*%
G01*
G04 APERTURE LIST*
%ADD10C,0.400000*%
%ADD11C,0.250000*%
%ADD12C,0.150000*%
%ADD13C,0.100000*%
%ADD14C,0.120000*%
%ADD15C,0.152400*%
%ADD16C,0.127000*%
%ADD17C,0.200000*%
G04 APERTURE END LIST*
D10*
X118694109Y-64293009D02*
X119646490Y-64293009D01*
X118503633Y-64864438D02*
X119170299Y-62864438D01*
X119170299Y-62864438D02*
X119836966Y-64864438D01*
X120503633Y-64864438D02*
X120503633Y-62864438D01*
X120503633Y-62864438D02*
X121265538Y-62864438D01*
X121265538Y-62864438D02*
X121456014Y-62959676D01*
X121456014Y-62959676D02*
X121551252Y-63054914D01*
X121551252Y-63054914D02*
X121646490Y-63245390D01*
X121646490Y-63245390D02*
X121646490Y-63531104D01*
X121646490Y-63531104D02*
X121551252Y-63721580D01*
X121551252Y-63721580D02*
X121456014Y-63816819D01*
X121456014Y-63816819D02*
X121265538Y-63912057D01*
X121265538Y-63912057D02*
X120503633Y-63912057D01*
X123646490Y-64864438D02*
X122979823Y-63912057D01*
X122503633Y-64864438D02*
X122503633Y-62864438D01*
X122503633Y-62864438D02*
X123265538Y-62864438D01*
X123265538Y-62864438D02*
X123456014Y-62959676D01*
X123456014Y-62959676D02*
X123551252Y-63054914D01*
X123551252Y-63054914D02*
X123646490Y-63245390D01*
X123646490Y-63245390D02*
X123646490Y-63531104D01*
X123646490Y-63531104D02*
X123551252Y-63721580D01*
X123551252Y-63721580D02*
X123456014Y-63816819D01*
X123456014Y-63816819D02*
X123265538Y-63912057D01*
X123265538Y-63912057D02*
X122503633Y-63912057D01*
X125456014Y-64864438D02*
X124503633Y-64864438D01*
X124503633Y-64864438D02*
X124503633Y-62864438D01*
X127551253Y-64293009D02*
X128503634Y-64293009D01*
X127360777Y-64864438D02*
X128027443Y-62864438D01*
X128027443Y-62864438D02*
X128694110Y-64864438D01*
X129170301Y-63531104D02*
X129646491Y-64864438D01*
X129646491Y-64864438D02*
X130122682Y-63531104D01*
X130884587Y-64864438D02*
X130884587Y-63531104D01*
X130884587Y-62864438D02*
X130789349Y-62959676D01*
X130789349Y-62959676D02*
X130884587Y-63054914D01*
X130884587Y-63054914D02*
X130979825Y-62959676D01*
X130979825Y-62959676D02*
X130884587Y-62864438D01*
X130884587Y-62864438D02*
X130884587Y-63054914D01*
X132122682Y-64864438D02*
X131932206Y-64769200D01*
X131932206Y-64769200D02*
X131836968Y-64673961D01*
X131836968Y-64673961D02*
X131741730Y-64483485D01*
X131741730Y-64483485D02*
X131741730Y-63912057D01*
X131741730Y-63912057D02*
X131836968Y-63721580D01*
X131836968Y-63721580D02*
X131932206Y-63626342D01*
X131932206Y-63626342D02*
X132122682Y-63531104D01*
X132122682Y-63531104D02*
X132408397Y-63531104D01*
X132408397Y-63531104D02*
X132598873Y-63626342D01*
X132598873Y-63626342D02*
X132694111Y-63721580D01*
X132694111Y-63721580D02*
X132789349Y-63912057D01*
X132789349Y-63912057D02*
X132789349Y-64483485D01*
X132789349Y-64483485D02*
X132694111Y-64673961D01*
X132694111Y-64673961D02*
X132598873Y-64769200D01*
X132598873Y-64769200D02*
X132408397Y-64864438D01*
X132408397Y-64864438D02*
X132122682Y-64864438D01*
X133646492Y-63531104D02*
X133646492Y-64864438D01*
X133646492Y-63721580D02*
X133741730Y-63626342D01*
X133741730Y-63626342D02*
X133932206Y-63531104D01*
X133932206Y-63531104D02*
X134217921Y-63531104D01*
X134217921Y-63531104D02*
X134408397Y-63626342D01*
X134408397Y-63626342D02*
X134503635Y-63816819D01*
X134503635Y-63816819D02*
X134503635Y-64864438D01*
X135456016Y-64864438D02*
X135456016Y-63531104D01*
X135456016Y-62864438D02*
X135360778Y-62959676D01*
X135360778Y-62959676D02*
X135456016Y-63054914D01*
X135456016Y-63054914D02*
X135551254Y-62959676D01*
X135551254Y-62959676D02*
X135456016Y-62864438D01*
X135456016Y-62864438D02*
X135456016Y-63054914D01*
X137265540Y-64769200D02*
X137075064Y-64864438D01*
X137075064Y-64864438D02*
X136694111Y-64864438D01*
X136694111Y-64864438D02*
X136503635Y-64769200D01*
X136503635Y-64769200D02*
X136408397Y-64673961D01*
X136408397Y-64673961D02*
X136313159Y-64483485D01*
X136313159Y-64483485D02*
X136313159Y-63912057D01*
X136313159Y-63912057D02*
X136408397Y-63721580D01*
X136408397Y-63721580D02*
X136503635Y-63626342D01*
X136503635Y-63626342D02*
X136694111Y-63531104D01*
X136694111Y-63531104D02*
X137075064Y-63531104D01*
X137075064Y-63531104D02*
X137265540Y-63626342D01*
X138027445Y-64769200D02*
X138217921Y-64864438D01*
X138217921Y-64864438D02*
X138598873Y-64864438D01*
X138598873Y-64864438D02*
X138789350Y-64769200D01*
X138789350Y-64769200D02*
X138884588Y-64578723D01*
X138884588Y-64578723D02*
X138884588Y-64483485D01*
X138884588Y-64483485D02*
X138789350Y-64293009D01*
X138789350Y-64293009D02*
X138598873Y-64197771D01*
X138598873Y-64197771D02*
X138313159Y-64197771D01*
X138313159Y-64197771D02*
X138122683Y-64102533D01*
X138122683Y-64102533D02*
X138027445Y-63912057D01*
X138027445Y-63912057D02*
X138027445Y-63816819D01*
X138027445Y-63816819D02*
X138122683Y-63626342D01*
X138122683Y-63626342D02*
X138313159Y-63531104D01*
X138313159Y-63531104D02*
X138598873Y-63531104D01*
X138598873Y-63531104D02*
X138789350Y-63626342D01*
X118503633Y-66084438D02*
X119170299Y-68084438D01*
X119170299Y-68084438D02*
X119836966Y-66084438D01*
X121265538Y-67989200D02*
X121075062Y-68084438D01*
X121075062Y-68084438D02*
X120694109Y-68084438D01*
X120694109Y-68084438D02*
X120503633Y-67989200D01*
X120503633Y-67989200D02*
X120408395Y-67798723D01*
X120408395Y-67798723D02*
X120408395Y-67036819D01*
X120408395Y-67036819D02*
X120503633Y-66846342D01*
X120503633Y-66846342D02*
X120694109Y-66751104D01*
X120694109Y-66751104D02*
X121075062Y-66751104D01*
X121075062Y-66751104D02*
X121265538Y-66846342D01*
X121265538Y-66846342D02*
X121360776Y-67036819D01*
X121360776Y-67036819D02*
X121360776Y-67227295D01*
X121360776Y-67227295D02*
X120408395Y-67417771D01*
X122217919Y-68084438D02*
X122217919Y-66751104D01*
X122217919Y-67132057D02*
X122313157Y-66941580D01*
X122313157Y-66941580D02*
X122408395Y-66846342D01*
X122408395Y-66846342D02*
X122598871Y-66751104D01*
X122598871Y-66751104D02*
X122789348Y-66751104D01*
X126027443Y-68084438D02*
X124884586Y-68084438D01*
X125456014Y-68084438D02*
X125456014Y-66084438D01*
X125456014Y-66084438D02*
X125265538Y-66370152D01*
X125265538Y-66370152D02*
X125075062Y-66560628D01*
X125075062Y-66560628D02*
X124884586Y-66655866D01*
X126884586Y-67893961D02*
X126979824Y-67989200D01*
X126979824Y-67989200D02*
X126884586Y-68084438D01*
X126884586Y-68084438D02*
X126789348Y-67989200D01*
X126789348Y-67989200D02*
X126884586Y-67893961D01*
X126884586Y-67893961D02*
X126884586Y-68084438D01*
X128217919Y-66084438D02*
X128408396Y-66084438D01*
X128408396Y-66084438D02*
X128598872Y-66179676D01*
X128598872Y-66179676D02*
X128694110Y-66274914D01*
X128694110Y-66274914D02*
X128789348Y-66465390D01*
X128789348Y-66465390D02*
X128884586Y-66846342D01*
X128884586Y-66846342D02*
X128884586Y-67322533D01*
X128884586Y-67322533D02*
X128789348Y-67703485D01*
X128789348Y-67703485D02*
X128694110Y-67893961D01*
X128694110Y-67893961D02*
X128598872Y-67989200D01*
X128598872Y-67989200D02*
X128408396Y-68084438D01*
X128408396Y-68084438D02*
X128217919Y-68084438D01*
X128217919Y-68084438D02*
X128027443Y-67989200D01*
X128027443Y-67989200D02*
X127932205Y-67893961D01*
X127932205Y-67893961D02*
X127836967Y-67703485D01*
X127836967Y-67703485D02*
X127741729Y-67322533D01*
X127741729Y-67322533D02*
X127741729Y-66846342D01*
X127741729Y-66846342D02*
X127836967Y-66465390D01*
X127836967Y-66465390D02*
X127932205Y-66274914D01*
X127932205Y-66274914D02*
X128027443Y-66179676D01*
X128027443Y-66179676D02*
X128217919Y-66084438D01*
D11*
X140143044Y-70387190D02*
X141133520Y-70387190D01*
X141133520Y-70387190D02*
X140600187Y-70996714D01*
X140600187Y-70996714D02*
X140828758Y-70996714D01*
X140828758Y-70996714D02*
X140981139Y-71072904D01*
X140981139Y-71072904D02*
X141057330Y-71149095D01*
X141057330Y-71149095D02*
X141133520Y-71301476D01*
X141133520Y-71301476D02*
X141133520Y-71682428D01*
X141133520Y-71682428D02*
X141057330Y-71834809D01*
X141057330Y-71834809D02*
X140981139Y-71911000D01*
X140981139Y-71911000D02*
X140828758Y-71987190D01*
X140828758Y-71987190D02*
X140371615Y-71987190D01*
X140371615Y-71987190D02*
X140219234Y-71911000D01*
X140219234Y-71911000D02*
X140143044Y-71834809D01*
X142504949Y-70920523D02*
X142504949Y-71987190D01*
X142123997Y-70311000D02*
X141743044Y-71453857D01*
X141743044Y-71453857D02*
X142733521Y-71453857D01*
X140143044Y-72963190D02*
X141133520Y-72963190D01*
X141133520Y-72963190D02*
X140600187Y-73572714D01*
X140600187Y-73572714D02*
X140828758Y-73572714D01*
X140828758Y-73572714D02*
X140981139Y-73648904D01*
X140981139Y-73648904D02*
X141057330Y-73725095D01*
X141057330Y-73725095D02*
X141133520Y-73877476D01*
X141133520Y-73877476D02*
X141133520Y-74258428D01*
X141133520Y-74258428D02*
X141057330Y-74410809D01*
X141057330Y-74410809D02*
X140981139Y-74487000D01*
X140981139Y-74487000D02*
X140828758Y-74563190D01*
X140828758Y-74563190D02*
X140371615Y-74563190D01*
X140371615Y-74563190D02*
X140219234Y-74487000D01*
X140219234Y-74487000D02*
X140143044Y-74410809D01*
X142581140Y-72963190D02*
X141819235Y-72963190D01*
X141819235Y-72963190D02*
X141743044Y-73725095D01*
X141743044Y-73725095D02*
X141819235Y-73648904D01*
X141819235Y-73648904D02*
X141971616Y-73572714D01*
X141971616Y-73572714D02*
X142352568Y-73572714D01*
X142352568Y-73572714D02*
X142504949Y-73648904D01*
X142504949Y-73648904D02*
X142581140Y-73725095D01*
X142581140Y-73725095D02*
X142657330Y-73877476D01*
X142657330Y-73877476D02*
X142657330Y-74258428D01*
X142657330Y-74258428D02*
X142581140Y-74410809D01*
X142581140Y-74410809D02*
X142504949Y-74487000D01*
X142504949Y-74487000D02*
X142352568Y-74563190D01*
X142352568Y-74563190D02*
X141971616Y-74563190D01*
X141971616Y-74563190D02*
X141819235Y-74487000D01*
X141819235Y-74487000D02*
X141743044Y-74410809D01*
X140143044Y-75539190D02*
X141133520Y-75539190D01*
X141133520Y-75539190D02*
X140600187Y-76148714D01*
X140600187Y-76148714D02*
X140828758Y-76148714D01*
X140828758Y-76148714D02*
X140981139Y-76224904D01*
X140981139Y-76224904D02*
X141057330Y-76301095D01*
X141057330Y-76301095D02*
X141133520Y-76453476D01*
X141133520Y-76453476D02*
X141133520Y-76834428D01*
X141133520Y-76834428D02*
X141057330Y-76986809D01*
X141057330Y-76986809D02*
X140981139Y-77063000D01*
X140981139Y-77063000D02*
X140828758Y-77139190D01*
X140828758Y-77139190D02*
X140371615Y-77139190D01*
X140371615Y-77139190D02*
X140219234Y-77063000D01*
X140219234Y-77063000D02*
X140143044Y-76986809D01*
X142504949Y-75539190D02*
X142200187Y-75539190D01*
X142200187Y-75539190D02*
X142047806Y-75615380D01*
X142047806Y-75615380D02*
X141971616Y-75691571D01*
X141971616Y-75691571D02*
X141819235Y-75920142D01*
X141819235Y-75920142D02*
X141743044Y-76224904D01*
X141743044Y-76224904D02*
X141743044Y-76834428D01*
X141743044Y-76834428D02*
X141819235Y-76986809D01*
X141819235Y-76986809D02*
X141895425Y-77063000D01*
X141895425Y-77063000D02*
X142047806Y-77139190D01*
X142047806Y-77139190D02*
X142352568Y-77139190D01*
X142352568Y-77139190D02*
X142504949Y-77063000D01*
X142504949Y-77063000D02*
X142581140Y-76986809D01*
X142581140Y-76986809D02*
X142657330Y-76834428D01*
X142657330Y-76834428D02*
X142657330Y-76453476D01*
X142657330Y-76453476D02*
X142581140Y-76301095D01*
X142581140Y-76301095D02*
X142504949Y-76224904D01*
X142504949Y-76224904D02*
X142352568Y-76148714D01*
X142352568Y-76148714D02*
X142047806Y-76148714D01*
X142047806Y-76148714D02*
X141895425Y-76224904D01*
X141895425Y-76224904D02*
X141819235Y-76301095D01*
X141819235Y-76301095D02*
X141743044Y-76453476D01*
X140143044Y-78115190D02*
X141133520Y-78115190D01*
X141133520Y-78115190D02*
X140600187Y-78724714D01*
X140600187Y-78724714D02*
X140828758Y-78724714D01*
X140828758Y-78724714D02*
X140981139Y-78800904D01*
X140981139Y-78800904D02*
X141057330Y-78877095D01*
X141057330Y-78877095D02*
X141133520Y-79029476D01*
X141133520Y-79029476D02*
X141133520Y-79410428D01*
X141133520Y-79410428D02*
X141057330Y-79562809D01*
X141057330Y-79562809D02*
X140981139Y-79639000D01*
X140981139Y-79639000D02*
X140828758Y-79715190D01*
X140828758Y-79715190D02*
X140371615Y-79715190D01*
X140371615Y-79715190D02*
X140219234Y-79639000D01*
X140219234Y-79639000D02*
X140143044Y-79562809D01*
X141666854Y-78115190D02*
X142733521Y-78115190D01*
X142733521Y-78115190D02*
X142047806Y-79715190D01*
X140143044Y-80691190D02*
X141133520Y-80691190D01*
X141133520Y-80691190D02*
X140600187Y-81300714D01*
X140600187Y-81300714D02*
X140828758Y-81300714D01*
X140828758Y-81300714D02*
X140981139Y-81376904D01*
X140981139Y-81376904D02*
X141057330Y-81453095D01*
X141057330Y-81453095D02*
X141133520Y-81605476D01*
X141133520Y-81605476D02*
X141133520Y-81986428D01*
X141133520Y-81986428D02*
X141057330Y-82138809D01*
X141057330Y-82138809D02*
X140981139Y-82215000D01*
X140981139Y-82215000D02*
X140828758Y-82291190D01*
X140828758Y-82291190D02*
X140371615Y-82291190D01*
X140371615Y-82291190D02*
X140219234Y-82215000D01*
X140219234Y-82215000D02*
X140143044Y-82138809D01*
X142047806Y-81376904D02*
X141895425Y-81300714D01*
X141895425Y-81300714D02*
X141819235Y-81224523D01*
X141819235Y-81224523D02*
X141743044Y-81072142D01*
X141743044Y-81072142D02*
X141743044Y-80995952D01*
X141743044Y-80995952D02*
X141819235Y-80843571D01*
X141819235Y-80843571D02*
X141895425Y-80767380D01*
X141895425Y-80767380D02*
X142047806Y-80691190D01*
X142047806Y-80691190D02*
X142352568Y-80691190D01*
X142352568Y-80691190D02*
X142504949Y-80767380D01*
X142504949Y-80767380D02*
X142581140Y-80843571D01*
X142581140Y-80843571D02*
X142657330Y-80995952D01*
X142657330Y-80995952D02*
X142657330Y-81072142D01*
X142657330Y-81072142D02*
X142581140Y-81224523D01*
X142581140Y-81224523D02*
X142504949Y-81300714D01*
X142504949Y-81300714D02*
X142352568Y-81376904D01*
X142352568Y-81376904D02*
X142047806Y-81376904D01*
X142047806Y-81376904D02*
X141895425Y-81453095D01*
X141895425Y-81453095D02*
X141819235Y-81529285D01*
X141819235Y-81529285D02*
X141743044Y-81681666D01*
X141743044Y-81681666D02*
X141743044Y-81986428D01*
X141743044Y-81986428D02*
X141819235Y-82138809D01*
X141819235Y-82138809D02*
X141895425Y-82215000D01*
X141895425Y-82215000D02*
X142047806Y-82291190D01*
X142047806Y-82291190D02*
X142352568Y-82291190D01*
X142352568Y-82291190D02*
X142504949Y-82215000D01*
X142504949Y-82215000D02*
X142581140Y-82138809D01*
X142581140Y-82138809D02*
X142657330Y-81986428D01*
X142657330Y-81986428D02*
X142657330Y-81681666D01*
X142657330Y-81681666D02*
X142581140Y-81529285D01*
X142581140Y-81529285D02*
X142504949Y-81453095D01*
X142504949Y-81453095D02*
X142352568Y-81376904D01*
D12*
X146936779Y-142388866D02*
X147698684Y-142388866D01*
X148174874Y-142388866D02*
X148936779Y-142388866D01*
X148555826Y-142769819D02*
X148555826Y-142007914D01*
X170736779Y-103669819D02*
X170736779Y-102669819D01*
X171212969Y-103669819D02*
X171212969Y-102669819D01*
X171212969Y-102669819D02*
X171546302Y-103384104D01*
X171546302Y-103384104D02*
X171879635Y-102669819D01*
X171879635Y-102669819D02*
X171879635Y-103669819D01*
X172355826Y-102669819D02*
X172355826Y-103479342D01*
X172355826Y-103479342D02*
X172403445Y-103574580D01*
X172403445Y-103574580D02*
X172451064Y-103622200D01*
X172451064Y-103622200D02*
X172546302Y-103669819D01*
X172546302Y-103669819D02*
X172736778Y-103669819D01*
X172736778Y-103669819D02*
X172832016Y-103622200D01*
X172832016Y-103622200D02*
X172879635Y-103574580D01*
X172879635Y-103574580D02*
X172927254Y-103479342D01*
X172927254Y-103479342D02*
X172927254Y-102669819D01*
D13*
X132603884Y-56572419D02*
X132603884Y-55572419D01*
X132603884Y-55572419D02*
X132841979Y-55572419D01*
X132841979Y-55572419D02*
X132984836Y-55620038D01*
X132984836Y-55620038D02*
X133080074Y-55715276D01*
X133080074Y-55715276D02*
X133127693Y-55810514D01*
X133127693Y-55810514D02*
X133175312Y-56000990D01*
X133175312Y-56000990D02*
X133175312Y-56143847D01*
X133175312Y-56143847D02*
X133127693Y-56334323D01*
X133127693Y-56334323D02*
X133080074Y-56429561D01*
X133080074Y-56429561D02*
X132984836Y-56524800D01*
X132984836Y-56524800D02*
X132841979Y-56572419D01*
X132841979Y-56572419D02*
X132603884Y-56572419D01*
X133365789Y-56667657D02*
X134127693Y-56667657D01*
X134318170Y-56524800D02*
X134461027Y-56572419D01*
X134461027Y-56572419D02*
X134699122Y-56572419D01*
X134699122Y-56572419D02*
X134794360Y-56524800D01*
X134794360Y-56524800D02*
X134841979Y-56477180D01*
X134841979Y-56477180D02*
X134889598Y-56381942D01*
X134889598Y-56381942D02*
X134889598Y-56286704D01*
X134889598Y-56286704D02*
X134841979Y-56191466D01*
X134841979Y-56191466D02*
X134794360Y-56143847D01*
X134794360Y-56143847D02*
X134699122Y-56096228D01*
X134699122Y-56096228D02*
X134508646Y-56048609D01*
X134508646Y-56048609D02*
X134413408Y-56000990D01*
X134413408Y-56000990D02*
X134365789Y-55953371D01*
X134365789Y-55953371D02*
X134318170Y-55858133D01*
X134318170Y-55858133D02*
X134318170Y-55762895D01*
X134318170Y-55762895D02*
X134365789Y-55667657D01*
X134365789Y-55667657D02*
X134413408Y-55620038D01*
X134413408Y-55620038D02*
X134508646Y-55572419D01*
X134508646Y-55572419D02*
X134746741Y-55572419D01*
X134746741Y-55572419D02*
X134889598Y-55620038D01*
X135699122Y-56524800D02*
X135603884Y-56572419D01*
X135603884Y-56572419D02*
X135413408Y-56572419D01*
X135413408Y-56572419D02*
X135318170Y-56524800D01*
X135318170Y-56524800D02*
X135270551Y-56429561D01*
X135270551Y-56429561D02*
X135270551Y-56048609D01*
X135270551Y-56048609D02*
X135318170Y-55953371D01*
X135318170Y-55953371D02*
X135413408Y-55905752D01*
X135413408Y-55905752D02*
X135603884Y-55905752D01*
X135603884Y-55905752D02*
X135699122Y-55953371D01*
X135699122Y-55953371D02*
X135746741Y-56048609D01*
X135746741Y-56048609D02*
X135746741Y-56143847D01*
X135746741Y-56143847D02*
X135270551Y-56239085D01*
X136318170Y-56572419D02*
X136222932Y-56524800D01*
X136222932Y-56524800D02*
X136175313Y-56429561D01*
X136175313Y-56429561D02*
X136175313Y-55572419D01*
D12*
X173089160Y-91102200D02*
X173232017Y-91149819D01*
X173232017Y-91149819D02*
X173470112Y-91149819D01*
X173470112Y-91149819D02*
X173565350Y-91102200D01*
X173565350Y-91102200D02*
X173612969Y-91054580D01*
X173612969Y-91054580D02*
X173660588Y-90959342D01*
X173660588Y-90959342D02*
X173660588Y-90864104D01*
X173660588Y-90864104D02*
X173612969Y-90768866D01*
X173612969Y-90768866D02*
X173565350Y-90721247D01*
X173565350Y-90721247D02*
X173470112Y-90673628D01*
X173470112Y-90673628D02*
X173279636Y-90626009D01*
X173279636Y-90626009D02*
X173184398Y-90578390D01*
X173184398Y-90578390D02*
X173136779Y-90530771D01*
X173136779Y-90530771D02*
X173089160Y-90435533D01*
X173089160Y-90435533D02*
X173089160Y-90340295D01*
X173089160Y-90340295D02*
X173136779Y-90245057D01*
X173136779Y-90245057D02*
X173184398Y-90197438D01*
X173184398Y-90197438D02*
X173279636Y-90149819D01*
X173279636Y-90149819D02*
X173517731Y-90149819D01*
X173517731Y-90149819D02*
X173660588Y-90197438D01*
X174660588Y-91054580D02*
X174612969Y-91102200D01*
X174612969Y-91102200D02*
X174470112Y-91149819D01*
X174470112Y-91149819D02*
X174374874Y-91149819D01*
X174374874Y-91149819D02*
X174232017Y-91102200D01*
X174232017Y-91102200D02*
X174136779Y-91006961D01*
X174136779Y-91006961D02*
X174089160Y-90911723D01*
X174089160Y-90911723D02*
X174041541Y-90721247D01*
X174041541Y-90721247D02*
X174041541Y-90578390D01*
X174041541Y-90578390D02*
X174089160Y-90387914D01*
X174089160Y-90387914D02*
X174136779Y-90292676D01*
X174136779Y-90292676D02*
X174232017Y-90197438D01*
X174232017Y-90197438D02*
X174374874Y-90149819D01*
X174374874Y-90149819D02*
X174470112Y-90149819D01*
X174470112Y-90149819D02*
X174612969Y-90197438D01*
X174612969Y-90197438D02*
X174660588Y-90245057D01*
X175089160Y-91149819D02*
X175089160Y-90149819D01*
X175660588Y-91149819D02*
X175232017Y-90578390D01*
X175660588Y-90149819D02*
X175089160Y-90721247D01*
X173136779Y-92759819D02*
X173136779Y-91759819D01*
X173136779Y-91759819D02*
X173470112Y-92474104D01*
X173470112Y-92474104D02*
X173803445Y-91759819D01*
X173803445Y-91759819D02*
X173803445Y-92759819D01*
X174279636Y-92759819D02*
X174279636Y-91759819D01*
X174708207Y-92712200D02*
X174851064Y-92759819D01*
X174851064Y-92759819D02*
X175089159Y-92759819D01*
X175089159Y-92759819D02*
X175184397Y-92712200D01*
X175184397Y-92712200D02*
X175232016Y-92664580D01*
X175232016Y-92664580D02*
X175279635Y-92569342D01*
X175279635Y-92569342D02*
X175279635Y-92474104D01*
X175279635Y-92474104D02*
X175232016Y-92378866D01*
X175232016Y-92378866D02*
X175184397Y-92331247D01*
X175184397Y-92331247D02*
X175089159Y-92283628D01*
X175089159Y-92283628D02*
X174898683Y-92236009D01*
X174898683Y-92236009D02*
X174803445Y-92188390D01*
X174803445Y-92188390D02*
X174755826Y-92140771D01*
X174755826Y-92140771D02*
X174708207Y-92045533D01*
X174708207Y-92045533D02*
X174708207Y-91950295D01*
X174708207Y-91950295D02*
X174755826Y-91855057D01*
X174755826Y-91855057D02*
X174803445Y-91807438D01*
X174803445Y-91807438D02*
X174898683Y-91759819D01*
X174898683Y-91759819D02*
X175136778Y-91759819D01*
X175136778Y-91759819D02*
X175279635Y-91807438D01*
X175898683Y-91759819D02*
X176089159Y-91759819D01*
X176089159Y-91759819D02*
X176184397Y-91807438D01*
X176184397Y-91807438D02*
X176279635Y-91902676D01*
X176279635Y-91902676D02*
X176327254Y-92093152D01*
X176327254Y-92093152D02*
X176327254Y-92426485D01*
X176327254Y-92426485D02*
X176279635Y-92616961D01*
X176279635Y-92616961D02*
X176184397Y-92712200D01*
X176184397Y-92712200D02*
X176089159Y-92759819D01*
X176089159Y-92759819D02*
X175898683Y-92759819D01*
X175898683Y-92759819D02*
X175803445Y-92712200D01*
X175803445Y-92712200D02*
X175708207Y-92616961D01*
X175708207Y-92616961D02*
X175660588Y-92426485D01*
X175660588Y-92426485D02*
X175660588Y-92093152D01*
X175660588Y-92093152D02*
X175708207Y-91902676D01*
X175708207Y-91902676D02*
X175803445Y-91807438D01*
X175803445Y-91807438D02*
X175898683Y-91759819D01*
X173136779Y-94369819D02*
X173136779Y-93369819D01*
X173136779Y-93369819D02*
X173470112Y-94084104D01*
X173470112Y-94084104D02*
X173803445Y-93369819D01*
X173803445Y-93369819D02*
X173803445Y-94369819D01*
X174470112Y-93369819D02*
X174660588Y-93369819D01*
X174660588Y-93369819D02*
X174755826Y-93417438D01*
X174755826Y-93417438D02*
X174851064Y-93512676D01*
X174851064Y-93512676D02*
X174898683Y-93703152D01*
X174898683Y-93703152D02*
X174898683Y-94036485D01*
X174898683Y-94036485D02*
X174851064Y-94226961D01*
X174851064Y-94226961D02*
X174755826Y-94322200D01*
X174755826Y-94322200D02*
X174660588Y-94369819D01*
X174660588Y-94369819D02*
X174470112Y-94369819D01*
X174470112Y-94369819D02*
X174374874Y-94322200D01*
X174374874Y-94322200D02*
X174279636Y-94226961D01*
X174279636Y-94226961D02*
X174232017Y-94036485D01*
X174232017Y-94036485D02*
X174232017Y-93703152D01*
X174232017Y-93703152D02*
X174279636Y-93512676D01*
X174279636Y-93512676D02*
X174374874Y-93417438D01*
X174374874Y-93417438D02*
X174470112Y-93369819D01*
X175279636Y-94322200D02*
X175422493Y-94369819D01*
X175422493Y-94369819D02*
X175660588Y-94369819D01*
X175660588Y-94369819D02*
X175755826Y-94322200D01*
X175755826Y-94322200D02*
X175803445Y-94274580D01*
X175803445Y-94274580D02*
X175851064Y-94179342D01*
X175851064Y-94179342D02*
X175851064Y-94084104D01*
X175851064Y-94084104D02*
X175803445Y-93988866D01*
X175803445Y-93988866D02*
X175755826Y-93941247D01*
X175755826Y-93941247D02*
X175660588Y-93893628D01*
X175660588Y-93893628D02*
X175470112Y-93846009D01*
X175470112Y-93846009D02*
X175374874Y-93798390D01*
X175374874Y-93798390D02*
X175327255Y-93750771D01*
X175327255Y-93750771D02*
X175279636Y-93655533D01*
X175279636Y-93655533D02*
X175279636Y-93560295D01*
X175279636Y-93560295D02*
X175327255Y-93465057D01*
X175327255Y-93465057D02*
X175374874Y-93417438D01*
X175374874Y-93417438D02*
X175470112Y-93369819D01*
X175470112Y-93369819D02*
X175708207Y-93369819D01*
X175708207Y-93369819D02*
X175851064Y-93417438D01*
X176279636Y-94369819D02*
X176279636Y-93369819D01*
D13*
X129956265Y-59324800D02*
X130099122Y-59372419D01*
X130099122Y-59372419D02*
X130337217Y-59372419D01*
X130337217Y-59372419D02*
X130432455Y-59324800D01*
X130432455Y-59324800D02*
X130480074Y-59277180D01*
X130480074Y-59277180D02*
X130527693Y-59181942D01*
X130527693Y-59181942D02*
X130527693Y-59086704D01*
X130527693Y-59086704D02*
X130480074Y-58991466D01*
X130480074Y-58991466D02*
X130432455Y-58943847D01*
X130432455Y-58943847D02*
X130337217Y-58896228D01*
X130337217Y-58896228D02*
X130146741Y-58848609D01*
X130146741Y-58848609D02*
X130051503Y-58800990D01*
X130051503Y-58800990D02*
X130003884Y-58753371D01*
X130003884Y-58753371D02*
X129956265Y-58658133D01*
X129956265Y-58658133D02*
X129956265Y-58562895D01*
X129956265Y-58562895D02*
X130003884Y-58467657D01*
X130003884Y-58467657D02*
X130051503Y-58420038D01*
X130051503Y-58420038D02*
X130146741Y-58372419D01*
X130146741Y-58372419D02*
X130384836Y-58372419D01*
X130384836Y-58372419D02*
X130527693Y-58420038D01*
X131384836Y-59372419D02*
X131384836Y-58848609D01*
X131384836Y-58848609D02*
X131337217Y-58753371D01*
X131337217Y-58753371D02*
X131241979Y-58705752D01*
X131241979Y-58705752D02*
X131051503Y-58705752D01*
X131051503Y-58705752D02*
X130956265Y-58753371D01*
X131384836Y-59324800D02*
X131289598Y-59372419D01*
X131289598Y-59372419D02*
X131051503Y-59372419D01*
X131051503Y-59372419D02*
X130956265Y-59324800D01*
X130956265Y-59324800D02*
X130908646Y-59229561D01*
X130908646Y-59229561D02*
X130908646Y-59134323D01*
X130908646Y-59134323D02*
X130956265Y-59039085D01*
X130956265Y-59039085D02*
X131051503Y-58991466D01*
X131051503Y-58991466D02*
X131289598Y-58991466D01*
X131289598Y-58991466D02*
X131384836Y-58943847D01*
X131718170Y-58705752D02*
X132099122Y-58705752D01*
X131861027Y-59372419D02*
X131861027Y-58515276D01*
X131861027Y-58515276D02*
X131908646Y-58420038D01*
X131908646Y-58420038D02*
X132003884Y-58372419D01*
X132003884Y-58372419D02*
X132099122Y-58372419D01*
X132813408Y-59324800D02*
X132718170Y-59372419D01*
X132718170Y-59372419D02*
X132527694Y-59372419D01*
X132527694Y-59372419D02*
X132432456Y-59324800D01*
X132432456Y-59324800D02*
X132384837Y-59229561D01*
X132384837Y-59229561D02*
X132384837Y-58848609D01*
X132384837Y-58848609D02*
X132432456Y-58753371D01*
X132432456Y-58753371D02*
X132527694Y-58705752D01*
X132527694Y-58705752D02*
X132718170Y-58705752D01*
X132718170Y-58705752D02*
X132813408Y-58753371D01*
X132813408Y-58753371D02*
X132861027Y-58848609D01*
X132861027Y-58848609D02*
X132861027Y-58943847D01*
X132861027Y-58943847D02*
X132384837Y-59039085D01*
X133289599Y-59372419D02*
X133289599Y-58372419D01*
X133289599Y-58753371D02*
X133384837Y-58705752D01*
X133384837Y-58705752D02*
X133575313Y-58705752D01*
X133575313Y-58705752D02*
X133670551Y-58753371D01*
X133670551Y-58753371D02*
X133718170Y-58800990D01*
X133718170Y-58800990D02*
X133765789Y-58896228D01*
X133765789Y-58896228D02*
X133765789Y-59181942D01*
X133765789Y-59181942D02*
X133718170Y-59277180D01*
X133718170Y-59277180D02*
X133670551Y-59324800D01*
X133670551Y-59324800D02*
X133575313Y-59372419D01*
X133575313Y-59372419D02*
X133384837Y-59372419D01*
X133384837Y-59372419D02*
X133289599Y-59324800D01*
X134337218Y-59372419D02*
X134241980Y-59324800D01*
X134241980Y-59324800D02*
X134194361Y-59277180D01*
X134194361Y-59277180D02*
X134146742Y-59181942D01*
X134146742Y-59181942D02*
X134146742Y-58896228D01*
X134146742Y-58896228D02*
X134194361Y-58800990D01*
X134194361Y-58800990D02*
X134241980Y-58753371D01*
X134241980Y-58753371D02*
X134337218Y-58705752D01*
X134337218Y-58705752D02*
X134480075Y-58705752D01*
X134480075Y-58705752D02*
X134575313Y-58753371D01*
X134575313Y-58753371D02*
X134622932Y-58800990D01*
X134622932Y-58800990D02*
X134670551Y-58896228D01*
X134670551Y-58896228D02*
X134670551Y-59181942D01*
X134670551Y-59181942D02*
X134622932Y-59277180D01*
X134622932Y-59277180D02*
X134575313Y-59324800D01*
X134575313Y-59324800D02*
X134480075Y-59372419D01*
X134480075Y-59372419D02*
X134337218Y-59372419D01*
X135241980Y-59372419D02*
X135146742Y-59324800D01*
X135146742Y-59324800D02*
X135099123Y-59277180D01*
X135099123Y-59277180D02*
X135051504Y-59181942D01*
X135051504Y-59181942D02*
X135051504Y-58896228D01*
X135051504Y-58896228D02*
X135099123Y-58800990D01*
X135099123Y-58800990D02*
X135146742Y-58753371D01*
X135146742Y-58753371D02*
X135241980Y-58705752D01*
X135241980Y-58705752D02*
X135384837Y-58705752D01*
X135384837Y-58705752D02*
X135480075Y-58753371D01*
X135480075Y-58753371D02*
X135527694Y-58800990D01*
X135527694Y-58800990D02*
X135575313Y-58896228D01*
X135575313Y-58896228D02*
X135575313Y-59181942D01*
X135575313Y-59181942D02*
X135527694Y-59277180D01*
X135527694Y-59277180D02*
X135480075Y-59324800D01*
X135480075Y-59324800D02*
X135384837Y-59372419D01*
X135384837Y-59372419D02*
X135241980Y-59372419D01*
X135861028Y-58705752D02*
X136241980Y-58705752D01*
X136003885Y-58372419D02*
X136003885Y-59229561D01*
X136003885Y-59229561D02*
X136051504Y-59324800D01*
X136051504Y-59324800D02*
X136146742Y-59372419D01*
X136146742Y-59372419D02*
X136241980Y-59372419D01*
X162658646Y-63327085D02*
X162744360Y-63355657D01*
X162744360Y-63355657D02*
X162772931Y-63384228D01*
X162772931Y-63384228D02*
X162801503Y-63441371D01*
X162801503Y-63441371D02*
X162801503Y-63527085D01*
X162801503Y-63527085D02*
X162772931Y-63584228D01*
X162772931Y-63584228D02*
X162744360Y-63612800D01*
X162744360Y-63612800D02*
X162687217Y-63641371D01*
X162687217Y-63641371D02*
X162458646Y-63641371D01*
X162458646Y-63641371D02*
X162458646Y-63041371D01*
X162458646Y-63041371D02*
X162658646Y-63041371D01*
X162658646Y-63041371D02*
X162715789Y-63069942D01*
X162715789Y-63069942D02*
X162744360Y-63098514D01*
X162744360Y-63098514D02*
X162772931Y-63155657D01*
X162772931Y-63155657D02*
X162772931Y-63212800D01*
X162772931Y-63212800D02*
X162744360Y-63269942D01*
X162744360Y-63269942D02*
X162715789Y-63298514D01*
X162715789Y-63298514D02*
X162658646Y-63327085D01*
X162658646Y-63327085D02*
X162458646Y-63327085D01*
X163315789Y-63641371D02*
X163315789Y-63327085D01*
X163315789Y-63327085D02*
X163287217Y-63269942D01*
X163287217Y-63269942D02*
X163230074Y-63241371D01*
X163230074Y-63241371D02*
X163115789Y-63241371D01*
X163115789Y-63241371D02*
X163058646Y-63269942D01*
X163315789Y-63612800D02*
X163258646Y-63641371D01*
X163258646Y-63641371D02*
X163115789Y-63641371D01*
X163115789Y-63641371D02*
X163058646Y-63612800D01*
X163058646Y-63612800D02*
X163030074Y-63555657D01*
X163030074Y-63555657D02*
X163030074Y-63498514D01*
X163030074Y-63498514D02*
X163058646Y-63441371D01*
X163058646Y-63441371D02*
X163115789Y-63412800D01*
X163115789Y-63412800D02*
X163258646Y-63412800D01*
X163258646Y-63412800D02*
X163315789Y-63384228D01*
X163601503Y-63641371D02*
X163601503Y-63241371D01*
X163601503Y-63355657D02*
X163630074Y-63298514D01*
X163630074Y-63298514D02*
X163658646Y-63269942D01*
X163658646Y-63269942D02*
X163715788Y-63241371D01*
X163715788Y-63241371D02*
X163772931Y-63241371D01*
X164058646Y-63641371D02*
X164001503Y-63612800D01*
X164001503Y-63612800D02*
X163972932Y-63584228D01*
X163972932Y-63584228D02*
X163944360Y-63527085D01*
X163944360Y-63527085D02*
X163944360Y-63355657D01*
X163944360Y-63355657D02*
X163972932Y-63298514D01*
X163972932Y-63298514D02*
X164001503Y-63269942D01*
X164001503Y-63269942D02*
X164058646Y-63241371D01*
X164058646Y-63241371D02*
X164144360Y-63241371D01*
X164144360Y-63241371D02*
X164201503Y-63269942D01*
X164201503Y-63269942D02*
X164230075Y-63298514D01*
X164230075Y-63298514D02*
X164258646Y-63355657D01*
X164258646Y-63355657D02*
X164258646Y-63527085D01*
X164258646Y-63527085D02*
X164230075Y-63584228D01*
X164230075Y-63584228D02*
X164201503Y-63612800D01*
X164201503Y-63612800D02*
X164144360Y-63641371D01*
X164144360Y-63641371D02*
X164058646Y-63641371D01*
X164515789Y-63641371D02*
X164515789Y-63241371D01*
X164515789Y-63298514D02*
X164544360Y-63269942D01*
X164544360Y-63269942D02*
X164601503Y-63241371D01*
X164601503Y-63241371D02*
X164687217Y-63241371D01*
X164687217Y-63241371D02*
X164744360Y-63269942D01*
X164744360Y-63269942D02*
X164772932Y-63327085D01*
X164772932Y-63327085D02*
X164772932Y-63641371D01*
X164772932Y-63327085D02*
X164801503Y-63269942D01*
X164801503Y-63269942D02*
X164858646Y-63241371D01*
X164858646Y-63241371D02*
X164944360Y-63241371D01*
X164944360Y-63241371D02*
X165001503Y-63269942D01*
X165001503Y-63269942D02*
X165030074Y-63327085D01*
X165030074Y-63327085D02*
X165030074Y-63641371D01*
X165544360Y-63612800D02*
X165487217Y-63641371D01*
X165487217Y-63641371D02*
X165372932Y-63641371D01*
X165372932Y-63641371D02*
X165315789Y-63612800D01*
X165315789Y-63612800D02*
X165287217Y-63555657D01*
X165287217Y-63555657D02*
X165287217Y-63327085D01*
X165287217Y-63327085D02*
X165315789Y-63269942D01*
X165315789Y-63269942D02*
X165372932Y-63241371D01*
X165372932Y-63241371D02*
X165487217Y-63241371D01*
X165487217Y-63241371D02*
X165544360Y-63269942D01*
X165544360Y-63269942D02*
X165572932Y-63327085D01*
X165572932Y-63327085D02*
X165572932Y-63384228D01*
X165572932Y-63384228D02*
X165287217Y-63441371D01*
X165744360Y-63241371D02*
X165972932Y-63241371D01*
X165830075Y-63041371D02*
X165830075Y-63555657D01*
X165830075Y-63555657D02*
X165858646Y-63612800D01*
X165858646Y-63612800D02*
X165915789Y-63641371D01*
X165915789Y-63641371D02*
X165972932Y-63641371D01*
X166401503Y-63612800D02*
X166344360Y-63641371D01*
X166344360Y-63641371D02*
X166230075Y-63641371D01*
X166230075Y-63641371D02*
X166172932Y-63612800D01*
X166172932Y-63612800D02*
X166144360Y-63555657D01*
X166144360Y-63555657D02*
X166144360Y-63327085D01*
X166144360Y-63327085D02*
X166172932Y-63269942D01*
X166172932Y-63269942D02*
X166230075Y-63241371D01*
X166230075Y-63241371D02*
X166344360Y-63241371D01*
X166344360Y-63241371D02*
X166401503Y-63269942D01*
X166401503Y-63269942D02*
X166430075Y-63327085D01*
X166430075Y-63327085D02*
X166430075Y-63384228D01*
X166430075Y-63384228D02*
X166144360Y-63441371D01*
X166687218Y-63641371D02*
X166687218Y-63241371D01*
X166687218Y-63355657D02*
X166715789Y-63298514D01*
X166715789Y-63298514D02*
X166744361Y-63269942D01*
X166744361Y-63269942D02*
X166801503Y-63241371D01*
X166801503Y-63241371D02*
X166858646Y-63241371D01*
X167058647Y-63584228D02*
X167087218Y-63612800D01*
X167087218Y-63612800D02*
X167058647Y-63641371D01*
X167058647Y-63641371D02*
X167030075Y-63612800D01*
X167030075Y-63612800D02*
X167058647Y-63584228D01*
X167058647Y-63584228D02*
X167058647Y-63641371D01*
X167058647Y-63269942D02*
X167087218Y-63298514D01*
X167087218Y-63298514D02*
X167058647Y-63327085D01*
X167058647Y-63327085D02*
X167030075Y-63298514D01*
X167030075Y-63298514D02*
X167058647Y-63269942D01*
X167058647Y-63269942D02*
X167058647Y-63327085D01*
X168001504Y-63327085D02*
X168087218Y-63355657D01*
X168087218Y-63355657D02*
X168115789Y-63384228D01*
X168115789Y-63384228D02*
X168144361Y-63441371D01*
X168144361Y-63441371D02*
X168144361Y-63527085D01*
X168144361Y-63527085D02*
X168115789Y-63584228D01*
X168115789Y-63584228D02*
X168087218Y-63612800D01*
X168087218Y-63612800D02*
X168030075Y-63641371D01*
X168030075Y-63641371D02*
X167801504Y-63641371D01*
X167801504Y-63641371D02*
X167801504Y-63041371D01*
X167801504Y-63041371D02*
X168001504Y-63041371D01*
X168001504Y-63041371D02*
X168058647Y-63069942D01*
X168058647Y-63069942D02*
X168087218Y-63098514D01*
X168087218Y-63098514D02*
X168115789Y-63155657D01*
X168115789Y-63155657D02*
X168115789Y-63212800D01*
X168115789Y-63212800D02*
X168087218Y-63269942D01*
X168087218Y-63269942D02*
X168058647Y-63298514D01*
X168058647Y-63298514D02*
X168001504Y-63327085D01*
X168001504Y-63327085D02*
X167801504Y-63327085D01*
X168401504Y-63641371D02*
X168401504Y-63041371D01*
X168401504Y-63041371D02*
X168601504Y-63469942D01*
X168601504Y-63469942D02*
X168801504Y-63041371D01*
X168801504Y-63041371D02*
X168801504Y-63641371D01*
X169087218Y-63641371D02*
X169087218Y-63041371D01*
X169487217Y-63041371D02*
X169544360Y-63041371D01*
X169544360Y-63041371D02*
X169601503Y-63069942D01*
X169601503Y-63069942D02*
X169630075Y-63098514D01*
X169630075Y-63098514D02*
X169658646Y-63155657D01*
X169658646Y-63155657D02*
X169687217Y-63269942D01*
X169687217Y-63269942D02*
X169687217Y-63412800D01*
X169687217Y-63412800D02*
X169658646Y-63527085D01*
X169658646Y-63527085D02*
X169630075Y-63584228D01*
X169630075Y-63584228D02*
X169601503Y-63612800D01*
X169601503Y-63612800D02*
X169544360Y-63641371D01*
X169544360Y-63641371D02*
X169487217Y-63641371D01*
X169487217Y-63641371D02*
X169430075Y-63612800D01*
X169430075Y-63612800D02*
X169401503Y-63584228D01*
X169401503Y-63584228D02*
X169372932Y-63527085D01*
X169372932Y-63527085D02*
X169344360Y-63412800D01*
X169344360Y-63412800D02*
X169344360Y-63269942D01*
X169344360Y-63269942D02*
X169372932Y-63155657D01*
X169372932Y-63155657D02*
X169401503Y-63098514D01*
X169401503Y-63098514D02*
X169430075Y-63069942D01*
X169430075Y-63069942D02*
X169487217Y-63041371D01*
X170030075Y-63298514D02*
X169972932Y-63269942D01*
X169972932Y-63269942D02*
X169944361Y-63241371D01*
X169944361Y-63241371D02*
X169915789Y-63184228D01*
X169915789Y-63184228D02*
X169915789Y-63155657D01*
X169915789Y-63155657D02*
X169944361Y-63098514D01*
X169944361Y-63098514D02*
X169972932Y-63069942D01*
X169972932Y-63069942D02*
X170030075Y-63041371D01*
X170030075Y-63041371D02*
X170144361Y-63041371D01*
X170144361Y-63041371D02*
X170201504Y-63069942D01*
X170201504Y-63069942D02*
X170230075Y-63098514D01*
X170230075Y-63098514D02*
X170258646Y-63155657D01*
X170258646Y-63155657D02*
X170258646Y-63184228D01*
X170258646Y-63184228D02*
X170230075Y-63241371D01*
X170230075Y-63241371D02*
X170201504Y-63269942D01*
X170201504Y-63269942D02*
X170144361Y-63298514D01*
X170144361Y-63298514D02*
X170030075Y-63298514D01*
X170030075Y-63298514D02*
X169972932Y-63327085D01*
X169972932Y-63327085D02*
X169944361Y-63355657D01*
X169944361Y-63355657D02*
X169915789Y-63412800D01*
X169915789Y-63412800D02*
X169915789Y-63527085D01*
X169915789Y-63527085D02*
X169944361Y-63584228D01*
X169944361Y-63584228D02*
X169972932Y-63612800D01*
X169972932Y-63612800D02*
X170030075Y-63641371D01*
X170030075Y-63641371D02*
X170144361Y-63641371D01*
X170144361Y-63641371D02*
X170201504Y-63612800D01*
X170201504Y-63612800D02*
X170230075Y-63584228D01*
X170230075Y-63584228D02*
X170258646Y-63527085D01*
X170258646Y-63527085D02*
X170258646Y-63412800D01*
X170258646Y-63412800D02*
X170230075Y-63355657D01*
X170230075Y-63355657D02*
X170201504Y-63327085D01*
X170201504Y-63327085D02*
X170144361Y-63298514D01*
X170601504Y-63298514D02*
X170544361Y-63269942D01*
X170544361Y-63269942D02*
X170515790Y-63241371D01*
X170515790Y-63241371D02*
X170487218Y-63184228D01*
X170487218Y-63184228D02*
X170487218Y-63155657D01*
X170487218Y-63155657D02*
X170515790Y-63098514D01*
X170515790Y-63098514D02*
X170544361Y-63069942D01*
X170544361Y-63069942D02*
X170601504Y-63041371D01*
X170601504Y-63041371D02*
X170715790Y-63041371D01*
X170715790Y-63041371D02*
X170772933Y-63069942D01*
X170772933Y-63069942D02*
X170801504Y-63098514D01*
X170801504Y-63098514D02*
X170830075Y-63155657D01*
X170830075Y-63155657D02*
X170830075Y-63184228D01*
X170830075Y-63184228D02*
X170801504Y-63241371D01*
X170801504Y-63241371D02*
X170772933Y-63269942D01*
X170772933Y-63269942D02*
X170715790Y-63298514D01*
X170715790Y-63298514D02*
X170601504Y-63298514D01*
X170601504Y-63298514D02*
X170544361Y-63327085D01*
X170544361Y-63327085D02*
X170515790Y-63355657D01*
X170515790Y-63355657D02*
X170487218Y-63412800D01*
X170487218Y-63412800D02*
X170487218Y-63527085D01*
X170487218Y-63527085D02*
X170515790Y-63584228D01*
X170515790Y-63584228D02*
X170544361Y-63612800D01*
X170544361Y-63612800D02*
X170601504Y-63641371D01*
X170601504Y-63641371D02*
X170715790Y-63641371D01*
X170715790Y-63641371D02*
X170772933Y-63612800D01*
X170772933Y-63612800D02*
X170801504Y-63584228D01*
X170801504Y-63584228D02*
X170830075Y-63527085D01*
X170830075Y-63527085D02*
X170830075Y-63412800D01*
X170830075Y-63412800D02*
X170801504Y-63355657D01*
X170801504Y-63355657D02*
X170772933Y-63327085D01*
X170772933Y-63327085D02*
X170715790Y-63298514D01*
X162744360Y-64607371D02*
X162458646Y-64607371D01*
X162458646Y-64607371D02*
X162458646Y-64007371D01*
X163030074Y-64607371D02*
X162972931Y-64578800D01*
X162972931Y-64578800D02*
X162944360Y-64550228D01*
X162944360Y-64550228D02*
X162915788Y-64493085D01*
X162915788Y-64493085D02*
X162915788Y-64321657D01*
X162915788Y-64321657D02*
X162944360Y-64264514D01*
X162944360Y-64264514D02*
X162972931Y-64235942D01*
X162972931Y-64235942D02*
X163030074Y-64207371D01*
X163030074Y-64207371D02*
X163115788Y-64207371D01*
X163115788Y-64207371D02*
X163172931Y-64235942D01*
X163172931Y-64235942D02*
X163201503Y-64264514D01*
X163201503Y-64264514D02*
X163230074Y-64321657D01*
X163230074Y-64321657D02*
X163230074Y-64493085D01*
X163230074Y-64493085D02*
X163201503Y-64550228D01*
X163201503Y-64550228D02*
X163172931Y-64578800D01*
X163172931Y-64578800D02*
X163115788Y-64607371D01*
X163115788Y-64607371D02*
X163030074Y-64607371D01*
X163487217Y-64607371D02*
X163487217Y-64207371D01*
X163487217Y-64321657D02*
X163515788Y-64264514D01*
X163515788Y-64264514D02*
X163544360Y-64235942D01*
X163544360Y-64235942D02*
X163601502Y-64207371D01*
X163601502Y-64207371D02*
X163658645Y-64207371D01*
X164115789Y-64607371D02*
X164115789Y-64293085D01*
X164115789Y-64293085D02*
X164087217Y-64235942D01*
X164087217Y-64235942D02*
X164030074Y-64207371D01*
X164030074Y-64207371D02*
X163915789Y-64207371D01*
X163915789Y-64207371D02*
X163858646Y-64235942D01*
X164115789Y-64578800D02*
X164058646Y-64607371D01*
X164058646Y-64607371D02*
X163915789Y-64607371D01*
X163915789Y-64607371D02*
X163858646Y-64578800D01*
X163858646Y-64578800D02*
X163830074Y-64521657D01*
X163830074Y-64521657D02*
X163830074Y-64464514D01*
X163830074Y-64464514D02*
X163858646Y-64407371D01*
X163858646Y-64407371D02*
X163915789Y-64378800D01*
X163915789Y-64378800D02*
X164058646Y-64378800D01*
X164058646Y-64378800D02*
X164115789Y-64350228D01*
X166687218Y-64550228D02*
X166715789Y-64578800D01*
X166715789Y-64578800D02*
X166687218Y-64607371D01*
X166687218Y-64607371D02*
X166658646Y-64578800D01*
X166658646Y-64578800D02*
X166687218Y-64550228D01*
X166687218Y-64550228D02*
X166687218Y-64607371D01*
X166687218Y-64235942D02*
X166715789Y-64264514D01*
X166715789Y-64264514D02*
X166687218Y-64293085D01*
X166687218Y-64293085D02*
X166658646Y-64264514D01*
X166658646Y-64264514D02*
X166687218Y-64235942D01*
X166687218Y-64235942D02*
X166687218Y-64293085D01*
X167430075Y-64293085D02*
X167630075Y-64293085D01*
X167715789Y-64607371D02*
X167430075Y-64607371D01*
X167430075Y-64607371D02*
X167430075Y-64007371D01*
X167430075Y-64007371D02*
X167715789Y-64007371D01*
X167944360Y-64064514D02*
X167972932Y-64035942D01*
X167972932Y-64035942D02*
X168030075Y-64007371D01*
X168030075Y-64007371D02*
X168172932Y-64007371D01*
X168172932Y-64007371D02*
X168230075Y-64035942D01*
X168230075Y-64035942D02*
X168258646Y-64064514D01*
X168258646Y-64064514D02*
X168287217Y-64121657D01*
X168287217Y-64121657D02*
X168287217Y-64178800D01*
X168287217Y-64178800D02*
X168258646Y-64264514D01*
X168258646Y-64264514D02*
X167915789Y-64607371D01*
X167915789Y-64607371D02*
X168287217Y-64607371D01*
X168515789Y-64064514D02*
X168544361Y-64035942D01*
X168544361Y-64035942D02*
X168601504Y-64007371D01*
X168601504Y-64007371D02*
X168744361Y-64007371D01*
X168744361Y-64007371D02*
X168801504Y-64035942D01*
X168801504Y-64035942D02*
X168830075Y-64064514D01*
X168830075Y-64064514D02*
X168858646Y-64121657D01*
X168858646Y-64121657D02*
X168858646Y-64178800D01*
X168858646Y-64178800D02*
X168830075Y-64264514D01*
X168830075Y-64264514D02*
X168487218Y-64607371D01*
X168487218Y-64607371D02*
X168858646Y-64607371D01*
X169115790Y-64378800D02*
X169572933Y-64378800D01*
X169887218Y-64607371D02*
X170001504Y-64607371D01*
X170001504Y-64607371D02*
X170058647Y-64578800D01*
X170058647Y-64578800D02*
X170087218Y-64550228D01*
X170087218Y-64550228D02*
X170144361Y-64464514D01*
X170144361Y-64464514D02*
X170172932Y-64350228D01*
X170172932Y-64350228D02*
X170172932Y-64121657D01*
X170172932Y-64121657D02*
X170144361Y-64064514D01*
X170144361Y-64064514D02*
X170115790Y-64035942D01*
X170115790Y-64035942D02*
X170058647Y-64007371D01*
X170058647Y-64007371D02*
X169944361Y-64007371D01*
X169944361Y-64007371D02*
X169887218Y-64035942D01*
X169887218Y-64035942D02*
X169858647Y-64064514D01*
X169858647Y-64064514D02*
X169830075Y-64121657D01*
X169830075Y-64121657D02*
X169830075Y-64264514D01*
X169830075Y-64264514D02*
X169858647Y-64321657D01*
X169858647Y-64321657D02*
X169887218Y-64350228D01*
X169887218Y-64350228D02*
X169944361Y-64378800D01*
X169944361Y-64378800D02*
X170058647Y-64378800D01*
X170058647Y-64378800D02*
X170115790Y-64350228D01*
X170115790Y-64350228D02*
X170144361Y-64321657D01*
X170144361Y-64321657D02*
X170172932Y-64264514D01*
X170544361Y-64007371D02*
X170601504Y-64007371D01*
X170601504Y-64007371D02*
X170658647Y-64035942D01*
X170658647Y-64035942D02*
X170687219Y-64064514D01*
X170687219Y-64064514D02*
X170715790Y-64121657D01*
X170715790Y-64121657D02*
X170744361Y-64235942D01*
X170744361Y-64235942D02*
X170744361Y-64378800D01*
X170744361Y-64378800D02*
X170715790Y-64493085D01*
X170715790Y-64493085D02*
X170687219Y-64550228D01*
X170687219Y-64550228D02*
X170658647Y-64578800D01*
X170658647Y-64578800D02*
X170601504Y-64607371D01*
X170601504Y-64607371D02*
X170544361Y-64607371D01*
X170544361Y-64607371D02*
X170487219Y-64578800D01*
X170487219Y-64578800D02*
X170458647Y-64550228D01*
X170458647Y-64550228D02*
X170430076Y-64493085D01*
X170430076Y-64493085D02*
X170401504Y-64378800D01*
X170401504Y-64378800D02*
X170401504Y-64235942D01*
X170401504Y-64235942D02*
X170430076Y-64121657D01*
X170430076Y-64121657D02*
X170458647Y-64064514D01*
X170458647Y-64064514D02*
X170487219Y-64035942D01*
X170487219Y-64035942D02*
X170544361Y-64007371D01*
X171115790Y-64007371D02*
X171172933Y-64007371D01*
X171172933Y-64007371D02*
X171230076Y-64035942D01*
X171230076Y-64035942D02*
X171258648Y-64064514D01*
X171258648Y-64064514D02*
X171287219Y-64121657D01*
X171287219Y-64121657D02*
X171315790Y-64235942D01*
X171315790Y-64235942D02*
X171315790Y-64378800D01*
X171315790Y-64378800D02*
X171287219Y-64493085D01*
X171287219Y-64493085D02*
X171258648Y-64550228D01*
X171258648Y-64550228D02*
X171230076Y-64578800D01*
X171230076Y-64578800D02*
X171172933Y-64607371D01*
X171172933Y-64607371D02*
X171115790Y-64607371D01*
X171115790Y-64607371D02*
X171058648Y-64578800D01*
X171058648Y-64578800D02*
X171030076Y-64550228D01*
X171030076Y-64550228D02*
X171001505Y-64493085D01*
X171001505Y-64493085D02*
X170972933Y-64378800D01*
X170972933Y-64378800D02*
X170972933Y-64235942D01*
X170972933Y-64235942D02*
X171001505Y-64121657D01*
X171001505Y-64121657D02*
X171030076Y-64064514D01*
X171030076Y-64064514D02*
X171058648Y-64035942D01*
X171058648Y-64035942D02*
X171115790Y-64007371D01*
X171572934Y-64607371D02*
X171572934Y-64007371D01*
X171572934Y-64007371D02*
X171772934Y-64435942D01*
X171772934Y-64435942D02*
X171972934Y-64007371D01*
X171972934Y-64007371D02*
X171972934Y-64607371D01*
X172230076Y-64064514D02*
X172258648Y-64035942D01*
X172258648Y-64035942D02*
X172315791Y-64007371D01*
X172315791Y-64007371D02*
X172458648Y-64007371D01*
X172458648Y-64007371D02*
X172515791Y-64035942D01*
X172515791Y-64035942D02*
X172544362Y-64064514D01*
X172544362Y-64064514D02*
X172572933Y-64121657D01*
X172572933Y-64121657D02*
X172572933Y-64178800D01*
X172572933Y-64178800D02*
X172544362Y-64264514D01*
X172544362Y-64264514D02*
X172201505Y-64607371D01*
X172201505Y-64607371D02*
X172572933Y-64607371D01*
X172801505Y-64064514D02*
X172830077Y-64035942D01*
X172830077Y-64035942D02*
X172887220Y-64007371D01*
X172887220Y-64007371D02*
X173030077Y-64007371D01*
X173030077Y-64007371D02*
X173087220Y-64035942D01*
X173087220Y-64035942D02*
X173115791Y-64064514D01*
X173115791Y-64064514D02*
X173144362Y-64121657D01*
X173144362Y-64121657D02*
X173144362Y-64178800D01*
X173144362Y-64178800D02*
X173115791Y-64264514D01*
X173115791Y-64264514D02*
X172772934Y-64607371D01*
X172772934Y-64607371D02*
X173144362Y-64607371D01*
X173372934Y-64578800D02*
X173458649Y-64607371D01*
X173458649Y-64607371D02*
X173601506Y-64607371D01*
X173601506Y-64607371D02*
X173658649Y-64578800D01*
X173658649Y-64578800D02*
X173687220Y-64550228D01*
X173687220Y-64550228D02*
X173715791Y-64493085D01*
X173715791Y-64493085D02*
X173715791Y-64435942D01*
X173715791Y-64435942D02*
X173687220Y-64378800D01*
X173687220Y-64378800D02*
X173658649Y-64350228D01*
X173658649Y-64350228D02*
X173601506Y-64321657D01*
X173601506Y-64321657D02*
X173487220Y-64293085D01*
X173487220Y-64293085D02*
X173430077Y-64264514D01*
X173430077Y-64264514D02*
X173401506Y-64235942D01*
X173401506Y-64235942D02*
X173372934Y-64178800D01*
X173372934Y-64178800D02*
X173372934Y-64121657D01*
X173372934Y-64121657D02*
X173401506Y-64064514D01*
X173401506Y-64064514D02*
X173430077Y-64035942D01*
X173430077Y-64035942D02*
X173487220Y-64007371D01*
X173487220Y-64007371D02*
X173630077Y-64007371D01*
X173630077Y-64007371D02*
X173715791Y-64035942D01*
X162458646Y-65573371D02*
X162458646Y-64973371D01*
X162458646Y-64973371D02*
X162658646Y-65401942D01*
X162658646Y-65401942D02*
X162858646Y-64973371D01*
X162858646Y-64973371D02*
X162858646Y-65573371D01*
X163401503Y-65573371D02*
X163401503Y-65259085D01*
X163401503Y-65259085D02*
X163372931Y-65201942D01*
X163372931Y-65201942D02*
X163315788Y-65173371D01*
X163315788Y-65173371D02*
X163201503Y-65173371D01*
X163201503Y-65173371D02*
X163144360Y-65201942D01*
X163401503Y-65544800D02*
X163344360Y-65573371D01*
X163344360Y-65573371D02*
X163201503Y-65573371D01*
X163201503Y-65573371D02*
X163144360Y-65544800D01*
X163144360Y-65544800D02*
X163115788Y-65487657D01*
X163115788Y-65487657D02*
X163115788Y-65430514D01*
X163115788Y-65430514D02*
X163144360Y-65373371D01*
X163144360Y-65373371D02*
X163201503Y-65344800D01*
X163201503Y-65344800D02*
X163344360Y-65344800D01*
X163344360Y-65344800D02*
X163401503Y-65316228D01*
X163944360Y-65173371D02*
X163944360Y-65659085D01*
X163944360Y-65659085D02*
X163915788Y-65716228D01*
X163915788Y-65716228D02*
X163887217Y-65744800D01*
X163887217Y-65744800D02*
X163830074Y-65773371D01*
X163830074Y-65773371D02*
X163744360Y-65773371D01*
X163744360Y-65773371D02*
X163687217Y-65744800D01*
X163944360Y-65544800D02*
X163887217Y-65573371D01*
X163887217Y-65573371D02*
X163772931Y-65573371D01*
X163772931Y-65573371D02*
X163715788Y-65544800D01*
X163715788Y-65544800D02*
X163687217Y-65516228D01*
X163687217Y-65516228D02*
X163658645Y-65459085D01*
X163658645Y-65459085D02*
X163658645Y-65287657D01*
X163658645Y-65287657D02*
X163687217Y-65230514D01*
X163687217Y-65230514D02*
X163715788Y-65201942D01*
X163715788Y-65201942D02*
X163772931Y-65173371D01*
X163772931Y-65173371D02*
X163887217Y-65173371D01*
X163887217Y-65173371D02*
X163944360Y-65201942D01*
X164230074Y-65173371D02*
X164230074Y-65573371D01*
X164230074Y-65230514D02*
X164258645Y-65201942D01*
X164258645Y-65201942D02*
X164315788Y-65173371D01*
X164315788Y-65173371D02*
X164401502Y-65173371D01*
X164401502Y-65173371D02*
X164458645Y-65201942D01*
X164458645Y-65201942D02*
X164487217Y-65259085D01*
X164487217Y-65259085D02*
X164487217Y-65573371D01*
X165001502Y-65544800D02*
X164944359Y-65573371D01*
X164944359Y-65573371D02*
X164830074Y-65573371D01*
X164830074Y-65573371D02*
X164772931Y-65544800D01*
X164772931Y-65544800D02*
X164744359Y-65487657D01*
X164744359Y-65487657D02*
X164744359Y-65259085D01*
X164744359Y-65259085D02*
X164772931Y-65201942D01*
X164772931Y-65201942D02*
X164830074Y-65173371D01*
X164830074Y-65173371D02*
X164944359Y-65173371D01*
X164944359Y-65173371D02*
X165001502Y-65201942D01*
X165001502Y-65201942D02*
X165030074Y-65259085D01*
X165030074Y-65259085D02*
X165030074Y-65316228D01*
X165030074Y-65316228D02*
X164744359Y-65373371D01*
X165201502Y-65173371D02*
X165430074Y-65173371D01*
X165287217Y-64973371D02*
X165287217Y-65487657D01*
X165287217Y-65487657D02*
X165315788Y-65544800D01*
X165315788Y-65544800D02*
X165372931Y-65573371D01*
X165372931Y-65573371D02*
X165430074Y-65573371D01*
X165630074Y-65516228D02*
X165658645Y-65544800D01*
X165658645Y-65544800D02*
X165630074Y-65573371D01*
X165630074Y-65573371D02*
X165601502Y-65544800D01*
X165601502Y-65544800D02*
X165630074Y-65516228D01*
X165630074Y-65516228D02*
X165630074Y-65573371D01*
X166830074Y-65516228D02*
X166858645Y-65544800D01*
X166858645Y-65544800D02*
X166830074Y-65573371D01*
X166830074Y-65573371D02*
X166801502Y-65544800D01*
X166801502Y-65544800D02*
X166830074Y-65516228D01*
X166830074Y-65516228D02*
X166830074Y-65573371D01*
X166830074Y-65201942D02*
X166858645Y-65230514D01*
X166858645Y-65230514D02*
X166830074Y-65259085D01*
X166830074Y-65259085D02*
X166801502Y-65230514D01*
X166801502Y-65230514D02*
X166830074Y-65201942D01*
X166830074Y-65201942D02*
X166830074Y-65259085D01*
X167772931Y-65259085D02*
X167858645Y-65287657D01*
X167858645Y-65287657D02*
X167887216Y-65316228D01*
X167887216Y-65316228D02*
X167915788Y-65373371D01*
X167915788Y-65373371D02*
X167915788Y-65459085D01*
X167915788Y-65459085D02*
X167887216Y-65516228D01*
X167887216Y-65516228D02*
X167858645Y-65544800D01*
X167858645Y-65544800D02*
X167801502Y-65573371D01*
X167801502Y-65573371D02*
X167572931Y-65573371D01*
X167572931Y-65573371D02*
X167572931Y-64973371D01*
X167572931Y-64973371D02*
X167772931Y-64973371D01*
X167772931Y-64973371D02*
X167830074Y-65001942D01*
X167830074Y-65001942D02*
X167858645Y-65030514D01*
X167858645Y-65030514D02*
X167887216Y-65087657D01*
X167887216Y-65087657D02*
X167887216Y-65144800D01*
X167887216Y-65144800D02*
X167858645Y-65201942D01*
X167858645Y-65201942D02*
X167830074Y-65230514D01*
X167830074Y-65230514D02*
X167772931Y-65259085D01*
X167772931Y-65259085D02*
X167572931Y-65259085D01*
X168172931Y-65573371D02*
X168172931Y-64973371D01*
X168172931Y-64973371D02*
X168372931Y-65401942D01*
X168372931Y-65401942D02*
X168572931Y-64973371D01*
X168572931Y-64973371D02*
X168572931Y-65573371D01*
X168858645Y-65573371D02*
X168858645Y-64973371D01*
X168858645Y-64973371D02*
X169058645Y-65401942D01*
X169058645Y-65401942D02*
X169258645Y-64973371D01*
X169258645Y-64973371D02*
X169258645Y-65573371D01*
X169487216Y-64973371D02*
X169858644Y-64973371D01*
X169858644Y-64973371D02*
X169658644Y-65201942D01*
X169658644Y-65201942D02*
X169744359Y-65201942D01*
X169744359Y-65201942D02*
X169801502Y-65230514D01*
X169801502Y-65230514D02*
X169830073Y-65259085D01*
X169830073Y-65259085D02*
X169858644Y-65316228D01*
X169858644Y-65316228D02*
X169858644Y-65459085D01*
X169858644Y-65459085D02*
X169830073Y-65516228D01*
X169830073Y-65516228D02*
X169801502Y-65544800D01*
X169801502Y-65544800D02*
X169744359Y-65573371D01*
X169744359Y-65573371D02*
X169572930Y-65573371D01*
X169572930Y-65573371D02*
X169515787Y-65544800D01*
X169515787Y-65544800D02*
X169487216Y-65516228D01*
X170401502Y-64973371D02*
X170115788Y-64973371D01*
X170115788Y-64973371D02*
X170087216Y-65259085D01*
X170087216Y-65259085D02*
X170115788Y-65230514D01*
X170115788Y-65230514D02*
X170172931Y-65201942D01*
X170172931Y-65201942D02*
X170315788Y-65201942D01*
X170315788Y-65201942D02*
X170372931Y-65230514D01*
X170372931Y-65230514D02*
X170401502Y-65259085D01*
X170401502Y-65259085D02*
X170430073Y-65316228D01*
X170430073Y-65316228D02*
X170430073Y-65459085D01*
X170430073Y-65459085D02*
X170401502Y-65516228D01*
X170401502Y-65516228D02*
X170372931Y-65544800D01*
X170372931Y-65544800D02*
X170315788Y-65573371D01*
X170315788Y-65573371D02*
X170172931Y-65573371D01*
X170172931Y-65573371D02*
X170115788Y-65544800D01*
X170115788Y-65544800D02*
X170087216Y-65516228D01*
X170801502Y-64973371D02*
X170858645Y-64973371D01*
X170858645Y-64973371D02*
X170915788Y-65001942D01*
X170915788Y-65001942D02*
X170944360Y-65030514D01*
X170944360Y-65030514D02*
X170972931Y-65087657D01*
X170972931Y-65087657D02*
X171001502Y-65201942D01*
X171001502Y-65201942D02*
X171001502Y-65344800D01*
X171001502Y-65344800D02*
X170972931Y-65459085D01*
X170972931Y-65459085D02*
X170944360Y-65516228D01*
X170944360Y-65516228D02*
X170915788Y-65544800D01*
X170915788Y-65544800D02*
X170858645Y-65573371D01*
X170858645Y-65573371D02*
X170801502Y-65573371D01*
X170801502Y-65573371D02*
X170744360Y-65544800D01*
X170744360Y-65544800D02*
X170715788Y-65516228D01*
X170715788Y-65516228D02*
X170687217Y-65459085D01*
X170687217Y-65459085D02*
X170658645Y-65344800D01*
X170658645Y-65344800D02*
X170658645Y-65201942D01*
X170658645Y-65201942D02*
X170687217Y-65087657D01*
X170687217Y-65087657D02*
X170715788Y-65030514D01*
X170715788Y-65030514D02*
X170744360Y-65001942D01*
X170744360Y-65001942D02*
X170801502Y-64973371D01*
X162772931Y-65967942D02*
X162715789Y-65939371D01*
X162715789Y-65939371D02*
X162630074Y-65939371D01*
X162630074Y-65939371D02*
X162544360Y-65967942D01*
X162544360Y-65967942D02*
X162487217Y-66025085D01*
X162487217Y-66025085D02*
X162458646Y-66082228D01*
X162458646Y-66082228D02*
X162430074Y-66196514D01*
X162430074Y-66196514D02*
X162430074Y-66282228D01*
X162430074Y-66282228D02*
X162458646Y-66396514D01*
X162458646Y-66396514D02*
X162487217Y-66453657D01*
X162487217Y-66453657D02*
X162544360Y-66510800D01*
X162544360Y-66510800D02*
X162630074Y-66539371D01*
X162630074Y-66539371D02*
X162687217Y-66539371D01*
X162687217Y-66539371D02*
X162772931Y-66510800D01*
X162772931Y-66510800D02*
X162801503Y-66482228D01*
X162801503Y-66482228D02*
X162801503Y-66282228D01*
X162801503Y-66282228D02*
X162687217Y-66282228D01*
X163058646Y-66539371D02*
X163058646Y-65939371D01*
X163058646Y-65939371D02*
X163287217Y-65939371D01*
X163287217Y-65939371D02*
X163344360Y-65967942D01*
X163344360Y-65967942D02*
X163372931Y-65996514D01*
X163372931Y-65996514D02*
X163401503Y-66053657D01*
X163401503Y-66053657D02*
X163401503Y-66139371D01*
X163401503Y-66139371D02*
X163372931Y-66196514D01*
X163372931Y-66196514D02*
X163344360Y-66225085D01*
X163344360Y-66225085D02*
X163287217Y-66253657D01*
X163287217Y-66253657D02*
X163058646Y-66253657D01*
X163630074Y-66510800D02*
X163715789Y-66539371D01*
X163715789Y-66539371D02*
X163858646Y-66539371D01*
X163858646Y-66539371D02*
X163915789Y-66510800D01*
X163915789Y-66510800D02*
X163944360Y-66482228D01*
X163944360Y-66482228D02*
X163972931Y-66425085D01*
X163972931Y-66425085D02*
X163972931Y-66367942D01*
X163972931Y-66367942D02*
X163944360Y-66310800D01*
X163944360Y-66310800D02*
X163915789Y-66282228D01*
X163915789Y-66282228D02*
X163858646Y-66253657D01*
X163858646Y-66253657D02*
X163744360Y-66225085D01*
X163744360Y-66225085D02*
X163687217Y-66196514D01*
X163687217Y-66196514D02*
X163658646Y-66167942D01*
X163658646Y-66167942D02*
X163630074Y-66110800D01*
X163630074Y-66110800D02*
X163630074Y-66053657D01*
X163630074Y-66053657D02*
X163658646Y-65996514D01*
X163658646Y-65996514D02*
X163687217Y-65967942D01*
X163687217Y-65967942D02*
X163744360Y-65939371D01*
X163744360Y-65939371D02*
X163887217Y-65939371D01*
X163887217Y-65939371D02*
X163972931Y-65967942D01*
X166972933Y-66482228D02*
X167001504Y-66510800D01*
X167001504Y-66510800D02*
X166972933Y-66539371D01*
X166972933Y-66539371D02*
X166944361Y-66510800D01*
X166944361Y-66510800D02*
X166972933Y-66482228D01*
X166972933Y-66482228D02*
X166972933Y-66539371D01*
X166972933Y-66167942D02*
X167001504Y-66196514D01*
X167001504Y-66196514D02*
X166972933Y-66225085D01*
X166972933Y-66225085D02*
X166944361Y-66196514D01*
X166944361Y-66196514D02*
X166972933Y-66167942D01*
X166972933Y-66167942D02*
X166972933Y-66225085D01*
X168058647Y-66482228D02*
X168030075Y-66510800D01*
X168030075Y-66510800D02*
X167944361Y-66539371D01*
X167944361Y-66539371D02*
X167887218Y-66539371D01*
X167887218Y-66539371D02*
X167801504Y-66510800D01*
X167801504Y-66510800D02*
X167744361Y-66453657D01*
X167744361Y-66453657D02*
X167715790Y-66396514D01*
X167715790Y-66396514D02*
X167687218Y-66282228D01*
X167687218Y-66282228D02*
X167687218Y-66196514D01*
X167687218Y-66196514D02*
X167715790Y-66082228D01*
X167715790Y-66082228D02*
X167744361Y-66025085D01*
X167744361Y-66025085D02*
X167801504Y-65967942D01*
X167801504Y-65967942D02*
X167887218Y-65939371D01*
X167887218Y-65939371D02*
X167944361Y-65939371D01*
X167944361Y-65939371D02*
X168030075Y-65967942D01*
X168030075Y-65967942D02*
X168058647Y-65996514D01*
X168287218Y-66367942D02*
X168572933Y-66367942D01*
X168230075Y-66539371D02*
X168430075Y-65939371D01*
X168430075Y-65939371D02*
X168630075Y-66539371D01*
X168830076Y-66539371D02*
X168830076Y-65939371D01*
X168830076Y-65939371D02*
X169030076Y-66367942D01*
X169030076Y-66367942D02*
X169230076Y-65939371D01*
X169230076Y-65939371D02*
X169230076Y-66539371D01*
X169515790Y-66310800D02*
X169972933Y-66310800D01*
X170258647Y-66539371D02*
X170258647Y-65939371D01*
X170258647Y-65939371D02*
X170458647Y-66367942D01*
X170458647Y-66367942D02*
X170658647Y-65939371D01*
X170658647Y-65939371D02*
X170658647Y-66539371D01*
X171030075Y-66196514D02*
X170972932Y-66167942D01*
X170972932Y-66167942D02*
X170944361Y-66139371D01*
X170944361Y-66139371D02*
X170915789Y-66082228D01*
X170915789Y-66082228D02*
X170915789Y-66053657D01*
X170915789Y-66053657D02*
X170944361Y-65996514D01*
X170944361Y-65996514D02*
X170972932Y-65967942D01*
X170972932Y-65967942D02*
X171030075Y-65939371D01*
X171030075Y-65939371D02*
X171144361Y-65939371D01*
X171144361Y-65939371D02*
X171201504Y-65967942D01*
X171201504Y-65967942D02*
X171230075Y-65996514D01*
X171230075Y-65996514D02*
X171258646Y-66053657D01*
X171258646Y-66053657D02*
X171258646Y-66082228D01*
X171258646Y-66082228D02*
X171230075Y-66139371D01*
X171230075Y-66139371D02*
X171201504Y-66167942D01*
X171201504Y-66167942D02*
X171144361Y-66196514D01*
X171144361Y-66196514D02*
X171030075Y-66196514D01*
X171030075Y-66196514D02*
X170972932Y-66225085D01*
X170972932Y-66225085D02*
X170944361Y-66253657D01*
X170944361Y-66253657D02*
X170915789Y-66310800D01*
X170915789Y-66310800D02*
X170915789Y-66425085D01*
X170915789Y-66425085D02*
X170944361Y-66482228D01*
X170944361Y-66482228D02*
X170972932Y-66510800D01*
X170972932Y-66510800D02*
X171030075Y-66539371D01*
X171030075Y-66539371D02*
X171144361Y-66539371D01*
X171144361Y-66539371D02*
X171201504Y-66510800D01*
X171201504Y-66510800D02*
X171230075Y-66482228D01*
X171230075Y-66482228D02*
X171258646Y-66425085D01*
X171258646Y-66425085D02*
X171258646Y-66310800D01*
X171258646Y-66310800D02*
X171230075Y-66253657D01*
X171230075Y-66253657D02*
X171201504Y-66225085D01*
X171201504Y-66225085D02*
X171144361Y-66196514D01*
X171858647Y-66482228D02*
X171830075Y-66510800D01*
X171830075Y-66510800D02*
X171744361Y-66539371D01*
X171744361Y-66539371D02*
X171687218Y-66539371D01*
X171687218Y-66539371D02*
X171601504Y-66510800D01*
X171601504Y-66510800D02*
X171544361Y-66453657D01*
X171544361Y-66453657D02*
X171515790Y-66396514D01*
X171515790Y-66396514D02*
X171487218Y-66282228D01*
X171487218Y-66282228D02*
X171487218Y-66196514D01*
X171487218Y-66196514D02*
X171515790Y-66082228D01*
X171515790Y-66082228D02*
X171544361Y-66025085D01*
X171544361Y-66025085D02*
X171601504Y-65967942D01*
X171601504Y-65967942D02*
X171687218Y-65939371D01*
X171687218Y-65939371D02*
X171744361Y-65939371D01*
X171744361Y-65939371D02*
X171830075Y-65967942D01*
X171830075Y-65967942D02*
X171858647Y-65996514D01*
X172115790Y-66310800D02*
X172572933Y-66310800D01*
X172972932Y-65939371D02*
X173030075Y-65939371D01*
X173030075Y-65939371D02*
X173087218Y-65967942D01*
X173087218Y-65967942D02*
X173115790Y-65996514D01*
X173115790Y-65996514D02*
X173144361Y-66053657D01*
X173144361Y-66053657D02*
X173172932Y-66167942D01*
X173172932Y-66167942D02*
X173172932Y-66310800D01*
X173172932Y-66310800D02*
X173144361Y-66425085D01*
X173144361Y-66425085D02*
X173115790Y-66482228D01*
X173115790Y-66482228D02*
X173087218Y-66510800D01*
X173087218Y-66510800D02*
X173030075Y-66539371D01*
X173030075Y-66539371D02*
X172972932Y-66539371D01*
X172972932Y-66539371D02*
X172915790Y-66510800D01*
X172915790Y-66510800D02*
X172887218Y-66482228D01*
X172887218Y-66482228D02*
X172858647Y-66425085D01*
X172858647Y-66425085D02*
X172830075Y-66310800D01*
X172830075Y-66310800D02*
X172830075Y-66167942D01*
X172830075Y-66167942D02*
X172858647Y-66053657D01*
X172858647Y-66053657D02*
X172887218Y-65996514D01*
X172887218Y-65996514D02*
X172915790Y-65967942D01*
X172915790Y-65967942D02*
X172972932Y-65939371D01*
X162458646Y-67505371D02*
X162458646Y-66905371D01*
X162744360Y-67505371D02*
X162744360Y-66905371D01*
X162744360Y-66905371D02*
X162944360Y-67333942D01*
X162944360Y-67333942D02*
X163144360Y-66905371D01*
X163144360Y-66905371D02*
X163144360Y-67505371D01*
X163430074Y-66905371D02*
X163430074Y-67391085D01*
X163430074Y-67391085D02*
X163458645Y-67448228D01*
X163458645Y-67448228D02*
X163487217Y-67476800D01*
X163487217Y-67476800D02*
X163544359Y-67505371D01*
X163544359Y-67505371D02*
X163658645Y-67505371D01*
X163658645Y-67505371D02*
X163715788Y-67476800D01*
X163715788Y-67476800D02*
X163744359Y-67448228D01*
X163744359Y-67448228D02*
X163772931Y-67391085D01*
X163772931Y-67391085D02*
X163772931Y-66905371D01*
X166801503Y-67448228D02*
X166830074Y-67476800D01*
X166830074Y-67476800D02*
X166801503Y-67505371D01*
X166801503Y-67505371D02*
X166772931Y-67476800D01*
X166772931Y-67476800D02*
X166801503Y-67448228D01*
X166801503Y-67448228D02*
X166801503Y-67505371D01*
X166801503Y-67133942D02*
X166830074Y-67162514D01*
X166830074Y-67162514D02*
X166801503Y-67191085D01*
X166801503Y-67191085D02*
X166772931Y-67162514D01*
X166772931Y-67162514D02*
X166801503Y-67133942D01*
X166801503Y-67133942D02*
X166801503Y-67191085D01*
X167744360Y-67191085D02*
X167830074Y-67219657D01*
X167830074Y-67219657D02*
X167858645Y-67248228D01*
X167858645Y-67248228D02*
X167887217Y-67305371D01*
X167887217Y-67305371D02*
X167887217Y-67391085D01*
X167887217Y-67391085D02*
X167858645Y-67448228D01*
X167858645Y-67448228D02*
X167830074Y-67476800D01*
X167830074Y-67476800D02*
X167772931Y-67505371D01*
X167772931Y-67505371D02*
X167544360Y-67505371D01*
X167544360Y-67505371D02*
X167544360Y-66905371D01*
X167544360Y-66905371D02*
X167744360Y-66905371D01*
X167744360Y-66905371D02*
X167801503Y-66933942D01*
X167801503Y-66933942D02*
X167830074Y-66962514D01*
X167830074Y-66962514D02*
X167858645Y-67019657D01*
X167858645Y-67019657D02*
X167858645Y-67076800D01*
X167858645Y-67076800D02*
X167830074Y-67133942D01*
X167830074Y-67133942D02*
X167801503Y-67162514D01*
X167801503Y-67162514D02*
X167744360Y-67191085D01*
X167744360Y-67191085D02*
X167544360Y-67191085D01*
X168144360Y-67505371D02*
X168144360Y-66905371D01*
X168144360Y-66905371D02*
X168344360Y-67333942D01*
X168344360Y-67333942D02*
X168544360Y-66905371D01*
X168544360Y-66905371D02*
X168544360Y-67505371D01*
X168830074Y-67505371D02*
X168830074Y-66905371D01*
X169230073Y-66905371D02*
X169287216Y-66905371D01*
X169287216Y-66905371D02*
X169344359Y-66933942D01*
X169344359Y-66933942D02*
X169372931Y-66962514D01*
X169372931Y-66962514D02*
X169401502Y-67019657D01*
X169401502Y-67019657D02*
X169430073Y-67133942D01*
X169430073Y-67133942D02*
X169430073Y-67276800D01*
X169430073Y-67276800D02*
X169401502Y-67391085D01*
X169401502Y-67391085D02*
X169372931Y-67448228D01*
X169372931Y-67448228D02*
X169344359Y-67476800D01*
X169344359Y-67476800D02*
X169287216Y-67505371D01*
X169287216Y-67505371D02*
X169230073Y-67505371D01*
X169230073Y-67505371D02*
X169172931Y-67476800D01*
X169172931Y-67476800D02*
X169144359Y-67448228D01*
X169144359Y-67448228D02*
X169115788Y-67391085D01*
X169115788Y-67391085D02*
X169087216Y-67276800D01*
X169087216Y-67276800D02*
X169087216Y-67133942D01*
X169087216Y-67133942D02*
X169115788Y-67019657D01*
X169115788Y-67019657D02*
X169144359Y-66962514D01*
X169144359Y-66962514D02*
X169172931Y-66933942D01*
X169172931Y-66933942D02*
X169230073Y-66905371D01*
X169772931Y-67162514D02*
X169715788Y-67133942D01*
X169715788Y-67133942D02*
X169687217Y-67105371D01*
X169687217Y-67105371D02*
X169658645Y-67048228D01*
X169658645Y-67048228D02*
X169658645Y-67019657D01*
X169658645Y-67019657D02*
X169687217Y-66962514D01*
X169687217Y-66962514D02*
X169715788Y-66933942D01*
X169715788Y-66933942D02*
X169772931Y-66905371D01*
X169772931Y-66905371D02*
X169887217Y-66905371D01*
X169887217Y-66905371D02*
X169944360Y-66933942D01*
X169944360Y-66933942D02*
X169972931Y-66962514D01*
X169972931Y-66962514D02*
X170001502Y-67019657D01*
X170001502Y-67019657D02*
X170001502Y-67048228D01*
X170001502Y-67048228D02*
X169972931Y-67105371D01*
X169972931Y-67105371D02*
X169944360Y-67133942D01*
X169944360Y-67133942D02*
X169887217Y-67162514D01*
X169887217Y-67162514D02*
X169772931Y-67162514D01*
X169772931Y-67162514D02*
X169715788Y-67191085D01*
X169715788Y-67191085D02*
X169687217Y-67219657D01*
X169687217Y-67219657D02*
X169658645Y-67276800D01*
X169658645Y-67276800D02*
X169658645Y-67391085D01*
X169658645Y-67391085D02*
X169687217Y-67448228D01*
X169687217Y-67448228D02*
X169715788Y-67476800D01*
X169715788Y-67476800D02*
X169772931Y-67505371D01*
X169772931Y-67505371D02*
X169887217Y-67505371D01*
X169887217Y-67505371D02*
X169944360Y-67476800D01*
X169944360Y-67476800D02*
X169972931Y-67448228D01*
X169972931Y-67448228D02*
X170001502Y-67391085D01*
X170001502Y-67391085D02*
X170001502Y-67276800D01*
X170001502Y-67276800D02*
X169972931Y-67219657D01*
X169972931Y-67219657D02*
X169944360Y-67191085D01*
X169944360Y-67191085D02*
X169887217Y-67162514D01*
X170344360Y-67162514D02*
X170287217Y-67133942D01*
X170287217Y-67133942D02*
X170258646Y-67105371D01*
X170258646Y-67105371D02*
X170230074Y-67048228D01*
X170230074Y-67048228D02*
X170230074Y-67019657D01*
X170230074Y-67019657D02*
X170258646Y-66962514D01*
X170258646Y-66962514D02*
X170287217Y-66933942D01*
X170287217Y-66933942D02*
X170344360Y-66905371D01*
X170344360Y-66905371D02*
X170458646Y-66905371D01*
X170458646Y-66905371D02*
X170515789Y-66933942D01*
X170515789Y-66933942D02*
X170544360Y-66962514D01*
X170544360Y-66962514D02*
X170572931Y-67019657D01*
X170572931Y-67019657D02*
X170572931Y-67048228D01*
X170572931Y-67048228D02*
X170544360Y-67105371D01*
X170544360Y-67105371D02*
X170515789Y-67133942D01*
X170515789Y-67133942D02*
X170458646Y-67162514D01*
X170458646Y-67162514D02*
X170344360Y-67162514D01*
X170344360Y-67162514D02*
X170287217Y-67191085D01*
X170287217Y-67191085D02*
X170258646Y-67219657D01*
X170258646Y-67219657D02*
X170230074Y-67276800D01*
X170230074Y-67276800D02*
X170230074Y-67391085D01*
X170230074Y-67391085D02*
X170258646Y-67448228D01*
X170258646Y-67448228D02*
X170287217Y-67476800D01*
X170287217Y-67476800D02*
X170344360Y-67505371D01*
X170344360Y-67505371D02*
X170458646Y-67505371D01*
X170458646Y-67505371D02*
X170515789Y-67476800D01*
X170515789Y-67476800D02*
X170544360Y-67448228D01*
X170544360Y-67448228D02*
X170572931Y-67391085D01*
X170572931Y-67391085D02*
X170572931Y-67276800D01*
X170572931Y-67276800D02*
X170544360Y-67219657D01*
X170544360Y-67219657D02*
X170515789Y-67191085D01*
X170515789Y-67191085D02*
X170458646Y-67162514D01*
X162458646Y-68471371D02*
X162458646Y-67871371D01*
X162458646Y-67871371D02*
X162658646Y-68299942D01*
X162658646Y-68299942D02*
X162858646Y-67871371D01*
X162858646Y-67871371D02*
X162858646Y-68471371D01*
X163487217Y-68414228D02*
X163458645Y-68442800D01*
X163458645Y-68442800D02*
X163372931Y-68471371D01*
X163372931Y-68471371D02*
X163315788Y-68471371D01*
X163315788Y-68471371D02*
X163230074Y-68442800D01*
X163230074Y-68442800D02*
X163172931Y-68385657D01*
X163172931Y-68385657D02*
X163144360Y-68328514D01*
X163144360Y-68328514D02*
X163115788Y-68214228D01*
X163115788Y-68214228D02*
X163115788Y-68128514D01*
X163115788Y-68128514D02*
X163144360Y-68014228D01*
X163144360Y-68014228D02*
X163172931Y-67957085D01*
X163172931Y-67957085D02*
X163230074Y-67899942D01*
X163230074Y-67899942D02*
X163315788Y-67871371D01*
X163315788Y-67871371D02*
X163372931Y-67871371D01*
X163372931Y-67871371D02*
X163458645Y-67899942D01*
X163458645Y-67899942D02*
X163487217Y-67928514D01*
X163744360Y-67871371D02*
X163744360Y-68357085D01*
X163744360Y-68357085D02*
X163772931Y-68414228D01*
X163772931Y-68414228D02*
X163801503Y-68442800D01*
X163801503Y-68442800D02*
X163858645Y-68471371D01*
X163858645Y-68471371D02*
X163972931Y-68471371D01*
X163972931Y-68471371D02*
X164030074Y-68442800D01*
X164030074Y-68442800D02*
X164058645Y-68414228D01*
X164058645Y-68414228D02*
X164087217Y-68357085D01*
X164087217Y-68357085D02*
X164087217Y-67871371D01*
X167115789Y-68414228D02*
X167144360Y-68442800D01*
X167144360Y-68442800D02*
X167115789Y-68471371D01*
X167115789Y-68471371D02*
X167087217Y-68442800D01*
X167087217Y-68442800D02*
X167115789Y-68414228D01*
X167115789Y-68414228D02*
X167115789Y-68471371D01*
X167115789Y-68099942D02*
X167144360Y-68128514D01*
X167144360Y-68128514D02*
X167115789Y-68157085D01*
X167115789Y-68157085D02*
X167087217Y-68128514D01*
X167087217Y-68128514D02*
X167115789Y-68099942D01*
X167115789Y-68099942D02*
X167115789Y-68157085D01*
X167772931Y-67871371D02*
X168115789Y-67871371D01*
X167944360Y-68471371D02*
X167944360Y-67871371D01*
X168544360Y-68442800D02*
X168487217Y-68471371D01*
X168487217Y-68471371D02*
X168372932Y-68471371D01*
X168372932Y-68471371D02*
X168315789Y-68442800D01*
X168315789Y-68442800D02*
X168287217Y-68385657D01*
X168287217Y-68385657D02*
X168287217Y-68157085D01*
X168287217Y-68157085D02*
X168315789Y-68099942D01*
X168315789Y-68099942D02*
X168372932Y-68071371D01*
X168372932Y-68071371D02*
X168487217Y-68071371D01*
X168487217Y-68071371D02*
X168544360Y-68099942D01*
X168544360Y-68099942D02*
X168572932Y-68157085D01*
X168572932Y-68157085D02*
X168572932Y-68214228D01*
X168572932Y-68214228D02*
X168287217Y-68271371D01*
X169058646Y-68442800D02*
X169001503Y-68471371D01*
X169001503Y-68471371D02*
X168887218Y-68471371D01*
X168887218Y-68471371D02*
X168830075Y-68442800D01*
X168830075Y-68442800D02*
X168801503Y-68385657D01*
X168801503Y-68385657D02*
X168801503Y-68157085D01*
X168801503Y-68157085D02*
X168830075Y-68099942D01*
X168830075Y-68099942D02*
X168887218Y-68071371D01*
X168887218Y-68071371D02*
X169001503Y-68071371D01*
X169001503Y-68071371D02*
X169058646Y-68099942D01*
X169058646Y-68099942D02*
X169087218Y-68157085D01*
X169087218Y-68157085D02*
X169087218Y-68214228D01*
X169087218Y-68214228D02*
X168801503Y-68271371D01*
X169344361Y-68071371D02*
X169344361Y-68471371D01*
X169344361Y-68128514D02*
X169372932Y-68099942D01*
X169372932Y-68099942D02*
X169430075Y-68071371D01*
X169430075Y-68071371D02*
X169515789Y-68071371D01*
X169515789Y-68071371D02*
X169572932Y-68099942D01*
X169572932Y-68099942D02*
X169601504Y-68157085D01*
X169601504Y-68157085D02*
X169601504Y-68471371D01*
X169858646Y-68442800D02*
X169915789Y-68471371D01*
X169915789Y-68471371D02*
X170030075Y-68471371D01*
X170030075Y-68471371D02*
X170087218Y-68442800D01*
X170087218Y-68442800D02*
X170115789Y-68385657D01*
X170115789Y-68385657D02*
X170115789Y-68357085D01*
X170115789Y-68357085D02*
X170087218Y-68299942D01*
X170087218Y-68299942D02*
X170030075Y-68271371D01*
X170030075Y-68271371D02*
X169944361Y-68271371D01*
X169944361Y-68271371D02*
X169887218Y-68242800D01*
X169887218Y-68242800D02*
X169858646Y-68185657D01*
X169858646Y-68185657D02*
X169858646Y-68157085D01*
X169858646Y-68157085D02*
X169887218Y-68099942D01*
X169887218Y-68099942D02*
X169944361Y-68071371D01*
X169944361Y-68071371D02*
X170030075Y-68071371D01*
X170030075Y-68071371D02*
X170087218Y-68099942D01*
X170315789Y-68071371D02*
X170458646Y-68471371D01*
X170601503Y-68071371D02*
X170458646Y-68471371D01*
X170458646Y-68471371D02*
X170401503Y-68614228D01*
X170401503Y-68614228D02*
X170372932Y-68642800D01*
X170372932Y-68642800D02*
X170315789Y-68671371D01*
X171544361Y-68071371D02*
X171544361Y-68471371D01*
X171401503Y-67842800D02*
X171258646Y-68271371D01*
X171258646Y-68271371D02*
X171630075Y-68271371D01*
X171858647Y-68414228D02*
X171887218Y-68442800D01*
X171887218Y-68442800D02*
X171858647Y-68471371D01*
X171858647Y-68471371D02*
X171830075Y-68442800D01*
X171830075Y-68442800D02*
X171858647Y-68414228D01*
X171858647Y-68414228D02*
X171858647Y-68471371D01*
X172458646Y-68471371D02*
X172115789Y-68471371D01*
X172287218Y-68471371D02*
X172287218Y-67871371D01*
X172287218Y-67871371D02*
X172230075Y-67957085D01*
X172230075Y-67957085D02*
X172172932Y-68014228D01*
X172172932Y-68014228D02*
X172115789Y-68042800D01*
D12*
X173139160Y-81052200D02*
X173282017Y-81099819D01*
X173282017Y-81099819D02*
X173520112Y-81099819D01*
X173520112Y-81099819D02*
X173615350Y-81052200D01*
X173615350Y-81052200D02*
X173662969Y-81004580D01*
X173662969Y-81004580D02*
X173710588Y-80909342D01*
X173710588Y-80909342D02*
X173710588Y-80814104D01*
X173710588Y-80814104D02*
X173662969Y-80718866D01*
X173662969Y-80718866D02*
X173615350Y-80671247D01*
X173615350Y-80671247D02*
X173520112Y-80623628D01*
X173520112Y-80623628D02*
X173329636Y-80576009D01*
X173329636Y-80576009D02*
X173234398Y-80528390D01*
X173234398Y-80528390D02*
X173186779Y-80480771D01*
X173186779Y-80480771D02*
X173139160Y-80385533D01*
X173139160Y-80385533D02*
X173139160Y-80290295D01*
X173139160Y-80290295D02*
X173186779Y-80195057D01*
X173186779Y-80195057D02*
X173234398Y-80147438D01*
X173234398Y-80147438D02*
X173329636Y-80099819D01*
X173329636Y-80099819D02*
X173567731Y-80099819D01*
X173567731Y-80099819D02*
X173710588Y-80147438D01*
X174710588Y-81004580D02*
X174662969Y-81052200D01*
X174662969Y-81052200D02*
X174520112Y-81099819D01*
X174520112Y-81099819D02*
X174424874Y-81099819D01*
X174424874Y-81099819D02*
X174282017Y-81052200D01*
X174282017Y-81052200D02*
X174186779Y-80956961D01*
X174186779Y-80956961D02*
X174139160Y-80861723D01*
X174139160Y-80861723D02*
X174091541Y-80671247D01*
X174091541Y-80671247D02*
X174091541Y-80528390D01*
X174091541Y-80528390D02*
X174139160Y-80337914D01*
X174139160Y-80337914D02*
X174186779Y-80242676D01*
X174186779Y-80242676D02*
X174282017Y-80147438D01*
X174282017Y-80147438D02*
X174424874Y-80099819D01*
X174424874Y-80099819D02*
X174520112Y-80099819D01*
X174520112Y-80099819D02*
X174662969Y-80147438D01*
X174662969Y-80147438D02*
X174710588Y-80195057D01*
X175139160Y-81099819D02*
X175139160Y-80099819D01*
X175710588Y-81099819D02*
X175282017Y-80528390D01*
X175710588Y-80099819D02*
X175139160Y-80671247D01*
X173186779Y-82709819D02*
X173186779Y-81709819D01*
X173186779Y-81709819D02*
X173520112Y-82424104D01*
X173520112Y-82424104D02*
X173853445Y-81709819D01*
X173853445Y-81709819D02*
X173853445Y-82709819D01*
X174329636Y-82709819D02*
X174329636Y-81709819D01*
X174758207Y-82662200D02*
X174901064Y-82709819D01*
X174901064Y-82709819D02*
X175139159Y-82709819D01*
X175139159Y-82709819D02*
X175234397Y-82662200D01*
X175234397Y-82662200D02*
X175282016Y-82614580D01*
X175282016Y-82614580D02*
X175329635Y-82519342D01*
X175329635Y-82519342D02*
X175329635Y-82424104D01*
X175329635Y-82424104D02*
X175282016Y-82328866D01*
X175282016Y-82328866D02*
X175234397Y-82281247D01*
X175234397Y-82281247D02*
X175139159Y-82233628D01*
X175139159Y-82233628D02*
X174948683Y-82186009D01*
X174948683Y-82186009D02*
X174853445Y-82138390D01*
X174853445Y-82138390D02*
X174805826Y-82090771D01*
X174805826Y-82090771D02*
X174758207Y-81995533D01*
X174758207Y-81995533D02*
X174758207Y-81900295D01*
X174758207Y-81900295D02*
X174805826Y-81805057D01*
X174805826Y-81805057D02*
X174853445Y-81757438D01*
X174853445Y-81757438D02*
X174948683Y-81709819D01*
X174948683Y-81709819D02*
X175186778Y-81709819D01*
X175186778Y-81709819D02*
X175329635Y-81757438D01*
X175948683Y-81709819D02*
X176139159Y-81709819D01*
X176139159Y-81709819D02*
X176234397Y-81757438D01*
X176234397Y-81757438D02*
X176329635Y-81852676D01*
X176329635Y-81852676D02*
X176377254Y-82043152D01*
X176377254Y-82043152D02*
X176377254Y-82376485D01*
X176377254Y-82376485D02*
X176329635Y-82566961D01*
X176329635Y-82566961D02*
X176234397Y-82662200D01*
X176234397Y-82662200D02*
X176139159Y-82709819D01*
X176139159Y-82709819D02*
X175948683Y-82709819D01*
X175948683Y-82709819D02*
X175853445Y-82662200D01*
X175853445Y-82662200D02*
X175758207Y-82566961D01*
X175758207Y-82566961D02*
X175710588Y-82376485D01*
X175710588Y-82376485D02*
X175710588Y-82043152D01*
X175710588Y-82043152D02*
X175758207Y-81852676D01*
X175758207Y-81852676D02*
X175853445Y-81757438D01*
X175853445Y-81757438D02*
X175948683Y-81709819D01*
X173186779Y-84319819D02*
X173186779Y-83319819D01*
X173186779Y-83319819D02*
X173520112Y-84034104D01*
X173520112Y-84034104D02*
X173853445Y-83319819D01*
X173853445Y-83319819D02*
X173853445Y-84319819D01*
X174520112Y-83319819D02*
X174710588Y-83319819D01*
X174710588Y-83319819D02*
X174805826Y-83367438D01*
X174805826Y-83367438D02*
X174901064Y-83462676D01*
X174901064Y-83462676D02*
X174948683Y-83653152D01*
X174948683Y-83653152D02*
X174948683Y-83986485D01*
X174948683Y-83986485D02*
X174901064Y-84176961D01*
X174901064Y-84176961D02*
X174805826Y-84272200D01*
X174805826Y-84272200D02*
X174710588Y-84319819D01*
X174710588Y-84319819D02*
X174520112Y-84319819D01*
X174520112Y-84319819D02*
X174424874Y-84272200D01*
X174424874Y-84272200D02*
X174329636Y-84176961D01*
X174329636Y-84176961D02*
X174282017Y-83986485D01*
X174282017Y-83986485D02*
X174282017Y-83653152D01*
X174282017Y-83653152D02*
X174329636Y-83462676D01*
X174329636Y-83462676D02*
X174424874Y-83367438D01*
X174424874Y-83367438D02*
X174520112Y-83319819D01*
X175329636Y-84272200D02*
X175472493Y-84319819D01*
X175472493Y-84319819D02*
X175710588Y-84319819D01*
X175710588Y-84319819D02*
X175805826Y-84272200D01*
X175805826Y-84272200D02*
X175853445Y-84224580D01*
X175853445Y-84224580D02*
X175901064Y-84129342D01*
X175901064Y-84129342D02*
X175901064Y-84034104D01*
X175901064Y-84034104D02*
X175853445Y-83938866D01*
X175853445Y-83938866D02*
X175805826Y-83891247D01*
X175805826Y-83891247D02*
X175710588Y-83843628D01*
X175710588Y-83843628D02*
X175520112Y-83796009D01*
X175520112Y-83796009D02*
X175424874Y-83748390D01*
X175424874Y-83748390D02*
X175377255Y-83700771D01*
X175377255Y-83700771D02*
X175329636Y-83605533D01*
X175329636Y-83605533D02*
X175329636Y-83510295D01*
X175329636Y-83510295D02*
X175377255Y-83415057D01*
X175377255Y-83415057D02*
X175424874Y-83367438D01*
X175424874Y-83367438D02*
X175520112Y-83319819D01*
X175520112Y-83319819D02*
X175758207Y-83319819D01*
X175758207Y-83319819D02*
X175901064Y-83367438D01*
X176329636Y-84319819D02*
X176329636Y-83319819D01*
X167239160Y-114812200D02*
X167382017Y-114859819D01*
X167382017Y-114859819D02*
X167620112Y-114859819D01*
X167620112Y-114859819D02*
X167715350Y-114812200D01*
X167715350Y-114812200D02*
X167762969Y-114764580D01*
X167762969Y-114764580D02*
X167810588Y-114669342D01*
X167810588Y-114669342D02*
X167810588Y-114574104D01*
X167810588Y-114574104D02*
X167762969Y-114478866D01*
X167762969Y-114478866D02*
X167715350Y-114431247D01*
X167715350Y-114431247D02*
X167620112Y-114383628D01*
X167620112Y-114383628D02*
X167429636Y-114336009D01*
X167429636Y-114336009D02*
X167334398Y-114288390D01*
X167334398Y-114288390D02*
X167286779Y-114240771D01*
X167286779Y-114240771D02*
X167239160Y-114145533D01*
X167239160Y-114145533D02*
X167239160Y-114050295D01*
X167239160Y-114050295D02*
X167286779Y-113955057D01*
X167286779Y-113955057D02*
X167334398Y-113907438D01*
X167334398Y-113907438D02*
X167429636Y-113859819D01*
X167429636Y-113859819D02*
X167667731Y-113859819D01*
X167667731Y-113859819D02*
X167810588Y-113907438D01*
X168239160Y-114859819D02*
X168239160Y-113859819D01*
X168239160Y-113859819D02*
X168477255Y-113859819D01*
X168477255Y-113859819D02*
X168620112Y-113907438D01*
X168620112Y-113907438D02*
X168715350Y-114002676D01*
X168715350Y-114002676D02*
X168762969Y-114097914D01*
X168762969Y-114097914D02*
X168810588Y-114288390D01*
X168810588Y-114288390D02*
X168810588Y-114431247D01*
X168810588Y-114431247D02*
X168762969Y-114621723D01*
X168762969Y-114621723D02*
X168715350Y-114716961D01*
X168715350Y-114716961D02*
X168620112Y-114812200D01*
X168620112Y-114812200D02*
X168477255Y-114859819D01*
X168477255Y-114859819D02*
X168239160Y-114859819D01*
X169191541Y-114574104D02*
X169667731Y-114574104D01*
X169096303Y-114859819D02*
X169429636Y-113859819D01*
X169429636Y-113859819D02*
X169762969Y-114859819D01*
X167239160Y-116422200D02*
X167382017Y-116469819D01*
X167382017Y-116469819D02*
X167620112Y-116469819D01*
X167620112Y-116469819D02*
X167715350Y-116422200D01*
X167715350Y-116422200D02*
X167762969Y-116374580D01*
X167762969Y-116374580D02*
X167810588Y-116279342D01*
X167810588Y-116279342D02*
X167810588Y-116184104D01*
X167810588Y-116184104D02*
X167762969Y-116088866D01*
X167762969Y-116088866D02*
X167715350Y-116041247D01*
X167715350Y-116041247D02*
X167620112Y-115993628D01*
X167620112Y-115993628D02*
X167429636Y-115946009D01*
X167429636Y-115946009D02*
X167334398Y-115898390D01*
X167334398Y-115898390D02*
X167286779Y-115850771D01*
X167286779Y-115850771D02*
X167239160Y-115755533D01*
X167239160Y-115755533D02*
X167239160Y-115660295D01*
X167239160Y-115660295D02*
X167286779Y-115565057D01*
X167286779Y-115565057D02*
X167334398Y-115517438D01*
X167334398Y-115517438D02*
X167429636Y-115469819D01*
X167429636Y-115469819D02*
X167667731Y-115469819D01*
X167667731Y-115469819D02*
X167810588Y-115517438D01*
X168810588Y-116374580D02*
X168762969Y-116422200D01*
X168762969Y-116422200D02*
X168620112Y-116469819D01*
X168620112Y-116469819D02*
X168524874Y-116469819D01*
X168524874Y-116469819D02*
X168382017Y-116422200D01*
X168382017Y-116422200D02*
X168286779Y-116326961D01*
X168286779Y-116326961D02*
X168239160Y-116231723D01*
X168239160Y-116231723D02*
X168191541Y-116041247D01*
X168191541Y-116041247D02*
X168191541Y-115898390D01*
X168191541Y-115898390D02*
X168239160Y-115707914D01*
X168239160Y-115707914D02*
X168286779Y-115612676D01*
X168286779Y-115612676D02*
X168382017Y-115517438D01*
X168382017Y-115517438D02*
X168524874Y-115469819D01*
X168524874Y-115469819D02*
X168620112Y-115469819D01*
X168620112Y-115469819D02*
X168762969Y-115517438D01*
X168762969Y-115517438D02*
X168810588Y-115565057D01*
X169715350Y-116469819D02*
X169239160Y-116469819D01*
X169239160Y-116469819D02*
X169239160Y-115469819D01*
D13*
X133125312Y-58022419D02*
X132791979Y-57546228D01*
X132553884Y-58022419D02*
X132553884Y-57022419D01*
X132553884Y-57022419D02*
X132934836Y-57022419D01*
X132934836Y-57022419D02*
X133030074Y-57070038D01*
X133030074Y-57070038D02*
X133077693Y-57117657D01*
X133077693Y-57117657D02*
X133125312Y-57212895D01*
X133125312Y-57212895D02*
X133125312Y-57355752D01*
X133125312Y-57355752D02*
X133077693Y-57450990D01*
X133077693Y-57450990D02*
X133030074Y-57498609D01*
X133030074Y-57498609D02*
X132934836Y-57546228D01*
X132934836Y-57546228D02*
X132553884Y-57546228D01*
X133934836Y-57974800D02*
X133839598Y-58022419D01*
X133839598Y-58022419D02*
X133649122Y-58022419D01*
X133649122Y-58022419D02*
X133553884Y-57974800D01*
X133553884Y-57974800D02*
X133506265Y-57879561D01*
X133506265Y-57879561D02*
X133506265Y-57498609D01*
X133506265Y-57498609D02*
X133553884Y-57403371D01*
X133553884Y-57403371D02*
X133649122Y-57355752D01*
X133649122Y-57355752D02*
X133839598Y-57355752D01*
X133839598Y-57355752D02*
X133934836Y-57403371D01*
X133934836Y-57403371D02*
X133982455Y-57498609D01*
X133982455Y-57498609D02*
X133982455Y-57593847D01*
X133982455Y-57593847D02*
X133506265Y-57689085D01*
X134363408Y-57974800D02*
X134458646Y-58022419D01*
X134458646Y-58022419D02*
X134649122Y-58022419D01*
X134649122Y-58022419D02*
X134744360Y-57974800D01*
X134744360Y-57974800D02*
X134791979Y-57879561D01*
X134791979Y-57879561D02*
X134791979Y-57831942D01*
X134791979Y-57831942D02*
X134744360Y-57736704D01*
X134744360Y-57736704D02*
X134649122Y-57689085D01*
X134649122Y-57689085D02*
X134506265Y-57689085D01*
X134506265Y-57689085D02*
X134411027Y-57641466D01*
X134411027Y-57641466D02*
X134363408Y-57546228D01*
X134363408Y-57546228D02*
X134363408Y-57498609D01*
X134363408Y-57498609D02*
X134411027Y-57403371D01*
X134411027Y-57403371D02*
X134506265Y-57355752D01*
X134506265Y-57355752D02*
X134649122Y-57355752D01*
X134649122Y-57355752D02*
X134744360Y-57403371D01*
X135601503Y-57974800D02*
X135506265Y-58022419D01*
X135506265Y-58022419D02*
X135315789Y-58022419D01*
X135315789Y-58022419D02*
X135220551Y-57974800D01*
X135220551Y-57974800D02*
X135172932Y-57879561D01*
X135172932Y-57879561D02*
X135172932Y-57498609D01*
X135172932Y-57498609D02*
X135220551Y-57403371D01*
X135220551Y-57403371D02*
X135315789Y-57355752D01*
X135315789Y-57355752D02*
X135506265Y-57355752D01*
X135506265Y-57355752D02*
X135601503Y-57403371D01*
X135601503Y-57403371D02*
X135649122Y-57498609D01*
X135649122Y-57498609D02*
X135649122Y-57593847D01*
X135649122Y-57593847D02*
X135172932Y-57689085D01*
X135934837Y-57355752D02*
X136315789Y-57355752D01*
X136077694Y-57022419D02*
X136077694Y-57879561D01*
X136077694Y-57879561D02*
X136125313Y-57974800D01*
X136125313Y-57974800D02*
X136220551Y-58022419D01*
X136220551Y-58022419D02*
X136315789Y-58022419D01*
D12*
X140457142Y-104509580D02*
X140409523Y-104557200D01*
X140409523Y-104557200D02*
X140266666Y-104604819D01*
X140266666Y-104604819D02*
X140171428Y-104604819D01*
X140171428Y-104604819D02*
X140028571Y-104557200D01*
X140028571Y-104557200D02*
X139933333Y-104461961D01*
X139933333Y-104461961D02*
X139885714Y-104366723D01*
X139885714Y-104366723D02*
X139838095Y-104176247D01*
X139838095Y-104176247D02*
X139838095Y-104033390D01*
X139838095Y-104033390D02*
X139885714Y-103842914D01*
X139885714Y-103842914D02*
X139933333Y-103747676D01*
X139933333Y-103747676D02*
X140028571Y-103652438D01*
X140028571Y-103652438D02*
X140171428Y-103604819D01*
X140171428Y-103604819D02*
X140266666Y-103604819D01*
X140266666Y-103604819D02*
X140409523Y-103652438D01*
X140409523Y-103652438D02*
X140457142Y-103700057D01*
X141409523Y-104604819D02*
X140838095Y-104604819D01*
X141123809Y-104604819D02*
X141123809Y-103604819D01*
X141123809Y-103604819D02*
X141028571Y-103747676D01*
X141028571Y-103747676D02*
X140933333Y-103842914D01*
X140933333Y-103842914D02*
X140838095Y-103890533D01*
X142266666Y-103938152D02*
X142266666Y-104604819D01*
X142028571Y-103557200D02*
X141790476Y-104271485D01*
X141790476Y-104271485D02*
X142409523Y-104271485D01*
X119583333Y-128709580D02*
X119535714Y-128757200D01*
X119535714Y-128757200D02*
X119392857Y-128804819D01*
X119392857Y-128804819D02*
X119297619Y-128804819D01*
X119297619Y-128804819D02*
X119154762Y-128757200D01*
X119154762Y-128757200D02*
X119059524Y-128661961D01*
X119059524Y-128661961D02*
X119011905Y-128566723D01*
X119011905Y-128566723D02*
X118964286Y-128376247D01*
X118964286Y-128376247D02*
X118964286Y-128233390D01*
X118964286Y-128233390D02*
X119011905Y-128042914D01*
X119011905Y-128042914D02*
X119059524Y-127947676D01*
X119059524Y-127947676D02*
X119154762Y-127852438D01*
X119154762Y-127852438D02*
X119297619Y-127804819D01*
X119297619Y-127804819D02*
X119392857Y-127804819D01*
X119392857Y-127804819D02*
X119535714Y-127852438D01*
X119535714Y-127852438D02*
X119583333Y-127900057D01*
X120440476Y-128138152D02*
X120440476Y-128804819D01*
X120202381Y-127757200D02*
X119964286Y-128471485D01*
X119964286Y-128471485D02*
X120583333Y-128471485D01*
X145757142Y-99159580D02*
X145709523Y-99207200D01*
X145709523Y-99207200D02*
X145566666Y-99254819D01*
X145566666Y-99254819D02*
X145471428Y-99254819D01*
X145471428Y-99254819D02*
X145328571Y-99207200D01*
X145328571Y-99207200D02*
X145233333Y-99111961D01*
X145233333Y-99111961D02*
X145185714Y-99016723D01*
X145185714Y-99016723D02*
X145138095Y-98826247D01*
X145138095Y-98826247D02*
X145138095Y-98683390D01*
X145138095Y-98683390D02*
X145185714Y-98492914D01*
X145185714Y-98492914D02*
X145233333Y-98397676D01*
X145233333Y-98397676D02*
X145328571Y-98302438D01*
X145328571Y-98302438D02*
X145471428Y-98254819D01*
X145471428Y-98254819D02*
X145566666Y-98254819D01*
X145566666Y-98254819D02*
X145709523Y-98302438D01*
X145709523Y-98302438D02*
X145757142Y-98350057D01*
X146709523Y-99254819D02*
X146138095Y-99254819D01*
X146423809Y-99254819D02*
X146423809Y-98254819D01*
X146423809Y-98254819D02*
X146328571Y-98397676D01*
X146328571Y-98397676D02*
X146233333Y-98492914D01*
X146233333Y-98492914D02*
X146138095Y-98540533D01*
X147042857Y-98254819D02*
X147661904Y-98254819D01*
X147661904Y-98254819D02*
X147328571Y-98635771D01*
X147328571Y-98635771D02*
X147471428Y-98635771D01*
X147471428Y-98635771D02*
X147566666Y-98683390D01*
X147566666Y-98683390D02*
X147614285Y-98731009D01*
X147614285Y-98731009D02*
X147661904Y-98826247D01*
X147661904Y-98826247D02*
X147661904Y-99064342D01*
X147661904Y-99064342D02*
X147614285Y-99159580D01*
X147614285Y-99159580D02*
X147566666Y-99207200D01*
X147566666Y-99207200D02*
X147471428Y-99254819D01*
X147471428Y-99254819D02*
X147185714Y-99254819D01*
X147185714Y-99254819D02*
X147090476Y-99207200D01*
X147090476Y-99207200D02*
X147042857Y-99159580D01*
X123283333Y-128759580D02*
X123235714Y-128807200D01*
X123235714Y-128807200D02*
X123092857Y-128854819D01*
X123092857Y-128854819D02*
X122997619Y-128854819D01*
X122997619Y-128854819D02*
X122854762Y-128807200D01*
X122854762Y-128807200D02*
X122759524Y-128711961D01*
X122759524Y-128711961D02*
X122711905Y-128616723D01*
X122711905Y-128616723D02*
X122664286Y-128426247D01*
X122664286Y-128426247D02*
X122664286Y-128283390D01*
X122664286Y-128283390D02*
X122711905Y-128092914D01*
X122711905Y-128092914D02*
X122759524Y-127997676D01*
X122759524Y-127997676D02*
X122854762Y-127902438D01*
X122854762Y-127902438D02*
X122997619Y-127854819D01*
X122997619Y-127854819D02*
X123092857Y-127854819D01*
X123092857Y-127854819D02*
X123235714Y-127902438D01*
X123235714Y-127902438D02*
X123283333Y-127950057D01*
X123616667Y-127854819D02*
X124235714Y-127854819D01*
X124235714Y-127854819D02*
X123902381Y-128235771D01*
X123902381Y-128235771D02*
X124045238Y-128235771D01*
X124045238Y-128235771D02*
X124140476Y-128283390D01*
X124140476Y-128283390D02*
X124188095Y-128331009D01*
X124188095Y-128331009D02*
X124235714Y-128426247D01*
X124235714Y-128426247D02*
X124235714Y-128664342D01*
X124235714Y-128664342D02*
X124188095Y-128759580D01*
X124188095Y-128759580D02*
X124140476Y-128807200D01*
X124140476Y-128807200D02*
X124045238Y-128854819D01*
X124045238Y-128854819D02*
X123759524Y-128854819D01*
X123759524Y-128854819D02*
X123664286Y-128807200D01*
X123664286Y-128807200D02*
X123616667Y-128759580D01*
X141709523Y-124704819D02*
X141233333Y-124704819D01*
X141233333Y-124704819D02*
X141185714Y-125181009D01*
X141185714Y-125181009D02*
X141233333Y-125133390D01*
X141233333Y-125133390D02*
X141328571Y-125085771D01*
X141328571Y-125085771D02*
X141566666Y-125085771D01*
X141566666Y-125085771D02*
X141661904Y-125133390D01*
X141661904Y-125133390D02*
X141709523Y-125181009D01*
X141709523Y-125181009D02*
X141757142Y-125276247D01*
X141757142Y-125276247D02*
X141757142Y-125514342D01*
X141757142Y-125514342D02*
X141709523Y-125609580D01*
X141709523Y-125609580D02*
X141661904Y-125657200D01*
X141661904Y-125657200D02*
X141566666Y-125704819D01*
X141566666Y-125704819D02*
X141328571Y-125704819D01*
X141328571Y-125704819D02*
X141233333Y-125657200D01*
X141233333Y-125657200D02*
X141185714Y-125609580D01*
X142042857Y-124704819D02*
X142376190Y-125704819D01*
X142376190Y-125704819D02*
X142709523Y-124704819D01*
X137766666Y-60234819D02*
X137766666Y-60949104D01*
X137766666Y-60949104D02*
X137719047Y-61091961D01*
X137719047Y-61091961D02*
X137623809Y-61187200D01*
X137623809Y-61187200D02*
X137480952Y-61234819D01*
X137480952Y-61234819D02*
X137385714Y-61234819D01*
X138766666Y-61234819D02*
X138195238Y-61234819D01*
X138480952Y-61234819D02*
X138480952Y-60234819D01*
X138480952Y-60234819D02*
X138385714Y-60377676D01*
X138385714Y-60377676D02*
X138290476Y-60472914D01*
X138290476Y-60472914D02*
X138195238Y-60520533D01*
X174783333Y-110909580D02*
X174735714Y-110957200D01*
X174735714Y-110957200D02*
X174592857Y-111004819D01*
X174592857Y-111004819D02*
X174497619Y-111004819D01*
X174497619Y-111004819D02*
X174354762Y-110957200D01*
X174354762Y-110957200D02*
X174259524Y-110861961D01*
X174259524Y-110861961D02*
X174211905Y-110766723D01*
X174211905Y-110766723D02*
X174164286Y-110576247D01*
X174164286Y-110576247D02*
X174164286Y-110433390D01*
X174164286Y-110433390D02*
X174211905Y-110242914D01*
X174211905Y-110242914D02*
X174259524Y-110147676D01*
X174259524Y-110147676D02*
X174354762Y-110052438D01*
X174354762Y-110052438D02*
X174497619Y-110004819D01*
X174497619Y-110004819D02*
X174592857Y-110004819D01*
X174592857Y-110004819D02*
X174735714Y-110052438D01*
X174735714Y-110052438D02*
X174783333Y-110100057D01*
X175640476Y-110004819D02*
X175450000Y-110004819D01*
X175450000Y-110004819D02*
X175354762Y-110052438D01*
X175354762Y-110052438D02*
X175307143Y-110100057D01*
X175307143Y-110100057D02*
X175211905Y-110242914D01*
X175211905Y-110242914D02*
X175164286Y-110433390D01*
X175164286Y-110433390D02*
X175164286Y-110814342D01*
X175164286Y-110814342D02*
X175211905Y-110909580D01*
X175211905Y-110909580D02*
X175259524Y-110957200D01*
X175259524Y-110957200D02*
X175354762Y-111004819D01*
X175354762Y-111004819D02*
X175545238Y-111004819D01*
X175545238Y-111004819D02*
X175640476Y-110957200D01*
X175640476Y-110957200D02*
X175688095Y-110909580D01*
X175688095Y-110909580D02*
X175735714Y-110814342D01*
X175735714Y-110814342D02*
X175735714Y-110576247D01*
X175735714Y-110576247D02*
X175688095Y-110481009D01*
X175688095Y-110481009D02*
X175640476Y-110433390D01*
X175640476Y-110433390D02*
X175545238Y-110385771D01*
X175545238Y-110385771D02*
X175354762Y-110385771D01*
X175354762Y-110385771D02*
X175259524Y-110433390D01*
X175259524Y-110433390D02*
X175211905Y-110481009D01*
X175211905Y-110481009D02*
X175164286Y-110576247D01*
X169983333Y-133074819D02*
X169650000Y-132598628D01*
X169411905Y-133074819D02*
X169411905Y-132074819D01*
X169411905Y-132074819D02*
X169792857Y-132074819D01*
X169792857Y-132074819D02*
X169888095Y-132122438D01*
X169888095Y-132122438D02*
X169935714Y-132170057D01*
X169935714Y-132170057D02*
X169983333Y-132265295D01*
X169983333Y-132265295D02*
X169983333Y-132408152D01*
X169983333Y-132408152D02*
X169935714Y-132503390D01*
X169935714Y-132503390D02*
X169888095Y-132551009D01*
X169888095Y-132551009D02*
X169792857Y-132598628D01*
X169792857Y-132598628D02*
X169411905Y-132598628D01*
X170316667Y-132074819D02*
X170935714Y-132074819D01*
X170935714Y-132074819D02*
X170602381Y-132455771D01*
X170602381Y-132455771D02*
X170745238Y-132455771D01*
X170745238Y-132455771D02*
X170840476Y-132503390D01*
X170840476Y-132503390D02*
X170888095Y-132551009D01*
X170888095Y-132551009D02*
X170935714Y-132646247D01*
X170935714Y-132646247D02*
X170935714Y-132884342D01*
X170935714Y-132884342D02*
X170888095Y-132979580D01*
X170888095Y-132979580D02*
X170840476Y-133027200D01*
X170840476Y-133027200D02*
X170745238Y-133074819D01*
X170745238Y-133074819D02*
X170459524Y-133074819D01*
X170459524Y-133074819D02*
X170364286Y-133027200D01*
X170364286Y-133027200D02*
X170316667Y-132979580D01*
X118358333Y-133404819D02*
X118025000Y-132928628D01*
X117786905Y-133404819D02*
X117786905Y-132404819D01*
X117786905Y-132404819D02*
X118167857Y-132404819D01*
X118167857Y-132404819D02*
X118263095Y-132452438D01*
X118263095Y-132452438D02*
X118310714Y-132500057D01*
X118310714Y-132500057D02*
X118358333Y-132595295D01*
X118358333Y-132595295D02*
X118358333Y-132738152D01*
X118358333Y-132738152D02*
X118310714Y-132833390D01*
X118310714Y-132833390D02*
X118263095Y-132881009D01*
X118263095Y-132881009D02*
X118167857Y-132928628D01*
X118167857Y-132928628D02*
X117786905Y-132928628D01*
X118739286Y-132500057D02*
X118786905Y-132452438D01*
X118786905Y-132452438D02*
X118882143Y-132404819D01*
X118882143Y-132404819D02*
X119120238Y-132404819D01*
X119120238Y-132404819D02*
X119215476Y-132452438D01*
X119215476Y-132452438D02*
X119263095Y-132500057D01*
X119263095Y-132500057D02*
X119310714Y-132595295D01*
X119310714Y-132595295D02*
X119310714Y-132690533D01*
X119310714Y-132690533D02*
X119263095Y-132833390D01*
X119263095Y-132833390D02*
X118691667Y-133404819D01*
X118691667Y-133404819D02*
X119310714Y-133404819D01*
X168283333Y-102109580D02*
X168235714Y-102157200D01*
X168235714Y-102157200D02*
X168092857Y-102204819D01*
X168092857Y-102204819D02*
X167997619Y-102204819D01*
X167997619Y-102204819D02*
X167854762Y-102157200D01*
X167854762Y-102157200D02*
X167759524Y-102061961D01*
X167759524Y-102061961D02*
X167711905Y-101966723D01*
X167711905Y-101966723D02*
X167664286Y-101776247D01*
X167664286Y-101776247D02*
X167664286Y-101633390D01*
X167664286Y-101633390D02*
X167711905Y-101442914D01*
X167711905Y-101442914D02*
X167759524Y-101347676D01*
X167759524Y-101347676D02*
X167854762Y-101252438D01*
X167854762Y-101252438D02*
X167997619Y-101204819D01*
X167997619Y-101204819D02*
X168092857Y-101204819D01*
X168092857Y-101204819D02*
X168235714Y-101252438D01*
X168235714Y-101252438D02*
X168283333Y-101300057D01*
X168664286Y-101300057D02*
X168711905Y-101252438D01*
X168711905Y-101252438D02*
X168807143Y-101204819D01*
X168807143Y-101204819D02*
X169045238Y-101204819D01*
X169045238Y-101204819D02*
X169140476Y-101252438D01*
X169140476Y-101252438D02*
X169188095Y-101300057D01*
X169188095Y-101300057D02*
X169235714Y-101395295D01*
X169235714Y-101395295D02*
X169235714Y-101490533D01*
X169235714Y-101490533D02*
X169188095Y-101633390D01*
X169188095Y-101633390D02*
X168616667Y-102204819D01*
X168616667Y-102204819D02*
X169235714Y-102204819D01*
X170126191Y-77377200D02*
X170269048Y-77424819D01*
X170269048Y-77424819D02*
X170507143Y-77424819D01*
X170507143Y-77424819D02*
X170602381Y-77377200D01*
X170602381Y-77377200D02*
X170650000Y-77329580D01*
X170650000Y-77329580D02*
X170697619Y-77234342D01*
X170697619Y-77234342D02*
X170697619Y-77139104D01*
X170697619Y-77139104D02*
X170650000Y-77043866D01*
X170650000Y-77043866D02*
X170602381Y-76996247D01*
X170602381Y-76996247D02*
X170507143Y-76948628D01*
X170507143Y-76948628D02*
X170316667Y-76901009D01*
X170316667Y-76901009D02*
X170221429Y-76853390D01*
X170221429Y-76853390D02*
X170173810Y-76805771D01*
X170173810Y-76805771D02*
X170126191Y-76710533D01*
X170126191Y-76710533D02*
X170126191Y-76615295D01*
X170126191Y-76615295D02*
X170173810Y-76520057D01*
X170173810Y-76520057D02*
X170221429Y-76472438D01*
X170221429Y-76472438D02*
X170316667Y-76424819D01*
X170316667Y-76424819D02*
X170554762Y-76424819D01*
X170554762Y-76424819D02*
X170697619Y-76472438D01*
X171126191Y-77424819D02*
X171126191Y-76424819D01*
X171126191Y-76424819D02*
X171507143Y-76424819D01*
X171507143Y-76424819D02*
X171602381Y-76472438D01*
X171602381Y-76472438D02*
X171650000Y-76520057D01*
X171650000Y-76520057D02*
X171697619Y-76615295D01*
X171697619Y-76615295D02*
X171697619Y-76758152D01*
X171697619Y-76758152D02*
X171650000Y-76853390D01*
X171650000Y-76853390D02*
X171602381Y-76901009D01*
X171602381Y-76901009D02*
X171507143Y-76948628D01*
X171507143Y-76948628D02*
X171126191Y-76948628D01*
X172126191Y-77424819D02*
X172126191Y-76424819D01*
X172570833Y-132902700D02*
X172670833Y-132936033D01*
X172670833Y-132936033D02*
X172837500Y-132936033D01*
X172837500Y-132936033D02*
X172904166Y-132902700D01*
X172904166Y-132902700D02*
X172937500Y-132869366D01*
X172937500Y-132869366D02*
X172970833Y-132802700D01*
X172970833Y-132802700D02*
X172970833Y-132736033D01*
X172970833Y-132736033D02*
X172937500Y-132669366D01*
X172937500Y-132669366D02*
X172904166Y-132636033D01*
X172904166Y-132636033D02*
X172837500Y-132602700D01*
X172837500Y-132602700D02*
X172704166Y-132569366D01*
X172704166Y-132569366D02*
X172637500Y-132536033D01*
X172637500Y-132536033D02*
X172604166Y-132502700D01*
X172604166Y-132502700D02*
X172570833Y-132436033D01*
X172570833Y-132436033D02*
X172570833Y-132369366D01*
X172570833Y-132369366D02*
X172604166Y-132302700D01*
X172604166Y-132302700D02*
X172637500Y-132269366D01*
X172637500Y-132269366D02*
X172704166Y-132236033D01*
X172704166Y-132236033D02*
X172870833Y-132236033D01*
X172870833Y-132236033D02*
X172970833Y-132269366D01*
X173170833Y-132469366D02*
X173437500Y-132469366D01*
X173270833Y-132236033D02*
X173270833Y-132836033D01*
X173270833Y-132836033D02*
X173304167Y-132902700D01*
X173304167Y-132902700D02*
X173370833Y-132936033D01*
X173370833Y-132936033D02*
X173437500Y-132936033D01*
X173970833Y-132936033D02*
X173970833Y-132569366D01*
X173970833Y-132569366D02*
X173937500Y-132502700D01*
X173937500Y-132502700D02*
X173870833Y-132469366D01*
X173870833Y-132469366D02*
X173737500Y-132469366D01*
X173737500Y-132469366D02*
X173670833Y-132502700D01*
X173970833Y-132902700D02*
X173904167Y-132936033D01*
X173904167Y-132936033D02*
X173737500Y-132936033D01*
X173737500Y-132936033D02*
X173670833Y-132902700D01*
X173670833Y-132902700D02*
X173637500Y-132836033D01*
X173637500Y-132836033D02*
X173637500Y-132769366D01*
X173637500Y-132769366D02*
X173670833Y-132702700D01*
X173670833Y-132702700D02*
X173737500Y-132669366D01*
X173737500Y-132669366D02*
X173904167Y-132669366D01*
X173904167Y-132669366D02*
X173970833Y-132636033D01*
X174204166Y-132469366D02*
X174470833Y-132469366D01*
X174304166Y-132236033D02*
X174304166Y-132836033D01*
X174304166Y-132836033D02*
X174337500Y-132902700D01*
X174337500Y-132902700D02*
X174404166Y-132936033D01*
X174404166Y-132936033D02*
X174470833Y-132936033D01*
X175004166Y-132469366D02*
X175004166Y-132936033D01*
X174704166Y-132469366D02*
X174704166Y-132836033D01*
X174704166Y-132836033D02*
X174737500Y-132902700D01*
X174737500Y-132902700D02*
X174804166Y-132936033D01*
X174804166Y-132936033D02*
X174904166Y-132936033D01*
X174904166Y-132936033D02*
X174970833Y-132902700D01*
X174970833Y-132902700D02*
X175004166Y-132869366D01*
X175304166Y-132902700D02*
X175370833Y-132936033D01*
X175370833Y-132936033D02*
X175504166Y-132936033D01*
X175504166Y-132936033D02*
X175570833Y-132902700D01*
X175570833Y-132902700D02*
X175604166Y-132836033D01*
X175604166Y-132836033D02*
X175604166Y-132802700D01*
X175604166Y-132802700D02*
X175570833Y-132736033D01*
X175570833Y-132736033D02*
X175504166Y-132702700D01*
X175504166Y-132702700D02*
X175404166Y-132702700D01*
X175404166Y-132702700D02*
X175337499Y-132669366D01*
X175337499Y-132669366D02*
X175304166Y-132602700D01*
X175304166Y-132602700D02*
X175304166Y-132569366D01*
X175304166Y-132569366D02*
X175337499Y-132502700D01*
X175337499Y-132502700D02*
X175404166Y-132469366D01*
X175404166Y-132469366D02*
X175504166Y-132469366D01*
X175504166Y-132469366D02*
X175570833Y-132502700D01*
X143311905Y-103754819D02*
X143311905Y-102754819D01*
X143311905Y-102754819D02*
X143645238Y-103469104D01*
X143645238Y-103469104D02*
X143978571Y-102754819D01*
X143978571Y-102754819D02*
X143978571Y-103754819D01*
X144883333Y-103754819D02*
X144883333Y-103231009D01*
X144883333Y-103231009D02*
X144835714Y-103135771D01*
X144835714Y-103135771D02*
X144740476Y-103088152D01*
X144740476Y-103088152D02*
X144550000Y-103088152D01*
X144550000Y-103088152D02*
X144454762Y-103135771D01*
X144883333Y-103707200D02*
X144788095Y-103754819D01*
X144788095Y-103754819D02*
X144550000Y-103754819D01*
X144550000Y-103754819D02*
X144454762Y-103707200D01*
X144454762Y-103707200D02*
X144407143Y-103611961D01*
X144407143Y-103611961D02*
X144407143Y-103516723D01*
X144407143Y-103516723D02*
X144454762Y-103421485D01*
X144454762Y-103421485D02*
X144550000Y-103373866D01*
X144550000Y-103373866D02*
X144788095Y-103373866D01*
X144788095Y-103373866D02*
X144883333Y-103326247D01*
X145788095Y-103088152D02*
X145788095Y-103897676D01*
X145788095Y-103897676D02*
X145740476Y-103992914D01*
X145740476Y-103992914D02*
X145692857Y-104040533D01*
X145692857Y-104040533D02*
X145597619Y-104088152D01*
X145597619Y-104088152D02*
X145454762Y-104088152D01*
X145454762Y-104088152D02*
X145359524Y-104040533D01*
X145788095Y-103707200D02*
X145692857Y-103754819D01*
X145692857Y-103754819D02*
X145502381Y-103754819D01*
X145502381Y-103754819D02*
X145407143Y-103707200D01*
X145407143Y-103707200D02*
X145359524Y-103659580D01*
X145359524Y-103659580D02*
X145311905Y-103564342D01*
X145311905Y-103564342D02*
X145311905Y-103278628D01*
X145311905Y-103278628D02*
X145359524Y-103183390D01*
X145359524Y-103183390D02*
X145407143Y-103135771D01*
X145407143Y-103135771D02*
X145502381Y-103088152D01*
X145502381Y-103088152D02*
X145692857Y-103088152D01*
X145692857Y-103088152D02*
X145788095Y-103135771D01*
X170678942Y-105854010D02*
X170821799Y-105901629D01*
X170821799Y-105901629D02*
X170869418Y-105949248D01*
X170869418Y-105949248D02*
X170917037Y-106044486D01*
X170917037Y-106044486D02*
X170917037Y-106187343D01*
X170917037Y-106187343D02*
X170869418Y-106282581D01*
X170869418Y-106282581D02*
X170821799Y-106330201D01*
X170821799Y-106330201D02*
X170726561Y-106377820D01*
X170726561Y-106377820D02*
X170345609Y-106377820D01*
X170345609Y-106377820D02*
X170345609Y-105377820D01*
X170345609Y-105377820D02*
X170678942Y-105377820D01*
X170678942Y-105377820D02*
X170774180Y-105425439D01*
X170774180Y-105425439D02*
X170821799Y-105473058D01*
X170821799Y-105473058D02*
X170869418Y-105568296D01*
X170869418Y-105568296D02*
X170869418Y-105663534D01*
X170869418Y-105663534D02*
X170821799Y-105758772D01*
X170821799Y-105758772D02*
X170774180Y-105806391D01*
X170774180Y-105806391D02*
X170678942Y-105854010D01*
X170678942Y-105854010D02*
X170345609Y-105854010D01*
X171774180Y-106377820D02*
X171774180Y-105854010D01*
X171774180Y-105854010D02*
X171726561Y-105758772D01*
X171726561Y-105758772D02*
X171631323Y-105711153D01*
X171631323Y-105711153D02*
X171440847Y-105711153D01*
X171440847Y-105711153D02*
X171345609Y-105758772D01*
X171774180Y-106330201D02*
X171678942Y-106377820D01*
X171678942Y-106377820D02*
X171440847Y-106377820D01*
X171440847Y-106377820D02*
X171345609Y-106330201D01*
X171345609Y-106330201D02*
X171297990Y-106234962D01*
X171297990Y-106234962D02*
X171297990Y-106139724D01*
X171297990Y-106139724D02*
X171345609Y-106044486D01*
X171345609Y-106044486D02*
X171440847Y-105996867D01*
X171440847Y-105996867D02*
X171678942Y-105996867D01*
X171678942Y-105996867D02*
X171774180Y-105949248D01*
X172250371Y-106377820D02*
X172250371Y-105711153D01*
X172250371Y-105901629D02*
X172297990Y-105806391D01*
X172297990Y-105806391D02*
X172345609Y-105758772D01*
X172345609Y-105758772D02*
X172440847Y-105711153D01*
X172440847Y-105711153D02*
X172536085Y-105711153D01*
X173012276Y-106377820D02*
X172917038Y-106330201D01*
X172917038Y-106330201D02*
X172869419Y-106282581D01*
X172869419Y-106282581D02*
X172821800Y-106187343D01*
X172821800Y-106187343D02*
X172821800Y-105901629D01*
X172821800Y-105901629D02*
X172869419Y-105806391D01*
X172869419Y-105806391D02*
X172917038Y-105758772D01*
X172917038Y-105758772D02*
X173012276Y-105711153D01*
X173012276Y-105711153D02*
X173155133Y-105711153D01*
X173155133Y-105711153D02*
X173250371Y-105758772D01*
X173250371Y-105758772D02*
X173297990Y-105806391D01*
X173297990Y-105806391D02*
X173345609Y-105901629D01*
X173345609Y-105901629D02*
X173345609Y-106187343D01*
X173345609Y-106187343D02*
X173297990Y-106282581D01*
X173297990Y-106282581D02*
X173250371Y-106330201D01*
X173250371Y-106330201D02*
X173155133Y-106377820D01*
X173155133Y-106377820D02*
X173012276Y-106377820D01*
X173485000Y-108585819D02*
X173485000Y-108823914D01*
X173246905Y-108728676D02*
X173485000Y-108823914D01*
X173485000Y-108823914D02*
X173723095Y-108728676D01*
X173342143Y-109014390D02*
X173485000Y-108823914D01*
X173485000Y-108823914D02*
X173627857Y-109014390D01*
X173484999Y-109676180D02*
X173484999Y-109438085D01*
X173723094Y-109533323D02*
X173484999Y-109438085D01*
X173484999Y-109438085D02*
X173246904Y-109533323D01*
X173627856Y-109247609D02*
X173484999Y-109438085D01*
X173484999Y-109438085D02*
X173342142Y-109247609D01*
X138823810Y-106454819D02*
X139442857Y-106454819D01*
X139442857Y-106454819D02*
X139109524Y-106835771D01*
X139109524Y-106835771D02*
X139252381Y-106835771D01*
X139252381Y-106835771D02*
X139347619Y-106883390D01*
X139347619Y-106883390D02*
X139395238Y-106931009D01*
X139395238Y-106931009D02*
X139442857Y-107026247D01*
X139442857Y-107026247D02*
X139442857Y-107264342D01*
X139442857Y-107264342D02*
X139395238Y-107359580D01*
X139395238Y-107359580D02*
X139347619Y-107407200D01*
X139347619Y-107407200D02*
X139252381Y-107454819D01*
X139252381Y-107454819D02*
X138966667Y-107454819D01*
X138966667Y-107454819D02*
X138871429Y-107407200D01*
X138871429Y-107407200D02*
X138823810Y-107359580D01*
X139871429Y-107359580D02*
X139919048Y-107407200D01*
X139919048Y-107407200D02*
X139871429Y-107454819D01*
X139871429Y-107454819D02*
X139823810Y-107407200D01*
X139823810Y-107407200D02*
X139871429Y-107359580D01*
X139871429Y-107359580D02*
X139871429Y-107454819D01*
X140252381Y-106454819D02*
X140871428Y-106454819D01*
X140871428Y-106454819D02*
X140538095Y-106835771D01*
X140538095Y-106835771D02*
X140680952Y-106835771D01*
X140680952Y-106835771D02*
X140776190Y-106883390D01*
X140776190Y-106883390D02*
X140823809Y-106931009D01*
X140823809Y-106931009D02*
X140871428Y-107026247D01*
X140871428Y-107026247D02*
X140871428Y-107264342D01*
X140871428Y-107264342D02*
X140823809Y-107359580D01*
X140823809Y-107359580D02*
X140776190Y-107407200D01*
X140776190Y-107407200D02*
X140680952Y-107454819D01*
X140680952Y-107454819D02*
X140395238Y-107454819D01*
X140395238Y-107454819D02*
X140300000Y-107407200D01*
X140300000Y-107407200D02*
X140252381Y-107359580D01*
X141157143Y-106454819D02*
X141490476Y-107454819D01*
X141490476Y-107454819D02*
X141823809Y-106454819D01*
X118395237Y-102454819D02*
X117919047Y-102454819D01*
X117919047Y-102454819D02*
X117919047Y-101454819D01*
X118871428Y-102454819D02*
X118776190Y-102407200D01*
X118776190Y-102407200D02*
X118728571Y-102359580D01*
X118728571Y-102359580D02*
X118680952Y-102264342D01*
X118680952Y-102264342D02*
X118680952Y-101978628D01*
X118680952Y-101978628D02*
X118728571Y-101883390D01*
X118728571Y-101883390D02*
X118776190Y-101835771D01*
X118776190Y-101835771D02*
X118871428Y-101788152D01*
X118871428Y-101788152D02*
X119014285Y-101788152D01*
X119014285Y-101788152D02*
X119109523Y-101835771D01*
X119109523Y-101835771D02*
X119157142Y-101883390D01*
X119157142Y-101883390D02*
X119204761Y-101978628D01*
X119204761Y-101978628D02*
X119204761Y-102264342D01*
X119204761Y-102264342D02*
X119157142Y-102359580D01*
X119157142Y-102359580D02*
X119109523Y-102407200D01*
X119109523Y-102407200D02*
X119014285Y-102454819D01*
X119014285Y-102454819D02*
X118871428Y-102454819D01*
X119633333Y-102454819D02*
X119633333Y-101788152D01*
X119633333Y-101978628D02*
X119680952Y-101883390D01*
X119680952Y-101883390D02*
X119728571Y-101835771D01*
X119728571Y-101835771D02*
X119823809Y-101788152D01*
X119823809Y-101788152D02*
X119919047Y-101788152D01*
X120680952Y-102454819D02*
X120680952Y-101931009D01*
X120680952Y-101931009D02*
X120633333Y-101835771D01*
X120633333Y-101835771D02*
X120538095Y-101788152D01*
X120538095Y-101788152D02*
X120347619Y-101788152D01*
X120347619Y-101788152D02*
X120252381Y-101835771D01*
X120680952Y-102407200D02*
X120585714Y-102454819D01*
X120585714Y-102454819D02*
X120347619Y-102454819D01*
X120347619Y-102454819D02*
X120252381Y-102407200D01*
X120252381Y-102407200D02*
X120204762Y-102311961D01*
X120204762Y-102311961D02*
X120204762Y-102216723D01*
X120204762Y-102216723D02*
X120252381Y-102121485D01*
X120252381Y-102121485D02*
X120347619Y-102073866D01*
X120347619Y-102073866D02*
X120585714Y-102073866D01*
X120585714Y-102073866D02*
X120680952Y-102026247D01*
X126783333Y-128759580D02*
X126735714Y-128807200D01*
X126735714Y-128807200D02*
X126592857Y-128854819D01*
X126592857Y-128854819D02*
X126497619Y-128854819D01*
X126497619Y-128854819D02*
X126354762Y-128807200D01*
X126354762Y-128807200D02*
X126259524Y-128711961D01*
X126259524Y-128711961D02*
X126211905Y-128616723D01*
X126211905Y-128616723D02*
X126164286Y-128426247D01*
X126164286Y-128426247D02*
X126164286Y-128283390D01*
X126164286Y-128283390D02*
X126211905Y-128092914D01*
X126211905Y-128092914D02*
X126259524Y-127997676D01*
X126259524Y-127997676D02*
X126354762Y-127902438D01*
X126354762Y-127902438D02*
X126497619Y-127854819D01*
X126497619Y-127854819D02*
X126592857Y-127854819D01*
X126592857Y-127854819D02*
X126735714Y-127902438D01*
X126735714Y-127902438D02*
X126783333Y-127950057D01*
X127735714Y-128854819D02*
X127164286Y-128854819D01*
X127450000Y-128854819D02*
X127450000Y-127854819D01*
X127450000Y-127854819D02*
X127354762Y-127997676D01*
X127354762Y-127997676D02*
X127259524Y-128092914D01*
X127259524Y-128092914D02*
X127164286Y-128140533D01*
X154457142Y-53559580D02*
X154409523Y-53607200D01*
X154409523Y-53607200D02*
X154266666Y-53654819D01*
X154266666Y-53654819D02*
X154171428Y-53654819D01*
X154171428Y-53654819D02*
X154028571Y-53607200D01*
X154028571Y-53607200D02*
X153933333Y-53511961D01*
X153933333Y-53511961D02*
X153885714Y-53416723D01*
X153885714Y-53416723D02*
X153838095Y-53226247D01*
X153838095Y-53226247D02*
X153838095Y-53083390D01*
X153838095Y-53083390D02*
X153885714Y-52892914D01*
X153885714Y-52892914D02*
X153933333Y-52797676D01*
X153933333Y-52797676D02*
X154028571Y-52702438D01*
X154028571Y-52702438D02*
X154171428Y-52654819D01*
X154171428Y-52654819D02*
X154266666Y-52654819D01*
X154266666Y-52654819D02*
X154409523Y-52702438D01*
X154409523Y-52702438D02*
X154457142Y-52750057D01*
X155409523Y-53654819D02*
X154838095Y-53654819D01*
X155123809Y-53654819D02*
X155123809Y-52654819D01*
X155123809Y-52654819D02*
X155028571Y-52797676D01*
X155028571Y-52797676D02*
X154933333Y-52892914D01*
X154933333Y-52892914D02*
X154838095Y-52940533D01*
X156266666Y-52654819D02*
X156076190Y-52654819D01*
X156076190Y-52654819D02*
X155980952Y-52702438D01*
X155980952Y-52702438D02*
X155933333Y-52750057D01*
X155933333Y-52750057D02*
X155838095Y-52892914D01*
X155838095Y-52892914D02*
X155790476Y-53083390D01*
X155790476Y-53083390D02*
X155790476Y-53464342D01*
X155790476Y-53464342D02*
X155838095Y-53559580D01*
X155838095Y-53559580D02*
X155885714Y-53607200D01*
X155885714Y-53607200D02*
X155980952Y-53654819D01*
X155980952Y-53654819D02*
X156171428Y-53654819D01*
X156171428Y-53654819D02*
X156266666Y-53607200D01*
X156266666Y-53607200D02*
X156314285Y-53559580D01*
X156314285Y-53559580D02*
X156361904Y-53464342D01*
X156361904Y-53464342D02*
X156361904Y-53226247D01*
X156361904Y-53226247D02*
X156314285Y-53131009D01*
X156314285Y-53131009D02*
X156266666Y-53083390D01*
X156266666Y-53083390D02*
X156171428Y-53035771D01*
X156171428Y-53035771D02*
X155980952Y-53035771D01*
X155980952Y-53035771D02*
X155885714Y-53083390D01*
X155885714Y-53083390D02*
X155838095Y-53131009D01*
X155838095Y-53131009D02*
X155790476Y-53226247D01*
X142132142Y-97909580D02*
X142084523Y-97957200D01*
X142084523Y-97957200D02*
X141941666Y-98004819D01*
X141941666Y-98004819D02*
X141846428Y-98004819D01*
X141846428Y-98004819D02*
X141703571Y-97957200D01*
X141703571Y-97957200D02*
X141608333Y-97861961D01*
X141608333Y-97861961D02*
X141560714Y-97766723D01*
X141560714Y-97766723D02*
X141513095Y-97576247D01*
X141513095Y-97576247D02*
X141513095Y-97433390D01*
X141513095Y-97433390D02*
X141560714Y-97242914D01*
X141560714Y-97242914D02*
X141608333Y-97147676D01*
X141608333Y-97147676D02*
X141703571Y-97052438D01*
X141703571Y-97052438D02*
X141846428Y-97004819D01*
X141846428Y-97004819D02*
X141941666Y-97004819D01*
X141941666Y-97004819D02*
X142084523Y-97052438D01*
X142084523Y-97052438D02*
X142132142Y-97100057D01*
X143084523Y-98004819D02*
X142513095Y-98004819D01*
X142798809Y-98004819D02*
X142798809Y-97004819D01*
X142798809Y-97004819D02*
X142703571Y-97147676D01*
X142703571Y-97147676D02*
X142608333Y-97242914D01*
X142608333Y-97242914D02*
X142513095Y-97290533D01*
X143465476Y-97100057D02*
X143513095Y-97052438D01*
X143513095Y-97052438D02*
X143608333Y-97004819D01*
X143608333Y-97004819D02*
X143846428Y-97004819D01*
X143846428Y-97004819D02*
X143941666Y-97052438D01*
X143941666Y-97052438D02*
X143989285Y-97100057D01*
X143989285Y-97100057D02*
X144036904Y-97195295D01*
X144036904Y-97195295D02*
X144036904Y-97290533D01*
X144036904Y-97290533D02*
X143989285Y-97433390D01*
X143989285Y-97433390D02*
X143417857Y-98004819D01*
X143417857Y-98004819D02*
X144036904Y-98004819D01*
X141209523Y-64852438D02*
X141114285Y-64804819D01*
X141114285Y-64804819D02*
X140971428Y-64804819D01*
X140971428Y-64804819D02*
X140828571Y-64852438D01*
X140828571Y-64852438D02*
X140733333Y-64947676D01*
X140733333Y-64947676D02*
X140685714Y-65042914D01*
X140685714Y-65042914D02*
X140638095Y-65233390D01*
X140638095Y-65233390D02*
X140638095Y-65376247D01*
X140638095Y-65376247D02*
X140685714Y-65566723D01*
X140685714Y-65566723D02*
X140733333Y-65661961D01*
X140733333Y-65661961D02*
X140828571Y-65757200D01*
X140828571Y-65757200D02*
X140971428Y-65804819D01*
X140971428Y-65804819D02*
X141066666Y-65804819D01*
X141066666Y-65804819D02*
X141209523Y-65757200D01*
X141209523Y-65757200D02*
X141257142Y-65709580D01*
X141257142Y-65709580D02*
X141257142Y-65376247D01*
X141257142Y-65376247D02*
X141066666Y-65376247D01*
X141685714Y-65804819D02*
X141685714Y-64804819D01*
X141685714Y-64804819D02*
X142066666Y-64804819D01*
X142066666Y-64804819D02*
X142161904Y-64852438D01*
X142161904Y-64852438D02*
X142209523Y-64900057D01*
X142209523Y-64900057D02*
X142257142Y-64995295D01*
X142257142Y-64995295D02*
X142257142Y-65138152D01*
X142257142Y-65138152D02*
X142209523Y-65233390D01*
X142209523Y-65233390D02*
X142161904Y-65281009D01*
X142161904Y-65281009D02*
X142066666Y-65328628D01*
X142066666Y-65328628D02*
X141685714Y-65328628D01*
X142638095Y-65757200D02*
X142780952Y-65804819D01*
X142780952Y-65804819D02*
X143019047Y-65804819D01*
X143019047Y-65804819D02*
X143114285Y-65757200D01*
X143114285Y-65757200D02*
X143161904Y-65709580D01*
X143161904Y-65709580D02*
X143209523Y-65614342D01*
X143209523Y-65614342D02*
X143209523Y-65519104D01*
X143209523Y-65519104D02*
X143161904Y-65423866D01*
X143161904Y-65423866D02*
X143114285Y-65376247D01*
X143114285Y-65376247D02*
X143019047Y-65328628D01*
X143019047Y-65328628D02*
X142828571Y-65281009D01*
X142828571Y-65281009D02*
X142733333Y-65233390D01*
X142733333Y-65233390D02*
X142685714Y-65185771D01*
X142685714Y-65185771D02*
X142638095Y-65090533D01*
X142638095Y-65090533D02*
X142638095Y-64995295D01*
X142638095Y-64995295D02*
X142685714Y-64900057D01*
X142685714Y-64900057D02*
X142733333Y-64852438D01*
X142733333Y-64852438D02*
X142828571Y-64804819D01*
X142828571Y-64804819D02*
X143066666Y-64804819D01*
X143066666Y-64804819D02*
X143209523Y-64852438D01*
X144161904Y-65804819D02*
X143590476Y-65804819D01*
X143876190Y-65804819D02*
X143876190Y-64804819D01*
X143876190Y-64804819D02*
X143780952Y-64947676D01*
X143780952Y-64947676D02*
X143685714Y-65042914D01*
X143685714Y-65042914D02*
X143590476Y-65090533D01*
X175083333Y-101359580D02*
X175035714Y-101407200D01*
X175035714Y-101407200D02*
X174892857Y-101454819D01*
X174892857Y-101454819D02*
X174797619Y-101454819D01*
X174797619Y-101454819D02*
X174654762Y-101407200D01*
X174654762Y-101407200D02*
X174559524Y-101311961D01*
X174559524Y-101311961D02*
X174511905Y-101216723D01*
X174511905Y-101216723D02*
X174464286Y-101026247D01*
X174464286Y-101026247D02*
X174464286Y-100883390D01*
X174464286Y-100883390D02*
X174511905Y-100692914D01*
X174511905Y-100692914D02*
X174559524Y-100597676D01*
X174559524Y-100597676D02*
X174654762Y-100502438D01*
X174654762Y-100502438D02*
X174797619Y-100454819D01*
X174797619Y-100454819D02*
X174892857Y-100454819D01*
X174892857Y-100454819D02*
X175035714Y-100502438D01*
X175035714Y-100502438D02*
X175083333Y-100550057D01*
X175988095Y-100454819D02*
X175511905Y-100454819D01*
X175511905Y-100454819D02*
X175464286Y-100931009D01*
X175464286Y-100931009D02*
X175511905Y-100883390D01*
X175511905Y-100883390D02*
X175607143Y-100835771D01*
X175607143Y-100835771D02*
X175845238Y-100835771D01*
X175845238Y-100835771D02*
X175940476Y-100883390D01*
X175940476Y-100883390D02*
X175988095Y-100931009D01*
X175988095Y-100931009D02*
X176035714Y-101026247D01*
X176035714Y-101026247D02*
X176035714Y-101264342D01*
X176035714Y-101264342D02*
X175988095Y-101359580D01*
X175988095Y-101359580D02*
X175940476Y-101407200D01*
X175940476Y-101407200D02*
X175845238Y-101454819D01*
X175845238Y-101454819D02*
X175607143Y-101454819D01*
X175607143Y-101454819D02*
X175511905Y-101407200D01*
X175511905Y-101407200D02*
X175464286Y-101359580D01*
X143452381Y-69324819D02*
X143452381Y-68324819D01*
X144642856Y-68277200D02*
X143785714Y-69562914D01*
X145166666Y-68324819D02*
X145357142Y-68324819D01*
X145357142Y-68324819D02*
X145452380Y-68372438D01*
X145452380Y-68372438D02*
X145547618Y-68467676D01*
X145547618Y-68467676D02*
X145595237Y-68658152D01*
X145595237Y-68658152D02*
X145595237Y-68991485D01*
X145595237Y-68991485D02*
X145547618Y-69181961D01*
X145547618Y-69181961D02*
X145452380Y-69277200D01*
X145452380Y-69277200D02*
X145357142Y-69324819D01*
X145357142Y-69324819D02*
X145166666Y-69324819D01*
X145166666Y-69324819D02*
X145071428Y-69277200D01*
X145071428Y-69277200D02*
X144976190Y-69181961D01*
X144976190Y-69181961D02*
X144928571Y-68991485D01*
X144928571Y-68991485D02*
X144928571Y-68658152D01*
X144928571Y-68658152D02*
X144976190Y-68467676D01*
X144976190Y-68467676D02*
X145071428Y-68372438D01*
X145071428Y-68372438D02*
X145166666Y-68324819D01*
X145557142Y-110959580D02*
X145509523Y-111007200D01*
X145509523Y-111007200D02*
X145366666Y-111054819D01*
X145366666Y-111054819D02*
X145271428Y-111054819D01*
X145271428Y-111054819D02*
X145128571Y-111007200D01*
X145128571Y-111007200D02*
X145033333Y-110911961D01*
X145033333Y-110911961D02*
X144985714Y-110816723D01*
X144985714Y-110816723D02*
X144938095Y-110626247D01*
X144938095Y-110626247D02*
X144938095Y-110483390D01*
X144938095Y-110483390D02*
X144985714Y-110292914D01*
X144985714Y-110292914D02*
X145033333Y-110197676D01*
X145033333Y-110197676D02*
X145128571Y-110102438D01*
X145128571Y-110102438D02*
X145271428Y-110054819D01*
X145271428Y-110054819D02*
X145366666Y-110054819D01*
X145366666Y-110054819D02*
X145509523Y-110102438D01*
X145509523Y-110102438D02*
X145557142Y-110150057D01*
X146509523Y-111054819D02*
X145938095Y-111054819D01*
X146223809Y-111054819D02*
X146223809Y-110054819D01*
X146223809Y-110054819D02*
X146128571Y-110197676D01*
X146128571Y-110197676D02*
X146033333Y-110292914D01*
X146033333Y-110292914D02*
X145938095Y-110340533D01*
X147461904Y-111054819D02*
X146890476Y-111054819D01*
X147176190Y-111054819D02*
X147176190Y-110054819D01*
X147176190Y-110054819D02*
X147080952Y-110197676D01*
X147080952Y-110197676D02*
X146985714Y-110292914D01*
X146985714Y-110292914D02*
X146890476Y-110340533D01*
X154407142Y-60829580D02*
X154359523Y-60877200D01*
X154359523Y-60877200D02*
X154216666Y-60924819D01*
X154216666Y-60924819D02*
X154121428Y-60924819D01*
X154121428Y-60924819D02*
X153978571Y-60877200D01*
X153978571Y-60877200D02*
X153883333Y-60781961D01*
X153883333Y-60781961D02*
X153835714Y-60686723D01*
X153835714Y-60686723D02*
X153788095Y-60496247D01*
X153788095Y-60496247D02*
X153788095Y-60353390D01*
X153788095Y-60353390D02*
X153835714Y-60162914D01*
X153835714Y-60162914D02*
X153883333Y-60067676D01*
X153883333Y-60067676D02*
X153978571Y-59972438D01*
X153978571Y-59972438D02*
X154121428Y-59924819D01*
X154121428Y-59924819D02*
X154216666Y-59924819D01*
X154216666Y-59924819D02*
X154359523Y-59972438D01*
X154359523Y-59972438D02*
X154407142Y-60020057D01*
X155359523Y-60924819D02*
X154788095Y-60924819D01*
X155073809Y-60924819D02*
X155073809Y-59924819D01*
X155073809Y-59924819D02*
X154978571Y-60067676D01*
X154978571Y-60067676D02*
X154883333Y-60162914D01*
X154883333Y-60162914D02*
X154788095Y-60210533D01*
X156264285Y-59924819D02*
X155788095Y-59924819D01*
X155788095Y-59924819D02*
X155740476Y-60401009D01*
X155740476Y-60401009D02*
X155788095Y-60353390D01*
X155788095Y-60353390D02*
X155883333Y-60305771D01*
X155883333Y-60305771D02*
X156121428Y-60305771D01*
X156121428Y-60305771D02*
X156216666Y-60353390D01*
X156216666Y-60353390D02*
X156264285Y-60401009D01*
X156264285Y-60401009D02*
X156311904Y-60496247D01*
X156311904Y-60496247D02*
X156311904Y-60734342D01*
X156311904Y-60734342D02*
X156264285Y-60829580D01*
X156264285Y-60829580D02*
X156216666Y-60877200D01*
X156216666Y-60877200D02*
X156121428Y-60924819D01*
X156121428Y-60924819D02*
X155883333Y-60924819D01*
X155883333Y-60924819D02*
X155788095Y-60877200D01*
X155788095Y-60877200D02*
X155740476Y-60829580D01*
X120511310Y-132554819D02*
X121130357Y-132554819D01*
X121130357Y-132554819D02*
X120797024Y-132935771D01*
X120797024Y-132935771D02*
X120939881Y-132935771D01*
X120939881Y-132935771D02*
X121035119Y-132983390D01*
X121035119Y-132983390D02*
X121082738Y-133031009D01*
X121082738Y-133031009D02*
X121130357Y-133126247D01*
X121130357Y-133126247D02*
X121130357Y-133364342D01*
X121130357Y-133364342D02*
X121082738Y-133459580D01*
X121082738Y-133459580D02*
X121035119Y-133507200D01*
X121035119Y-133507200D02*
X120939881Y-133554819D01*
X120939881Y-133554819D02*
X120654167Y-133554819D01*
X120654167Y-133554819D02*
X120558929Y-133507200D01*
X120558929Y-133507200D02*
X120511310Y-133459580D01*
X121558929Y-133459580D02*
X121606548Y-133507200D01*
X121606548Y-133507200D02*
X121558929Y-133554819D01*
X121558929Y-133554819D02*
X121511310Y-133507200D01*
X121511310Y-133507200D02*
X121558929Y-133459580D01*
X121558929Y-133459580D02*
X121558929Y-133554819D01*
X121939881Y-132554819D02*
X122558928Y-132554819D01*
X122558928Y-132554819D02*
X122225595Y-132935771D01*
X122225595Y-132935771D02*
X122368452Y-132935771D01*
X122368452Y-132935771D02*
X122463690Y-132983390D01*
X122463690Y-132983390D02*
X122511309Y-133031009D01*
X122511309Y-133031009D02*
X122558928Y-133126247D01*
X122558928Y-133126247D02*
X122558928Y-133364342D01*
X122558928Y-133364342D02*
X122511309Y-133459580D01*
X122511309Y-133459580D02*
X122463690Y-133507200D01*
X122463690Y-133507200D02*
X122368452Y-133554819D01*
X122368452Y-133554819D02*
X122082738Y-133554819D01*
X122082738Y-133554819D02*
X121987500Y-133507200D01*
X121987500Y-133507200D02*
X121939881Y-133459580D01*
X122844643Y-132554819D02*
X123177976Y-133554819D01*
X123177976Y-133554819D02*
X123511309Y-132554819D01*
X137333333Y-127359580D02*
X137285714Y-127407200D01*
X137285714Y-127407200D02*
X137142857Y-127454819D01*
X137142857Y-127454819D02*
X137047619Y-127454819D01*
X137047619Y-127454819D02*
X136904762Y-127407200D01*
X136904762Y-127407200D02*
X136809524Y-127311961D01*
X136809524Y-127311961D02*
X136761905Y-127216723D01*
X136761905Y-127216723D02*
X136714286Y-127026247D01*
X136714286Y-127026247D02*
X136714286Y-126883390D01*
X136714286Y-126883390D02*
X136761905Y-126692914D01*
X136761905Y-126692914D02*
X136809524Y-126597676D01*
X136809524Y-126597676D02*
X136904762Y-126502438D01*
X136904762Y-126502438D02*
X137047619Y-126454819D01*
X137047619Y-126454819D02*
X137142857Y-126454819D01*
X137142857Y-126454819D02*
X137285714Y-126502438D01*
X137285714Y-126502438D02*
X137333333Y-126550057D01*
X137904762Y-126883390D02*
X137809524Y-126835771D01*
X137809524Y-126835771D02*
X137761905Y-126788152D01*
X137761905Y-126788152D02*
X137714286Y-126692914D01*
X137714286Y-126692914D02*
X137714286Y-126645295D01*
X137714286Y-126645295D02*
X137761905Y-126550057D01*
X137761905Y-126550057D02*
X137809524Y-126502438D01*
X137809524Y-126502438D02*
X137904762Y-126454819D01*
X137904762Y-126454819D02*
X138095238Y-126454819D01*
X138095238Y-126454819D02*
X138190476Y-126502438D01*
X138190476Y-126502438D02*
X138238095Y-126550057D01*
X138238095Y-126550057D02*
X138285714Y-126645295D01*
X138285714Y-126645295D02*
X138285714Y-126692914D01*
X138285714Y-126692914D02*
X138238095Y-126788152D01*
X138238095Y-126788152D02*
X138190476Y-126835771D01*
X138190476Y-126835771D02*
X138095238Y-126883390D01*
X138095238Y-126883390D02*
X137904762Y-126883390D01*
X137904762Y-126883390D02*
X137809524Y-126931009D01*
X137809524Y-126931009D02*
X137761905Y-126978628D01*
X137761905Y-126978628D02*
X137714286Y-127073866D01*
X137714286Y-127073866D02*
X137714286Y-127264342D01*
X137714286Y-127264342D02*
X137761905Y-127359580D01*
X137761905Y-127359580D02*
X137809524Y-127407200D01*
X137809524Y-127407200D02*
X137904762Y-127454819D01*
X137904762Y-127454819D02*
X138095238Y-127454819D01*
X138095238Y-127454819D02*
X138190476Y-127407200D01*
X138190476Y-127407200D02*
X138238095Y-127359580D01*
X138238095Y-127359580D02*
X138285714Y-127264342D01*
X138285714Y-127264342D02*
X138285714Y-127073866D01*
X138285714Y-127073866D02*
X138238095Y-126978628D01*
X138238095Y-126978628D02*
X138190476Y-126931009D01*
X138190476Y-126931009D02*
X138095238Y-126883390D01*
X121909523Y-136104819D02*
X121433333Y-136104819D01*
X121433333Y-136104819D02*
X121385714Y-136581009D01*
X121385714Y-136581009D02*
X121433333Y-136533390D01*
X121433333Y-136533390D02*
X121528571Y-136485771D01*
X121528571Y-136485771D02*
X121766666Y-136485771D01*
X121766666Y-136485771D02*
X121861904Y-136533390D01*
X121861904Y-136533390D02*
X121909523Y-136581009D01*
X121909523Y-136581009D02*
X121957142Y-136676247D01*
X121957142Y-136676247D02*
X121957142Y-136914342D01*
X121957142Y-136914342D02*
X121909523Y-137009580D01*
X121909523Y-137009580D02*
X121861904Y-137057200D01*
X121861904Y-137057200D02*
X121766666Y-137104819D01*
X121766666Y-137104819D02*
X121528571Y-137104819D01*
X121528571Y-137104819D02*
X121433333Y-137057200D01*
X121433333Y-137057200D02*
X121385714Y-137009580D01*
X122242857Y-136104819D02*
X122576190Y-137104819D01*
X122576190Y-137104819D02*
X122909523Y-136104819D01*
X145583333Y-127339580D02*
X145535714Y-127387200D01*
X145535714Y-127387200D02*
X145392857Y-127434819D01*
X145392857Y-127434819D02*
X145297619Y-127434819D01*
X145297619Y-127434819D02*
X145154762Y-127387200D01*
X145154762Y-127387200D02*
X145059524Y-127291961D01*
X145059524Y-127291961D02*
X145011905Y-127196723D01*
X145011905Y-127196723D02*
X144964286Y-127006247D01*
X144964286Y-127006247D02*
X144964286Y-126863390D01*
X144964286Y-126863390D02*
X145011905Y-126672914D01*
X145011905Y-126672914D02*
X145059524Y-126577676D01*
X145059524Y-126577676D02*
X145154762Y-126482438D01*
X145154762Y-126482438D02*
X145297619Y-126434819D01*
X145297619Y-126434819D02*
X145392857Y-126434819D01*
X145392857Y-126434819D02*
X145535714Y-126482438D01*
X145535714Y-126482438D02*
X145583333Y-126530057D01*
X146059524Y-127434819D02*
X146250000Y-127434819D01*
X146250000Y-127434819D02*
X146345238Y-127387200D01*
X146345238Y-127387200D02*
X146392857Y-127339580D01*
X146392857Y-127339580D02*
X146488095Y-127196723D01*
X146488095Y-127196723D02*
X146535714Y-127006247D01*
X146535714Y-127006247D02*
X146535714Y-126625295D01*
X146535714Y-126625295D02*
X146488095Y-126530057D01*
X146488095Y-126530057D02*
X146440476Y-126482438D01*
X146440476Y-126482438D02*
X146345238Y-126434819D01*
X146345238Y-126434819D02*
X146154762Y-126434819D01*
X146154762Y-126434819D02*
X146059524Y-126482438D01*
X146059524Y-126482438D02*
X146011905Y-126530057D01*
X146011905Y-126530057D02*
X145964286Y-126625295D01*
X145964286Y-126625295D02*
X145964286Y-126863390D01*
X145964286Y-126863390D02*
X146011905Y-126958628D01*
X146011905Y-126958628D02*
X146059524Y-127006247D01*
X146059524Y-127006247D02*
X146154762Y-127053866D01*
X146154762Y-127053866D02*
X146345238Y-127053866D01*
X146345238Y-127053866D02*
X146440476Y-127006247D01*
X146440476Y-127006247D02*
X146488095Y-126958628D01*
X146488095Y-126958628D02*
X146535714Y-126863390D01*
X133907142Y-116409580D02*
X133859523Y-116457200D01*
X133859523Y-116457200D02*
X133716666Y-116504819D01*
X133716666Y-116504819D02*
X133621428Y-116504819D01*
X133621428Y-116504819D02*
X133478571Y-116457200D01*
X133478571Y-116457200D02*
X133383333Y-116361961D01*
X133383333Y-116361961D02*
X133335714Y-116266723D01*
X133335714Y-116266723D02*
X133288095Y-116076247D01*
X133288095Y-116076247D02*
X133288095Y-115933390D01*
X133288095Y-115933390D02*
X133335714Y-115742914D01*
X133335714Y-115742914D02*
X133383333Y-115647676D01*
X133383333Y-115647676D02*
X133478571Y-115552438D01*
X133478571Y-115552438D02*
X133621428Y-115504819D01*
X133621428Y-115504819D02*
X133716666Y-115504819D01*
X133716666Y-115504819D02*
X133859523Y-115552438D01*
X133859523Y-115552438D02*
X133907142Y-115600057D01*
X134859523Y-116504819D02*
X134288095Y-116504819D01*
X134573809Y-116504819D02*
X134573809Y-115504819D01*
X134573809Y-115504819D02*
X134478571Y-115647676D01*
X134478571Y-115647676D02*
X134383333Y-115742914D01*
X134383333Y-115742914D02*
X134288095Y-115790533D01*
X135478571Y-115504819D02*
X135573809Y-115504819D01*
X135573809Y-115504819D02*
X135669047Y-115552438D01*
X135669047Y-115552438D02*
X135716666Y-115600057D01*
X135716666Y-115600057D02*
X135764285Y-115695295D01*
X135764285Y-115695295D02*
X135811904Y-115885771D01*
X135811904Y-115885771D02*
X135811904Y-116123866D01*
X135811904Y-116123866D02*
X135764285Y-116314342D01*
X135764285Y-116314342D02*
X135716666Y-116409580D01*
X135716666Y-116409580D02*
X135669047Y-116457200D01*
X135669047Y-116457200D02*
X135573809Y-116504819D01*
X135573809Y-116504819D02*
X135478571Y-116504819D01*
X135478571Y-116504819D02*
X135383333Y-116457200D01*
X135383333Y-116457200D02*
X135335714Y-116409580D01*
X135335714Y-116409580D02*
X135288095Y-116314342D01*
X135288095Y-116314342D02*
X135240476Y-116123866D01*
X135240476Y-116123866D02*
X135240476Y-115885771D01*
X135240476Y-115885771D02*
X135288095Y-115695295D01*
X135288095Y-115695295D02*
X135335714Y-115600057D01*
X135335714Y-115600057D02*
X135383333Y-115552438D01*
X135383333Y-115552438D02*
X135478571Y-115504819D01*
X118458333Y-137104819D02*
X118125000Y-136628628D01*
X117886905Y-137104819D02*
X117886905Y-136104819D01*
X117886905Y-136104819D02*
X118267857Y-136104819D01*
X118267857Y-136104819D02*
X118363095Y-136152438D01*
X118363095Y-136152438D02*
X118410714Y-136200057D01*
X118410714Y-136200057D02*
X118458333Y-136295295D01*
X118458333Y-136295295D02*
X118458333Y-136438152D01*
X118458333Y-136438152D02*
X118410714Y-136533390D01*
X118410714Y-136533390D02*
X118363095Y-136581009D01*
X118363095Y-136581009D02*
X118267857Y-136628628D01*
X118267857Y-136628628D02*
X117886905Y-136628628D01*
X119410714Y-137104819D02*
X118839286Y-137104819D01*
X119125000Y-137104819D02*
X119125000Y-136104819D01*
X119125000Y-136104819D02*
X119029762Y-136247676D01*
X119029762Y-136247676D02*
X118934524Y-136342914D01*
X118934524Y-136342914D02*
X118839286Y-136390533D01*
X169083333Y-112409580D02*
X169035714Y-112457200D01*
X169035714Y-112457200D02*
X168892857Y-112504819D01*
X168892857Y-112504819D02*
X168797619Y-112504819D01*
X168797619Y-112504819D02*
X168654762Y-112457200D01*
X168654762Y-112457200D02*
X168559524Y-112361961D01*
X168559524Y-112361961D02*
X168511905Y-112266723D01*
X168511905Y-112266723D02*
X168464286Y-112076247D01*
X168464286Y-112076247D02*
X168464286Y-111933390D01*
X168464286Y-111933390D02*
X168511905Y-111742914D01*
X168511905Y-111742914D02*
X168559524Y-111647676D01*
X168559524Y-111647676D02*
X168654762Y-111552438D01*
X168654762Y-111552438D02*
X168797619Y-111504819D01*
X168797619Y-111504819D02*
X168892857Y-111504819D01*
X168892857Y-111504819D02*
X169035714Y-111552438D01*
X169035714Y-111552438D02*
X169083333Y-111600057D01*
X169416667Y-111504819D02*
X170083333Y-111504819D01*
X170083333Y-111504819D02*
X169654762Y-112504819D01*
X169550000Y-87602200D02*
X169692857Y-87649819D01*
X169692857Y-87649819D02*
X169930952Y-87649819D01*
X169930952Y-87649819D02*
X170026190Y-87602200D01*
X170026190Y-87602200D02*
X170073809Y-87554580D01*
X170073809Y-87554580D02*
X170121428Y-87459342D01*
X170121428Y-87459342D02*
X170121428Y-87364104D01*
X170121428Y-87364104D02*
X170073809Y-87268866D01*
X170073809Y-87268866D02*
X170026190Y-87221247D01*
X170026190Y-87221247D02*
X169930952Y-87173628D01*
X169930952Y-87173628D02*
X169740476Y-87126009D01*
X169740476Y-87126009D02*
X169645238Y-87078390D01*
X169645238Y-87078390D02*
X169597619Y-87030771D01*
X169597619Y-87030771D02*
X169550000Y-86935533D01*
X169550000Y-86935533D02*
X169550000Y-86840295D01*
X169550000Y-86840295D02*
X169597619Y-86745057D01*
X169597619Y-86745057D02*
X169645238Y-86697438D01*
X169645238Y-86697438D02*
X169740476Y-86649819D01*
X169740476Y-86649819D02*
X169978571Y-86649819D01*
X169978571Y-86649819D02*
X170121428Y-86697438D01*
X170550000Y-87649819D02*
X170550000Y-86649819D01*
X170550000Y-86649819D02*
X170930952Y-86649819D01*
X170930952Y-86649819D02*
X171026190Y-86697438D01*
X171026190Y-86697438D02*
X171073809Y-86745057D01*
X171073809Y-86745057D02*
X171121428Y-86840295D01*
X171121428Y-86840295D02*
X171121428Y-86983152D01*
X171121428Y-86983152D02*
X171073809Y-87078390D01*
X171073809Y-87078390D02*
X171026190Y-87126009D01*
X171026190Y-87126009D02*
X170930952Y-87173628D01*
X170930952Y-87173628D02*
X170550000Y-87173628D01*
X171550000Y-87649819D02*
X171550000Y-86649819D01*
X172549999Y-87649819D02*
X171978571Y-87649819D01*
X172264285Y-87649819D02*
X172264285Y-86649819D01*
X172264285Y-86649819D02*
X172169047Y-86792676D01*
X172169047Y-86792676D02*
X172073809Y-86887914D01*
X172073809Y-86887914D02*
X171978571Y-86935533D01*
X171273810Y-119134819D02*
X171273810Y-118134819D01*
X171702381Y-118230057D02*
X171750000Y-118182438D01*
X171750000Y-118182438D02*
X171845238Y-118134819D01*
X171845238Y-118134819D02*
X172083333Y-118134819D01*
X172083333Y-118134819D02*
X172178571Y-118182438D01*
X172178571Y-118182438D02*
X172226190Y-118230057D01*
X172226190Y-118230057D02*
X172273809Y-118325295D01*
X172273809Y-118325295D02*
X172273809Y-118420533D01*
X172273809Y-118420533D02*
X172226190Y-118563390D01*
X172226190Y-118563390D02*
X171654762Y-119134819D01*
X171654762Y-119134819D02*
X172273809Y-119134819D01*
X173273809Y-119039580D02*
X173226190Y-119087200D01*
X173226190Y-119087200D02*
X173083333Y-119134819D01*
X173083333Y-119134819D02*
X172988095Y-119134819D01*
X172988095Y-119134819D02*
X172845238Y-119087200D01*
X172845238Y-119087200D02*
X172750000Y-118991961D01*
X172750000Y-118991961D02*
X172702381Y-118896723D01*
X172702381Y-118896723D02*
X172654762Y-118706247D01*
X172654762Y-118706247D02*
X172654762Y-118563390D01*
X172654762Y-118563390D02*
X172702381Y-118372914D01*
X172702381Y-118372914D02*
X172750000Y-118277676D01*
X172750000Y-118277676D02*
X172845238Y-118182438D01*
X172845238Y-118182438D02*
X172988095Y-118134819D01*
X172988095Y-118134819D02*
X173083333Y-118134819D01*
X173083333Y-118134819D02*
X173226190Y-118182438D01*
X173226190Y-118182438D02*
X173273809Y-118230057D01*
D14*
%TO.C,C14*%
X141960000Y-101609420D02*
X141960000Y-101890580D01*
X140940000Y-101609420D02*
X140940000Y-101890580D01*
%TO.C,C4*%
X120585000Y-125438748D02*
X120585000Y-125961252D01*
X119115000Y-125438748D02*
X119115000Y-125961252D01*
%TO.C,BT1*%
X144650000Y-142285000D02*
X144060000Y-142285000D01*
X144650000Y-140065000D02*
X144060000Y-140065000D01*
X144060000Y-144385000D02*
X144060000Y-142285000D01*
X144060000Y-144385000D02*
X133940000Y-144385000D01*
X144060000Y-140065000D02*
X144060000Y-135165000D01*
X144060000Y-135165000D02*
X133940000Y-135165000D01*
X133940000Y-144385000D02*
X133940000Y-142285000D01*
X133940000Y-142285000D02*
X133350000Y-142285000D01*
X133940000Y-140065000D02*
X133940000Y-135165000D01*
X133940000Y-140065000D02*
X133350000Y-140065000D01*
X144650000Y-142285000D02*
G75*
G03*
X144650000Y-140065000I0J1110000D01*
G01*
X133350000Y-140065000D02*
G75*
G03*
X133350000Y-142285000I0J-1110000D01*
G01*
%TO.C,C13*%
X147010000Y-101109420D02*
X147010000Y-101390580D01*
X145990000Y-101109420D02*
X145990000Y-101390580D01*
%TO.C,C3*%
X124185000Y-125488748D02*
X124185000Y-126011252D01*
X122715000Y-125488748D02*
X122715000Y-126011252D01*
%TO.C,5V*%
X136300000Y-117240000D02*
X142310000Y-117240000D01*
X138550000Y-124060000D02*
X142310000Y-124060000D01*
X142310000Y-117240000D02*
X142310000Y-118500000D01*
X142310000Y-124060000D02*
X142310000Y-122800000D01*
%TO.C,J1*%
X139430000Y-59780000D02*
X138100000Y-59780000D01*
X139430000Y-58450000D02*
X139430000Y-59780000D01*
X139430000Y-57180000D02*
X139430000Y-52040000D01*
X139430000Y-57180000D02*
X136770000Y-57180000D01*
X139430000Y-52040000D02*
X136770000Y-52040000D01*
X136770000Y-57180000D02*
X136770000Y-52040000D01*
%TO.C,C6*%
X174390000Y-108240580D02*
X174390000Y-107959420D01*
X175410000Y-108240580D02*
X175410000Y-107959420D01*
%TO.C,R3*%
X170562742Y-133527500D02*
X171037258Y-133527500D01*
X170562742Y-134572500D02*
X171037258Y-134572500D01*
%TO.C,R2*%
X118287742Y-130927500D02*
X118762258Y-130927500D01*
X118287742Y-131972500D02*
X118762258Y-131972500D01*
%TO.C,C2*%
X167940000Y-99340580D02*
X167940000Y-99059420D01*
X168960000Y-99340580D02*
X168960000Y-99059420D01*
%TO.C,SPI*%
X169820000Y-77970000D02*
X171150000Y-77970000D01*
X169820000Y-79300000D02*
X169820000Y-77970000D01*
X169820000Y-80570000D02*
X169820000Y-85710000D01*
X169820000Y-80570000D02*
X172480000Y-80570000D01*
X169820000Y-85710000D02*
X172480000Y-85710000D01*
X172480000Y-80570000D02*
X172480000Y-85710000D01*
%TO.C,Status*%
X172602500Y-133315000D02*
X172602500Y-134785000D01*
X172602500Y-134785000D02*
X174887500Y-134785000D01*
X174887500Y-133315000D02*
X172602500Y-133315000D01*
D15*
%TO.C,Baro*%
X173131100Y-109431100D02*
X173131100Y-108805042D01*
X173131100Y-107694958D02*
X173131100Y-107068900D01*
X173131100Y-107068900D02*
X172755041Y-107068900D01*
X172755041Y-109431100D02*
X173131100Y-109431100D01*
X171144959Y-107068900D02*
X170768900Y-107068900D01*
X170768900Y-109431100D02*
X171144959Y-109431100D01*
X170768900Y-108805042D02*
X170768900Y-109431100D01*
X170768900Y-107068900D02*
X170768900Y-107694958D01*
G36*
X172640499Y-109658001D02*
G01*
X172259499Y-109658001D01*
X172259499Y-109404001D01*
X172640499Y-109404001D01*
X172640499Y-109658001D01*
G37*
D14*
%TO.C,3.3V*%
X136200000Y-108090000D02*
X142210000Y-108090000D01*
X138450000Y-114910000D02*
X142210000Y-114910000D01*
X142210000Y-108090000D02*
X142210000Y-109350000D01*
X142210000Y-114910000D02*
X142210000Y-113650000D01*
D16*
%TO.C,Lora*%
X131300000Y-123650000D02*
X117300000Y-123650000D01*
X131300000Y-103650000D02*
X131300000Y-123650000D01*
X129380000Y-122540000D02*
X119220000Y-122540000D01*
X129380000Y-108570000D02*
X129380000Y-122540000D01*
X126840000Y-108570000D02*
X129380000Y-108570000D01*
X126840000Y-104760000D02*
X126840000Y-108570000D01*
X119220000Y-122540000D02*
X119220000Y-104760000D01*
X119220000Y-104760000D02*
X126840000Y-104760000D01*
X117300000Y-123650000D02*
X117300000Y-103650000D01*
X117300000Y-103650000D02*
X131300000Y-103650000D01*
X130015000Y-104760000D02*
G75*
G03*
X129507000Y-104760000I-254000J0D01*
G01*
X129507000Y-104760000D02*
G75*
G03*
X130015000Y-104760000I254000J0D01*
G01*
X130142000Y-104760000D02*
G75*
G03*
X129380000Y-104760000I-381000J0D01*
G01*
X129380000Y-104760000D02*
G75*
G03*
X130142000Y-104760000I381000J0D01*
G01*
X129380000Y-105776000D02*
G75*
G03*
X127348000Y-105776000I-1016000J0D01*
G01*
X127348000Y-105776000D02*
G75*
G03*
X129380000Y-105776000I1016000J0D01*
G01*
D14*
%TO.C,C1*%
X127685000Y-125438748D02*
X127685000Y-125961252D01*
X126215000Y-125438748D02*
X126215000Y-125961252D01*
%TO.C,C16*%
X153834420Y-54390000D02*
X154115580Y-54390000D01*
X153834420Y-55410000D02*
X154115580Y-55410000D01*
%TO.C,C12*%
X143315580Y-99560000D02*
X143034420Y-99560000D01*
X143315580Y-98540000D02*
X143034420Y-98540000D01*
D15*
%TO.C,GPS1*%
X141670800Y-48597500D02*
X141670800Y-49239265D01*
X141670800Y-62560735D02*
X141670800Y-63202500D01*
X141670800Y-63202500D02*
X144038531Y-63202500D01*
X144038531Y-48597500D02*
X141670800Y-48597500D01*
X149361469Y-63202500D02*
X151729200Y-63202500D01*
X151729200Y-48597500D02*
X149361469Y-48597500D01*
X151729200Y-49239265D02*
X151729200Y-48597500D01*
X151729200Y-63202500D02*
X151729200Y-62560735D01*
D14*
%TO.C,C5*%
X175710000Y-98409420D02*
X175710000Y-98690580D01*
X174690000Y-98409420D02*
X174690000Y-98690580D01*
%TO.C,I/O*%
X143170000Y-69870000D02*
X144500000Y-69870000D01*
X143170000Y-71200000D02*
X143170000Y-69870000D01*
X143170000Y-72470000D02*
X143170000Y-82690000D01*
X143170000Y-72470000D02*
X145830000Y-72470000D01*
X143170000Y-82690000D02*
X145830000Y-82690000D01*
X145830000Y-72470000D02*
X145830000Y-82690000D01*
%TO.C,C11*%
X147135000Y-113038748D02*
X147135000Y-113561252D01*
X145665000Y-113038748D02*
X145665000Y-113561252D01*
%TO.C,C15*%
X154909420Y-61390000D02*
X155190580Y-61390000D01*
X154909420Y-62410000D02*
X155190580Y-62410000D01*
%TO.C,3.3V*%
X120490000Y-130765000D02*
X120490000Y-132235000D01*
X120490000Y-132235000D02*
X122775000Y-132235000D01*
X122775000Y-130765000D02*
X120490000Y-130765000D01*
D16*
%TO.C,IMU*%
X173237500Y-97600000D02*
X173237500Y-97850000D01*
X172237500Y-97600000D02*
X173237500Y-97600000D01*
X170237500Y-97600000D02*
X171237500Y-97600000D01*
X170237500Y-97850000D02*
X170237500Y-97600000D01*
X173237500Y-102100000D02*
X173237500Y-101850000D01*
X172237500Y-102100000D02*
X173237500Y-102100000D01*
X171237500Y-102100000D02*
X170237500Y-102100000D01*
X170237500Y-102100000D02*
X170237500Y-101850000D01*
D17*
X173937500Y-98221000D02*
G75*
G03*
X173737500Y-98221000I-100000J0D01*
G01*
X173737500Y-98221000D02*
G75*
G03*
X173937500Y-98221000I100000J0D01*
G01*
D14*
%TO.C,C8*%
X137409420Y-125040000D02*
X137690580Y-125040000D01*
X137409420Y-126060000D02*
X137690580Y-126060000D01*
%TO.C,5V*%
X120615000Y-134265000D02*
X120615000Y-135735000D01*
X120615000Y-135735000D02*
X122900000Y-135735000D01*
X122900000Y-134265000D02*
X120615000Y-134265000D01*
%TO.C,C9*%
X145890580Y-126060000D02*
X145609420Y-126060000D01*
X145890580Y-125040000D02*
X145609420Y-125040000D01*
%TO.C,C10*%
X137234420Y-115490000D02*
X137515580Y-115490000D01*
X137234420Y-116510000D02*
X137515580Y-116510000D01*
%TO.C,R1*%
X118862258Y-135522500D02*
X118387742Y-135522500D01*
X118862258Y-134477500D02*
X118387742Y-134477500D01*
D13*
%TO.C,BAT1*%
X124438400Y-76191700D02*
X124438400Y-73448500D01*
X132261600Y-76191700D02*
X132261600Y-73448500D01*
X124438400Y-73448500D02*
X127283200Y-73448500D01*
X132261600Y-73448500D02*
X129416800Y-73448500D01*
X139576800Y-86758100D02*
G75*
G03*
X117123200Y-86758100I-11226800J0D01*
G01*
X117123200Y-86758100D02*
G75*
G03*
X139576800Y-86758100I11226800J0D01*
G01*
D14*
%TO.C,C7*%
X172165580Y-111260000D02*
X171884420Y-111260000D01*
X172165580Y-110240000D02*
X171884420Y-110240000D01*
%TO.C,SPI1*%
X169720000Y-88195000D02*
X171050000Y-88195000D01*
X169720000Y-89525000D02*
X169720000Y-88195000D01*
X169720000Y-90795000D02*
X169720000Y-95935000D01*
X169720000Y-90795000D02*
X172380000Y-90795000D01*
X169720000Y-95935000D02*
X172380000Y-95935000D01*
X172380000Y-90795000D02*
X172380000Y-95935000D01*
D16*
%TO.C,MCU1*%
X161110000Y-136040000D02*
X153050000Y-136040000D01*
X148190000Y-135340000D02*
X153050000Y-135340000D01*
X148190000Y-135340000D02*
X148190000Y-74380000D01*
X153050000Y-135340000D02*
X153050000Y-136040000D01*
X161110000Y-135340000D02*
X161110000Y-136040000D01*
X165970000Y-135340000D02*
X161110000Y-135340000D01*
X148190000Y-74380000D02*
X165970000Y-74380000D01*
X165970000Y-74380000D02*
X165970000Y-135340000D01*
D17*
X166680000Y-128990000D02*
G75*
G03*
X166480000Y-128990000I-100000J0D01*
G01*
X166480000Y-128990000D02*
G75*
G03*
X166680000Y-128990000I100000J0D01*
G01*
D14*
%TO.C,I2C*%
X173580000Y-117680000D02*
X172250000Y-117680000D01*
X173580000Y-116350000D02*
X173580000Y-117680000D01*
X173580000Y-115080000D02*
X173580000Y-112480000D01*
X173580000Y-115080000D02*
X170920000Y-115080000D01*
X173580000Y-112480000D02*
X170920000Y-112480000D01*
X170920000Y-115080000D02*
X170920000Y-112480000D01*
%TD*%
M02*
